<svg width="10" height="8" viewBox="0 0 10 8" fill="none" xmlns="http://www.w3.org/2000/svg">
<path fill-rule="evenodd" clip-rule="evenodd" d="M3.36003 0.799999C3.36003 0.358172 3.7182 0 4.16003 0H5.76C6.20183 0 6.56 0.358172 6.56 0.799999C6.56 1.24183 6.20183 1.6 5.76 1.6H4.16003C3.7182 1.6 3.36003 1.24183 3.36003 0.799999ZM1.60026 2.40002C1.60026 1.95819 1.95843 1.60002 2.40026 1.60002H7.52021C7.96204 1.60002 8.32021 1.95819 8.32021 2.40002C8.32021 2.84185 7.96204 3.20002 7.52021 3.20002H2.40026C1.95843 3.20002 1.60026 2.84185 1.60026 2.40002ZM0.799999 3.20004C0.358172 3.20004 0 3.55821 0 4.00004C0 4.44187 0.358173 4.80004 0.8 4.80004H2.39047C1.95315 4.80528 1.60026 5.16142 1.60026 5.59998C1.60026 6.04181 1.95843 6.39998 2.40026 6.39998H7.52021C7.96204 6.39998 8.32021 6.04181 8.32021 5.59998C8.32021 5.16142 7.96732 4.80528 7.53 4.80004H9.11993C9.56176 4.80004 9.91993 4.44187 9.91993 4.00004C9.91993 3.55821 9.56175 3.20004 9.11993 3.20004H0.799999ZM4.16003 6.4C3.7182 6.4 3.36003 6.75817 3.36003 7.2C3.36003 7.64183 3.7182 8 4.16003 8H5.76C6.20183 8 6.56 7.64183 6.56 7.2C6.56 6.75817 6.20183 6.4 5.76 6.4H4.16003Z" fill="#131D28"/>
</svg>
