<svg width="8" height="16" viewBox="0 0 8 16" fill="none" xmlns="http://www.w3.org/2000/svg">
<path d="M1.67655 16L4.05461 16C4.70374 16 5.23012 15.4886 5.23012 14.8569C5.23012 14.2253 4.70374 13.7139 4.05461 13.7139L1.67655 13.7139C1.02638 13.7139 0.5 14.2253 0.5 14.8569C0.5 15.4886 1.02638 16 1.67655 16Z" fill="#131D28"/>
<path d="M2.96561 13.7148L5.34368 13.7148C5.99281 13.7148 6.51918 13.2034 6.51918 12.5718C6.51918 11.9401 5.99281 11.4287 5.34368 11.4287L2.96561 11.4287C2.31544 11.4287 1.78906 11.9401 1.78906 12.5718C1.78906 13.2034 2.31544 13.7148 2.96561 13.7148Z" fill="#131D28"/>
<path d="M3.63749 11.4297L6.01555 11.4297C6.66572 11.4297 7.1921 10.9183 7.1921 10.2866C7.1921 9.65494 6.66572 9.14354 6.01555 9.14354L3.63749 9.14354C2.98836 9.14354 2.46094 9.65494 2.46094 10.2866C2.46094 10.9183 2.98836 11.4297 3.63749 11.4297Z" fill="#131D28"/>
<path d="M3.94608 9.14453L6.32415 9.14453C6.97328 9.14453 7.50069 8.63313 7.50069 8.00146C7.50069 7.36979 6.97328 6.85839 6.32415 6.85839L3.94608 6.85839C3.29591 6.85839 2.76953 7.36979 2.76953 8.00146C2.76953 8.63313 3.29591 9.14453 3.94608 9.14453Z" fill="#131D28"/>
<path d="M3.63749 6.85547L6.01555 6.85547C6.66572 6.85547 7.1921 6.34407 7.1921 5.7124C7.1921 5.08072 6.66572 4.56932 6.01555 4.56932L3.63749 4.56932C2.98836 4.56932 2.46094 5.08072 2.46094 5.7124C2.46094 6.34407 2.98836 6.85547 3.63749 6.85547Z" fill="#131D28"/>
<path d="M2.96561 4.57031L5.34368 4.57031C5.99281 4.57031 6.51918 4.05891 6.51918 3.42724C6.51918 2.79557 5.99281 2.28416 5.34368 2.28416L2.96561 2.28416C2.31544 2.28416 1.78906 2.79557 1.78906 3.42724C1.78906 4.05891 2.31544 4.57031 2.96561 4.57031Z" fill="#131D28"/>
<path d="M1.67655 -0.000989537L4.05461 -0.000989739C4.70374 -0.000989794 5.23012 0.510411 5.23012 1.14208C5.23012 1.77375 4.70374 2.28516 4.05461 2.28516L1.67655 2.28516C1.02638 2.28516 0.5 1.77376 0.5 1.14208C0.5 0.510412 1.02638 -0.000989482 1.67655 -0.000989537Z" fill="#131D28"/>
</svg>
