<svg width="146" height="384" viewBox="0 0 146 384" fill="none" xmlns="http://www.w3.org/2000/svg">
<rect x="0.5" y="356.016" width="60.2488" height="27.3858" rx="13.6929" fill="white"/>
<rect x="25.1465" y="328.629" width="60.2488" height="27.3858" rx="13.6929" fill="white"/>
<rect x="41.5801" y="301.242" width="60.2488" height="27.3858" rx="13.6929" fill="white"/>
<rect x="55.2695" y="273.859" width="60.2488" height="27.3858" rx="13.6929" fill="white"/>
<rect x="71.7051" y="246.473" width="60.2488" height="27.3858" rx="13.6929" fill="white"/>
<rect x="79.9219" y="219.086" width="60.2488" height="27.3858" rx="13.6929" fill="white"/>
<rect x="85.3965" y="191.699" width="60.2488" height="27.3858" rx="13.6929" fill="white"/>
<rect x="85.3965" y="164.312" width="60.2488" height="27.3858" rx="13.6929" fill="white"/>
<rect x="79.9219" y="136.93" width="60.2488" height="27.3858" rx="13.6929" fill="white"/>
<rect x="71.7051" y="109.543" width="60.2488" height="27.3858" rx="13.6929" fill="white"/>
<rect x="55.2695" y="82.1562" width="60.2488" height="27.3858" rx="13.6929" fill="white"/>
<rect x="41.5801" y="54.7734" width="60.2488" height="27.3858" rx="13.6929" fill="white"/>
<rect x="25.1465" y="27.3867" width="60.2488" height="27.3858" rx="13.6929" fill="white"/>
<rect x="0.5" width="60.2488" height="27.3858" rx="13.6929" fill="white"/>
</svg>
