<svg width="146" height="384" viewBox="0 0 146 384" fill="none" xmlns="http://www.w3.org/2000/svg">
<rect width="60.2488" height="27.3858" rx="13.6929" transform="matrix(-1 0 0 1 145.5 356.016)" fill="white"/>
<rect width="60.2488" height="27.3858" rx="13.6929" transform="matrix(-1 0 0 1 120.854 328.629)" fill="white"/>
<rect width="60.2488" height="27.3858" rx="13.6929" transform="matrix(-1 0 0 1 104.418 301.242)" fill="white"/>
<rect width="60.2488" height="27.3858" rx="13.6929" transform="matrix(-1 0 0 1 90.7305 273.859)" fill="white"/>
<rect width="60.2488" height="27.3858" rx="13.6929" transform="matrix(-1 0 0 1 74.2949 246.473)" fill="white"/>
<rect width="60.2488" height="27.3858" rx="13.6929" transform="matrix(-1 0 0 1 66.0781 219.086)" fill="white"/>
<rect width="60.2488" height="27.3858" rx="13.6929" transform="matrix(-1 0 0 1 60.6035 191.699)" fill="white"/>
<rect width="60.2488" height="27.3858" rx="13.6929" transform="matrix(-1 0 0 1 60.6035 164.312)" fill="white"/>
<rect width="60.2488" height="27.3858" rx="13.6929" transform="matrix(-1 0 0 1 66.0781 136.93)" fill="white"/>
<rect width="60.2488" height="27.3858" rx="13.6929" transform="matrix(-1 0 0 1 74.2949 109.543)" fill="white"/>
<rect width="60.2488" height="27.3858" rx="13.6929" transform="matrix(-1 0 0 1 90.7305 82.1562)" fill="white"/>
<rect width="60.2488" height="27.3858" rx="13.6929" transform="matrix(-1 0 0 1 104.418 54.7734)" fill="white"/>
<rect width="60.2488" height="27.3858" rx="13.6929" transform="matrix(-1 0 0 1 120.854 27.3867)" fill="white"/>
<rect width="60.2488" height="27.3858" rx="13.6929" transform="matrix(-1 0 0 1 145.5 0)" fill="white"/>
</svg>
