<svg width="8" height="16" viewBox="0 0 8 16" fill="none" xmlns="http://www.w3.org/2000/svg">
<path d="M6.32345 16L3.94539 16C3.29626 16 2.76988 15.4886 2.76988 14.8569C2.76988 14.2253 3.29626 13.7139 3.94539 13.7139L6.32345 13.7139C6.97362 13.7139 7.5 14.2253 7.5 14.8569C7.5 15.4886 6.97362 16 6.32345 16Z" fill="white"/>
<path d="M5.03439 13.7148L2.65632 13.7148C2.00719 13.7148 1.48082 13.2034 1.48082 12.5718C1.48082 11.9401 2.00719 11.4287 2.65632 11.4287L5.03439 11.4287C5.68456 11.4287 6.21094 11.9401 6.21094 12.5718C6.21094 13.2034 5.68456 13.7148 5.03439 13.7148Z" fill="white"/>
<path d="M4.36251 11.4297L1.98445 11.4297C1.33428 11.4297 0.8079 10.9183 0.8079 10.2866C0.8079 9.65494 1.33428 9.14354 1.98445 9.14354L4.36251 9.14354C5.01164 9.14354 5.53906 9.65494 5.53906 10.2866C5.53906 10.9183 5.01164 11.4297 4.36251 11.4297Z" fill="white"/>
<path d="M4.05392 9.14453L1.67585 9.14453C1.02672 9.14453 0.499306 8.63313 0.499306 8.00146C0.499306 7.36979 1.02672 6.85839 1.67585 6.85839L4.05392 6.85839C4.70409 6.85839 5.23047 7.36979 5.23047 8.00146C5.23047 8.63313 4.70409 9.14453 4.05392 9.14453Z" fill="white"/>
<path d="M4.36251 6.85547L1.98445 6.85547C1.33428 6.85547 0.8079 6.34407 0.8079 5.7124C0.8079 5.08072 1.33428 4.56932 1.98445 4.56932L4.36251 4.56932C5.01164 4.56932 5.53906 5.08072 5.53906 5.7124C5.53906 6.34407 5.01164 6.85547 4.36251 6.85547Z" fill="white"/>
<path d="M5.03439 4.57031L2.65632 4.57031C2.00719 4.57031 1.48082 4.05891 1.48082 3.42724C1.48082 2.79557 2.00719 2.28416 2.65632 2.28416L5.03439 2.28416C5.68456 2.28416 6.21094 2.79557 6.21094 3.42724C6.21094 4.05891 5.68456 4.57031 5.03439 4.57031Z" fill="white"/>
<path d="M6.32345 -0.000989537L3.94539 -0.000989739C3.29626 -0.000989794 2.76988 0.510411 2.76988 1.14208C2.76988 1.77375 3.29626 2.28516 3.94539 2.28516L6.32345 2.28516C6.97362 2.28516 7.5 1.77376 7.5 1.14208C7.5 0.510412 6.97362 -0.000989482 6.32345 -0.000989537Z" fill="white"/>
</svg>
