<svg width="10" height="8" viewBox="0 0 10 8" fill="none" xmlns="http://www.w3.org/2000/svg">
<path fill-rule="evenodd" clip-rule="evenodd" d="M3.36003 0.799993C3.36003 0.358169 3.71819 0 4.16002 0H5.76001C6.20183 0 6.56 0.358169 6.56 0.799993C6.56 1.23855 6.20711 1.59468 5.7698 1.59993H7.52022C7.96204 1.59993 8.32021 1.9581 8.32021 2.39992C8.32021 2.84174 7.96204 3.19991 7.52022 3.19991H2.40025C1.95843 3.19991 1.60026 2.84174 1.60026 2.39992C1.60026 1.9581 1.95843 1.59993 2.40025 1.59993H4.15023C3.71292 1.59468 3.36003 1.23855 3.36003 0.799993ZM0.799993 3.20002C0.358169 3.20002 0 3.55819 0 4.00001C0 4.44183 0.358169 4.8 0.799993 4.8H2.39047C1.95315 4.80525 1.60026 5.16138 1.60026 5.59994C1.60026 6.04176 1.95843 6.39993 2.40025 6.39993H7.52022C7.96204 6.39993 8.32021 6.04176 8.32021 5.59994C8.32021 5.16138 7.96732 4.80525 7.53001 4.8H9.11993C9.56176 4.8 9.91993 4.44183 9.91993 4.00001C9.91993 3.55819 9.56176 3.20002 9.11993 3.20002H0.799993ZM4.16002 6.40003C3.71819 6.40003 3.36003 6.7582 3.36003 7.20003C3.36003 7.64185 3.7182 8.00002 4.16002 8.00002H5.76001C6.20183 8.00002 6.56 7.64185 6.56 7.20003C6.56 6.7582 6.20183 6.40003 5.76001 6.40003H4.16002Z" fill="white"/>
</svg>
