<svg width="107" height="52" viewBox="0 0 107 52" fill="none" xmlns="http://www.w3.org/2000/svg">
<g clip-path="url(#clip0_8296_1880)">
<path d="M90.2293 31.9297H77.8438C79.0307 31.9297 79.9332 32.7919 79.9332 33.9818C79.9332 35.1716 79.0307 36.0339 77.8438 36.0339H90.2293C89.0392 36.0339 88.1367 35.1716 88.1367 33.9818C88.1367 32.7919 89.0392 31.9297 90.2293 31.9297Z" fill="#D9DAD5"/>
<path d="M90.2293 23.7266H77.8438C79.0307 23.7266 79.9332 24.5888 79.9332 25.7787C79.9332 26.9685 79.0307 27.8307 77.8438 27.8307H90.2293C89.0392 27.8307 88.1367 26.9685 88.1367 25.7787C88.1367 24.5888 89.0392 23.7266 90.2293 23.7266Z" fill="#D9DAD5"/>
<path d="M106.077 9.83857C106.04 9.43062 106.982 7.83902 107.001 6.75734C107.097 1.41696 102.729 0.366191 98.3957 0.403277L8.72058 0.529987C4.27268 0.542349 -0.567774 1.57458 0.0566013 7.21164C0.146239 8.02136 0.900435 9.33791 0.900435 9.63768C0.900435 10.364 -0.110311 11.6558 0.0318736 13.4761C0.102966 14.4032 0.900435 15.7878 0.900435 16.1185C0.900435 16.7427 -0.0608554 18.1026 0.0164188 19.7251C0.0658742 20.7975 0.900435 22.216 0.900435 22.5992C0.903526 23.2142 -0.0577644 24.5864 0.0164188 26.2058C0.0658742 27.2782 0.900435 28.6968 0.900435 29.08C0.903526 29.7754 -0.101038 31.1537 0.0164188 32.9308C0.0782381 33.8332 0.974618 35.6133 0.949891 35.7586C0.922072 35.9378 0.430608 36.5003 0.279151 37.0133C-0.518318 39.7237 1.03335 41.6274 0.943709 42.2363C0.891162 42.5855 0.201877 43.5435 0.087511 44.2605C-0.580138 48.374 2.79211 51.2111 6.68054 51.5078H101.876C105.335 50.7877 107.693 48.0062 106.726 43.9762C106.596 43.4261 106.098 42.6998 106.083 42.2393C106.064 41.6861 106.979 40.3171 107.001 39.1581C107.026 37.7519 106.154 36.6208 106.077 35.7586C106.04 35.3537 106.982 33.759 107.001 32.6773C107.026 31.2712 106.154 30.1401 106.077 29.2778C106.04 28.8699 106.982 27.2782 107.001 26.1966C107.026 24.7904 106.154 23.6593 106.077 22.797C106.04 22.3891 106.982 20.7975 107.001 19.7158C107.026 18.3096 106.154 17.1785 106.077 16.3163C106.04 15.9083 106.982 14.3167 107.001 13.235C107.026 11.8288 106.154 10.6977 106.077 9.83548M96.3402 25.7763C96.3402 26.9661 95.4377 27.8284 94.2507 27.8284H92.1983C93.3883 27.8284 94.2909 28.6906 94.2909 29.8804C94.2909 31.0703 93.3883 31.9294 92.1983 31.9294H94.2507C95.4377 31.9294 96.3402 32.7917 96.3402 33.9815C96.3402 35.1714 95.4377 36.0305 94.2507 36.0305C95.4377 36.0305 96.3402 36.8928 96.3402 38.0826C96.3402 39.2725 95.4377 40.1347 94.2507 40.1347H90.149C91.3359 40.1347 92.2385 40.997 92.2385 42.1868C92.2385 43.3767 91.3359 44.2358 90.149 44.2358H75.8749C74.6849 44.2358 73.7823 43.3334 73.7823 42.1868C73.7823 41.0402 74.6849 40.1347 75.8749 40.1347H73.8225C72.6325 40.1347 71.7299 39.2725 71.7299 38.0826C71.7299 36.8928 72.6325 36.0305 73.8225 36.0305C72.6325 36.0305 71.7299 35.1683 71.7299 33.9815C71.7299 32.7948 72.6325 31.9294 73.8225 31.9294C72.6325 31.9294 71.7299 31.0672 71.7299 29.8804C71.7299 28.6937 72.6325 27.8284 73.8225 27.8284C72.6325 27.8284 71.7299 26.9661 71.7299 25.7763C71.7299 24.5864 72.6325 23.7242 73.8225 23.7242C73.1456 23.7242 72.5614 23.4429 72.1843 22.9855C71.8072 23.446 71.223 23.7242 70.5461 23.7242H62.3427C63.5327 23.7242 64.4353 24.5864 64.4353 25.7763C64.4353 26.9661 63.5327 27.8284 62.3427 27.8284C63.5327 27.8284 64.4353 28.6906 64.4353 29.8804C64.4353 31.0703 63.5327 31.9294 62.3427 31.9294C63.5327 31.9294 64.4353 32.7917 64.4353 33.9815C64.4353 35.1714 63.5327 36.0305 62.3427 36.0305C63.5327 36.0305 64.4353 36.8928 64.4353 38.0826C64.4353 39.2725 63.5327 40.1347 62.3427 40.1347C63.5327 40.1347 64.4353 40.997 64.4353 42.1868C64.4353 43.3767 63.5327 44.2358 62.3427 44.2358H58.3213C57.1344 44.2358 56.2318 43.3736 56.2318 42.1868C56.2318 41.0001 57.1344 40.1347 58.3213 40.1347C57.1344 40.1347 56.2318 39.2725 56.2318 38.0826C56.2318 36.8928 57.1344 36.0305 58.3213 36.0305C57.1344 36.0305 56.2318 35.1683 56.2318 33.9815C56.2318 32.7948 57.1344 31.9294 58.3213 31.9294C57.1344 31.9294 56.2318 31.0672 56.2318 29.8804C56.2318 28.6937 57.1344 27.8284 58.3213 27.8284C57.1344 27.8284 56.2318 26.9661 56.2318 25.7763C56.2318 24.5864 57.1344 23.7242 58.3213 23.7242H50.1179C48.931 23.7242 48.0284 22.8619 48.0284 21.6752C48.0284 20.4884 48.931 19.6231 50.1179 19.6231H52.1703C50.9803 19.6231 50.0777 18.7608 50.0777 17.5741C50.0777 16.3873 50.9803 15.522 52.1703 15.522H68.4937C69.6837 15.522 70.5863 16.3842 70.5863 17.5741C70.5863 18.7639 69.6837 19.6231 68.4937 19.6231H70.5461C71.223 19.6231 71.8072 19.9043 72.1843 20.3648C72.5614 19.9043 73.1456 19.6231 73.8225 19.6231H75.8749C74.6849 19.6231 73.7823 18.7608 73.7823 17.5741C73.7823 16.3873 74.6849 15.522 75.8749 15.522H90.149C91.3359 15.522 92.2385 16.3842 92.2385 17.5741C92.2385 18.7639 91.3359 19.6231 90.149 19.6231H94.2507C95.4377 19.6231 96.3402 20.4853 96.3402 21.6752C96.3402 22.865 95.4377 23.7242 94.2507 23.7242C95.4377 23.7242 96.3402 24.5864 96.3402 25.7763Z" fill="#D9DAD5"/>
</g>
<defs>
<clipPath id="clip0_8296_1880">
<rect width="107" height="51.1045" fill="white" transform="translate(0 0.402344)"/>
</clipPath>
</defs>
</svg>
