<svg width="259" height="28" viewBox="0 0 259 28" fill="none" xmlns="http://www.w3.org/2000/svg">
<g clip-path="url(#clip0_7_5)">
<path d="M20.4536 4.70687H18.5925C19.6729 4.70687 20.4943 3.92771 20.4943 2.84573C20.4943 1.76376 19.6729 0.988281 18.5925 0.988281H3.7629C2.6825 0.988281 1.8611 1.76745 1.8611 2.84573C1.8611 3.92401 2.6825 4.70687 3.7629 4.70687H1.9018C0.8214 4.70687 0 5.48604 0 6.56432C0 7.64261 0.8214 8.42177 1.9018 8.42177H9.3536C8.2732 8.42177 7.4518 9.20094 7.4518 10.2829C7.4518 11.3649 8.2695 12.1404 9.3536 12.1404C8.2732 12.1404 7.4518 12.9195 7.4518 14.0015C7.4518 15.0835 8.2695 15.859 9.3536 15.859C8.2732 15.859 7.4518 16.6381 7.4518 17.7201C7.4518 18.8021 8.2695 19.5776 9.3536 19.5776C8.2732 19.5776 7.4518 20.3567 7.4518 21.4387C7.4518 22.5207 8.2695 23.2961 9.3536 23.2961C8.2732 23.2961 7.4518 24.079 7.4518 25.1573C7.4518 26.2356 8.2695 27.0184 9.3536 27.0184H13.0055C14.0859 27.0184 14.9073 26.2356 14.9073 25.1573C14.9073 24.079 14.0896 23.2961 13.0055 23.2961C14.0859 23.2961 14.9073 22.517 14.9073 21.4387C14.9073 20.3604 14.0896 19.5776 13.0055 19.5776C14.0859 19.5776 14.9073 18.7984 14.9073 17.7201C14.9073 16.6418 14.0896 15.859 13.0055 15.859C14.0859 15.859 14.9073 15.0798 14.9073 14.0015C14.9073 12.9232 14.0896 12.1404 13.0055 12.1404C14.0859 12.1404 14.9073 11.3612 14.9073 10.2829C14.9073 9.20464 14.0896 8.42177 13.0055 8.42177H20.4573C21.5377 8.42177 22.3591 7.64261 22.3591 6.56432C22.3591 5.48604 21.5377 4.70687 20.4573 4.70687" fill="white"/>
<path d="M46.2597 2.84942C46.2597 1.77114 45.4383 0.988281 44.3616 0.988281H40.7097C39.6293 0.988281 38.8079 1.77114 38.8079 2.84942C38.8079 3.92771 39.6256 4.70687 40.7097 4.70687C39.6293 4.70687 38.8079 5.48604 38.8079 6.56432C38.8079 7.64261 39.6256 8.42177 40.7097 8.42177C39.6293 8.42177 38.8079 9.20094 38.8079 10.2829C38.8079 11.3649 39.6256 12.1404 40.7097 12.1404H29.458C30.5384 12.1404 31.3598 11.3612 31.3598 10.2829C31.3598 9.20464 30.5384 8.42177 29.458 8.42177C30.5384 8.42177 31.3598 7.64261 31.3598 6.56432C31.3598 5.48604 30.5384 4.70687 29.458 4.70687C30.5384 4.70687 31.3598 3.92771 31.3598 2.84942C31.3598 1.77114 30.5384 0.988281 29.458 0.988281H25.8061C24.7257 0.988281 23.9043 1.77114 23.9043 2.84942C23.9043 3.92771 24.7257 4.70687 25.8061 4.70687C24.7257 4.70687 23.9043 5.48604 23.9043 6.56432C23.9043 7.64261 24.7257 8.42177 25.8061 8.42177C24.7257 8.42177 23.9043 9.20094 23.9043 10.2829C23.9043 11.3649 24.7257 12.1404 25.8061 12.1404C24.7257 12.1404 23.9043 12.9195 23.9043 13.9978C23.9043 15.0761 24.7257 15.8553 25.8061 15.8553C24.7257 15.8553 23.9043 16.6344 23.9043 17.7127C23.9043 18.791 24.7257 19.5739 25.8061 19.5739C24.7257 19.5739 23.9043 20.353 23.9043 21.4313C23.9043 22.5096 24.7257 23.2888 25.8061 23.2888C24.7257 23.2888 23.9043 24.0716 23.9043 25.1499C23.9043 26.2282 24.7257 27.0074 25.8061 27.0074H29.458C30.5384 27.0074 31.3598 26.2282 31.3598 25.1499C31.3598 24.0716 30.5384 23.2888 29.458 23.2888C30.5384 23.2888 31.3598 22.5096 31.3598 21.4313C31.3598 20.353 30.5384 19.5739 29.458 19.5739C30.5384 19.5739 31.3598 18.7947 31.3598 17.7127C31.3598 16.6307 30.5384 15.8553 29.458 15.8553H40.7097C39.6293 15.8553 38.8079 16.6344 38.8079 17.7127C38.8079 18.791 39.6256 19.5739 40.7097 19.5739C39.6293 19.5739 38.8079 20.353 38.8079 21.4313C38.8079 22.5096 39.6256 23.2888 40.7097 23.2888C39.6293 23.2888 38.8079 24.0716 38.8079 25.1499C38.8079 26.2282 39.6256 27.0074 40.7097 27.0074H44.3616C45.442 27.0074 46.2597 26.2282 46.2597 25.1499C46.2597 24.0716 45.4383 23.2888 44.3616 23.2888C45.442 23.2888 46.2597 22.5096 46.2597 21.4313C46.2597 20.353 45.4383 19.5739 44.3616 19.5739C45.442 19.5739 46.2597 18.7947 46.2597 17.7127C46.2597 16.6307 45.4383 15.8553 44.3616 15.8553C45.442 15.8553 46.2597 15.0761 46.2597 13.9978C46.2597 12.9195 45.4383 12.1404 44.3616 12.1404C45.442 12.1404 46.2597 11.3612 46.2597 10.2829C46.2597 9.20464 45.4383 8.42177 44.3616 8.42177C45.442 8.42177 46.2597 7.64261 46.2597 6.56432C46.2597 5.48604 45.4383 4.70687 44.3616 4.70687C45.442 4.70687 46.2597 3.92771 46.2597 2.84942Z" fill="white"/>
<path d="M70.8517 6.56432C70.8517 5.48604 70.0303 4.70687 68.9499 4.70687H67.0888C68.1692 4.70687 68.9869 3.92771 68.9869 2.84942C68.9869 1.77114 68.1692 0.988281 67.0888 0.988281H52.2629C51.1825 0.988281 50.3611 1.76745 50.3611 2.84942C50.3611 3.9314 51.1825 4.70687 52.2629 4.70687H50.3981C49.3177 4.70687 48.5 5.48604 48.5 6.56432C48.5 7.64261 49.3177 8.42177 50.3981 8.42177C49.3177 8.42177 48.5 9.20094 48.5 10.2829C48.5 11.3649 49.3177 12.1404 50.3981 12.1404C49.3177 12.1404 48.5 12.9195 48.5 14.0015C48.5 15.0835 49.3177 15.859 50.3981 15.859C49.3177 15.859 48.5 16.6381 48.5 17.7201C48.5 18.8021 49.3177 19.5776 50.3981 19.5776C49.3177 19.5776 48.5 20.3567 48.5 21.435C48.5 22.5133 49.3177 23.2925 50.3981 23.2925C49.3177 23.2925 48.5 24.0716 48.5 25.1536C48.5 26.2356 49.3177 27.011 50.3981 27.011H54.05C55.1304 27.011 55.9518 26.2319 55.9518 25.1536C55.9518 24.0753 55.1304 23.2925 54.05 23.2925C55.1304 23.2925 55.9518 22.5133 55.9518 21.435C55.9518 20.3567 55.1304 19.5776 54.05 19.5776C55.1304 19.5776 55.9518 18.7984 55.9518 17.7201C55.9518 16.6418 55.1304 15.859 54.05 15.859H61.5758C60.4954 15.859 59.6777 16.6381 59.6777 17.7201C59.6777 18.8021 60.4954 19.5776 61.5758 19.5776H63.4406C62.3602 19.5776 61.5388 20.3567 61.5388 21.435C61.5388 22.5133 62.3602 23.2925 63.4406 23.2925H65.3054C64.225 23.2925 63.4036 24.0716 63.4036 25.1536C63.4036 26.2356 64.225 27.011 65.3054 27.011H68.9573C70.0377 27.011 70.8591 26.2319 70.8591 25.1536C70.8591 24.0753 70.0377 23.2925 68.9573 23.2925H67.0962C68.1766 23.2925 68.9943 22.5133 68.9943 21.435C68.9943 20.3567 68.1766 19.5776 67.0962 19.5776H65.2314C66.3118 19.5776 67.1332 18.7984 67.1332 17.7201C67.1332 16.6418 66.3118 15.859 65.2314 15.859H67.0962C68.1766 15.859 68.9943 15.0798 68.9943 14.0015C68.9943 12.9232 68.1766 12.1404 67.0962 12.1404H68.9573C70.0377 12.1404 70.8591 11.3612 70.8591 10.2829C70.8591 9.20464 70.0377 8.42177 68.9573 8.42177C70.0377 8.42177 70.8591 7.64261 70.8591 6.56432M65.3017 12.1441H54.05C55.1304 12.1441 55.9518 11.3649 55.9518 10.2866C55.9518 9.20833 55.1304 8.42547 54.05 8.42547H65.3017C64.2213 8.42547 63.3999 9.20464 63.3999 10.2866C63.3999 11.3686 64.2213 12.1441 65.3017 12.1441Z" fill="white"/>
<path d="M93.2015 6.56021C93.2015 5.48192 92.3838 4.69906 91.3034 4.69906H89.4386C90.519 4.69906 91.3367 3.91989 91.3367 2.84161C91.3367 1.76333 90.519 0.980469 89.4386 0.980469H76.4738C75.3934 0.980469 74.572 1.75964 74.572 2.84161C74.572 3.92359 75.3934 4.69906 76.4738 4.69906H74.609C73.5286 4.69906 72.7109 5.48192 72.7109 6.56021C72.7109 7.63849 73.5286 8.41766 74.609 8.41766C73.5286 8.41766 72.7109 9.19682 72.7109 10.2751C72.7109 11.3534 73.5286 12.1326 74.609 12.1326C73.5286 12.1326 72.7109 12.9117 72.7109 13.99C72.7109 15.0683 73.5286 15.8475 74.609 15.8475C73.5286 15.8475 72.7109 16.6266 72.7109 17.7049C72.7109 18.7832 73.5286 19.566 74.609 19.566C73.5286 19.566 72.7109 20.3452 72.7109 21.4235C72.7109 22.5018 73.5286 23.281 74.609 23.281H76.4738C75.3934 23.281 74.572 24.0638 74.572 25.1421C74.572 26.2204 75.3934 26.9995 76.4738 26.9995H89.4386C90.519 26.9995 91.3367 26.2204 91.3367 25.1421C91.3367 24.0638 90.519 23.281 89.4386 23.281H91.3034C92.3838 23.281 93.2015 22.5018 93.2015 21.4235C93.2015 20.3452 92.3838 19.566 91.3034 19.566H78.2646C79.345 19.566 80.1627 18.7869 80.1627 17.7049C80.1627 16.6229 79.345 15.8475 78.2646 15.8475H89.4423C90.5227 15.8475 91.3404 15.0683 91.3404 13.99C91.3404 12.9117 90.5227 12.1326 89.4423 12.1326H78.2646C79.345 12.1326 80.1627 11.3534 80.1627 10.2751C80.1627 9.19682 79.345 8.41766 78.2646 8.41766H91.3034C92.3838 8.41766 93.2015 7.63849 93.2015 6.56021Z" fill="white"/>
<path d="M117.049 17.7201C117.049 16.6418 116.227 15.859 115.147 15.859H113.282C114.362 15.859 115.184 15.0798 115.184 14.0015C115.184 12.9232 114.366 12.1441 113.282 12.1441H111.421C112.501 12.1441 113.323 11.3649 113.323 10.2866C113.323 9.20833 112.501 8.42547 111.421 8.42547H109.556C110.636 8.42547 111.458 7.6463 111.458 6.56802C111.458 5.48974 110.64 4.71057 109.556 4.71057H107.806C108.886 4.71057 109.708 3.9314 109.708 2.85312C109.708 1.77484 108.89 0.988281 107.81 0.988281H104.158C103.077 0.988281 102.256 1.76745 102.256 2.84942C102.256 3.9314 103.074 4.70687 104.158 4.70687H102.182C101.102 4.70687 100.28 5.48604 100.28 6.56432C100.28 7.64261 101.098 8.42177 102.182 8.42177H100.317C99.2368 8.42177 98.4154 9.20094 98.4154 10.2829C98.4154 11.3649 99.2368 12.1404 100.317 12.1404H98.4561C97.3757 12.1404 96.5543 12.9195 96.5543 13.9978C96.5543 15.0761 97.372 15.8553 98.4561 15.8553H96.5913C95.5109 15.8553 94.6895 16.6344 94.6895 17.7164C94.6895 18.7984 95.5109 19.5739 96.5913 19.5739C95.5109 19.5739 94.6895 20.353 94.6895 21.4313C94.6895 22.5096 95.5109 23.2888 96.5913 23.2888C95.5109 23.2888 94.6895 24.0679 94.6895 25.1499C94.6895 26.2319 95.5109 27.0074 96.5913 27.0074H100.243C101.324 27.0074 102.145 26.2282 102.145 25.1499C102.145 24.0716 101.327 23.2888 100.243 23.2888C101.324 23.2888 102.145 22.5096 102.145 21.4313C102.145 20.353 101.327 19.5739 100.243 19.5739H111.495C110.414 19.5739 109.593 20.353 109.593 21.4313C109.593 22.5096 110.411 23.2888 111.495 23.2888C110.414 23.2888 109.593 24.0679 109.593 25.1499C109.593 26.2319 110.411 27.0074 111.495 27.0074H115.147C116.227 27.0074 117.049 26.2282 117.049 25.1499C117.049 24.0716 116.227 23.2888 115.147 23.2888C116.227 23.2888 117.049 22.5096 117.049 21.4313C117.049 20.353 116.227 19.5739 115.147 19.5739C116.227 19.5739 117.049 18.7947 117.049 17.7164M109.634 15.8627H102.108C103.188 15.8627 104.01 15.0835 104.01 14.0052C104.01 12.9269 103.188 12.1478 102.108 12.1478H103.969C105.046 12.1478 105.863 11.3723 105.867 10.2977C105.871 11.3723 106.689 12.1478 107.765 12.1478H109.63C108.55 12.1478 107.728 12.9269 107.728 14.0052C107.728 15.0835 108.55 15.8627 109.63 15.8627" fill="white"/>
<path d="M141.602 12.1441H139.737C140.817 12.1441 141.639 11.3649 141.639 10.2866C141.639 9.20833 140.817 8.42547 139.737 8.42547H137.876C138.956 8.42547 139.778 7.6463 139.778 6.56802C139.778 5.48974 138.956 4.71057 137.876 4.71057H136.089C137.169 4.71057 137.991 3.9314 137.991 2.85312C137.991 1.77484 137.169 0.988281 136.089 0.988281H123.05C121.97 0.988281 121.148 1.76745 121.148 2.84942C121.148 3.9314 121.97 4.70687 123.05 4.70687H121.185C120.105 4.70687 119.287 5.48604 119.287 6.56432C119.287 7.64261 120.105 8.42177 121.185 8.42177C120.105 8.42177 119.287 9.20094 119.287 10.2829C119.287 11.3649 120.105 12.1404 121.185 12.1404C120.105 12.1404 119.287 12.9195 119.287 13.9978C119.287 15.0761 120.105 15.8553 121.185 15.8553C120.105 15.8553 119.287 16.6344 119.287 17.7164C119.287 18.7984 120.105 19.5739 121.185 19.5739C120.105 19.5739 119.287 20.353 119.287 21.4313C119.287 22.5096 120.105 23.2888 121.185 23.2888H123.05C121.97 23.2888 121.148 24.0679 121.148 25.1499C121.148 26.2319 121.97 27.0074 123.05 27.0074H136.089C137.169 27.0074 137.991 26.2282 137.991 25.1499C137.991 24.0716 137.169 23.2888 136.089 23.2888H137.876C138.956 23.2888 139.778 22.5096 139.778 21.4313C139.778 20.353 138.956 19.5739 137.876 19.5739H139.737C140.817 19.5739 141.639 18.7947 141.639 17.7164C141.639 16.6381 140.817 15.8553 139.737 15.8553H141.602C142.682 15.8553 143.5 15.0761 143.5 13.9978C143.5 12.9195 142.682 12.1404 141.602 12.1404M137.95 15.8627H136.085C135.005 15.8627 134.183 16.6418 134.183 17.7238C134.183 18.8058 135.005 19.5812 136.085 19.5812H124.833C125.914 19.5812 126.735 18.8021 126.735 17.7238C126.735 16.6455 125.918 15.8627 124.833 15.8627C125.914 15.8627 126.735 15.0835 126.735 14.0052C126.735 12.9269 125.918 12.1478 124.833 12.1478C125.914 12.1478 126.735 11.3686 126.735 10.2903C126.735 9.21202 125.918 8.42916 124.833 8.42916H136.085C135.005 8.42916 134.183 9.20833 134.183 10.2903C134.183 11.3723 135.005 12.1478 136.085 12.1478H137.95C136.87 12.1478 136.052 12.9269 136.052 14.0052C136.052 15.0835 136.87 15.8627 137.95 15.8627Z" fill="white"/>
<path d="M167.723 6.56432C167.723 5.48604 166.901 4.70687 165.821 4.70687H162.095C163.175 4.70687 163.993 3.92771 163.993 2.84942C163.993 1.77114 163.175 0.988281 162.095 0.988281H149.13C148.05 0.988281 147.232 1.76745 147.232 2.84942C147.232 3.9314 148.05 4.70687 149.13 4.70687H147.269C146.189 4.70687 145.371 5.48604 145.371 6.56432C145.371 7.64261 146.189 8.42177 147.269 8.42177C146.189 8.42177 145.371 9.20094 145.371 10.2829C145.371 11.3649 146.189 12.1404 147.269 12.1404C146.189 12.1404 145.371 12.9195 145.371 14.0015C145.371 15.0835 146.189 15.859 147.269 15.859C146.189 15.859 145.371 16.6381 145.371 17.7201C145.371 18.8021 146.189 19.5776 147.269 19.5776C146.189 19.5776 145.371 20.3567 145.371 21.435C145.371 22.5133 146.189 23.2925 147.269 23.2925H149.13C148.05 23.2925 147.232 24.0716 147.232 25.1536C147.232 26.2356 148.05 27.011 149.13 27.011H162.095C163.175 27.011 163.993 26.2319 163.993 25.1536C163.993 24.0753 163.175 23.2925 162.095 23.2925H165.821C166.901 23.2925 167.723 22.5133 167.723 21.435C167.723 20.3567 166.901 19.5776 165.821 19.5776C166.901 19.5776 167.723 18.7984 167.723 17.7201C167.723 16.6418 166.901 15.859 165.821 15.859H163.96C165.04 15.859 165.862 15.0798 165.862 14.0015C165.862 12.9232 165.04 12.1404 163.96 12.1404H165.821C166.901 12.1404 167.723 11.3612 167.723 10.2829C167.723 9.20464 166.901 8.42177 165.821 8.42177C166.901 8.42177 167.723 7.64261 167.723 6.56432ZM162.169 19.5812H150.917C151.998 19.5812 152.819 18.8021 152.819 17.7238C152.819 16.6455 151.998 15.8627 150.917 15.8627H162.169C161.089 15.8627 160.271 16.6418 160.271 17.7238C160.271 18.8058 161.089 19.5812 162.169 19.5812ZM162.169 12.1441H150.917C151.998 12.1441 152.819 11.3649 152.819 10.2866C152.819 9.20833 151.998 8.42547 150.917 8.42547H162.169C161.089 8.42547 160.271 9.20464 160.271 10.2866C160.271 11.3686 161.089 12.1441 162.169 12.1441Z" fill="white"/>
<path d="M190.446 6.56021C190.446 5.48192 189.628 4.69906 188.544 4.69906H186.683C187.763 4.69906 188.585 3.91989 188.585 2.84161C188.585 1.76333 187.763 0.980469 186.683 0.980469H173.718C172.638 0.980469 171.816 1.75964 171.816 2.84161C171.816 3.92359 172.638 4.69906 173.718 4.69906H171.857C170.776 4.69906 169.955 5.48192 169.955 6.56021C169.955 7.63849 170.776 8.41766 171.857 8.41766C170.776 8.41766 169.955 9.19682 169.955 10.2751C169.955 11.3534 170.776 12.1326 171.857 12.1326C170.776 12.1326 169.955 12.9117 169.955 13.99C169.955 15.0683 170.776 15.8475 171.857 15.8475C170.776 15.8475 169.955 16.6266 169.955 17.7049C169.955 18.7832 170.776 19.566 171.857 19.566C170.776 19.566 169.955 20.3452 169.955 21.4235C169.955 22.5018 170.776 23.281 171.857 23.281H173.718C172.638 23.281 171.816 24.0638 171.816 25.1421C171.816 26.2204 172.638 26.9995 173.718 26.9995H186.683C187.763 26.9995 188.585 26.2204 188.585 25.1421C188.585 24.0638 187.763 23.281 186.683 23.281H188.544C189.624 23.281 190.446 22.5018 190.446 21.4235C190.446 20.3452 189.628 19.566 188.544 19.566H175.505C176.585 19.566 177.407 18.7869 177.407 17.7049C177.407 16.6229 176.589 15.8475 175.505 15.8475H186.683C187.763 15.8475 188.585 15.0683 188.585 13.99C188.585 12.9117 187.763 12.1326 186.683 12.1326H175.505C176.585 12.1326 177.407 11.3534 177.407 10.2751C177.407 9.19682 176.589 8.41766 175.505 8.41766H188.544C189.624 8.41766 190.446 7.63849 190.446 6.56021Z" fill="white"/>
<path d="M214.291 17.7201C214.291 16.6418 213.47 15.859 212.389 15.859H210.528C211.608 15.859 212.426 15.0798 212.426 14.0015C212.426 12.9232 211.608 12.1441 210.528 12.1441H208.667C209.747 12.1441 210.565 11.3649 210.565 10.2866C210.565 9.20833 209.747 8.42547 208.667 8.42547H206.802C207.883 8.42547 208.704 7.6463 208.704 6.56802C208.704 5.48974 207.886 4.71057 206.802 4.71057H205.052C206.132 4.71057 206.954 3.9314 206.954 2.85312C206.954 1.77484 206.129 0.988281 205.048 0.988281H201.396C200.316 0.988281 199.495 1.76745 199.495 2.84942C199.495 3.9314 200.316 4.70687 201.396 4.70687H199.421C198.34 4.70687 197.519 5.48604 197.519 6.56432C197.519 7.64261 198.34 8.42177 199.421 8.42177H197.56C196.479 8.42177 195.658 9.20094 195.658 10.2829C195.658 11.3649 196.479 12.1404 197.56 12.1404H195.698C194.618 12.1404 193.797 12.9195 193.797 13.9978C193.797 15.0761 194.618 15.8553 195.698 15.8553H193.837C192.757 15.8553 191.936 16.6344 191.936 17.7164C191.936 18.7984 192.757 19.5739 193.837 19.5739C192.757 19.5739 191.936 20.353 191.936 21.4313C191.936 22.5096 192.757 23.2888 193.837 23.2888C192.757 23.2888 191.936 24.0679 191.936 25.1499C191.936 26.2319 192.757 27.0074 193.837 27.0074H197.489C198.57 27.0074 199.391 26.2282 199.391 25.1499C199.391 24.0716 198.57 23.2888 197.489 23.2888C198.57 23.2888 199.391 22.5096 199.391 21.4313C199.391 20.353 198.57 19.5739 197.489 19.5739H208.741C207.661 19.5739 206.839 20.353 206.839 21.4313C206.839 22.5096 207.657 23.2888 208.741 23.2888C207.661 23.2888 206.839 24.0679 206.839 25.1499C206.839 26.2319 207.657 27.0074 208.741 27.0074H212.393C213.473 27.0074 214.295 26.2282 214.295 25.1499C214.295 24.0716 213.473 23.2888 212.393 23.2888C213.473 23.2888 214.295 22.5096 214.295 21.4313C214.295 20.353 213.473 19.5739 212.393 19.5739C213.473 19.5739 214.295 18.7947 214.295 17.7164M206.876 15.8627H199.35C200.431 15.8627 201.252 15.0835 201.252 14.0052C201.252 12.9269 200.431 12.1478 199.35 12.1478H201.211C202.27 12.1478 203.073 11.3944 203.106 10.3531H203.117C203.15 11.3981 203.953 12.1478 205.011 12.1478H206.872C205.792 12.1478 204.971 12.9269 204.971 14.0052C204.971 15.0835 205.792 15.8627 206.872 15.8627" fill="white"/>
<path d="M236.645 14.0015C236.645 12.9232 235.823 12.1441 234.743 12.1441H219.839C220.92 12.1441 221.741 11.3612 221.741 10.2866C221.741 9.21202 220.92 8.42547 219.839 8.42547H232.878C233.958 8.42547 234.78 7.6463 234.78 6.56802C234.78 5.48974 233.958 4.71057 232.878 4.71057H231.013C232.094 4.71057 232.915 3.9314 232.915 2.85312C232.915 1.77484 232.101 0.988281 231.021 0.988281H219.917C218.837 0.988281 218.015 1.76745 218.015 2.84942C218.015 3.9314 218.837 4.70687 219.917 4.70687H218.056C216.975 4.70687 216.154 5.48604 216.154 6.56432C216.154 7.64261 216.975 8.42177 218.056 8.42177H216.195C215.114 8.42177 214.293 9.20094 214.293 10.2829C214.293 11.3649 215.111 12.1404 216.195 12.1404C215.114 12.1404 214.293 12.9195 214.293 13.9978C214.293 15.0761 215.111 15.8553 216.195 15.8553H231.098C230.018 15.8553 229.197 16.6381 229.197 17.7127C229.197 18.7873 230.018 19.5739 231.098 19.5739H218.06C216.979 19.5739 216.158 20.353 216.158 21.4313C216.158 22.5096 216.979 23.2888 218.06 23.2888H219.921C218.84 23.2888 218.019 24.0716 218.019 25.1499C218.019 26.2282 218.84 27.0074 219.921 27.0074H231.024C232.105 27.0074 232.926 26.2282 232.926 25.1499C232.926 24.0716 232.105 23.2888 231.024 23.2888H232.889C233.97 23.2888 234.791 22.5096 234.791 21.4313C234.791 20.353 233.97 19.5739 232.889 19.5739H234.75C235.831 19.5739 236.652 18.7947 236.652 17.7127C236.652 16.6307 235.831 15.8553 234.75 15.8553C235.831 15.8553 236.652 15.0761 236.652 13.9978" fill="white"/>
<path d="M257.104 4.70687H255.239C256.319 4.70687 257.141 3.92771 257.141 2.84573C257.141 1.76376 256.319 0.988281 255.239 0.988281H240.409C239.329 0.988281 238.511 1.76745 238.511 2.84573C238.511 3.92401 239.329 4.70687 240.409 4.70687H238.548C237.468 4.70687 236.646 5.48604 236.646 6.56432C236.646 7.64261 237.468 8.42177 238.548 8.42177H246C244.92 8.42177 244.098 9.20094 244.098 10.2829C244.098 11.3649 244.916 12.1404 246 12.1404C244.92 12.1404 244.098 12.9195 244.098 14.0015C244.098 15.0835 244.916 15.859 246 15.859C244.92 15.859 244.098 16.6381 244.098 17.7201C244.098 18.8021 244.916 19.5776 246 19.5776C244.92 19.5776 244.098 20.3567 244.098 21.4387C244.098 22.5207 244.916 23.2961 246 23.2961C244.92 23.2961 244.098 24.079 244.098 25.1573C244.098 26.2356 244.916 27.0184 246 27.0184H249.652C250.732 27.0184 251.554 26.2356 251.554 25.1573C251.554 24.079 250.732 23.2961 249.652 23.2961C250.732 23.2961 251.554 22.517 251.554 21.4387C251.554 20.3604 250.732 19.5776 249.652 19.5776C250.732 19.5776 251.554 18.7984 251.554 17.7201C251.554 16.6418 250.732 15.859 249.652 15.859C250.732 15.859 251.554 15.0798 251.554 14.0015C251.554 12.9232 250.732 12.1404 249.652 12.1404C250.732 12.1404 251.554 11.3612 251.554 10.2829C251.554 9.20464 250.732 8.42177 249.652 8.42177H257.104C258.184 8.42177 259.006 7.64261 259.006 6.56432C259.006 5.48604 258.184 4.70687 257.104 4.70687Z" fill="white"/>
</g>
<defs>
<clipPath id="clip0_7_5">
<rect width="259" height="26.0813" fill="white" transform="translate(0 0.988281)"/>
</clipPath>
</defs>
</svg>
