<svg width="170" height="58" viewBox="0 0 170 58" fill="none" xmlns="http://www.w3.org/2000/svg">
<mask id="mask0_10164_5011" style="mask-type:luminance" maskUnits="userSpaceOnUse" x="0" y="0" width="170" height="58">
<path d="M170 0.400391H0V57.5004H170V0.400391Z" fill="white"/>
</mask>
<g mask="url(#mask0_10164_5011)">
<path d="M15.4002 0.900391C17.4002 0.900391 19.3002 1.20039 20.9002 1.90039C22.5002 2.60039 23.9002 3.50039 25.1002 4.70039C26.3002 5.90039 27.1002 7.40039 27.8002 9.10039C28.4002 10.8004 28.7002 12.7004 28.7002 14.8004C28.7002 18.8004 27.4002 22.2004 24.8002 24.7004C23.7002 25.8004 22.4002 26.7004 20.9002 27.3004C19.4002 27.9004 17.8002 28.2004 16.2002 28.2004H0.700195V0.900391H15.4002ZM15.8002 23.2004C17.0002 23.2004 18.1002 22.9004 19.1002 22.2004C20.2002 21.6004 21.0002 20.7004 21.7002 19.6004C22.6002 18.2004 23.1002 16.6004 23.1002 14.8004C23.1002 13.6004 22.9002 12.4004 22.6002 11.3004C22.2002 10.2004 21.7002 9.30039 21.1002 8.50039C20.5002 7.70039 19.7002 7.10039 18.8002 6.70039C17.9002 6.30039 16.9002 6.10039 15.8002 6.10039H6.0002V23.1004H15.8002V23.2004Z" fill="#192533"/>
</g>
<mask id="mask1_10164_5011" style="mask-type:luminance" maskUnits="userSpaceOnUse" x="0" y="0" width="170" height="58">
<path d="M170 0.400391H0V57.5004H170V0.400391Z" fill="white"/>
</mask>
<g mask="url(#mask1_10164_5011)">
<path d="M40.5996 28.4V1H45.8996V23.2H62.7996V28.4H40.5996Z" fill="#192533"/>
</g>
<mask id="mask2_10164_5011" style="mask-type:luminance" maskUnits="userSpaceOnUse" x="0" y="0" width="170" height="58">
<path d="M170 0.400391H0V57.5004H170V0.400391Z" fill="white"/>
</mask>
<g mask="url(#mask2_10164_5011)">
<path d="M75.7998 28.4008V7.60078L72.2998 9.30078V3.30078C73.5998 2.80078 74.7998 2.00078 75.7998 0.800781H81.1998V28.3008H75.7998V28.4008Z" fill="#192533"/>
</g>
<mask id="mask3_10164_5011" style="mask-type:luminance" maskUnits="userSpaceOnUse" x="0" y="0" width="170" height="58">
<path d="M170 0.400391H0V57.5004H170V0.400391Z" fill="white"/>
</mask>
<g mask="url(#mask3_10164_5011)">
<path d="M112.3 15.3C111.2 16.4 109.9 17.2 108.5 17.7C107.1 18.2 105.6 18.5 103.9 18.5C102.2 18.5 100.7 18.3 99.3 17.9C98 17.5 96.8 16.9 95.9 16.1C95 15.3 94.2 14.4 93.7 13.4C93.2 12.4 93 11.2 93 10C93 8.6 93.3 7.3 93.8 6.1C94.3 4.9 95 3.9 96 3.1C97 2.3 98.1 1.6 99.5 1.2C100.9 0.699997 102.5 0.5 104.2 0.5C106.2 0.5 108 0.8 109.7 1.5C111.3 2.2 112.7 3.2 113.9 4.4C115.1 5.6 115.9 7.1 116.6 8.8C117.3 10.5 117.5 12.4 117.5 14.5C117.5 16.1 117.3 17.5 116.9 18.9C116.5 20.3 115.9 21.6 115.2 22.7C113.9 24.6 112.4 26.1 110.5 27.1C108.6 28.1 106.6 28.7 104.3 28.7C100.1 28.7 96.6 26.9 93.8 23.4L97 20.1C97.9 21.2 99 22.1 100.2 22.6C101.4 23.2 102.7 23.5 104.2 23.5C105.4 23.5 106.4 23.3 107.4 22.9C108.3 22.5 109.2 22 109.9 21.3C110.6 20.6 111.2 19.7 111.6 18.7C111.9 17.8 112.2 16.6 112.3 15.3ZM111.2 9.4C109.7 7.1 107.3 5.9 103.9 5.9C102 5.9 100.5 6.2 99.6 6.9C98.6 7.6 98.1 8.5 98.1 9.6C98.1 12 99.9 13.2 103.5 13.2C106.9 13.3 109.5 12 111.2 9.4Z" fill="#192533"/>
</g>
<mask id="mask4_10164_5011" style="mask-type:luminance" maskUnits="userSpaceOnUse" x="0" y="0" width="170" height="58">
<path d="M170 0.400391H0V57.5004H170V0.400391Z" fill="white"/>
</mask>
<g mask="url(#mask4_10164_5011)">
<path d="M130.8 14.7004C133.1 12.3004 135.9 11.1004 139.2 11.1004C140.9 11.1004 142.4 11.3004 143.7 11.7004C145 12.1004 146.2 12.7004 147.1 13.4004C148 14.1004 148.8 15.0004 149.3 16.1004C149.8 17.1004 150.1 18.3004 150.1 19.6004C150.1 21.0004 149.9 22.2004 149.4 23.3004C148.9 24.4004 148.2 25.4004 147.3 26.2004C146.4 27.0004 145.2 27.7004 143.8 28.1004C142.4 28.5004 140.9 28.8004 139.2 28.8004C137.3 28.8004 135.6 28.5004 134 27.9004C132.4 27.3004 131.1 26.4004 129.9 25.2004C127.2 22.5004 125.9 19.0004 125.9 14.7004C125.9 11.5004 126.6 8.80039 128.1 6.40039C129.3 4.50039 130.8 3.00039 132.6 2.00039C134.4 0.900389 136.4 0.400391 138.6 0.400391C140.7 0.400391 142.7 0.900392 144.5 1.80039C146.3 2.70039 147.9 4.10039 149.5 6.00039L146.6 9.40039C145.6 8.10039 144.4 7.20039 143.2 6.60039C142 6.10039 140.5 5.80039 138.9 5.80039C136.5 5.80039 134.6 6.60039 133.2 8.10039C131.7 9.80039 130.9 12.0004 130.8 14.7004ZM132 19.8004C133.4 22.4004 135.7 23.7004 139 23.7004C141 23.7004 142.4 23.4004 143.5 22.7004C144.5 22.1004 145 21.2004 145 20.0004C145 18.8004 144.5 17.9004 143.5 17.3004C142.5 16.7004 141 16.4004 139.1 16.4004C137.7 16.4004 136.4 16.7004 135.2 17.3004C133.9 17.8004 132.9 18.7004 132 19.8004Z" fill="#192533"/>
</g>
<mask id="mask5_10164_5011" style="mask-type:luminance" maskUnits="userSpaceOnUse" x="0" y="0" width="170" height="58">
<path d="M170 0.400391H0V57.5004H170V0.400391Z" fill="white"/>
</mask>
<g mask="url(#mask5_10164_5011)">
<path d="M164 28.4008V7.60078L160.5 9.30078V3.30078C161.8 2.80078 163 2.00078 164 0.800781H169.4V28.3008H164V28.4008Z" fill="#192533"/>
</g>
<mask id="mask6_10164_5011" style="mask-type:luminance" maskUnits="userSpaceOnUse" x="0" y="0" width="170" height="58">
<path d="M170 0.400391H0V57.5004H170V0.400391Z" fill="white"/>
</mask>
<g mask="url(#mask6_10164_5011)">
<path d="M26.7998 56.9008V52.8008H28.0998C28.4998 52.8008 28.8998 52.9008 29.0998 53.1008C29.3998 53.3008 29.4998 53.6008 29.4998 54.0008C29.4998 54.4008 29.3998 54.7008 29.0998 54.9008C28.7998 55.1008 28.4998 55.2008 28.0998 55.2008H27.3998V57.0008H26.7998V56.9008ZM27.9998 54.6008C28.1998 54.6008 28.2998 54.6008 28.4998 54.5008C28.5998 54.5008 28.6998 54.4008 28.7998 54.4008C28.8998 54.3008 28.8998 54.3008 28.8998 54.2008C28.8998 54.1008 28.8998 54.1008 28.8998 54.0008C28.8998 53.9008 28.8998 53.8008 28.8998 53.8008C28.8998 53.7008 28.7998 53.7008 28.7998 53.6008C28.6998 53.5008 28.5998 53.5008 28.4998 53.5008C28.3998 53.5008 28.1998 53.5008 27.9998 53.5008H27.3998V54.7008H27.9998V54.6008Z" fill="#192533"/>
</g>
<mask id="mask7_10164_5011" style="mask-type:luminance" maskUnits="userSpaceOnUse" x="0" y="0" width="170" height="58">
<path d="M170 0.400391H0V57.5004H170V0.400391Z" fill="white"/>
</mask>
<g mask="url(#mask7_10164_5011)">
<path d="M28.1002 52.9008C28.5002 52.9008 28.9002 53.0008 29.1002 53.2008C29.3002 53.4008 29.5002 53.6008 29.5002 54.0008C29.5002 54.3008 29.4002 54.6008 29.1002 54.8008C28.8002 55.0008 28.5002 55.1008 28.1002 55.1008H27.3002V56.9008H26.9002V53.0008H28.1002V52.9008ZM27.3002 54.7008H28.0002C28.2002 54.7008 28.3002 54.7008 28.5002 54.6008C28.6002 54.6008 28.7002 54.5008 28.8002 54.5008C28.9002 54.4008 28.9002 54.4008 29.0002 54.3008C29.0002 54.2008 29.1002 54.1008 29.1002 54.0008C29.1002 53.9008 29.1002 53.8008 29.0002 53.7008C29.0002 53.6008 28.9002 53.5008 28.8002 53.5008C28.7002 53.4008 28.6002 53.4008 28.5002 53.4008C28.4002 53.4008 28.2002 53.3008 28.0002 53.3008H27.3002V54.7008ZM28.1002 52.8008H26.9002H26.7002V53.0008V56.9008V57.1008H26.9002H27.3002H27.5002V56.9008V55.3008H28.1002C28.6002 55.3008 28.9002 55.2008 29.2002 55.0008C29.5002 54.8008 29.6002 54.5008 29.6002 54.1008C29.6002 53.7008 29.5002 53.4008 29.2002 53.2008C28.9002 52.9008 28.6002 52.8008 28.1002 52.8008ZM27.5002 53.5008H28.0002C28.2002 53.5008 28.3002 53.5008 28.4002 53.5008C28.5002 53.5008 28.6002 53.6008 28.7002 53.6008C28.8002 53.6008 28.8002 53.7008 28.8002 53.8008C28.8002 53.9008 28.8002 53.9008 28.8002 54.0008C28.8002 54.1008 28.8002 54.1008 28.8002 54.2008C28.8002 54.3008 28.7002 54.3008 28.7002 54.3008C28.6002 54.3008 28.6002 54.4008 28.4002 54.4008C28.3002 54.4008 28.1002 54.4008 28.0002 54.4008H27.5002V53.5008Z" fill="#192533"/>
</g>
<mask id="mask8_10164_5011" style="mask-type:luminance" maskUnits="userSpaceOnUse" x="0" y="0" width="170" height="58">
<path d="M170 0.400391H0V57.5004H170V0.400391Z" fill="white"/>
</mask>
<g mask="url(#mask8_10164_5011)">
<path d="M38.3 56.9008L37.2 55.1008H36.6V56.9008H36V52.8008H37.4C37.8 52.8008 38.2 52.9008 38.4 53.1008C38.7 53.3008 38.8 53.6008 38.8 54.0008C38.8 54.3008 38.7 54.5008 38.5 54.7008C38.3 54.9008 38.1 55.0008 37.8 55.0008L39 56.9008H38.3ZM37.3 54.6008C37.5 54.6008 37.6 54.6008 37.8 54.5008C37.9 54.5008 38 54.4008 38.1 54.4008C38.2 54.3008 38.2 54.3008 38.2 54.2008C38.2 54.1008 38.2 54.0008 38.2 54.0008C38.2 53.9008 38.2 53.8008 38.2 53.8008C38.2 53.7008 38.1 53.7008 38.1 53.6008C38 53.5008 37.9 53.5008 37.8 53.5008C37.7 53.5008 37.5 53.5008 37.3 53.5008H36.6V54.7008H37.3V54.6008Z" fill="#192533"/>
</g>
<mask id="mask9_10164_5011" style="mask-type:luminance" maskUnits="userSpaceOnUse" x="0" y="0" width="170" height="58">
<path d="M170 0.400391H0V57.5004H170V0.400391Z" fill="white"/>
</mask>
<g mask="url(#mask9_10164_5011)">
<path d="M37.4 52.9008C37.8 52.9008 38.2 53.0008 38.4 53.2008C38.6 53.4008 38.8 53.6008 38.8 54.0008C38.8 54.3008 38.7 54.5008 38.5 54.7008C38.3 54.9008 38.1 55.0008 37.7 55.0008L38.9 56.9008H38.4L37.3 55.1008H36.6V56.9008H36.2V53.0008H37.4V52.9008ZM36.6 54.7008H37.3C37.5 54.7008 37.6 54.7008 37.8 54.6008C37.9 54.6008 38 54.5008 38.1 54.5008C38.2 54.4008 38.2 54.4008 38.3 54.3008C38.3 54.2008 38.4 54.1008 38.4 54.0008C38.4 53.9008 38.4 53.8008 38.3 53.7008C38.3 53.6008 38.2 53.5008 38.1 53.5008C38 53.4008 37.9 53.4008 37.8 53.4008C37.7 53.4008 37.5 53.3008 37.3 53.3008H36.6V54.7008ZM37.4 52.8008H36.1H36V53.0008V56.9008V57.1008H36.2H36.6H36.8V56.9008V55.3008H37.2L38.3 57.0008V57.1008H38.4H38.9H39.2L39 56.8008L37.9 55.2008C38.2 55.1008 38.4 55.0008 38.5 54.9008C38.7 54.7008 38.8 54.4008 38.8 54.1008C38.8 53.7008 38.7 53.4008 38.4 53.2008C38.2 52.9008 37.9 52.8008 37.4 52.8008ZM36.7 53.5008H37.3C37.5 53.5008 37.6 53.5008 37.7 53.5008C37.8 53.5008 37.9 53.6008 38 53.6008C38.1 53.6008 38.1 53.7008 38.1 53.8008C38.1 53.9008 38.1 53.9008 38.1 54.0008C38.1 54.1008 38.1 54.1008 38.1 54.2008C38.1 54.3008 38 54.3008 38 54.3008C37.9 54.3008 37.9 54.4008 37.7 54.4008C37.6 54.4008 37.4 54.4008 37.3 54.4008H36.7V53.5008Z" fill="#192533"/>
</g>
<mask id="mask10_10164_5011" style="mask-type:luminance" maskUnits="userSpaceOnUse" x="0" y="0" width="170" height="58">
<path d="M170 0.400391H0V57.5004H170V0.400391Z" fill="white"/>
</mask>
<g mask="url(#mask10_10164_5011)">
<path d="M45.4004 56.9004V52.9004H48.1004V53.4004H46.0004V54.6004H48.0004V55.1004H46.0004V56.4004H48.2004V56.9004H45.4004Z" fill="#192533"/>
</g>
<mask id="mask11_10164_5011" style="mask-type:luminance" maskUnits="userSpaceOnUse" x="0" y="0" width="170" height="58">
<path d="M170 0.400391H0V57.5004H170V0.400391Z" fill="white"/>
</mask>
<g mask="url(#mask11_10164_5011)">
<path d="M48.0002 52.9008V53.3008H45.9002V54.6008H47.9002V55.0008H45.9002V56.5008H48.1002V56.9008H45.5002V53.0008H48.0002V52.9008ZM48.2002 52.8008H48.0002H45.4002H45.2002V53.0008V56.9008V57.1008H45.4002H48.0002H48.2002V56.9008V56.5008V56.3008H48.0002H46.0002V55.2008H47.8002H48.0002V55.0008V54.6008V54.4008H47.8002H46.0002V53.4008H48.0002H48.2002V53.2008V52.8008Z" fill="#192533"/>
</g>
<mask id="mask12_10164_5011" style="mask-type:luminance" maskUnits="userSpaceOnUse" x="0" y="0" width="170" height="58">
<path d="M170 0.400391H0V57.5004H170V0.400391Z" fill="white"/>
</mask>
<g mask="url(#mask12_10164_5011)">
<path d="M58.4002 56.9004V53.9004L57.0002 56.9004H56.7002L55.3002 53.9004V56.9004H54.7002V52.9004H55.5002L56.8002 55.9004L58.2002 52.9004H59.0002V56.9004H58.4002Z" fill="#192533"/>
</g>
<mask id="mask13_10164_5011" style="mask-type:luminance" maskUnits="userSpaceOnUse" x="0" y="0" width="170" height="58">
<path d="M170 0.400391H0V57.5004H170V0.400391Z" fill="white"/>
</mask>
<g mask="url(#mask13_10164_5011)">
<path d="M58.8998 52.9008V56.8008H58.4998V53.4008L56.9998 56.8008H56.7998L55.2998 53.4008V56.8008H54.8998V52.9008H55.4998L56.8998 56.1008L58.2998 52.9008H58.8998ZM58.9998 52.8008H58.7998H58.1998H58.0998V52.9008L56.8998 55.7008L55.6998 52.9008V52.8008H55.5998H54.9998H54.7998V53.0008V56.9008V57.1008H54.9998H55.3998H55.5998V56.9008V54.3008L56.7998 57.0008V57.1008H56.8998H57.0998H56.9998V57.0008L58.1998 54.3008V56.9008V57.1008H58.3998H58.7998H58.9998V56.9008V53.0008V52.8008Z" fill="#192533"/>
</g>
<mask id="mask14_10164_5011" style="mask-type:luminance" maskUnits="userSpaceOnUse" x="0" y="0" width="170" height="58">
<path d="M170 0.400391H0V57.5004H170V0.400391Z" fill="white"/>
</mask>
<g mask="url(#mask14_10164_5011)">
<path d="M66.3998 52.9004H65.7998V57.0004H66.3998V52.9004Z" fill="#192533"/>
</g>
<mask id="mask15_10164_5011" style="mask-type:luminance" maskUnits="userSpaceOnUse" x="0" y="0" width="170" height="58">
<path d="M170 0.400391H0V57.5004H170V0.400391Z" fill="white"/>
</mask>
<g mask="url(#mask15_10164_5011)">
<path d="M66.2996 56.8008H65.8996V52.9008H66.2996V56.8008ZM66.3996 52.8008H66.1996H65.7996H65.5996V53.0008V56.9008V57.1008H65.7996H66.1996H66.3996V56.9008V53.0008V52.8008Z" fill="#192533"/>
</g>
<mask id="mask16_10164_5011" style="mask-type:luminance" maskUnits="userSpaceOnUse" x="0" y="0" width="170" height="58">
<path d="M170 0.400391H0V57.5004H170V0.400391Z" fill="white"/>
</mask>
<g mask="url(#mask16_10164_5011)">
<path d="M74.6996 57.0004C74.3996 57.0004 74.0996 56.9004 73.8996 56.8004C73.6996 56.7004 73.4996 56.6004 73.3996 56.4004C73.2996 56.2004 73.1996 56.1004 73.1996 55.9004C73.1996 55.7004 73.0996 55.5004 73.0996 55.4004V52.9004H73.6996V55.4004C73.6996 55.6004 73.6996 55.7004 73.7996 55.9004C73.7996 56.0004 73.8996 56.1004 73.8996 56.2004C73.9996 56.3004 73.9996 56.3004 74.0996 56.4004C74.1996 56.4004 74.2996 56.5004 74.2996 56.5004C74.3996 56.5004 74.3996 56.5004 74.4996 56.6004C74.5996 56.6004 74.5996 56.6004 74.6996 56.6004C74.6996 56.6004 74.7996 56.6004 74.8996 56.6004C74.9996 56.6004 74.9996 56.6004 75.0996 56.5004C75.1996 56.5004 75.1996 56.4004 75.2996 56.4004C75.3996 56.4004 75.3996 56.3004 75.4996 56.2004C75.5996 56.1004 75.5996 56.0004 75.5996 55.9004C75.5996 55.8004 75.6996 55.6004 75.6996 55.4004V52.9004H76.2996V55.4004C76.2996 55.6004 76.2996 55.7004 76.1996 55.9004C76.1996 56.1004 76.0996 56.3004 75.9996 56.4004C75.8996 56.6004 75.6996 56.7004 75.4996 56.8004C75.2996 57.0004 74.9996 57.0004 74.6996 57.0004Z" fill="#192533"/>
</g>
<mask id="mask17_10164_5011" style="mask-type:luminance" maskUnits="userSpaceOnUse" x="0" y="0" width="170" height="58">
<path d="M170 0.400391H0V57.5004H170V0.400391Z" fill="white"/>
</mask>
<g mask="url(#mask17_10164_5011)">
<path d="M76.2 52.9008V55.3008C76.2 55.5008 76.2 55.6008 76.1 55.8008C76.1 56.0008 76 56.1008 75.9 56.3008C75.8 56.5008 75.6 56.6008 75.4 56.7008C75.2 56.8008 75 56.9008 74.6 56.9008C74.3 56.9008 74 56.8008 73.8 56.7008C73.6 56.6008 73.5 56.5008 73.3 56.3008C73.2 56.1008 73.1 56.0008 73.1 55.8008C73.1 55.6008 73 55.4008 73 55.3008V52.9008H73.4V55.3008C73.4 55.5008 73.4 55.6008 73.5 55.8008C73.5 55.9008 73.6 56.0008 73.7 56.1008C73.8 56.2008 73.8 56.3008 73.9 56.3008C74 56.4008 74.1 56.4008 74.1 56.4008C74.2 56.4008 74.3 56.4008 74.3 56.5008C74.4 56.5008 74.4 56.5008 74.5 56.5008C74.6 56.5008 74.6 56.5008 74.7 56.5008C74.8 56.5008 74.9 56.5008 74.9 56.4008C75 56.4008 75.1 56.3008 75.1 56.3008C75.2 56.2008 75.3 56.2008 75.3 56.1008C75.4 56.0008 75.4 55.9008 75.5 55.8008C75.5 55.7008 75.6 55.5008 75.6 55.3008V52.9008H76.2ZM76.4 52.8008H76.2H75.8H75.6V53.0008V55.4008C75.6 55.6008 75.6 55.7008 75.5 55.8008C75.5 55.9008 75.4 56.0008 75.4 56.1008C75.3 56.2008 75.3 56.2008 75.2 56.3008C75.1 56.3008 75.1 56.4008 75 56.4008C74.9 56.4008 74.9 56.4008 74.8 56.4008C74.7 56.4008 74.7 56.4008 74.6 56.4008C74.6 56.4008 74.5 56.4008 74.4 56.4008C74.3 56.4008 74.3 56.4008 74.2 56.4008C74.1 56.4008 74.1 56.3008 74 56.3008C73.9 56.3008 73.9 56.2008 73.8 56.1008C73.7 56.0008 73.7 55.9008 73.7 55.8008C73.7 55.7008 73.6 55.5008 73.6 55.4008V53.0008V52.8008H73.4H73V53.0008V55.4008C73 55.6008 73 55.8008 73.1 56.0008C73.1 56.2008 73.2 56.4008 73.4 56.6008C73.5 56.8008 73.7 56.9008 73.9 57.0008C74.1 57.1008 74.4 57.2008 74.7 57.2008C75 57.2008 75.3 57.1008 75.5 57.0008C75.7 56.9008 75.9 56.7008 76 56.6008C76.1 56.4008 76.2 56.2008 76.3 56.0008C76.3 55.8008 76.4 55.6008 76.4 55.4008V53.0008V52.8008Z" fill="#192533"/>
</g>
<mask id="mask18_10164_5011" style="mask-type:luminance" maskUnits="userSpaceOnUse" x="0" y="0" width="170" height="58">
<path d="M170 0.400391H0V57.5004H170V0.400391Z" fill="white"/>
</mask>
<g mask="url(#mask18_10164_5011)">
<path d="M86.7 56.9004V53.9004L85.3 56.9004H85L83.6 53.9004V56.9004H83V52.9004H83.8L85.2 55.9004L86.5 52.9004H87.3V56.9004H86.7Z" fill="#192533"/>
</g>
<mask id="mask19_10164_5011" style="mask-type:luminance" maskUnits="userSpaceOnUse" x="0" y="0" width="170" height="58">
<path d="M170 0.400391H0V57.5004H170V0.400391Z" fill="white"/>
</mask>
<g mask="url(#mask19_10164_5011)">
<path d="M87.1996 52.9008V56.8008H86.7996V53.4008L85.2996 56.8008H84.9996L83.4996 53.4008V56.8008H83.0996V52.9008H83.6996L85.0996 56.1008L86.4996 52.9008H87.1996ZM87.3996 52.8008H87.1996H86.5996H86.4996V52.9008L85.2996 55.7008L84.0996 52.9008V52.8008H83.9996H83.3996H83.1996V53.0008V56.9008V57.1008H83.3996H83.7996H83.9996V56.9008V54.3008L85.1996 57.0008V57.1008H85.2996H85.4996H85.5996V57.0008L86.7996 54.3008V56.9008V57.1008H86.9996H87.3996H87.5996V56.9008V53.0008V52.8008H87.3996Z" fill="#192533"/>
</g>
<mask id="mask20_10164_5011" style="mask-type:luminance" maskUnits="userSpaceOnUse" x="0" y="0" width="170" height="58">
<path d="M170 0.400391H0V57.5004H170V0.400391Z" fill="white"/>
</mask>
<g mask="url(#mask20_10164_5011)">
<path d="M111.8 56.9004V52.9004H114.5V53.4004H112.4V54.6004H114.4V55.1004H112.4V56.4004H114.6V56.9004H111.8Z" fill="#192533"/>
</g>
<mask id="mask21_10164_5011" style="mask-type:luminance" maskUnits="userSpaceOnUse" x="0" y="0" width="170" height="58">
<path d="M170 0.400391H0V57.5004H170V0.400391Z" fill="white"/>
</mask>
<g mask="url(#mask21_10164_5011)">
<path d="M114.4 52.9008V53.3008H112.3V54.6008H114.3V55.0008H112.3V56.5008H114.5V56.9008H111.9V53.0008H114.4V52.9008ZM114.6 52.8008H114.4H111.8H111.6V53.0008V56.9008V57.1008H111.8H114.4H114.6V56.9008V56.5008V56.3008H114.4H112.4V55.2008H114.2H114.4V55.0008V54.6008V54.4008H114.2H112.4V53.4008H114.4H114.6V53.2008V52.8008Z" fill="#192533"/>
</g>
<mask id="mask22_10164_5011" style="mask-type:luminance" maskUnits="userSpaceOnUse" x="0" y="0" width="170" height="58">
<path d="M170 0.400391H0V57.5004H170V0.400391Z" fill="white"/>
</mask>
<g mask="url(#mask22_10164_5011)">
<path d="M124 56.9004L121.7 53.8004V56.9004H121.1V52.9004H121.7L124.1 56.0004V52.9004H124.7V56.9004H124Z" fill="#192533"/>
</g>
<mask id="mask23_10164_5011" style="mask-type:luminance" maskUnits="userSpaceOnUse" x="0" y="0" width="170" height="58">
<path d="M170 0.400391H0V57.5004H170V0.400391Z" fill="white"/>
</mask>
<g mask="url(#mask23_10164_5011)">
<path d="M124.6 52.9008V56.8008H124.1L121.6 53.5008V56.8008H121.2V52.9008H121.7L124.2 56.2008V52.9008H124.6ZM124.8 52.8008H124.6H124.2H124V53.0008V55.8008L121.8 52.9008L121.7 52.8008H121.6H121.1H121V53.0008V56.9008V57.1008H121.2H121.6H121.8V56.9008V54.0008L124 56.9008L124.1 57.0008H124.2H124.7H124.9V56.8008V52.9008V52.8008H124.8Z" fill="#192533"/>
</g>
<mask id="mask24_10164_5011" style="mask-type:luminance" maskUnits="userSpaceOnUse" x="0" y="0" width="170" height="58">
<path d="M170 0.400391H0V57.5004H170V0.400391Z" fill="white"/>
</mask>
<g mask="url(#mask24_10164_5011)">
<path d="M132.1 52.9004H131.5V57.0004H132.1V52.9004Z" fill="#192533"/>
</g>
<mask id="mask25_10164_5011" style="mask-type:luminance" maskUnits="userSpaceOnUse" x="0" y="0" width="170" height="58">
<path d="M170 0.400391H0V57.5004H170V0.400391Z" fill="white"/>
</mask>
<g mask="url(#mask25_10164_5011)">
<path d="M132 56.8008H131.6V52.9008H132V56.8008ZM132.2 52.8008H132H131.6H131.4V53.0008V56.9008V57.1008H131.6H132H132.2V56.9008V53.0008V52.8008Z" fill="#192533"/>
</g>
<mask id="mask26_10164_5011" style="mask-type:luminance" maskUnits="userSpaceOnUse" x="0" y="0" width="170" height="58">
<path d="M170 0.400391H0V57.5004H170V0.400391Z" fill="white"/>
</mask>
<g mask="url(#mask26_10164_5011)">
<path d="M142.6 56.9004V53.9004L141.2 56.9004H140.9L139.5 53.8004V56.9004H138.9V52.9004H139.7L141 55.9004L142.4 52.9004H143.2V56.9004H142.6Z" fill="#192533"/>
</g>
<mask id="mask27_10164_5011" style="mask-type:luminance" maskUnits="userSpaceOnUse" x="0" y="0" width="170" height="58">
<path d="M170 0.400391H0V57.5004H170V0.400391Z" fill="white"/>
</mask>
<g mask="url(#mask27_10164_5011)">
<path d="M143.1 52.9008V56.8008H142.7V53.4008L141.2 56.8008H141L139.5 53.4008V56.8008H139V52.9008H139.6L141 56.1008L142.4 52.9008H143.1ZM143.2 52.8008H143H142.4H142.3V52.9008L141.1 55.7008L139.9 52.9008V52.8008H139.8H139H138.8V53.0008V56.9008V57.1008H139H139.4H139.6V56.9008V54.3008L140.8 57.0008V57.1008H140.9H141.1H141.2V57.0008L142.4 54.3008V56.9008V57.1008H142.6H143H143.2V56.9008V53.0008V52.8008Z" fill="#192533"/>
</g>
<mask id="mask28_10164_5011" style="mask-type:luminance" maskUnits="userSpaceOnUse" x="0" y="0" width="170" height="58">
<path d="M170 0.400391H0V57.5004H170V0.400391Z" fill="white"/>
</mask>
<g mask="url(#mask28_10164_5011)">
<path d="M101.5 56.9004V52.9004H103.7C104 52.9004 104.3 52.9004 104.5 53.0004C104.7 53.1004 104.9 53.2004 105.1 53.4004C105.3 53.6004 105.4 53.8004 105.5 54.1004C105.6 54.3004 105.6 54.6004 105.6 54.9004C105.6 55.5004 105.4 56.0004 105 56.4004C104.8 56.6004 104.6 56.7004 104.4 56.8004C104.2 56.9004 103.9 56.9004 103.7 56.9004H101.5ZM103.7 56.3004C103.9 56.3004 104.1 56.2004 104.3 56.1004C104.5 56.0004 104.6 55.8004 104.7 55.7004C104.8 55.5004 104.9 55.2004 104.9 54.9004C104.9 54.7004 104.9 54.5004 104.8 54.3004C104.7 54.1004 104.7 54.0004 104.5 53.8004C104.4 53.7004 104.3 53.6004 104.1 53.5004C103.9 53.4004 103.8 53.4004 103.6 53.4004H102V56.3004H103.7Z" fill="#192533"/>
</g>
<mask id="mask29_10164_5011" style="mask-type:luminance" maskUnits="userSpaceOnUse" x="0" y="0" width="170" height="58">
<path d="M170 0.400391H0V57.5004H170V0.400391Z" fill="white"/>
</mask>
<g mask="url(#mask29_10164_5011)">
<path d="M103.7 53.0008C104 53.0008 104.3 53.0008 104.5 53.1008C104.7 53.2008 104.9 53.3008 105.1 53.5008C105.3 53.7008 105.4 53.9008 105.5 54.1008C105.6 54.3008 105.6 54.6008 105.6 54.9008C105.6 55.5008 105.4 55.9008 105.1 56.3008C104.9 56.5008 104.8 56.6008 104.6 56.7008C104.4 56.8008 104.2 56.8008 103.9 56.8008H101.7V53.0008H103.7ZM102 56.4008H103.7C103.9 56.4008 104.1 56.3008 104.3 56.2008C104.5 56.1008 104.7 55.9008 104.8 55.7008C105 55.4008 105 55.2008 105 54.9008C105 54.7008 105 54.5008 104.9 54.3008C104.8 54.1008 104.8 53.9008 104.6 53.8008C104.5 53.7008 104.3 53.5008 104.2 53.5008C104 53.4008 103.9 53.4008 103.7 53.4008H102V56.4008ZM103.7 52.8008H101.6H101.4V53.0008V56.9008V57.1008H101.6H103.8C104.1 57.1008 104.3 57.1008 104.5 57.0008C104.7 56.9008 104.9 56.8008 105.1 56.6008C105.5 56.2008 105.7 55.7008 105.7 55.1008C105.7 54.8008 105.7 54.5008 105.6 54.2008C105.5 53.9008 105.4 53.7008 105.2 53.5008C105 53.3008 104.8 53.2008 104.6 53.1008C104.3 52.9008 104 52.8008 103.7 52.8008ZM102.2 53.5008H103.7C103.9 53.5008 104 53.5008 104.2 53.6008C104.3 53.7008 104.5 53.8008 104.6 53.9008C104.7 54.0008 104.8 54.2008 104.8 54.3008C104.9 54.5008 104.9 54.6008 104.9 54.9008C104.9 55.2008 104.8 55.4008 104.7 55.7008C104.6 55.9008 104.5 56.0008 104.3 56.1008C104.1 56.2008 104 56.3008 103.8 56.3008H102.3V53.5008H102.2Z" fill="#192533"/>
</g>
</svg>
