<svg width="122" height="60" viewBox="0 0 122 60" fill="none" xmlns="http://www.w3.org/2000/svg">
<path d="M105.352 54.3419C104.896 54.099 104.414 53.9712 103.926 53.9712C103.424 53.9712 102.964 54.099 102.508 54.3419C102.036 54.6085 101.685 54.9624 101.405 55.4407C101.144 55.9165 101.032 56.4159 101.032 56.9242C101.032 57.435 101.144 57.9194 101.405 58.3906C101.671 58.8618 102.019 59.2295 102.485 59.4811C102.948 59.7476 103.413 59.872 103.925 59.872C104.428 59.8749 104.921 59.7397 105.352 59.4811C105.812 59.2298 106.186 58.8618 106.419 58.3903C106.679 57.9194 106.805 57.435 106.805 56.9242C106.805 56.4159 106.678 55.9165 106.419 55.4407C106.17 54.9627 105.809 54.6076 105.352 54.3419ZM106.022 58.14C105.793 58.5303 105.489 58.8355 105.109 59.0549C104.735 59.2795 104.339 59.3891 103.925 59.3891C103.504 59.3905 103.091 59.2748 102.732 59.0552C102.351 58.839 102.038 58.5224 101.826 58.14C101.619 57.7665 101.524 57.3596 101.524 56.9248C101.524 56.5035 101.63 56.0838 101.838 55.6925C102.047 55.2967 102.359 54.9955 102.74 54.7832C103.124 54.5665 103.52 54.4633 103.926 54.4633C104.33 54.4633 104.721 54.5659 105.109 54.7832C105.479 54.9961 105.772 55.2967 106.022 55.6925C106.223 56.0723 106.326 56.4955 106.324 56.9248C106.324 57.3599 106.228 57.7665 106.022 58.14ZM104.424 57.3066C104.348 57.2316 104.257 57.1741 104.157 57.1381C104.424 57.1123 104.653 57.0131 104.82 56.8446C104.98 56.6721 105.051 56.4659 105.051 56.2385C105.051 56.0783 105.004 55.9159 104.908 55.7688C104.815 55.6291 104.679 55.5236 104.52 55.4679C104.353 55.4119 104.087 55.388 103.741 55.388H102.657V58.5487H103.157V57.2226H103.452C103.634 57.2174 103.752 57.2453 103.854 57.3228C103.979 57.4193 104.157 57.6651 104.377 58.0496L104.653 58.549H105.271L104.896 57.9356C104.7 57.6446 104.555 57.4344 104.424 57.3063M103.759 56.7646H103.157V55.8132H103.74C103.978 55.8132 104.145 55.8304 104.226 55.8681C104.329 55.9159 104.413 55.9646 104.447 56.0311C104.5 56.1126 104.519 56.1981 104.519 56.2891C104.519 56.4459 104.47 56.5489 104.366 56.6426C104.257 56.7125 104.062 56.7646 103.759 56.7646ZM43.1288 18.8618C41.2053 18.8618 40.5273 20.6615 40.5273 22.4466H45.7185C45.7185 20.4529 45.0646 18.8618 43.1288 18.8618ZM0.488281 0.125L12.0877 54.9624L12.9698 54.5065C25.3072 48.0263 37.6257 48.4133 45.7761 49.8818C54.6461 51.4695 60.6526 54.6346 60.7249 54.6563L61.0466 54.8386L61.3775 54.6796C75.9391 48.2037 87.9647 48.5769 95.4866 50.0255C103.633 51.6043 108.413 54.7544 108.462 54.7905L109.379 55.3981L109.615 54.3119L121.513 0.125H0.488281ZM32.4756 33.5643H15.397V15.5791H22.1964V28.9718H32.4756V33.5643ZM43.4616 34.1832C36.4942 34.1832 32.8028 30.5834 32.8028 24.5732C32.8028 18.5649 36.6447 14.9727 43.0761 14.9727C49.9356 14.9727 53.3464 19.3652 53.3464 24.5732C53.3464 24.985 53.3167 25.3787 53.2609 25.6762H40.2785C40.2785 28.2334 41.7078 29.8 43.976 29.8C45.9155 29.8 47.399 29.2506 47.7143 27.6583H53.3786C52.6916 31.7753 49.7974 34.1832 43.4616 34.1832ZM65.9829 33.5952H60.3906L51.4648 15.4213H59.2965L64.086 25.9152H64.2101L69.0036 15.4213H74.6228L65.9826 33.5949L65.9829 33.5952ZM82.4463 33.556H75.6444V15.3864H82.4463V33.556ZM88.7267 16.8445L86.3705 19.6918H85.398L86.4652 16.5926H84.31V12.4508H88.7273L88.7267 16.8445ZM97.5937 33.9641C91.3604 33.9641 89.0447 31.2219 89.0447 27.9013V27.7965H94.7415C94.7415 29.3692 95.9823 30.1643 97.7266 30.1643C99.2672 30.1643 100.058 29.6532 100.058 28.6746C100.058 26.084 89.1988 28.5655 89.1988 21.2431C89.1988 17.3246 92.8556 15.0288 98.5677 15.0288C103.652 15.0288 106.735 17.5513 106.735 20.5616H101.519C101.519 19.693 100.432 18.8253 98.5799 18.8253C96.6953 18.8253 95.9633 19.4911 95.9633 20.0782C95.9633 22.9343 107.32 20.133 107.32 27.5848C107.318 31.1738 104.627 33.9641 97.594 33.9641" fill="#192533"/>
</svg>
