<svg width="924" height="66" viewBox="0 0 924 66" fill="none" xmlns="http://www.w3.org/2000/svg">
<path d="M17.0963 30.7554V2.76733H25.8096C36.3711 2.76733 40.0676 9.63232 40.0676 16.2333C40.0676 25.2106 34.5228 31.0194 22.9051 31.0194H17.0963V30.7554ZM29.7701 32.3396C44.0282 31.2834 51.4212 25.2106 51.4212 16.4973C51.4212 8.31213 45.8765 0.919067 28.978 0.919067H0.461914V3.03137H6.53479V63.232H0.461914V65.3444H24.2253V63.232H17.0963V32.6036H17.3603L42.1799 65.0803H58.0222V62.968H53.2695L29.7701 32.3396ZM94.7235 38.1484L104.493 10.9525H104.757L114.262 38.1484H94.7235ZM111.622 0.655029H105.285L82.8418 63.232H77.0329V65.3444H94.9875V63.232H85.4822L93.9314 39.4686H114.79L122.976 63.232H115.847V65.3444H137.498V63.232H133.537L111.622 0.655029ZM194.002 62.968H179.48V3.03137H189.249V0.919067H162.845V3.03137H168.918V63.232H162.845V65.3444H210.372V39.4686H208.26C202.451 61.9119 200.603 62.968 194.002 62.968ZM257.899 3.82349H267.932C278.23 3.82349 282.455 9.63232 282.455 18.6096C282.455 29.9633 277.702 32.6036 267.14 32.6036H257.899V3.82349ZM267.14 63.232H257.899V33.9238H269.781C285.887 33.9238 293.544 27.3229 293.544 17.8175C293.544 8.31213 285.095 0.919067 269.781 0.919067H241.529V3.03137H247.601V62.968H241.529V65.0803H266.876V63.232H267.14ZM379.356 65.3444V62.968H373.284V3.55945H379.356V0.919067H356.385V3.55945H362.458V31.0194H336.846V3.55945H343.183V0.919067H320.212V3.55945H326.021V62.968H320.212V65.3444H343.183V62.968H336.846V32.8677H362.458V62.968H356.385V65.3444H379.356ZM515.864 39.2046H513.752C507.679 61.6478 505.831 62.968 499.494 62.968H484.972V3.03137H494.741V0.919067H468.337V3.03137H474.41V63.232H468.337V65.3444H515.864V39.2046ZM557.054 38.1484L566.823 10.9525H567.088L576.593 38.1484H557.054ZM574.217 0.655029H567.88L545.172 63.232H539.628V65.3444H557.582V63.232H548.077L556.526 39.4686H577.385L585.57 63.232H578.441V65.3444H600.092V63.232H596.396L574.217 0.655029ZM660.821 2.76733H669.534V48.71C669.534 58.4794 662.933 64.2882 653.428 64.2882C647.091 64.2882 640.49 60.5917 640.49 49.238V2.76733H647.355V0.126953H623.856V2.23926H629.929V46.8617C629.929 59.5355 637.058 65.8724 653.164 65.8724C664.782 65.8724 672.439 59.0074 672.439 48.4459V2.76733H678.512V0.126953H660.821V2.76733ZM722.078 30.7554V2.76733H730.791C741.353 2.76733 745.049 9.63232 745.049 16.2333C745.049 25.2106 739.504 31.0194 727.887 31.0194H722.078V30.7554ZM735.016 32.3396C749.274 31.2834 756.667 25.2106 756.667 16.4973C756.667 8.31213 751.122 0.919067 734.224 0.919067H705.707V3.03137H711.78V63.232H705.707V65.3444H729.471V63.232H721.814V32.6036H722.078L746.897 65.0803H762.74V62.968H758.251L735.016 32.3396ZM820.036 62.968H802.873V32.6036H810.531C815.547 32.6036 817.66 35.5081 819.772 45.2775H821.884V17.5535H819.772C817.924 27.5869 815.283 30.2273 810.531 30.2273H802.873V2.76733H822.412C827.165 2.76733 828.749 4.08752 834.03 21.25H836.142V0.919067H786.239V3.03137H792.312V63.232H786.239V65.3444H837.198V41.3169H834.822C829.013 60.3276 826.901 62.968 820.036 62.968ZM914.562 3.55945V47.3898H914.297L885.253 0.919067H866.507V3.55945H873.108V62.968H866.507V65.3444H883.933V62.968H875.748V5.14368L914.033 65.3444H916.938V3.55945H923.539V0.919067H906.64V3.55945H914.562Z" fill="#192533"/>
</svg>
