<svg width="2299" height="1275" viewBox="0 0 2299 1275" fill="none" xmlns="http://www.w3.org/2000/svg">
<g clip-path="url(#clip0_10165_5201)">
<g clip-path="url(#clip1_10165_5201)">
<path fill-rule="evenodd" clip-rule="evenodd" d="M2243.23 292.94V803.534H1932.67C1932.67 803.534 1547.73 798.489 1547.73 412.548C1547.73 412.548 1540.69 270.84 1672.36 139.171C1804 7.51467 1939.7 20.5622 1939.7 20.5622C1939.7 20.5622 2038.19 13.5326 2127.63 56.7479C2127.63 56.7479 2235.19 110.015 2235.19 200.479C2235.19 200.479 2233.17 286.922 2150.76 286.922C2068.34 286.922 2065.31 204.512 2065.31 204.512C2065.31 204.512 2066.33 118.069 2150.76 118.069C2150.76 118.069 2163.83 118.069 2168.85 120.079C2168.85 120.079 2153.78 95.9684 2094.48 95.9684C2049.24 95.9684 1959.79 134.164 1959.79 245.717C1959.79 245.717 1962.8 385.415 2111.55 385.415C2111.55 385.402 2202.02 392.444 2243.23 292.94Z" fill="#192533"/>
<path d="M2255.89 933.659C2260.89 933.662 2265.83 932.681 2270.44 930.772C2275.06 928.863 2279.25 926.063 2282.78 922.532C2286.31 919.002 2289.11 914.81 2291.02 910.196C2292.93 905.582 2293.91 900.638 2293.91 895.644C2293.91 885.126 2289.65 875.632 2282.79 868.745C2275.9 861.858 2266.4 857.604 2255.89 857.604C2245.39 857.604 2235.88 861.858 2229.02 868.745C2222.13 875.606 2217.88 885.139 2217.88 895.644C2217.88 906.15 2222.13 915.657 2228.99 922.518H2229.02C2232.54 926.055 2236.73 928.861 2241.34 930.773C2245.95 932.685 2250.9 933.666 2255.89 933.659ZM2286.16 925.877C2282.19 929.86 2277.48 933.019 2272.28 935.171C2267.09 937.324 2261.52 938.427 2255.89 938.419C2244.09 938.419 2233.38 933.633 2225.62 925.903L2225.65 925.877C2221.67 921.908 2218.51 917.193 2216.35 912.002C2214.2 906.811 2213.08 901.245 2213.08 895.624C2213.08 890.003 2214.19 884.436 2216.34 879.243C2218.49 874.05 2221.64 869.332 2225.62 865.36C2229.59 861.379 2234.31 858.222 2239.51 856.07C2244.7 853.917 2250.27 852.813 2255.89 852.818C2267.72 852.818 2278.41 857.604 2286.16 865.36C2293.92 873.116 2298.71 883.803 2298.71 895.632C2298.71 907.434 2293.92 918.16 2286.16 925.877Z" fill="#192533"/>
<path fill-rule="evenodd" clip-rule="evenodd" d="M2243.18 875.645H2258.84C2262.48 875.645 2265.17 876.411 2266.86 877.928C2267.69 878.636 2268.35 879.519 2268.79 880.513C2269.23 881.507 2269.45 882.586 2269.42 883.674C2269.42 885.25 2268.96 886.791 2268.1 888.109C2267.18 889.505 2265.83 890.552 2264.24 891.079C2261.98 891.791 2259.6 892.107 2257.23 892.013H2243.17L2243.18 875.645ZM2243.18 919.626V897.668H2250.78C2252.46 897.668 2253.67 897.746 2254.4 897.927C2255.47 898.187 2256.48 898.635 2257.38 899.25C2258.37 899.86 2259.46 900.975 2260.7 902.545C2261.95 904.114 2263.52 906.397 2265.41 909.354L2271.97 919.639H2280.18L2271.6 906.189C2270.08 903.772 2268.26 901.558 2266.18 899.6C2264.97 898.611 2263.64 897.787 2262.22 897.149C2266.96 896.488 2270.48 894.97 2272.74 892.558C2275.01 890.172 2276.24 886.981 2276.16 883.687C2276.16 880.976 2275.45 878.499 2274.11 876.242C2272.86 874.099 2270.93 872.44 2268.62 871.534C2266.31 870.652 2262.96 870.211 2258.56 870.211H2236.66V919.639L2243.18 919.626ZM246.72 1212.48H103.157C103.157 1214.31 19.2949 1205.17 19.2949 1087.86C19.2949 970.545 102.95 974.19 102.95 974.19L245.916 973.45C245.916 973.45 263.036 974.436 263.036 997.444C263.036 1023.81 245.838 1023.76 245.838 1023.76H114.234C114.234 1023.76 74.6369 1021.5 75.1298 1081.57C75.441 1118.58 75.1298 1100.49 75.1298 1100.49C75.1298 1100.49 79.8507 1158.91 117.528 1161.46H246.72C246.72 1161.46 263.036 1162.02 263.036 1187.43C263.023 1212.46 246.72 1212.48 246.72 1212.48ZM339.7 1023.25H523.118C536.477 1023.55 533.313 1035.26 533.313 1035.26V1145.71C533.313 1162.25 512.717 1161.98 512.717 1161.98H376.729C346.665 1161.98 346.263 1134.21 346.263 1134.21C346.263 1103.91 376.729 1106.47 376.729 1106.47H502.626C502.626 1106.47 518.112 1106.44 518.112 1082.05C518.112 1056.24 502.626 1055.76 502.626 1055.76C502.626 1055.76 402.266 1055.52 349.531 1055.83C278.755 1056.21 278.703 1133.22 278.703 1133.22C278.703 1211.39 348.909 1212.64 348.909 1212.64C348.909 1212.64 534.22 1212.43 566.048 1212.43C596.579 1212.43 594.686 1182.42 594.686 1182.42V1016.02C594.686 971.466 556.049 974.19 556.049 974.19L339.246 974.112C339.246 974.112 320.375 974.644 320.206 998.728C320.012 1023.89 339.7 1023.25 339.7 1023.25ZM638.225 993.891C638.225 993.891 640.041 973.295 668.224 973.295C696.42 973.295 698.236 992.983 698.236 992.983V1187.91C698.236 1187.91 698.119 1211.54 669.08 1211.54C638.796 1211.54 638.225 1187.91 638.225 1187.91V993.891ZM712.295 986.2C712.244 984.604 713.385 984.202 713.385 984.202C713.385 984.202 739.143 973.282 781.878 973.282C824.614 973.282 875.546 986.939 876.454 1052.4C876.454 1052.4 874.833 1086.55 865.455 1098.75C865.455 1098.75 864.885 1100.22 863.873 1100.07C859.762 1099.49 828.53 1089.71 816.352 1083.78C814.912 1083.07 815.535 1081.98 815.535 1081.5C815.535 1081.5 828.258 1051.49 810.982 1029.67C794.407 1008.75 735.524 1013.57 723.346 1020.5C723.346 1020.5 721.945 1021.11 721.206 1019.42C719.688 1015.65 712.438 990.959 712.295 986.2ZM915.207 940.52C915.207 940.52 915.493 920.235 946.231 920.274C975.776 920.3 976.528 940.52 976.528 940.52V1191.07C976.528 1191.07 976.074 1212.42 946.27 1212.42C915.596 1212.42 915.194 1191.55 915.194 1191.55L915.207 940.52ZM986.385 990.246C986.385 990.246 986.035 989.455 990.237 986.9C990.237 986.9 1003.4 976.965 1061.17 974.618C1119.84 974.695 1176.61 994.345 1176.61 1085.72C1176.61 1085.72 1172.28 1152.85 1150.65 1203.83C1150.65 1203.83 1149.21 1211.06 1140.54 1211.06H1091.48C1091.48 1211.06 1079.46 1213.47 1084.26 1202.87C1089.07 1192.29 1116.01 1129.01 1116.01 1093.42C1116.01 1059.12 1106.38 1019.83 1038.1 1019.83C1038.1 1019.83 1014.94 1019.78 998.642 1028.01C998.642 1028.01 991.431 1031.87 989.991 1025.6C988.551 1019.34 984.946 998.91 986.385 990.246ZM1869.46 943.49C1869.46 943.49 1869.59 920.469 1896.14 920.287C1922.15 920.106 1923.09 943.49 1923.09 943.49V974.112H1992.35C1992.35 974.112 2008.13 974.436 2008.13 998.78C2008.13 1022.77 1992.83 1023.23 1992.83 1023.23H1923.09V1188.27C1923.09 1188.27 1922.15 1212.53 1896.14 1212.56C1869.59 1212.56 1869.21 1188.27 1869.21 1188.27V1023.49H1839.34C1839.34 1023.49 1824.25 1023.22 1824.25 998.793C1824.25 974.449 1838.91 973.567 1838.91 973.567L1869.46 974.125V943.49ZM2090.71 943.49C2090.71 943.49 2090.84 920.469 2117.41 920.287C2143.41 920.106 2144.34 943.49 2144.34 943.49V973.813H2220.35C2220.35 973.813 2241.16 973.411 2241.16 998.508C2241.16 1022.77 2220.85 1023.28 2220.85 1023.28H2144.35V1188.27C2144.35 1188.27 2143.42 1212.53 2117.43 1212.56C2090.85 1212.56 2090.5 1188.27 2090.5 1188.27V1023.54H2060.61C2060.61 1023.54 2045.51 1023.22 2045.51 998.287C2045.51 974.241 2060.18 973.567 2060.18 973.567L2090.72 974.125V943.49H2090.71ZM1557.3 993.891C1557.3 993.891 1559.1 973.295 1587.29 973.295C1615.47 973.295 1617.3 992.983 1617.3 992.983V1187.91C1617.3 1187.91 1617.17 1211.54 1588.14 1211.54C1557.85 1211.54 1557.29 1187.91 1557.29 1187.91L1557.3 993.891ZM1631.35 986.2C1631.29 984.604 1632.44 984.202 1632.44 984.202C1632.44 984.202 1658.19 973.282 1700.93 973.282C1743.66 973.282 1794.61 986.939 1795.52 1052.4C1795.52 1052.4 1793.9 1086.55 1784.52 1098.75C1784.52 1098.75 1783.94 1100.22 1782.92 1100.07C1778.83 1099.49 1747.58 1089.71 1735.4 1083.78C1733.96 1083.07 1734.6 1081.98 1734.6 1081.5C1734.6 1081.5 1747.31 1051.49 1730.03 1029.67C1713.47 1008.75 1654.57 1013.57 1642.41 1020.5C1642.41 1020.5 1641 1021.11 1640.26 1019.42C1638.76 1015.65 1631.5 990.959 1631.35 986.2ZM1258.28 1023.25H1441.69C1455.06 1023.55 1451.87 1035.26 1451.87 1035.26V1145.71C1451.87 1162.25 1431.27 1161.98 1431.27 1161.98H1295.3C1265.24 1161.98 1264.85 1134.21 1264.85 1134.21C1264.85 1103.91 1295.3 1106.47 1295.3 1106.47H1421.2C1421.2 1106.47 1436.67 1106.44 1436.67 1082.05C1436.67 1056.24 1421.2 1055.76 1421.2 1055.76C1421.2 1055.76 1320.84 1055.52 1268.11 1055.83C1197.31 1056.21 1197.26 1133.22 1197.26 1133.22C1197.26 1210.43 1267.53 1212.51 1267.53 1212.51L1484.59 1212.43C1515.12 1212.43 1513.24 1182.42 1513.24 1182.42V1016.02C1513.24 971.466 1474.61 974.19 1474.61 974.19L1257.79 974.112C1257.79 974.112 1238.92 974.644 1238.74 998.728C1238.58 1023.89 1258.28 1023.25 1258.28 1023.25Z" fill="#192533"/>
</g>
</g>
<defs>
<clipPath id="clip0_10165_5201">
<rect width="2299" height="1275" fill="white"/>
</clipPath>
<clipPath id="clip1_10165_5201">
<rect width="2500" height="2500" fill="white" transform="translate(-91 -612)"/>
</clipPath>
</defs>
</svg>
