<svg width="2483" height="132" viewBox="0 0 2483 132" fill="none" xmlns="http://www.w3.org/2000/svg">
<path fill-rule="evenodd" clip-rule="evenodd" d="M1016.02 2.95801H1118.05V31.2964H1016.02V2.95801ZM1016.02 100.735H1118.05V129.099H1016.02V100.735Z" fill="#192533"/>
<path fill-rule="evenodd" clip-rule="evenodd" d="M1118.05 129.087H1220.08V2.94531H1118.05V129.087Z" fill="#6C6C6C"/>
<path fill-rule="evenodd" clip-rule="evenodd" d="M1220.08 2.95801H1118.05V31.2964H1220.08V2.95801ZM1220.08 100.735H1118.05V129.099H1220.08V100.735Z" fill="#192533"/>
<path fill-rule="evenodd" clip-rule="evenodd" d="M61.9814 129.865V17.2508H19.9473V2.15428H120.954V17.2508H78.9196V129.865H61.9814ZM231.726 26.9C235.791 22.9115 240.606 19.7688 245.893 17.6539C251.18 15.539 256.835 14.4939 262.529 14.5791C270.933 14.5791 278.494 16.719 285.251 20.9859C292.008 25.2529 297.131 31.2578 300.633 39.0135C304.148 46.7693 305.886 55.835 305.886 66.2366C305.886 82.656 301.787 95.3531 293.591 104.289C285.394 113.225 274.941 117.699 262.256 117.699C249.806 117.699 239.443 113.264 231.194 104.419C222.933 95.5606 218.809 83.46 218.809 68.0653C218.809 48.8315 223.114 35.1097 231.726 26.9ZM208.705 99.5941C213.392 109.444 220.858 117.708 230.183 123.367C239.625 129.165 250.35 132.07 262.347 132.07C273.17 132.136 283.829 129.425 293.305 124.197C302.864 118.957 310.269 111.215 315.483 100.995C320.697 90.7749 323.304 79.1801 323.304 66.2366C323.304 53.4616 320.827 42.0354 315.872 31.9581C311.159 22.139 303.639 13.9381 294.265 8.39254C284.823 2.76378 274.214 -0.0505142 262.438 -0.0505142C244.462 -0.0505142 229.794 5.9414 218.432 17.9512C207.071 29.935 201.403 46.5229 201.403 67.7151C201.403 78.9337 203.829 89.5427 208.705 99.5941ZM416.088 129.865V2.14131H441.378L471.636 92.5387C474.424 100.956 476.448 107.259 477.732 111.435C479.21 106.792 481.48 99.9702 484.579 90.9694L515.421 2.14131H537.975V129.865H521.724V23.0481L484.411 129.865H469.185L432.325 21.1935V129.865H416.088ZM635.959 129.865V2.14131H661.263L691.508 92.5387C694.296 100.956 696.332 107.259 697.616 111.435C699.082 106.792 701.365 99.9702 704.477 90.9694L735.319 2.14131H757.873V129.865H741.622V23.0481L704.309 129.865H689.069L652.21 21.1935V129.865H635.959ZM892.301 129.865V75.7561L843.082 2.14131H863.418L888.592 40.8293C893.222 47.8312 897.596 54.9994 901.704 62.3198C905.634 55.6405 910.303 48.1051 915.711 39.7139L940.444 2.14131H960.119L909.266 75.7561V129.865H892.301ZM1303.01 129.865V2.15428H1319.94V54.6418H1386.11V2.15428H1403.09V129.865H1386.11V69.7383H1319.94V129.865H1303.01ZM1487.59 129.865V2.15428H1504.54V129.865H1487.59ZM1586.93 129.865V2.15428H1603.89V114.781H1666.81V129.865H1586.93ZM1741 129.865V2.15428H1827.38V17.2508H1757.95V56.7299H1818.09V71.8135H1757.95V129.865H1741ZM1905.75 129.865V2.15428H1922.7V129.865H1905.75ZM2065.44 79.8286V64.745H2119.55V112.136C2111.84 118.433 2103.18 123.471 2093.89 127.063C2085.22 130.379 2076.01 132.076 2066.73 132.07C2054.21 132.07 2042.84 129.385 2032.61 124.029C2022.6 118.894 2014.48 110.727 2009.4 100.696C2004.22 90.5414 2001.57 79.1672 2001.57 66.6127C2001.57 54.1879 2004.18 42.5801 2009.38 31.7895C2014.58 20.9989 2022.05 13.0097 2031.78 7.77005C2041.5 2.54334 2052.75 -0.0634766 2065.44 -0.0634766C2074.67 -0.0634766 2083 1.42793 2090.45 4.42388C2097.92 7.40686 2103.74 11.5831 2108.01 16.9265C2112.24 22.27 2115.45 29.2475 2117.66 37.8333L2102.46 42.0095C2100.54 35.4988 2098.18 30.3759 2095.31 26.6407C2092.47 22.9184 2088.43 19.9354 2083.15 17.7047C2077.58 15.4105 2071.6 14.2678 2065.57 14.3455C2057.84 14.3455 2051.16 15.5258 2045.56 17.8733C2039.91 20.2337 2035.38 23.3335 2031.96 27.1854C2028.55 30.9124 2025.82 35.1991 2023.88 39.8566C2020.58 48.0449 2018.93 56.8011 2019.01 65.6269C2019.01 77.0401 2020.96 86.5856 2024.89 94.2766C2028.82 101.967 2034.49 107.661 2041.98 111.396C2049.38 115.103 2057.55 117.018 2065.82 116.986C2073.11 116.986 2080.26 115.573 2087.22 112.745C2094.18 109.918 2099.45 106.922 2103.06 103.692V79.8286H2065.44ZM2198.68 129.865V2.15428H2290.61V17.2508H2215.63V56.263H2285.74V71.3595H2215.63V114.781H2293.66V129.865H2198.68ZM2387.61 16.33H2428.03C2437.5 16.33 2444.45 18.2624 2448.84 22.1662C2453.22 26.057 2455.42 31.0374 2455.42 37.0682C2455.42 41.1925 2454.28 45.0054 2452.03 48.5202C2449.66 52.1139 2446.17 54.816 2442.09 56.1982C2437.71 57.7934 2431.68 58.5975 2423.96 58.5975H2387.61V16.33ZM2387.61 129.865V73.2141H2407.22C2411.57 73.2141 2414.71 73.4087 2416.62 73.8237C2419.25 74.4592 2421.83 75.5876 2424.35 77.2217C2426.88 78.8429 2429.74 81.6962 2432.93 85.7556C2436.13 89.8151 2440.18 95.6643 2445.14 103.316L2462.01 129.865H2483.14L2461.03 95.1326C2457.1 88.9088 2452.41 83.2085 2447.05 78.1685C2444.71 76.0674 2441.33 73.9533 2436.86 71.8004C2449.12 70.1273 2458.17 66.1717 2464.05 59.9464C2469.92 53.721 2472.84 46.0819 2472.84 37.0162C2472.84 29.9738 2471.07 23.5539 2467.55 17.7436C2464.31 12.2087 2459.3 7.92398 2453.34 5.57822C2447.41 3.29559 2438.75 2.14131 2427.37 2.14131H2370.68V129.865H2387.61Z" fill="#192533"/>
</svg>
