<svg width="790" height="113" viewBox="0 0 790 113" fill="none" xmlns="http://www.w3.org/2000/svg">
<path fill-rule="evenodd" clip-rule="evenodd" d="M45.147 2.009H0V110.196H47.74C74.966 110.196 89.456 99.454 89.456 79.207C89.456 68.234 82.134 59.039 70.162 54.942C80.152 51.234 86.253 42.502 86.253 31.992C86.253 12.441 71.916 2.009 45.147 2.009ZM22.727 21.791H44.537C54.527 21.791 62.536 24.033 62.536 33.537C62.536 43.506 54.68 45.592 44.537 45.592H22.727V21.791ZM22.727 65.993H46.673C58.493 65.993 65.814 68.543 65.814 78.126C65.814 87.786 58.494 90.412 46.673 90.412H22.726L22.727 65.993ZM158.13 0C124.726 0 101.237 23.723 101.237 56.102C101.237 88.481 124.727 112.205 158.13 112.205C191.456 112.205 215.022 88.481 215.022 56.102C215.022 23.723 191.456 0 158.13 0ZM158.13 20.71C177.423 20.71 191.227 35.083 191.227 56.102C191.227 77.122 177.423 91.495 158.13 91.495C138.91 91.495 124.955 77.122 124.955 56.102C124.955 35.083 138.911 20.71 158.13 20.71ZM328.462 110.196V2.009H305.582V70.862L253.267 2.009H230.92V110.196H253.8V40.8L306.346 110.195L328.462 110.196ZM401.482 0C368.08 0 344.59 23.723 344.59 56.102C344.59 88.481 368.079 112.205 401.482 112.205C434.809 112.205 458.374 88.481 458.374 56.102C458.374 23.723 434.81 0 401.482 0ZM401.482 20.71C420.776 20.71 434.58 35.083 434.58 56.102C434.58 77.122 420.776 91.495 401.482 91.495C382.264 91.495 368.307 77.122 368.307 56.102C368.307 35.083 382.264 20.71 401.482 20.71ZM519.04 2.008H473.893V110.195H521.633C548.859 110.195 563.349 99.453 563.349 79.206C563.349 68.233 556.028 59.038 544.054 54.941C554.044 51.233 560.146 42.501 560.146 31.991C560.146 12.44 545.809 2.008 519.04 2.008ZM496.619 21.79H518.431C528.421 21.79 536.428 24.032 536.428 33.536C536.428 43.505 528.574 45.591 518.431 45.591H496.619V21.79ZM496.619 65.992H520.566C532.386 65.992 539.708 68.542 539.708 78.125C539.708 87.785 532.387 90.411 520.566 90.411H496.62V65.993L496.619 65.992ZM632.022 0C598.62 0 575.13 23.723 575.13 56.102C575.13 88.481 598.62 112.205 632.022 112.205C665.349 112.205 688.915 88.481 688.915 56.102C688.915 23.723 665.35 0 632.022 0ZM632.022 20.71C651.317 20.71 665.12 35.083 665.12 56.102C665.12 77.122 651.317 91.495 632.022 91.495C612.804 91.495 598.848 77.122 598.848 56.102C598.848 35.083 612.804 20.71 632.022 20.71ZM745.538 112.126C768.265 112.126 790 102.08 790 78.976C790 61.666 778.942 52.083 760.333 47.447L747.521 44.279C729.981 39.952 726.702 37.788 726.702 31.528C726.702 25.268 732.802 20.709 745.538 20.709C755.605 20.709 762.775 24.651 767.579 32.301L787.026 22.255C782.146 8.423 765.976 0.077 745.844 0.077C720.906 0.077 702.832 13.832 702.832 33.46C702.832 54.711 719.304 62.207 733.642 65.452L749.199 69.007C761.555 71.788 765.976 73.876 765.976 80.367C765.976 88.249 757.816 91.495 746.301 91.495C732.879 91.495 722.584 84.618 717.855 75.112L698.56 86.702C706.95 104.244 724.415 112.126 745.538 112.126Z" fill="#192533"/>
</svg>
