<svg width="160" height="50" viewBox="0 0 160 50" fill="none" xmlns="http://www.w3.org/2000/svg">
<path d="M112.2 33.7004L111.9 33.1004L97.3002 1.20039L96.9002 0.400391L96.5002 1.20039L82.0002 33.1004L81.7002 33.7004H82.3002H86.4002H86.7002L86.8002 33.5004L90.2002 26.1004H103.7L107.1 33.5004L107.2 33.7004H107.5H111.6H112.2ZM92.1002 21.7004L96.9002 10.7004L101.7 21.7004H92.1002Z" fill="#192533"/>
<path d="M18.5 38.6996L15 49.3996H17.1L17.7 47.2996H20.8L21.4 49.3996H23.5L20.1 38.5996H18.5V38.6996ZM18 46.1996L19.3 40.6996L20.1 44.5996L20.5 46.1996H18Z" fill="#192533"/>
<path d="M34.4 42.5012L33.5 46.1012L33.4 46.8012L31.6 38.7012H29.5L32.5 49.4012H34.2L37.3 38.7012H35.3L34.4 42.5012Z" fill="#192533"/>
<path d="M7.5 33.7008C12.8 33.7008 18.5 31.3008 18.5 24.7008C18.5 21.1008 16.1 17.8008 12.9 16.8008C14.7 15.5008 15.7 13.1008 15.7 11.1008C15.7 5.20078 11.9 2.30078 4.1 2.30078H0.4H0V2.70078V33.3008V33.7008H0.4H7.5ZM4.6 6.50078H5.3C9 6.50078 11.4 7.30078 11.4 11.1008C11.4 15.0008 8.9 15.8008 5.2 15.8008H4.6V6.50078ZM4.6 19.7008H6.6C10 19.7008 14 20.5008 14 24.5008C14 27.8008 11.7 29.5008 7.2 29.5008H4.7V19.7008H4.6Z" fill="#192533"/>
<path d="M127.2 33.7008H127.6V33.3008V29.8008V29.4008H127.2H118.3V2.70078V2.30078H117.9H114.1H113.7V2.70078V33.3008V33.7008H114.1H127.2Z" fill="#192533"/>
<path d="M157.9 42.5012L158.4 46.8012L154.7 38.7012H152.7V49.4012H154.8V45.5012L154.5 41.9012L154.3 41.2012L154.4 41.1012L158.1 49.4012H160V38.7012H157.9V42.5012Z" fill="#192533"/>
<path d="M40.5 2.30078H40.1V2.70078V20.7008C40.1 26.9008 37.8 29.9008 33.1 29.9008C28.4 29.9008 26.1 26.9008 26.1 20.7008V2.70078V2.30078H25.7H21.9H21.5V2.70078V22.0008C21.5 29.3008 26.2 34.3008 33.1 34.3008C40 34.3008 44.7 29.4008 44.7 22.0008V2.70078V2.30078H44.3H40.5Z" fill="#192533"/>
<path d="M139.9 38.5C135.8 38.5 135.8 42.1 135.8 44C135.8 45.9 135.8 49.5 139.9 49.5C144 49.5 144 45.9 144 44C144 42.1 144 38.5 139.9 38.5ZM139.9 48.2C138.2 48.2 138 46.3 138 44C138 41.7 138.2 39.8 139.9 39.8C141.5 39.8 141.8 41.7 141.8 44C141.8 46.3 141.6 48.2 139.9 48.2Z" fill="#192533"/>
<path d="M2.3 38.7012H0V49.5012H1.4C5.1 49.5012 7.6 49.3012 7.6 44.3012C7.6 38.8012 4.8 38.7012 2.3 38.7012ZM2.1 48.2012V39.9012C5.6 39.8012 5.4 42.6012 5.4 44.3012C5.4 46.1012 5.5 48.3012 2.1 48.2012Z" fill="#192533"/>
<path d="M121.6 39.9012H124.1V49.4012H126.2V39.9012H128.5V38.7012H121.6V39.9012Z" fill="#192533"/>
<path d="M87.6004 44.0012C89.3004 43.7012 89.6004 42.6012 89.6004 41.6012C89.6004 39.8012 88.8004 38.7012 86.0004 38.7012H83.4004V49.5012H85.9004C88.8004 49.5012 89.9004 48.5012 89.9004 46.6012C89.8004 45.3012 89.4004 44.3012 87.6004 44.0012ZM85.4004 39.9012H85.8004C87.2004 39.9012 87.7004 40.7012 87.7004 41.5012C87.7004 42.6012 87.4004 43.5012 85.5004 43.4012V39.9012H85.4004ZM85.4004 48.2012V44.5012C87.3004 44.5012 87.7004 45.2012 87.7004 46.4012C87.6004 47.6012 87.2004 48.3012 85.4004 48.2012Z" fill="#192533"/>
<path d="M47.3002 38.7012H45.2002V49.5012H47.3002V38.7012Z" fill="#192533"/>
<path d="M108.4 39.9012H110.8V49.4012H112.9V39.9012H115.3V38.7012H108.4V39.9012Z" fill="#192533"/>
<path d="M100.7 38.7012H98.5996V49.5012H100.7V38.7012Z" fill="#192533"/>
<path d="M160 18.0012C160 9.00117 152.6 1.70117 143.6 1.70117C134.5 1.70117 127.2 9.00117 127.2 18.0012C127.2 27.2012 134.4 34.3012 143.6 34.3012C152.8 34.3012 160 27.1012 160 18.0012ZM131.8 18.0012C131.8 11.2012 136.9 6.00117 143.6 6.00117C150.3 6.00117 155.4 11.1012 155.4 18.0012C155.4 24.6012 150.1 30.0012 143.6 30.0012C137.1 29.9012 131.8 24.6012 131.8 18.0012Z" fill="#192533"/>
<path d="M83.5998 18.7008V18.3008V14.8008V14.4008H83.1998H72.9998V6.60078H83.4998H83.8998V6.20078V2.70078V2.30078H83.4998H68.6998H68.2998V2.70078V33.3008V33.7008H68.6998H72.5998H72.9998V33.3008V18.7008H83.1998H83.5998Z" fill="#192533"/>
<path d="M58.7004 38.7012H56.4004V49.5012H57.8004C61.5004 49.5012 64.0004 49.3012 64.0004 44.3012C64.0004 38.8012 61.2004 38.7012 58.7004 38.7012ZM58.4004 48.2012V39.9012C61.9004 39.8012 61.7004 42.6012 61.7004 44.3012C61.7004 46.1012 61.9004 48.3012 58.4004 48.2012Z" fill="#192533"/>
<path d="M49.4996 2.30078H49.0996V2.70078V33.3008V33.7008H49.4996H53.2996H53.6996V33.3008V18.7008H63.9996H64.3996V18.3008V14.8008V14.4008H63.9996H53.6996V6.60078H64.2996H64.6996V6.20078V2.70078V2.30078H64.2996H49.4996Z" fill="#192533"/>
</svg>
