<svg width="245" height="54" viewBox="0 0 245 54" fill="none" xmlns="http://www.w3.org/2000/svg">
<g clip-path="url(#clip0_10165_5316)">
<path d="M211.23 7.16992L230.89 34.1699V7.16992H237.85V46.1099H231.01L210.75 18.8699V46.1099H203.56V7.52992L203.92 7.16992H211.23Z" fill="#192533"/>
<path d="M197.25 26.6704C197.25 38.1404 187.92 47.4404 176.41 47.4404C164.9 47.4404 155.57 38.1404 155.57 26.6704C155.57 15.2004 164.9 5.90039 176.41 5.90039C187.92 5.90039 197.25 15.2004 197.25 26.6704ZM175.46 12.7404C158.66 13.7004 158.48 39.3504 175.15 40.6204C194.73 42.1104 195.03 11.6204 175.46 12.7404Z" fill="#192533"/>
<path d="M88.71 46.1101V7.17008C96.13 7.56008 104.3 6.03008 111.31 8.90008C127.06 15.3501 126.69 38.7401 110.65 44.6901C109.49 45.1201 106.23 46.1201 105.13 46.1201H88.71V46.1101ZM95.91 39.6601H103.94C107.42 39.6601 111.99 36.5901 113.75 33.6701C118.81 25.2701 113.13 13.6201 102.98 13.6201H95.91V39.6601Z" fill="#192533"/>
<path d="M13.4305 23.4099H33.0905V7.16992H39.9205L40.2805 7.52992V46.1099H33.0905V29.8599H13.4305V46.1099H6.23047V7.16992H13.0705L13.4305 7.52992V23.4099Z" fill="#192533"/>
<path d="M55.6302 7.17016V32.6102C55.6302 40.8902 68.2102 43.3602 72.0402 36.5402C72.2802 36.1002 73.1302 33.9202 73.1302 33.5702V7.53016L73.4902 7.17016H80.3202V33.5702C80.3202 34.1902 79.6102 36.6602 79.3702 37.4002C74.6102 51.8402 49.9902 49.7602 48.7002 34.0102C48.0902 25.1002 48.5902 16.1002 48.4302 7.16016H55.6202L55.6302 7.17016Z" fill="#192533"/>
<path d="M149.37 16.0104L138.94 12.6604C135.83 12.8404 133.54 15.2904 134.8 18.4504C135.99 21.4104 143.71 23.8404 146.56 25.8404C154.58 31.4804 153.11 43.5804 143.37 46.2204C137.8 47.7304 132.56 45.9404 127.3 44.1904V36.7804L139.16 40.6104C145.38 40.0604 146.6 33.9304 141.21 30.6804C135.82 27.4304 128.6 26.5304 127.6 19.1504C125.81 6.00042 140.21 4.30042 149.36 8.70042V15.9904L149.37 16.0104Z" fill="#192533"/>
</g>
<defs>
<clipPath id="clip0_10165_5316">
<rect width="244.08" height="53.04" fill="white"/>
</clipPath>
</defs>
</svg>
