<svg width="180" height="31" viewBox="0 0 180 31" fill="none" xmlns="http://www.w3.org/2000/svg">
<path d="M158.8 0.400391C153.7 0.400391 148.7 0.400391 143.6 0.400391C143.6 3.80039 143.6 7.10039 143.6 10.5004C143.6 11.2004 144.1 11.3004 144.7 11.3004C145.6 11.3004 146.4 11.2004 147.3 11.3004C150.4 11.6004 152.1 13.7004 151.9 16.8004C151.7 19.6004 150.8 22.2004 149.1 24.5004C147.2 27.1004 144.5 28.1004 141.3 27.5004C141.1 27.5004 140.9 27.4004 140.7 27.4004C140.7 28.2004 140.7 28.9004 140.7 29.6004C141.1 29.6004 141.5 29.6004 141.8 29.6004C145.2 29.6004 148.7 29.6004 152.1 29.6004C154.9 29.6004 157.1 28.3004 158 25.6004C158.5 24.1004 158.8 22.4004 158.8 20.8004C158.9 14.3004 158.8 7.80038 158.8 1.30038C158.8 1.10038 158.8 0.700391 158.8 0.400391Z" fill="#192533"/>
<path d="M179.9 5.00079C179.9 1.80079 178.1 0.300781 174.9 0.300781C170.6 0.300781 166.4 0.300781 162.1 0.300781C161.7 0.300781 161.4 0.300781 160.9 0.300781C160.9 4.10078 160.9 7.80078 160.9 11.7008C162.8 11.4008 164.6 11.2008 166.4 11.0008C169 10.7008 171.7 10.6008 174.2 11.9008C175.8 12.7008 176.8 14.1008 177 15.9008C177.1 17.4008 177.2 18.9008 177.1 20.4008C177 23.7008 175.8 25.3008 172.6 26.2008C169.8 27.0008 167.1 26.5008 164.4 25.5008C163.2 25.1008 162.1 24.5008 160.9 24.0008C160.9 25.9008 160.9 27.8008 160.9 29.7008C161.1 29.7008 161.3 29.7008 161.5 29.7008C166.4 29.7008 171.3 29.7008 176.2 29.7008C176.9 29.7008 177.7 29.5008 178.4 29.4008C179.4 29.2008 179.9 28.6008 179.9 27.6008C180 20.0008 180 12.5008 179.9 5.00079Z" fill="#192533"/>
<path d="M53.7001 0.100391C49.9001 0.000390626 46.1001 0.000390626 42.3001 0.100391C38.9001 0.100391 36.1001 1.70039 33.9001 4.30039C29.6001 9.60039 28.9001 18.0004 32.3001 23.9004C34.6001 28.0004 38.1001 30.1004 42.8001 30.1004C44.5001 30.1004 46.2001 30.1004 48.0001 30.1004C49.9001 30.1004 51.7001 30.1004 53.6001 30.1004C57.8001 30.1004 61.1001 28.2004 63.3001 24.7004C66.9001 19.1004 66.7001 10.5004 62.8001 5.10039C60.6001 2.00039 57.6001 0.200391 53.7001 0.100391ZM61.6001 23.5004C59.8001 26.4004 57.2001 27.9004 53.7001 28.0004C51.8001 28.1004 49.9001 28.0004 47.9001 28.0004C46.2001 28.0004 44.5001 28.0004 42.7001 28.0004C38.7001 28.0004 35.9001 26.2004 34.0001 22.8004C31.1001 17.7004 31.7001 10.4004 35.3001 5.80039C37.1001 3.40039 39.5001 2.10039 42.6001 2.10039C46.2001 2.10039 49.7001 2.10039 53.3001 2.10039C56.5001 2.10039 59.0001 3.50039 61.0001 6.10039C64.5001 10.8004 64.8001 18.6004 61.6001 23.5004Z" fill="#192533"/>
<path d="M77.0004 0.0999985C71.7004 0.199998 67.9004 4.1 67.9004 9.4C67.9004 13 67.9004 16.7 67.9004 20.3C67.9004 26.2 71.7004 30 77.7004 30.1C82.2004 30.1 86.6004 30.1 91.1004 30.1C92.7004 30.1 94.2004 30.1 95.8004 30.1C95.8004 29.3 95.8004 28.7 95.8004 28C95.3004 28 94.9004 28 94.5004 28C88.8004 28 83.0004 28 77.3004 28C74.2004 28 71.6004 26.3 70.5004 23.5C69.7004 21.3 70.0004 18.9 70.0004 16.5C75.4004 16.5 80.6004 16.5 85.8004 16.5C85.8004 15.8 85.8004 15.2 85.8004 14.4C80.5004 14.4 75.2004 14.4 69.9004 14.4C69.9004 12.8 69.9004 11.2 69.9004 9.7C70.0004 4.8 72.8004 2.1 77.7004 2.1C83.3004 2.1 88.9004 2.1 94.5004 2.1C94.9004 2.1 95.3004 2.1 95.7004 2.1C95.7004 1.3 95.7004 0.799998 95.7004 0.0999985C95.4004 0.0999985 95.3004 0 95.1004 0C89.1004 0.1 83.1004 -1.52737e-06 77.0004 0.0999985Z" fill="#192533"/>
<path d="M128.6 13.9991C125.9 13.8991 123.2 13.9991 120.6 13.8991C118.5 13.7991 116.8 12.8991 115.8 10.9991C113.9 7.19913 115.9 2.19913 120.9 2.09913C125.6 2.09913 130.3 2.09913 134.9 2.09913C135.3 2.09913 135.6 2.09913 136 2.09913C136 1.39913 136 0.799132 136 0.0991319C130.6 0.0991319 125.2 -0.000868056 119.9 0.0991319C116.2 0.199132 113.2 3.39913 112.9 7.19913C112.6 11.3991 114.9 14.7991 118.6 15.6991C119.6 15.8991 120.6 15.9991 121.7 15.9991C124.3 16.0991 126.9 15.9991 129.5 16.0991C131.2 16.1991 132.6 17.0991 133.5 18.4991C134.8 20.4991 134.8 22.6991 133.8 24.7991C132.8 26.8991 130.9 27.7991 128.7 27.7991C124 27.7991 119.3 27.7991 114.7 27.7991C114.3 27.7991 114 27.7991 113.6 27.7991C113.6 28.5991 113.6 29.1991 113.6 29.7991C118.9 29.7991 124.2 29.8991 129.4 29.7991C131.8 29.6991 133.8 28.5991 135.2 26.4991C137 23.7991 137.1 20.8991 135.7 17.9991C134.3 15.2991 131.7 14.0991 128.6 13.9991Z" fill="#192533"/>
<path d="M28.2 0.400391C27.5 0.400391 26.9 0.400391 26.2 0.400391C26.2 1.00039 26.2 1.50039 26.2 2.00039C26.2 6.50039 26.3 10.9004 26.3 15.4004C26.3 18.4004 25.7 21.3004 23.8 23.7004C21.4 26.7004 18.2 27.9004 14.6 28.0004C10.5 28.1004 6.5 28.1004 2.4 28.1004C1.6 28.1004 0.8 28.1004 0 28.1004C0 28.9004 0 29.5004 0 30.1004C5.2 30.1004 10.3 30.3004 15.4 30.0004C19.3 29.8004 22.8 28.2004 25.3 25.0004C27.6 22.1004 28.3 18.7004 28.3 15.1004C28.3 10.4004 28.2 5.80039 28.2 1.10039C28.3 0.900388 28.2 0.600391 28.2 0.400391Z" fill="#192533"/>
<path d="M106.7 0.500573C106.6 0.500573 106.6 0.60057 106.4 0.70057C106.4 2.60057 106.4 4.50057 106.4 6.50057C106.4 8.20057 105.7 9.50057 104.5 10.6006C103.2 11.8006 101.6 12.2006 99.7996 12.2006C99.0996 12.2006 98.2996 12.2006 97.5996 12.2006C97.5996 13.0006 97.5996 13.5006 97.5996 14.2006C98.8996 14.2006 100.2 14.3006 101.4 14.2006C105.6 13.7006 108.4 10.5006 108.5 6.20057C108.5 4.90057 108.5 3.60057 108.5 2.30057C108.6 0.300569 108.6 0.300573 106.7 0.500573Z" fill="#192533"/>
<path d="M168.1 18.0992C168.1 16.4992 166.7 15.1992 165.1 15.1992C163.5 15.1992 162.2 16.5992 162.2 18.1992C162.2 19.7992 163.6 21.1992 165.2 21.0992C166.8 21.0992 168.1 19.7992 168.1 18.0992Z" fill="#192533"/>
</svg>
