<svg width="328" height="306" viewBox="0 0 328 306" fill="none" xmlns="http://www.w3.org/2000/svg">
<g clip-path="url(#clip0_10164_5153)">
<path d="M177.792 20.9342C177.666 20.2687 177.58 19.5801 177.534 18.8833C176.862 9.22436 184.133 0.848694 193.792 0.168222C203.459 -0.505432 211.833 6.77521 212.507 16.4341C213.18 26.093 205.908 34.4687 196.25 35.1491C195.639 35.1955 195.035 35.2037 194.442 35.1805C194.051 35.2814 193.816 35.3291 193.479 35.6264C192.485 37.1755 196.008 36.8864 193.613 43.6571C193.613 43.6571 193.597 44.4003 193.331 45.1435C193.143 47.7426 192.142 55.4446 192 59.5466C192.508 60.1411 192.65 60.4302 192.596 61.8716C192.368 63.8203 191.922 68.5959 191.202 71.656C190.593 74.2783 189.521 74.7788 188.659 75.4211C187.445 80.8539 187.125 85.3541 184.01 91.9529C183.728 96.9548 183.376 98.3171 182.327 100.759C182.21 108.125 182.719 109.221 177.749 120.883C176.466 126.338 177.687 130.111 179.041 135.779C180.426 141.603 184.269 144.037 184.841 150.002C186.186 164.047 185.85 173.612 182.836 184.625L185.466 190.856C188.731 192.352 196.831 196.446 192.339 202.926C198.664 206.252 208.221 209.782 216.103 216.523C219.273 219.162 222.622 222.042 225.628 225.422C231.35 226.314 230.739 226.768 234.981 229.374C247.451 237.02 267.449 252.19 279.042 262.929C281.038 264.095 281.852 264.933 283.464 265.779C283.715 266.263 283.784 266.373 283.73 266.506C283.175 267.907 283.197 267.947 282.696 269.065C283.322 269.755 284.488 270.403 285.185 271.007C285.835 271.21 285.835 270.898 286.955 270.624C288.41 271.986 290.211 273.083 290.859 273.02C292.832 272.518 292.496 272.926 294.163 271.062C294.765 270.444 295.768 271.07 295.768 271.07C296.394 270.335 297.74 268.87 299.533 267.813C300.965 266.968 303.698 266.875 303.698 266.875C304.613 266.883 304.441 267.821 304.362 268.127C303.33 268.66 301.139 269.247 299.909 270.153C297.232 272.924 295.134 276.659 295.134 276.659C300.526 275.923 303.839 277.261 308.331 276.745C310.781 276.605 312.589 276.762 315.164 274.899C315.164 274.899 317.638 273.138 319.852 272.206C322.005 271.267 324.048 271.768 325.942 273.145C327.28 274.655 328.086 274.663 326.051 276.793C325.316 277.622 324.251 278.545 322.897 279.885C320.518 282.234 317.316 285.371 313.998 287.963C310.639 290.585 306.828 292.94 304.448 294.02C298.445 298.334 299.862 297.206 295.142 301.481C294.547 302.013 292.966 302.967 292.2 303.476C290.337 304.698 289.757 303.679 288.544 301.441C288.544 301.441 287.987 300.604 287.072 298.819C286.07 296.87 285.319 294.641 285.623 294.679C284.504 294.537 279.47 288.635 279.456 287.368C278.391 287.126 273.851 282.728 273.688 281.889L269.665 278.664C265.063 279.619 264.006 276.762 251.85 268.137C250.465 268.112 248.321 267.362 245.251 265.085C239.765 260.692 226.607 250.752 224.376 249.616C221.98 248.396 219.116 247.246 217.361 245.797C214.732 245.313 213.292 245.037 211.978 244.67C210.632 244.302 209.41 243.825 206.005 243.371C200.464 242.682 194.718 240.389 189.247 237.65C186.657 236.422 184.401 235.796 182.172 234.838C177.17 232.726 172.881 230.824 169.558 230.056C168.29 229.931 162.262 228.122 159.101 226.276C158.005 225.713 157.371 225.173 156.651 225.008C154.991 224.624 153.926 225.282 153.176 225.533C149.122 227.646 145.325 229.47 141.818 231.357C138.553 233.102 135.548 234.917 132.362 236.75C129.489 238.41 126.17 239.974 122.758 241.604C122.758 241.604 113.028 246.48 107.714 248.374C103.103 252.139 93.6791 258.651 87.9271 261.876C85.0784 263.23 79.5447 266.736 76.9919 267.52C75.5355 268.693 70.3467 272.395 66.2843 275.449C63.1451 277.797 60.7737 279.777 60.7737 279.777C58.9505 281.412 59.0746 282.188 55.6081 280.715C54.6454 281.506 53.9022 281.998 53.2831 282.452C50.7794 284.269 50.5666 283.831 49.6516 283.783C47.9061 285.294 47.6866 284.511 46.1606 286.25C45.1583 287.801 46.1838 287.431 44.0701 288.184C43.6242 288.356 43.4128 288.894 43.0692 289.193C41.37 290.593 41.3632 294.547 37.2927 294.829C34.9362 296.51 35.539 298.54 33.7389 298.452C33.8494 300.198 30.5534 302.742 29.9588 302.734C24.7687 304.526 24.4087 300.708 18.1781 303.557C17.3721 303.925 16.1898 304.943 14.6325 305.239C11.8929 305.756 8.58191 305.215 6.56231 303.651C3.3836 301.2 0.457157 296.472 0.457157 296.472C-0.553323 294.084 0.0344191 292.575 3.18859 290.319C4.50317 289.482 4.7459 288.856 6.95369 288.706C8.05008 288.292 7.75144 288.926 9.70967 288.222C10.8442 287.814 10.8442 288.105 13.1298 287.91C13.6534 287.557 14.3898 287.431 15.3757 287.111C17.184 286.516 18.9458 285.851 18.9458 285.851C18.9458 285.851 19.4067 285.388 21.1454 285.553C22.6168 284.951 24.1278 284.057 24.9023 283.783C24.706 281.451 24.9569 281.56 26.0369 280.622C27.3829 279.463 27.6256 279.651 28.6279 280.371C29.0506 280.127 29.2538 280.043 29.2074 279.69C29.0424 278.476 28.002 277.904 28.3156 275.229C27.8533 274.157 27.1728 272.834 27.3215 272.035C27.541 271.173 27.7524 270.759 28.2761 270.485C28.8324 270.187 29.0124 270.587 29.3097 270.922C29.8416 271.542 30.2725 273.373 30.2725 273.373C30.4607 275.44 31.1016 278.117 33.1444 276.606C34.3499 275.384 34.5844 272.129 37.0417 272.826L38.7954 274.352C40.2832 272.952 40.3541 272.952 41.2459 272.388C41.2459 272.388 39.8523 270.98 41.0741 269.883C41.9114 269.139 42.9205 268.607 44.7138 266.619C49.6366 261.179 52.1649 258.775 57.4886 254.392C68.1103 245.656 80.1951 239.528 87.874 236.483C90.3777 233.304 92.8132 231.192 98.3701 230.659C104.976 219.504 117.625 209.541 120.53 207.952C122.893 203.67 123.919 204.124 127.01 203.264C129.459 201.3 130.016 201.3 131.112 199.249C132.177 195.015 128.655 183.705 137.647 183.133C139.557 180.433 139.08 181.082 141.209 178.531C139.768 174.977 139.174 172.003 138.783 169.443C138.712 169.146 135.214 166.681 136.207 163.462C134.72 161.694 131.941 157.566 131.072 155.632C130.674 155.64 130.344 155.49 129.906 155.429C129.452 155.358 128.888 155.383 128.255 155.328C126.855 158.943 125.329 159.21 122.838 160.008C118.393 169.483 116.827 173.492 104.249 181.327C99.2552 186.916 97.6583 193.145 97.6815 193.053C96.821 194.899 97.1251 197.483 97.5792 198.869C96.9219 200.92 97.0937 201.123 97.0937 201.123C97.3678 201.898 98.081 202.923 98.9565 203.141C100.467 203.541 101.978 203.478 101.891 205.161C101.688 207.266 98.9251 206.921 97.6174 206.687C92.5841 205.888 94.1741 202.608 90.9559 203.703C88.4903 205.316 87.5671 210.075 83.5429 209.456C83.0111 209.105 83.1747 208.064 83.5348 207.313C84.0993 206.139 85.1003 205.168 84.5057 204.729C81.8915 205.551 76.6469 207.288 76.6469 207.288C74.1813 207.962 71.4799 206.733 73.9072 205.112C75.035 204.674 76.6469 204.126 78.6351 202.851C78.6351 202.851 79.6592 201.457 77.6955 202.154C75.5505 202.922 72.3881 203.398 70.119 203.148C70.119 203.148 65.4143 202.53 64.8115 202.161C64.2006 201.793 63.6456 200.337 65.117 200.346C66.9798 200.362 71.6449 199.812 75.2614 198.85C77.0069 198.169 80.326 196.206 82.1888 195.281C82.1888 195.281 84.2084 192.338 85.3198 191.759C87.1744 189.622 88.7399 188.362 90.3831 186.177C91.9882 182.866 93.6477 177.623 98.962 169.505C101.419 165.763 104.473 161.405 108.315 157.509C108.315 157.509 109.31 151.271 114.311 146.832C115.416 144.233 117.091 141.173 118.742 138.34C119.384 137.251 119.994 136.305 120.605 135.271C122.155 132.837 123.784 128.306 129.826 127.592C129.826 127.592 132.409 125.683 133.403 124.328C134.953 123.005 134.6 120.947 135.86 119.498C133.935 117.62 129.012 114.089 128.533 109.181C128.025 103.976 129.879 99.6944 133.026 96.5253C136.517 93.0343 140.197 91.2888 144.665 91.5547C150.246 92.3838 151.302 94.2316 153.079 96.063C154.785 97.8003 155.419 96.6821 156.139 98.7167C160.821 99.9617 160.562 99.4135 160.522 102.858C161.242 103.828 162.448 104.729 162.431 106.741C164.005 103.476 164.317 102.875 168.521 99.2812C169.516 96.3616 170.189 93.4897 171.065 90.5701C171.883 87.87 172.902 85.0909 173.691 83.0004C172.854 77.0984 174.575 76.1206 176.869 70.9469C176.462 70.235 176.549 70.0318 176.721 68.8645C177.613 65.4445 179.007 60.9198 179.836 57.9688C179.836 57.9688 180.11 56.7947 181.324 56.7088C182.372 52.975 183.946 46.0244 184.212 44.6076C185.292 40.702 184.595 39.4488 183.766 37.2492C183.5 36.5292 183.624 35.5037 183.163 34.7046C181.857 32.4272 180.448 29.4681 179.494 27.3544C178.874 26.0084 177.895 20.9356 177.895 20.9356C177.064 18.3432 177.792 20.9342 177.792 20.9342Z" fill="#192533"/>
</g>
<defs>
<clipPath id="clip0_10164_5153">
<rect width="327.281" height="305.548" fill="white"/>
</clipPath>
</defs>
</svg>
