<svg width="784" height="330" viewBox="0 0 784 330" fill="none" xmlns="http://www.w3.org/2000/svg">
<path d="M0 155.401C0.3 154.301 0.599997 153.101 0.699997 152.001C1.3 147.601 1.5 143.201 2.3 138.801C3.4 132.801 4.7 126.901 6.3 121.201C7.7 116.001 9.4 110.801 11.4 105.701C13.6 100.201 16.1 94.8006 18.7 89.5006C21.9 83.2006 25.5 77.1006 29.6 71.3006C34.2 64.8006 39.2 58.6006 44.6 52.8006C50.4 46.7006 56.6 41.0006 63.2 35.8006C68.9 31.3006 74.8 27.2006 81.1 23.6006C85.5 21.0006 90.4 18.4006 95.1 16.2006C99.8 14.0006 103.9 12.3006 108.7 10.6006C113.5 8.90064 117.5 7.60064 121.9 6.20064C125.3 5.20064 128.8 4.40062 132.3 3.80062C138.8 2.80062 145.5 1.60064 152 1.10064C161.9 0.200638 171.8 0.300631 181.6 1.50063C184.7 1.90063 187.9 2.00064 191 2.60064C196.9 3.70064 202.7 5.10064 208.6 6.60064C212.4 7.50064 216.2 8.70064 219.9 10.2006C225 12.1006 230.1 14.1006 235 16.4006C239.9 18.7006 245.4 21.7006 250.4 24.7006C258.1 29.3006 265.3 34.5006 272 40.4006C280.2 47.4006 287.7 55.1006 294.4 63.6006C300.2 71.1006 305.4 79.2006 309.9 87.6006C314.8 96.8006 318.8 106.501 321.8 116.501C323.5 122.101 324.9 127.801 325.9 133.501C328.4 145.901 329.4 158.601 328.9 171.201C328.6 178.201 327.9 185.101 326.8 191.901C325.7 199.101 324.1 206.201 321.9 213.101C319.9 219.401 317.6 225.601 314.9 231.701C311.5 239.301 307.5 246.701 303 253.701C296.2 264.301 288.1 274.101 279.1 282.901C270.8 291.001 261.6 298.301 251.7 304.401C245.2 308.501 238.3 312.201 231.2 315.201C224.1 318.301 216.9 320.901 209.4 323.101C200.3 325.601 191.1 327.401 181.7 328.401C171.3 329.601 160.8 329.701 150.4 328.701C143.2 328.001 136.1 327.001 129.1 325.501C121.2 323.801 113.5 321.501 106 318.501C98.2 315.501 90.6 311.901 83.4 307.701C63.9 296.601 46.9 281.601 33.3 263.701C28.7 257.601 24.5 251.201 20.8 244.501C16.7 237.301 13.2 229.801 10.4 222.001C8.3 216.201 6.7 210.301 5 204.401C2.8 195.201 1.3 185.801 0.599998 176.301C0.499998 175.501 0.3 174.601 0 173.801C0 167.801 0 161.601 0 155.401ZM164.6 168.601C164.9 168.801 165.1 169.001 165.4 169.201L178.3 182.401C187.8 192.201 197.3 202.001 206.8 211.801C210.5 215.501 213.9 219.301 217.2 223.401C220.2 227.301 223.9 230.601 228.3 232.901C229.3 233.401 230.3 233.801 231.4 233.901C232.4 234.101 233.4 233.501 233.7 232.501C233.8 232.201 233.8 231.901 233.7 231.601C233.6 230.401 233.3 229.301 232.7 228.301C230 223.601 226.3 219.401 221.9 216.101C220.9 215.401 219.8 214.701 218.9 213.901L203.4 198.901L176 172.501C173.5 170.101 171.2 167.601 168.7 165.001L173.1 160.601L203.4 129.301L232.6 98.8006C233 98.4006 233.4 98.0006 233.7 97.5006C233.9 97.1006 233.9 96.7006 233.7 96.3006C233.3 96.1006 232.8 96.1006 232.4 96.3006C232 96.4006 231.7 96.7006 231.5 97.0006C228.2 100.301 224.8 103.501 221.5 106.701C214.1 113.901 206.8 121.201 199.5 128.401L172.1 154.801L165.3 161.401C160.2 156.601 155.3 151.901 150.5 147.101L126.7 123.901L98.7 97.0006C98 96.3006 97.2 95.4006 96.3 96.3006C95.4 97.2006 96.3 98.0006 97 98.6006L124 126.501L152.2 155.401C155.2 158.401 158.1 161.501 161 164.601C161 164.901 160.7 165.201 160.6 165.301L145.6 180.001L118.1 206.401C115.1 209.501 111.8 212.401 108.5 215.201C105.1 217.701 102 220.701 99.4 224.001C98.2 225.701 97.1 227.501 96.2 229.501C95.6 230.601 95.7 231.901 96.5 232.901C97.5 233.701 98.8 233.801 99.9 233.201C100.4 233.001 100.9 232.801 101.4 232.601C104.8 230.701 107.8 228.301 110.5 225.501C114.1 221.601 117.2 217.301 120.9 213.501C131.3 203.101 141.4 192.501 151.7 182.001L164.6 168.601ZM47.2 90.0006C46.8 89.5006 46.5 88.8006 45.9 88.5006C45.2 88.3006 44.6 88.5006 44 88.9006C43.1 90.0006 42.4 91.2006 41.7 92.4006C39.8 95.8006 38 99.2006 36.2 102.601C35.6 103.401 35.8 104.601 36.6 105.201C36.7 105.201 36.7 105.301 36.8 105.301C37.7 105.701 38.5 105.301 39.2 104.101C41.6 99.7006 44 95.3006 46.4 91.1006C46.7 90.8006 46.9 90.4006 47.2 90.0006ZM103.3 39.5006C103.9 39.3006 104.4 39.1006 104.9 38.9006L112.7 35.5006C114.7 34.7006 116.7 34.0006 118.6 33.1006C119.9 32.5006 120.1 31.6006 119.4 30.7006C118.9 30.0006 117.9 29.7006 117.1 30.1006L109.2 33.2006C107.1 34.1006 105.1 35.1006 103 36.1006C102.2 36.4006 101.7 37.3006 102 38.1006C102 38.1006 102 38.2006 102.1 38.2006C102.2 38.8006 102.9 39.1006 103.3 39.5006ZM293.8 226.001C293.5 225.401 293.1 224.901 292.6 224.501C291.9 224.101 291.1 224.401 290.7 225.101C290.7 225.101 290.7 225.201 290.6 225.201C290.4 225.501 290.3 225.701 290.2 226.001C288.7 228.801 287.2 231.701 285.8 234.501C285 235.901 284.1 237.301 283.2 238.901C282.6 239.601 282.7 240.601 283.4 241.201C284.2 241.801 285.2 241.601 285.8 240.901C285.8 240.901 285.8 240.801 285.9 240.801C286.2 240.401 286.6 239.901 286.8 239.401L293.1 228.001C293.5 227.501 293.7 226.701 293.8 226.001ZM148.5 22.9006H147.4C144.4 23.4006 141.3 23.8006 138.3 24.4006C136.8 24.4006 135.2 24.8006 133.9 25.2006C132.6 25.6006 131.7 26.6006 132 27.7006C132.4 28.8006 133.2 29.0006 134.7 28.6006C136.2 28.2006 136.5 28.3006 137.4 28.3006C141.1 27.7006 144.9 27.1006 148.6 26.5006C149.6 26.5006 150.4 25.7006 150.5 24.7006C150.6 23.9006 149.7 23.0006 148.5 22.9006ZM266.4 65.0006C266.1 64.4006 265.7 63.9006 265.3 63.4006L254.5 53.6006C254.2 53.3006 253.8 52.9006 253.5 52.9006C252.8 52.8006 252.2 52.9006 251.6 53.3006C251 53.9006 251 54.8006 251.6 55.4006C252 55.9006 252.5 56.3006 253 56.7006C254.2 57.7006 255.4 58.7006 256.6 59.7006C258.8 61.7006 261 63.8006 263.2 65.8006C263.7 66.5006 264.5 66.7006 265.3 66.4006C265.6 66.1006 265.9 65.5006 266.4 65.0006ZM211.4 33.1006C211.8 32.8006 212.5 32.4006 212.8 31.8006C213.1 31.0006 212.7 30.2006 212 29.9006L211.1 29.6006L196.8 25.5006C195.9 25.2006 194.9 25.6006 194.6 26.5006C194.5 26.7006 194.5 27.0006 194.5 27.3006C194.7 28.2006 195.4 28.8006 196.3 28.9006L209.5 32.6006C209.9 32.7006 210.5 32.9006 211.4 33.1006ZM56.4 252.901C55.8 252.001 55.3 251.201 54.8 250.401C52.3 247.001 49.8 243.501 47.4 240.001C46.5 238.701 45.5 238.101 44.6 238.701C43.6 239.201 43.6 240.501 44.6 241.901C46.7 245.001 49 248.101 51.1 251.201C51.9 252.301 52.7 253.301 53.7 254.201C54.2 254.501 54.8 254.501 55.4 254.201C55.7 254.101 56 253.401 56.4 252.901ZM78.8 275.001C78.1 274.301 77.7 273.601 77 273.001L66.6 263.701C65.6 262.801 64.6 262.601 63.9 263.201C63.2 263.801 63.2 265.101 64.3 266.101C66.3 268.101 68.3 270.101 70.4 272.001C72.5 273.901 73.9 275.001 75.7 276.401C76.2 276.701 76.8 276.801 77.4 276.701C78.1 276.501 78.3 275.801 78.8 275.001ZM182.1 306.501L195.6 304.101L196.5 303.801C197.7 303.301 198.1 302.601 197.8 301.601C197.5 300.701 196.5 300.101 195.5 300.501L181.1 303.001C180.8 303.001 180.4 303.001 180.2 303.201C180 303.401 179.2 304.501 179.2 305.101C179.2 305.701 180.1 306.001 180.7 306.301C181.2 306.501 181.7 306.601 182.2 306.601V306.501H182.1ZM54.8 78.5006C55.3 78.2006 55.7 77.8006 56.1 77.4006C58 75.2006 59.9 73.0006 61.8 70.8006C63.7 68.6006 64.6 67.8006 66.2 66.4006C66.9 65.8006 67 64.8006 66.4 64.0006C65.7 63.3006 64.6 63.3006 63.8 64.0006C63.6 64.2006 63.5 64.3006 63.3 64.5006C60.1 68.1006 56.9 71.6006 53.7 75.2006C53.4 75.5006 53.2 75.8006 53 76.2006C52.4 77.3006 53.1 78.4006 54.8 78.5006ZM227.7 292.301C227.7 290.701 226.9 290.001 225.6 290.401C224.3 290.801 223.3 291.501 222.2 291.901L211.3 296.301C210 296.801 209.7 297.501 210.1 298.401C210.4 299.301 211.4 299.801 212.3 299.501C212.4 299.501 212.5 299.401 212.6 299.401C215.2 298.401 217.8 297.501 220.3 296.401C222.8 295.301 224.5 294.601 226.5 293.501C227 293.301 227.4 292.601 227.7 292.301ZM24.1 179.201C23.7 179.601 23.4 180.001 23.1 180.501C23 180.901 23 181.301 23.1 181.601C23.9 186.401 24.6 191.101 25.4 195.801C25.4 196.001 25.4 196.201 25.4 196.501C25.8 197.401 26.3 198.201 27.5 197.901C28.5 197.601 29.1 196.601 28.8 195.601V195.501C28.6 194.401 28.2 193.401 28 192.301C27.4 188.601 26.8 184.901 26.2 181.201C26.1 179.701 25.4 179.001 24.1 179.201ZM39.6 226.501C39.4 225.701 39.1 225.001 38.8 224.301C38.4 223.401 38 222.601 37.6 221.701L33.2 211.301C32.7 210.001 32 209.701 31.1 210.101C30.2 210.401 29.7 211.401 30 212.401C30 212.501 30.1 212.601 30.1 212.701C31.1 215.301 32.1 218.001 33.2 220.601C34.3 223.201 35.1 224.801 36 226.801C36.3 227.601 37.1 228.001 38 227.801C38.1 227.801 38.1 227.701 38.2 227.701C38.8 227.401 39.1 226.801 39.6 226.501ZM89.8 282.501C89.3 282.901 88.6 283.201 88.3 283.801C88.2 284.401 88.2 285.001 88.6 285.501C88.9 285.901 89.4 286.301 89.9 286.501L102.3 293.301C102.9 293.601 103.5 293.701 104.1 293.601C104.6 293.401 105.1 292.901 105.3 292.401C105.3 291.901 105.1 291.301 104.8 290.901C104.8 290.601 104.1 290.501 103.8 290.301L91.2 283.301L89.8 282.501ZM118.1 296.301C117.7 296.701 117 297.001 116.9 297.601C116.6 298.401 117 299.301 117.8 299.601C117.9 299.601 117.9 299.601 118 299.701C119.2 300.101 120.5 300.601 121.8 300.901L133.2 304.001C133.9 304.301 134.7 303.901 135 303.101C135 303.001 135 303.001 135 302.901C135.4 302.101 135 301.201 134.3 300.801C133.7 300.501 133.1 300.401 132.5 300.201L121.4 297.101L118.1 296.301ZM225.7 35.8006C225.3 36.2006 224.5 36.6006 224.4 37.2006C224.3 37.8006 224.8 38.4006 225.1 39.0006C225.4 39.6006 225.5 39.0006 225.7 39.4006L236.7 45.4006C237.4 45.8006 238.1 46.2006 238.8 46.6006C239.6 47.2006 240.6 47.0006 241.2 46.3006C241.2 46.3006 241.2 46.2006 241.3 46.2006C241.8 45.4006 241.6 44.6006 240.6 43.8006L239.7 43.1006L227.6 36.5006C226.9 36.2006 226.3 36.0006 225.7 35.8006ZM286 89.7006C285.8 89.0006 285.5 88.4006 285.1 87.8006C282.9 84.6006 280.7 81.5006 278.5 78.3006C277.8 77.3006 277.1 76.4006 276.3 75.6006C275.8 75.0006 274.9 75.0006 274.3 75.5006L274.2 75.6006C273.8 76.1006 273.6 76.8006 273.8 77.5006C274.1 78.2006 274.5 78.9006 275 79.5006C276.5 81.5006 278 83.5006 279.4 85.5006C280.8 87.5006 281.5 88.8006 282.7 90.4006C283.2 90.9006 283.9 91.2006 284.7 91.2006C285.1 91.0006 285.5 90.0006 286 89.7006ZM292.4 101.801C291.1 101.801 290.3 102.501 290.4 103.401C290.5 104.001 290.7 104.601 290.9 105.201C291.9 107.401 292.9 109.601 293.8 111.701C294.7 113.801 295.6 116.101 296.6 118.501C296.9 119.301 297.5 120.001 298.6 119.601C299.5 119.301 300.1 118.301 299.8 117.301C299.8 117.201 299.7 117.101 299.7 117.101C299.3 116.001 299 115.001 298.5 114.001C297 110.401 295.4 106.801 293.8 103.201C293.3 102.601 292.9 102.101 292.4 101.801ZM168.2 21.8006C167 21.8006 165.8 21.8006 164.6 21.8006C163.6 21.8006 162.8 22.6006 162.9 23.6006C162.9 23.7006 162.9 23.8006 162.9 23.9006C162.9 24.9006 163.6 25.4006 164.7 25.4006H165.4L176.3 26.0006C177.6 26.0006 178.9 26.3006 180.1 26.3006C181.3 26.3006 182 25.8006 182 24.8006C182 23.8006 181.6 23.2006 180.2 23.0006L168.2 21.8006ZM253 273.301C252 273.901 251.2 274.301 250.4 274.801C248.3 276.301 246 277.901 244.1 279.201C242.2 280.501 240.8 281.401 239.2 282.501C238.4 283.001 238.1 284.101 238.5 285.001C239 285.701 239.9 285.901 240.6 285.501C241 285.301 241.5 285.101 241.9 284.801C244.9 282.701 248 280.401 251 278.501C252.1 277.801 253 277.001 253.9 276.101C254.3 275.601 254.5 275.001 254.3 274.401C254.3 274.101 253.6 273.801 253 273.301ZM306.9 148.001C306.2 144.001 305.5 140.001 304.8 135.901C304.6 134.701 304.3 133.601 304 132.501C303.8 131.701 303 131.301 302.2 131.501C302.1 131.501 302 131.601 301.9 131.601C301.1 131.801 300.7 132.501 300.8 133.301C300.8 133.401 300.8 133.401 300.8 133.501C300.8 134.301 301.2 135.001 301.3 135.801C302 139.901 302.6 144.001 303.3 148.101C303.6 149.601 304.4 150.401 305.4 150.201C306.4 150.001 306.8 149.101 306.9 148.001ZM277.2 252.501C276.7 252.001 276.2 251.601 275.6 251.301C274.7 250.901 274.1 251.601 273.4 252.301C270.2 255.901 267 259.401 263.8 263.001C262.9 264.001 262.8 265.001 263.4 265.701C264.2 266.401 265.3 266.301 266 265.501L266.1 265.401C269.5 261.701 272.8 258.001 276.2 254.201C276.6 253.701 276.9 253.101 277.2 252.501ZM33.2 118.201C33 117.901 32.7 117.101 32.2 116.901C31.4 116.501 30.5 116.801 30.1 117.601C30.1 117.601 30.1 117.701 30 117.701C29.8 118.101 29.6 118.601 29.6 119.101C28.3 123.501 27 127.901 25.8 132.301C25.4 133.701 25.8 134.501 26.6 134.801C27.4 135.101 28.7 134.801 29.1 133.301C30.3 128.901 31.6 124.501 32.8 119.901C32.9 119.601 33 119.101 33.2 118.201ZM296.5 211.401C296.8 211.801 297.1 212.501 297.6 212.801C298.4 213.201 299.3 212.901 299.7 212.101C299.7 212.001 299.8 211.901 299.8 211.901C300.2 210.801 300.6 209.501 300.9 208.301C302 204.501 303.1 200.601 304.1 196.701C304.4 196.001 304 195.101 303.3 194.801C303.2 194.801 303.1 194.701 303 194.701C302.2 194.401 301.3 194.801 301 195.601C300.8 196.001 300.6 196.501 300.5 196.901L297.1 209.101C296.9 209.801 296.7 210.401 296.5 211.401ZM22 161.201V164.101C22 165.501 22.9 166.701 23.9 166.701C24.8 166.601 25.3 165.701 25.4 164.101C25.4 160.901 25.7 157.801 25.9 154.601C25.9 152.901 26.2 151.101 26.3 149.401C26.4 147.701 25.7 147.501 24.6 147.501C23.7 147.501 23 148.201 23 149.001V149.101C22.6 153.201 22.2 157.201 22 161.201ZM307.7 169.301C307.7 167.701 307.7 166.101 307.7 164.501C307.7 163.601 307 162.801 306 162.801C304.9 162.801 304.5 163.601 304.5 164.501C304.5 164.701 304.5 165.001 304.5 165.201C304.2 168.901 304 172.701 303.8 176.501C303.7 177.801 303.7 179.201 303.8 180.501C303.8 181.401 304.6 182.101 305.4 182.001C305.7 182.001 306 181.901 306.3 181.701C306.8 181.201 307 180.501 307 179.801C307.2 176.401 307.4 172.801 307.7 169.301ZM91.7 45.2006C90.9 44.7006 90.4 44.1006 89.8 43.9006C89.2 43.8006 88.5 44.0006 88 44.4006C85.5 46.1006 82.9 47.8006 80.4 49.6006C78.8 50.7006 77.3 52.0006 75.8 53.2006C75.1 53.7006 74.9 54.6006 75.3 55.3006C75.3 55.4006 75.4 55.4006 75.4 55.5006C75.9 56.2006 76.9 56.4006 77.7 55.9006C77.7 55.9006 77.7 55.9006 77.8 55.9006L78.6 55.4006L90.3 47.1006C90.8 46.5006 91.3 45.8006 91.7 45.2006ZM166.6 305.901C165.5 304.301 165.5 304.301 163.7 304.301L154.3 303.701C152.6 303.701 151 303.401 149.3 303.401C147.6 303.401 147 304.501 147.6 305.601C148 306.201 148.6 306.501 149.3 306.601C154.2 307.001 159.2 307.301 164.2 307.601C165.4 307.701 166.5 306.901 166.8 305.801L166.6 305.901Z" fill="#192533"/>
<path d="M784 124.502H763.2V113.801C752.5 113.201 741.8 113.201 731.2 113.801C731.2 114.601 731.2 115.401 731.2 116.301C731.2 123.501 731.2 130.702 731.2 137.902C730.9 141.902 732.9 145.702 736.4 147.702C746.2 154.002 755.9 160.502 765.6 166.902L776.7 174.102C781 176.702 783.6 181.301 783.6 186.301C783.6 196.701 783.6 207.202 783.6 217.702C783.6 225.602 777.2 232.001 769.3 232.101H738.2C733.2 232.101 728.2 232.101 723.2 232.101C716.6 231.901 710.9 227.201 709.5 220.801C709.2 218.901 709 216.902 708.9 214.902C708.9 211.802 708.9 208.602 708.9 205.502C716 205.002 723.1 205.002 730.1 205.502C730.6 208.802 730.1 212.202 730.5 215.702H762C762 215.002 762 214.502 762 214.002V192.902C762 189.702 760.3 186.802 757.6 185.202L732 168.202C726.8 164.802 721.6 161.502 716.4 158.002C712.1 155.402 709.5 150.702 709.6 145.702C709.6 134.302 709.6 122.902 709.6 111.502C709.7 104.802 714.4 99.1015 720.9 97.5015C722.6 97.1015 724.3 96.9015 726.1 96.9015C740.1 96.9015 754.2 96.9015 768.3 96.9015C772.6 96.7015 776.7 98.3015 779.7 101.301C780.9 102.701 782 104.302 782.9 105.902C783.3 106.402 783.7 107.002 784 107.502C784 113.102 784 118.902 784 124.502Z" fill="#192533"/>
<path d="M483.3 96.7012H504.6V215.601H538.4V96.8011H559.4C559.4 97.5011 559.4 98.2012 559.4 98.9012C559.4 138.301 559.4 177.601 559.4 217.001C559.6 223.901 555 230.001 548.3 231.701C547 232.001 545.6 232.101 544.3 232.101H498.5C493.3 232.301 488.5 229.701 485.7 225.301C484.3 223.201 483.5 220.701 483.3 218.201C483.3 217.201 483.3 216.301 483.3 215.301V96.7012Z" fill="#192533"/>
<path d="M394.6 215.5H428.5C428.9 212.1 428.5 208.7 428.5 205.1L449.2 200.3C449.2 201.2 449.2 201.9 449.2 202.5C449.2 207.4 449.2 212.3 449.2 217.3C449.2 225.3 442.9 231.8 434.9 232H410.2C402.8 232 395.5 232 388.2 232C380.2 232 373.6 225.7 373.3 217.7C373.3 217.2 373.3 216.8 373.3 216.3C373.3 181.7 373.3 147.1 373.3 112.5C373.1 107.7 375.1 103 378.9 99.8999C381.6 97.6999 384.9 96.5999 388.3 96.5999C403.7 96.5999 419.1 96.5999 434.4 96.5999C440.4 96.3999 446 99.8999 448.4 105.4C449 106.5 449.3 107.8 449.4 109C449.4 112.5 449.4 116 449.4 119.6L428.6 124.4V113.4H394.6C394.6 147.5 394.6 181.4 394.6 215.5Z" fill="#192533"/>
<path d="M645.3 231.901H623.9V113.401H596.5V96.7012H672.7C672.9 102.201 672.7 107.501 672.7 113.301H645.3V231.901Z" fill="#192533"/>
<path d="M101.3 228.7C101.3 227.9 101.4 227 101.7 226.2C102.6 224.4 104 223 105.8 222.1C106.5 221.7 107.3 221.1 108.2 222.1C109.1 223.1 108.2 223.6 108.2 224.3C107.3 226 105.9 227.5 104.1 228.4C103.1 228.7 102.2 228.8 101.3 228.7Z" fill="#192533"/>
<path d="M222.9 221.4L223.6 221.7C225.6 222.6 227.3 224.1 228.3 226.1C228.6 226.7 228.6 227.4 228.3 228C227.7 228.3 227 228.3 226.4 228C224.3 227 222.8 225.3 222 223.2C221.4 222.1 221.8 221.5 222.9 221.4Z" fill="#192533"/>
</svg>
