<svg width="776" height="360" viewBox="0 0 776 360" fill="none" xmlns="http://www.w3.org/2000/svg">
<g clip-path="url(#clip0_10166_5337)">
<path fill-rule="evenodd" clip-rule="evenodd" d="M321.366 164.88L232.093 168.06L316.859 172.77L321.366 164.88ZM310.688 183.64L221.202 186.823L306.284 191.55L310.688 183.64ZM300.009 202.557L210.636 205.695L295.614 210.418L300.009 202.557ZM289.55 221.379L200.065 224.566L284.943 229.281L289.55 221.379ZM398.94 70.1908L284.997 74.2457L399.264 80.5957L398.94 70.1908ZM398.218 51.5724L295.858 55.1625L398.542 61.0518L398.218 51.5724ZM397.487 33.614L306.288 36.6147L397.927 41.7029L397.487 33.614ZM396.873 15.1782L316.934 17.851L397.189 22.5907L396.873 15.1782ZM396.354 0.274414H326.828L396.458 3.9682L396.354 0.274414ZM278.767 240.192L189.498 243.425H276.945L278.767 240.192Z" fill="#192533"/>
<path fill-rule="evenodd" clip-rule="evenodd" d="M581.301 0.875977H452.649L449.001 7.33388L513.381 10.7496C514.136 10.7496 514.136 11.8204 513.057 11.8204L445.249 14.0865L438.708 25.533L502.648 29.3098C503.507 29.4178 503.296 30.5964 502.545 30.5964L434.624 32.8293L428.303 43.7903L492.14 47.3347C493.534 47.4426 493.534 48.6255 492.14 48.6255L424.332 51.0036L417.895 62.4668L481.519 66.1149C482.913 66.2228 482.81 67.5094 481.519 67.5094L413.711 69.9249L407.162 81.247L470.89 84.7872C471.853 84.8951 471.969 86.078 470.678 86.078L275.293 92.623L460.701 102.924C461.875 102.924 461.772 104.427 460.481 104.427L264.781 111.403L450.188 121.7C451.047 121.7 451.259 123.095 449.968 123.095L253.944 130.175L439.352 140.476C440.107 140.584 440.85 141.979 439.248 142.087L243.535 149.051L428.938 159.348C429.474 159.456 430.009 160.85 428.727 160.85L330.227 164.361L330.551 173.251L418.318 178.128C418.957 178.236 419.281 179.523 418.098 179.523L330.875 182.623L331.302 192.567L407.485 196.8C408.233 196.908 408.556 198.411 407.265 198.411L331.73 201.063L332.057 211.974L396.973 215.581C397.72 215.684 397.936 217.079 396.649 217.079L332.381 219.374L332.809 231.377L386.456 234.357C387.211 234.465 387.211 235.755 386.136 235.755L333.025 237.677L333.24 242.836H506.417C552.336 242.836 593.532 209.359 601.26 182.747C608.992 156.14 608.992 132.105 572.079 120.09C592.685 115.367 628.515 92.1291 635.6 60.0015C642.024 30.8122 631.3 0.983885 581.301 0.875977ZM494.194 187.226H440.979L471.019 134.006H510.505C551.278 134.006 531.53 187.226 494.194 187.226ZM563.073 73.0543C561.355 79.4914 548.472 95.8022 532.174 95.8022H492.687L518.004 51.1696H538.179C563.924 52.0287 564.783 66.6213 563.073 73.0543ZM776.238 319.953C776.238 299.33 759.093 282.056 738.47 282.056C717.311 282.056 700.038 299.604 700.038 321.161C700.016 326.231 700.999 331.256 702.93 335.945C704.861 340.634 707.701 344.894 711.287 348.479C714.873 352.065 719.133 354.905 723.822 356.835C728.511 358.765 733.536 359.747 738.607 359.726C754.266 359.726 769.132 349.014 773.552 334.417H754C750.116 340.576 745.036 343.386 738.063 343.386C729.227 343.386 721.333 337.359 718.785 328.789H775.291C775.968 324.643 776.238 322.63 776.238 319.953ZM718.254 314.79C720.798 304.746 728.833 298.317 738.739 298.317C748.655 298.317 756.42 304.613 758.827 314.79H718.254ZM522.379 285.63V291.644C516.759 285.617 508.616 282.189 499.909 282.189C480.627 282.189 464.187 298.658 464.187 320.086C464.187 340.302 478.73 358.435 500.291 358.435C509.799 358.435 517.029 356.239 523.856 348.474V357.982H540.2V285.63H522.379ZM502.42 343.099C496.464 343.099 490.753 340.734 486.542 336.522C482.331 332.311 479.965 326.6 479.965 320.644C479.965 314.688 482.331 308.977 486.542 304.766C490.753 300.554 496.464 298.189 502.42 298.189C508.376 298.189 514.087 300.554 518.298 304.766C522.51 308.977 524.875 314.688 524.875 320.644C524.875 326.6 522.51 332.311 518.298 336.522C514.087 340.734 508.376 343.099 502.42 343.099ZM35.384 282.052C28.0213 282.052 22.3976 284.596 16.2344 290.892V283.795H-0.238281V357.982H17.5749V323.028C17.5749 313.524 18.3759 298.388 31.4993 298.388C43.8174 298.388 45.158 312.582 45.158 321.688V357.978H62.967V318.206C62.967 307.759 62.166 302.808 59.3521 296.914C55.2018 288.078 45.4277 282.052 35.384 282.052ZM146.048 319.953C146.048 299.33 128.907 282.056 108.284 282.056C87.1261 282.056 69.8524 299.604 69.8524 321.161C69.8315 326.231 70.8148 331.255 72.7455 335.943C74.6762 340.632 77.516 344.891 81.1013 348.477C84.6865 352.062 88.9461 354.902 93.6345 356.832C98.3228 358.763 103.347 359.746 108.417 359.726C124.085 359.726 138.947 349.014 143.367 334.417H123.819C119.934 340.576 114.846 343.386 107.882 343.386C99.0458 343.386 91.1436 337.359 88.5994 328.789H145.106C145.783 324.643 146.048 322.63 146.048 319.953ZM88.0682 314.79C90.6123 304.746 98.6474 298.317 108.558 298.317C118.469 298.317 126.235 304.613 128.646 314.79H88.0682ZM439.082 357.92H456.891V258.96H439.082V357.92ZM587.186 282.052C579.819 282.052 574.192 284.596 568.032 290.892V283.795H551.56V357.982H569.377V323.028C569.377 313.524 570.178 298.388 583.302 298.388C595.616 298.388 596.96 312.582 596.96 321.688V357.978H614.769V318.206C614.769 307.759 613.968 302.808 611.154 296.914C607.004 288.078 597.23 282.052 587.186 282.052ZM659.228 298.392C667.391 298.392 672.077 301.073 676.501 308.569H696.581C691.094 292.636 677.037 282.052 659.892 282.052C638.198 282.052 620.787 299.326 620.787 320.621C620.787 342.045 638.331 359.721 659.892 359.721C665.391 359.693 670.824 358.523 675.849 356.287C680.873 354.051 685.379 350.797 689.081 346.731C692.833 342.58 694.173 340.169 696.581 333.612H676.501C672.343 340.036 666.993 343.382 660.298 343.382C647.839 343.382 638.605 333.74 638.605 320.883C638.605 307.9 647.441 298.392 659.228 298.392ZM214.122 329.059L201.509 283.799H187.178L174.428 329.059L159.35 283.799H143.637L168.406 357.982H179.815L194.279 309.913L208.336 357.982H220.31L244.062 283.799H229.337L214.122 329.059ZM309.542 282.131C300.839 282.131 292.696 285.559 287.072 291.581V258.964H269.259V357.92H285.595V348.416C292.426 356.181 299.656 358.373 309.164 358.373C330.725 358.373 345.268 340.244 345.268 320.023C345.272 298.6 328.829 282.131 309.542 282.131ZM307.031 343.099C301.076 343.099 295.364 340.734 291.153 336.522C286.942 332.311 284.576 326.6 284.576 320.644C284.576 314.688 286.942 308.977 291.153 304.766C295.364 300.554 301.076 298.189 307.031 298.189C312.987 298.189 318.698 300.554 322.909 304.766C327.121 308.977 329.486 314.688 329.486 320.644C329.486 326.6 327.121 332.311 322.909 336.522C318.698 340.734 312.987 343.099 307.031 343.099ZM409.37 285.63V291.644C403.746 285.617 395.607 282.189 386.9 282.189C367.617 282.189 351.17 298.658 351.17 320.086C351.17 340.302 365.717 358.435 387.273 358.435C396.782 358.435 404.012 356.239 410.843 348.474V357.982H427.179V285.63H409.37ZM389.415 343.099C383.459 343.099 377.748 340.734 373.537 336.522C369.325 332.311 366.96 326.6 366.96 320.644C366.96 314.688 369.325 308.977 373.537 304.766C377.748 300.554 383.459 298.189 389.415 298.189C395.37 298.189 401.082 300.554 405.293 304.766C409.504 308.977 411.87 314.688 411.87 320.644C411.87 326.6 409.504 332.311 405.293 336.522C401.082 340.734 395.37 343.099 389.415 343.099Z" fill="#192533"/>
</g>
<defs>
<clipPath id="clip0_10166_5337">
<rect width="800" height="800" fill="white" transform="translate(-12 -220)"/>
</clipPath>
</defs>
</svg>
