<svg width="2265" height="373" viewBox="0 0 2265 373" fill="none" xmlns="http://www.w3.org/2000/svg">
<path fill-rule="evenodd" clip-rule="evenodd" d="M1476.42 33.112C1480.78 33.112 1488.46 34.1756 1488.46 27.2497C1488.46 21.7894 1484.05 21.0891 1479.37 21.0891H1469.87V33.112H1476.42ZM1492.43 52.0219H1487.33L1477.53 36.3544H1469.85V52.0219H1465.49V18.1709H1480.41C1483.67 18.1709 1486.2 18.573 1488.78 19.9867C1490.96 21.1021 1492.4 24.0332 1492.4 27.2756C1492.4 34.2015 1487.67 36.3675 1482.22 36.3675L1492.43 52.0219ZM1503.35 34.9408C1503.32 27.9984 1500.55 21.3491 1495.64 16.4401C1490.73 11.531 1484.08 8.75958 1477.14 8.72887C1462.57 8.72887 1450.26 20.3887 1450.26 34.9408C1450.26 49.8431 1462.57 61.8271 1477.14 61.8271C1491.34 61.8141 1503.35 49.8431 1503.35 34.9408ZM1446.97 34.9408C1446.97 30.9927 1447.75 27.0831 1449.27 23.4387C1450.78 19.7943 1453.01 16.4877 1455.82 13.7105C1458.62 10.9333 1461.95 8.74078 1465.61 7.26003C1469.27 5.77928 1473.19 5.03975 1477.14 5.08438C1493.91 5.08438 1507.36 18.573 1507.36 34.9408C1507.36 51.6718 1493.91 65.4586 1477.14 65.4586C1460.06 65.4586 1446.97 51.6718 1446.97 34.9408ZM2233.82 33.112C2238.23 33.112 2245.86 34.1756 2245.86 27.2497C2245.86 21.7894 2241.1 21.0891 2237.11 21.0891H2227.31V33.112H2233.82ZM2249.5 52.0219H2244.74L2234.59 36.3544H2227.31V52.0219H2223.3V18.1709H2237.87C2240.76 18.1709 2243.31 18.573 2246.21 19.9867C2248.79 21.1021 2249.85 24.0332 2249.85 27.2756C2249.85 34.2015 2245.14 36.3675 2239.29 36.3675L2249.5 52.0219ZM2260.75 34.9408C2260.75 20.3887 2249.14 8.72887 2234.22 8.72887C2230.78 8.71687 2227.36 9.38666 2224.18 10.6997C2220.99 12.0127 2218.1 13.943 2215.66 16.3794C2213.22 18.8158 2211.29 21.7102 2209.98 24.8958C2208.67 28.0813 2208 31.4953 2208.01 34.9408C2208.01 49.8431 2219.68 61.8271 2234.22 61.8271C2249.14 61.8141 2260.75 49.8431 2260.75 34.9408ZM2204.35 34.9408C2204.35 18.573 2217.09 5.08438 2234.22 5.08438C2250.94 5.08438 2264.39 18.573 2264.39 34.9408C2264.39 51.6718 2250.94 65.4586 2234.22 65.4586C2217.09 65.4586 2204.35 51.6718 2204.35 34.9408ZM435.277 312.494C424.801 312.531 414.421 310.496 404.735 306.504C395.049 302.512 386.249 296.642 378.842 289.234C371.434 281.825 365.566 273.024 361.576 263.338C357.585 253.651 355.551 243.271 355.591 232.795C355.587 222.332 357.647 211.972 361.651 202.306C365.655 192.64 371.525 183.858 378.927 176.463C386.328 169.068 395.114 163.205 404.783 159.208C414.452 155.212 424.814 153.161 435.277 153.173C445.734 153.168 456.09 155.224 465.753 159.224C475.415 163.223 484.195 169.088 491.589 176.482C498.984 183.877 504.848 192.656 508.848 202.319C512.847 211.981 514.903 222.337 514.898 232.795C514.941 243.266 512.911 253.643 508.926 263.327C504.941 273.011 499.079 281.81 491.678 289.218C484.277 296.627 475.483 302.497 465.803 306.492C456.123 310.487 445.749 312.526 435.277 312.494ZM136.207 312.494C92.2007 312.494 56.9229 277.229 56.9229 232.795C56.9229 188.788 92.2007 153.173 136.207 153.173C180.214 153.173 215.893 188.788 215.893 232.795C215.929 243.27 213.893 253.649 209.901 263.334C205.909 273.019 200.041 281.818 192.635 289.226C185.228 296.634 176.43 302.503 166.745 306.497C157.061 310.49 146.682 312.528 136.207 312.494ZM1138.81 312.494C1094.8 312.494 1059.54 277.229 1059.54 232.795C1059.54 188.788 1094.8 153.173 1138.81 153.173C1182.45 153.173 1218.14 188.788 1218.14 232.795C1218.19 243.243 1216.17 253.597 1212.2 263.263C1208.24 272.928 1202.4 281.716 1195.03 289.121C1187.66 296.526 1178.9 302.402 1169.25 306.413C1159.6 310.424 1149.26 312.49 1138.81 312.494ZM836.509 312.494C826.026 312.557 815.634 310.539 805.937 306.557C796.239 302.574 787.429 296.705 780.016 289.292C772.604 281.878 766.737 273.067 762.756 263.368C758.774 253.67 756.758 243.278 756.823 232.795C756.794 222.325 758.836 211.953 762.831 202.275C766.826 192.598 772.696 183.806 780.102 176.406C787.508 169.006 796.305 163.143 805.985 159.156C815.666 155.169 826.04 153.135 836.509 153.173C846.97 153.166 857.33 155.221 866.997 159.219C876.664 163.217 885.448 169.08 892.848 176.475C900.249 183.869 906.119 192.648 910.125 202.312C914.131 211.975 916.194 222.334 916.196 232.795C916.23 243.269 914.192 253.647 910.2 263.332C906.208 273.016 900.34 281.815 892.933 289.222C885.527 296.63 876.729 302.499 867.046 306.493C857.362 310.487 846.984 312.526 836.509 312.494ZM515.313 342.35C492.155 359.467 464.087 368.647 435.29 368.523C360.312 368.523 299.574 307.773 299.574 232.795C299.574 158.218 360.312 97.494 435.29 97.494C465.094 97.494 492.733 107.299 514.911 123.667V12.0102H573.872V366.357H515.313V342.35ZM1461.89 184.093C1458.59 161.863 1440.76 145.897 1412.42 145.897C1397.5 145.897 1365.13 150.955 1365.13 170.241C1365.13 198.995 1414.25 201.524 1426.23 202.277C1504.84 209.553 1527.73 244.117 1527.73 284.842C1527.73 315.036 1512.45 337.577 1490.65 353.595C1472.11 367.045 1433.91 372.492 1410.6 372.492C1358.93 372.492 1306.57 344.166 1299.65 280.082H1357.51C1360.72 310.302 1392.41 321.573 1410.24 321.573C1442.59 321.573 1465.52 307.773 1465.52 291.755C1465.52 266.295 1441.89 260.822 1407.66 257.204C1388.44 255.025 1351.63 248.462 1336.38 235.726C1319.31 222.276 1304.74 206.972 1304.74 180.799C1304.74 133.861 1341.47 96.7677 1413.9 96.3656C1473.91 96.0154 1519.38 131.695 1520.79 183.678L1461.89 184.093ZM216.244 342.35C193.087 359.48 165.011 368.661 136.207 368.523C60.9176 368.523 0.893555 307.773 0.893555 232.795C0.893555 158.218 60.9176 97.494 136.207 97.494C166.064 97.494 193.702 107.299 216.244 123.667V97.8571H274.439V366.357H216.244V342.35ZM674.971 79.2974V11.647H616.413V79.2974H674.971ZM674.971 366.344V97.8441H616.413V366.344H674.971ZM1218.14 342.35C1196.3 359.068 1168.68 368.523 1138.81 368.523C1063.88 368.523 1003.15 307.773 1003.15 232.795C1003.15 158.218 1063.88 97.494 1138.81 97.494C1168.68 97.494 1196.32 107.299 1218.14 123.667V97.8571H1277.04V366.357H1218.86L1218.14 342.35ZM916.546 342.35C894.368 359.068 866.379 368.523 836.509 368.523C761.933 368.523 700.846 307.773 700.846 232.795C700.846 158.218 761.933 97.494 836.509 97.494C866.379 97.494 894.017 107.299 916.546 123.667V12.0102H974.754V366.357H916.546V342.35ZM1980.3 202.277C1983.57 138.608 1964.62 68.74 1913.67 0.726562C1864.23 64.3951 1846.8 136.792 1851.13 202.277H1980.3ZM1858.76 252.807C1856.58 243.312 1854.76 233.738 1853.31 224.105H1978.1C1976.67 233.742 1974.85 243.317 1972.65 252.807H1858.76ZM1887.86 324.88C1895.88 338.212 1905.13 350.758 1915.5 362.349C1925.71 351.053 1934.8 338.304 1943.19 324.88H1887.86ZM2174.92 202.627C2189.46 172.42 2199.67 138.608 2204.37 100.762C2119.63 108.051 2053.06 149.127 2008.28 202.627H2174.92ZM2163.64 224.105C2157.82 234.26 2151.6 243.352 2145.09 252.807L1975.16 252.094C1980.61 243.002 1986.08 232.795 1992.28 224.105H2163.64ZM2096.69 303.039C2107.34 294.347 2117.31 284.856 2126.51 274.648L1704.51 274.298C1714.01 284.814 1724.35 294.547 1735.42 303.402L2096.69 303.039ZM1949.37 324.88C1946.87 336.967 1945.41 349.247 1945.01 361.584C1985.38 359.782 2027.21 347.395 2065.06 324.88H1949.37ZM1667.43 224.105C1673.59 234.26 1679.79 243.352 1686.73 252.807H1855.89C1851.13 243.002 1845.34 233.56 1839.1 224.105H1667.43ZM1766.35 324.88C1804.2 347.395 1845.69 359.782 1886.05 361.584C1885.59 349.271 1884.26 337.005 1882.07 324.88H1766.35ZM1822.73 202.627C1778.37 149.127 1712.19 108.051 1627.39 100.762C1631.7 135.99 1641.4 170.346 1656.15 202.627H1822.73Z" fill="#192533"/>
</svg>
