<svg width="302" height="178" viewBox="0 0 302 178" fill="none" xmlns="http://www.w3.org/2000/svg">
<path d="M221.151 66.4803C245.502 55.7676 261.402 39.6799 262.268 21.8327C262.268 21.8327 255.84 16.8801 235.083 9.24276C216.856 2.53599 202.95 1.00102 202.95 1.00102L203.015 40.7656C203.015 46.7076 200.629 52.7726 196.126 58.1423C182.349 54.8156 167.122 52.9491 151.152 52.9437H151.141C135.161 52.9491 119.918 54.821 106.125 58.153C101.622 52.7833 99.2309 46.7129 99.2309 40.7656L99.2897 1.00102C99.2897 1.00102 85.3948 2.53599 67.1571 9.24276C46.4004 16.8801 39.9824 21.8327 39.9824 21.8327C40.8435 39.6853 56.7493 55.7783 81.1269 66.491C56.7707 77.2036 40.8702 93.2913 40.0092 111.133C40.0092 111.133 46.4325 116.091 67.1892 123.723C85.4216 130.43 99.3218 131.965 99.3218 131.965L99.2576 92.2002C99.2576 86.2583 101.643 80.188 106.152 74.8236C119.929 78.1556 135.15 80.0168 151.12 80.0168C167.106 80.0168 182.36 78.1502 196.147 74.8076C200.651 80.1773 203.036 86.2583 203.036 92.2002L202.983 131.965C202.983 131.965 216.883 130.43 235.115 123.723C255.872 116.091 262.295 111.133 262.295 111.133C261.429 93.2806 245.523 77.1876 221.151 66.4803ZM151.131 75.428H151.115L150.66 75.4173C136.241 75.4173 124.486 71.8874 115.864 66.491C124.486 61.0838 136.246 57.5486 150.692 57.5486L151.136 57.5432H151.158L151.612 57.5486C166.037 57.5486 177.787 61.0785 186.408 66.4749C177.787 71.8767 166.026 75.4173 151.585 75.4173" fill="#192533"/>
<path d="M8.10814 176.021C1.12326 176.021 1.00025 170.695 1.00025 168.641V158.95C1.00025 158.361 0.952113 157.581 2.19827 157.581H5.80837C6.97965 157.581 6.90477 158.415 6.90477 158.95V168.641C6.90477 169.331 7.03313 171.181 9.57357 171.181H15.6278C18.1202 171.181 18.2646 169.331 18.2646 168.641V158.95C18.2646 158.415 18.195 157.581 19.361 157.581H22.9978C24.3188 157.581 24.2012 158.415 24.2012 158.95V168.641C24.2012 170.695 24.0782 176.021 17.0665 176.021" fill="#192533"/>
<path d="M41.561 174.85C39.0954 171.529 35.5762 167.347 31.9875 162.929V174.727C31.9875 175.241 32.1159 176.022 30.8911 176.022H27.5217C26.3023 176.022 26.4467 175.241 26.4467 174.727V158.95C26.4467 158.415 26.3932 157.581 27.5217 157.581H34.0894C35.9453 157.581 38.5873 161.319 40.3202 163.785C41.6573 165.667 44.1282 168.497 45.7862 170.62V158.95C45.7862 158.415 45.7113 157.581 46.936 157.581H50.5943C51.7709 157.581 51.696 158.415 51.696 158.95V176.022H44.9572C43.5131 176.022 42.8767 176.118 41.561 174.85Z" fill="#192533"/>
<path d="M69.324 171.171C72.2762 171.171 72.0623 168.336 72.0623 167.042C72.0623 162.694 70.8375 162.523 68.8854 162.523H59.6061V171.171H69.324ZM53.9102 176.027V157.613H70.185C71.1798 157.613 77.8438 157.495 77.8438 164.496C77.8438 171.658 78.6247 176.027 70.3294 176.027H61.5582L59.6542 172.171V176.027" fill="#192533"/>
<path d="M84.2186 157.731H99.2099C100.483 157.731 100.312 158.56 100.312 160.1C100.312 161.534 100.504 162.341 99.2099 162.341H87.3634C87.0479 162.341 85.9782 162.17 85.9782 163.293C85.9782 164.417 85.759 164.86 86.9516 164.86H97.4289C97.4289 164.86 98.9425 167.743 99.1137 168.23C99.3597 168.668 99.3329 169.086 98.4077 169.086H87.5613L85.8766 165.812V170.647C85.8766 171.77 86.8821 171.551 87.1709 171.551H99.4773C100.702 171.551 100.6 172.402 100.6 173.792C100.6 175.29 100.702 176.113 99.4773 176.113H83.8977C82.6035 176.113 80.0684 175.723 80.0684 171.674V161.512C80.0684 160.464 80.6299 157.731 84.2186 157.731Z" fill="#192533"/>
<path d="M117.419 162.47H110.119C108.905 162.47 108.948 162.887 108.948 163.256V166.551H116.467C120.11 166.551 120.11 165.642 120.11 164.69C120.11 162.786 119.965 162.47 117.419 162.47ZM104.359 157.608H120.767C122.965 157.608 126.158 157.587 126.158 163.518C126.158 167.401 125.335 167.594 123.575 168.792C126.533 169.305 126.142 173.086 126.142 175.044C126.142 176.044 125.779 176.023 125.479 176.023H120.671C119.666 176.023 119.912 174.434 119.912 173.605C119.912 171.332 118.644 171.434 118.152 171.434H111.071C110.392 170.257 109.071 167.62 109.071 167.62V175.263C109.071 175.926 108.407 176.023 108.167 176.023H103.337C103.599 176.023 102.84 176.071 102.84 175.408V159.197C102.84 158.047 103.647 157.608 104.359 157.608Z" fill="#192533"/>
<path d="M152.461 162.83L149.434 168.35L149.701 168.617H155.344L155.638 168.35C155.44 167.932 153.001 163.295 152.755 162.803L152.461 162.83ZM154.413 157.733C155.611 157.733 156.777 158.268 158.05 160.734C158.911 162.488 164.869 173.254 166.11 175.506V176.115H159.906L158.119 172.89H150.578C150.578 172.89 149.311 169.986 148.947 169.184C148.482 169.938 145.989 174.677 145.128 176.115H138.908V175.725C140.176 173.334 148.845 157.733 148.845 157.733" fill="#192533"/>
<path d="M182.381 162.47H175.08C173.861 162.47 173.909 162.887 173.909 163.256V166.551H181.429C185.071 166.551 185.071 165.642 185.071 164.69C185.071 162.786 184.927 162.47 182.381 162.47ZM169.32 157.608H185.729C187.927 157.608 191.125 157.587 191.125 163.518C191.125 167.401 190.302 167.594 188.537 168.792C191.489 169.305 191.098 173.086 191.098 175.044C191.098 176.044 190.735 176.023 190.441 176.023H185.633C184.627 176.023 184.873 174.434 184.873 173.605C184.873 171.332 183.606 171.434 183.113 171.434H176.032C175.348 170.257 174.027 167.62 174.027 167.62V175.263C174.027 175.926 173.374 176.023 173.128 176.023H168.293C168.561 176.023 167.807 176.071 167.807 175.408V159.197C167.807 158.047 168.614 157.608 169.32 157.608Z" fill="#192533"/>
<path d="M205.459 176.021C204.235 173.727 200.838 167.4 198.544 163.255V174.727C198.544 175.241 198.613 176.021 197.453 176.021H194.126C192.88 176.021 192.976 175.241 192.976 174.727V158.95C192.976 158.415 192.907 157.607 194.126 157.607H199.865C200.721 157.607 201.935 157.409 203.309 160.148C204.336 162.341 206.513 166.892 208 169.304C209.535 166.892 211.76 162.341 212.786 160.148C214.129 157.409 215.322 157.607 216.274 157.607H221.986C223.162 157.607 223.039 158.415 223.039 158.95V174.727C223.039 175.241 223.205 176.021 221.986 176.021H218.643C217.423 176.021 217.52 175.241 217.52 174.727V163.255C215.204 167.4 211.829 173.727 210.556 176.021" fill="#192533"/>
<path d="M241.35 171.332C244.115 171.332 244.014 168.481 244.014 166.572C244.014 164.86 244.404 162.175 240.816 162.175H234.729C231.167 162.175 231.584 164.86 231.584 166.572C231.584 168.481 231.413 171.332 234.173 171.332H241.35ZM230.413 176.07C224.969 176.07 225.209 170.23 225.209 166.454C225.209 162.983 224.819 157.565 231.633 157.512H243.725C250.56 157.512 250.116 163.004 250.116 166.454C250.116 170.23 250.389 176.07 244.864 176.07" fill="#192533"/>
<path d="M259.219 176.021C252.229 176.021 252.112 170.695 252.112 168.641V158.95C252.112 158.361 252.063 157.581 253.31 157.581H256.925C258.091 157.581 258.021 158.415 258.021 158.95V168.641C258.021 169.331 258.144 171.181 260.685 171.181H266.739C269.231 171.181 269.376 169.331 269.376 168.641V158.95C269.376 158.415 269.301 157.581 270.472 157.581H274.109C275.43 157.581 275.313 158.415 275.313 158.95V168.641C275.313 170.695 275.189 176.021 268.178 176.021" fill="#192533"/>
<path d="M292.25 162.47H284.949C283.73 162.47 283.778 162.887 283.778 163.256V166.551H291.298C294.94 166.551 294.94 165.642 294.94 164.69C294.94 162.786 294.796 162.47 292.25 162.47ZM279.184 157.608H295.598C297.796 157.608 301 157.587 301 163.518C301 167.401 300.165 167.594 298.406 168.792C301.363 169.305 300.973 173.086 300.973 175.044C300.973 176.044 300.609 176.023 300.31 176.023H295.502C294.502 176.023 294.742 174.434 294.742 173.605C294.742 171.332 293.475 171.434 292.988 171.434H285.901C285.222 170.257 283.901 167.62 283.901 167.62V175.263C283.901 175.926 283.238 176.023 282.997 176.023H278.168C278.43 176.023 277.676 176.071 277.676 175.408V159.197C277.676 158.047 278.483 157.608 279.184 157.608Z" fill="#192533"/>
</svg>
