<svg width="973" height="101" viewBox="0 0 973 101" fill="none" xmlns="http://www.w3.org/2000/svg">
<g clip-path="url(#clip0_10165_5282)">
<path d="M174.5 2L204 73V2H218V99H200C191.66 77.01 183.58 54.74 174.44 33.06C173.65 31.19 173.53 27.32 171 28V99H158V2H174.5Z" fill="#192533"/>
<path d="M352.5 1.99942C354.03 2.17942 358.61 3.58942 360.28 4.21942C377.04 10.5994 379.15 34.5694 366.48 46.0194C365.64 46.7794 364.08 46.8994 364.01 47.0094C362.84 48.6294 366.99 50.1894 368.53 51.9694C376.44 61.0294 372.31 79.9994 375.25 91.2494C375.95 93.9394 378.44 95.9994 378 98.9994H363.5C359.48 98.9994 359.52 70.1394 358.9 65.5994C358.5 62.6294 357.49 58.3494 354.98 56.5194C354.36 56.0694 349.8 53.9994 349.5 53.9994H332V98.9994H318V1.99942C328.93 2.92942 341.81 0.749423 352.5 1.99942ZM332 41.9994H350.5C350.79 41.9994 354.82 39.5494 355.5 38.9994C361.85 33.8294 362.22 21.0094 354.96 16.5394C353.76 15.7994 348.5 13.9994 347.5 13.9994H332V41.9994Z" fill="#192533"/>
<path d="M718 30.9998H704C706.16 10.5798 681.56 4.27975 675.28 24.7798C671.8 36.1298 671.72 64.9398 675.28 76.2298C678.82 87.4598 689.5 93.4198 699.35 84.8498C705.78 79.2498 705.89 65.9998 706 57.9998H687V45.9998H719V98.9998H708V90.9998C697.24 103.91 677.54 103.94 667.03 90.4798C655.61 75.8398 656.38 34.4997 663.25 17.7397C675.32 -11.7303 722.1 -2.04025 718.01 30.9998H718Z" fill="#192533"/>
<path d="M127.66 93.6602C118.48 102.8 96.6299 102.91 87.3499 93.6602C72.2899 78.6602 72.5198 27.1702 84.9998 10.5002C95.0698 -2.94984 120.87 -3.09984 130.83 10.6802C142.64 27.0302 142.29 79.1002 127.66 93.6602ZM102.71 13.2102C97.4299 14.3902 94.0599 21.4802 92.7199 26.2202C89.1899 38.7802 89.0799 69.0002 94.8199 80.6902C101.23 93.7402 116.64 90.4401 121.3 77.8001C125.56 66.2401 125.65 31.3402 120.19 20.3202C116.71 13.3102 110.25 11.5302 102.71 13.2102Z" fill="#192533"/>
<path d="M14 2V39H44V2H58V99H44V53.5C44 53.39 42.61 52 42.5 52H14V99H0V2H14Z" fill="#192533"/>
<path d="M501 2V39H531V2H545V99H531V52H502.5C502.39 52 501 53.39 501 53.5V99H487V2H501Z" fill="#192533"/>
<path d="M267.82 0.230602C301.04 -0.329398 300.54 38.4906 299.05 62.5506C297.81 82.4906 290.49 101.001 267.51 101.011C235.79 101.031 235.53 61.3006 236.96 38.4606C238.18 18.9706 245.48 0.610602 267.83 0.230602H267.82ZM263.72 13.2206C258.23 14.3506 255.02 20.0206 253.5 25.0006C249.8 37.0706 249.4 70.8906 255.79 81.7106C262.13 92.4406 276.1 90.6806 281.02 79.5306C286.48 67.1606 287.38 28.3106 278.99 17.5106C275.15 12.5706 269.63 12.0106 263.72 13.2306V13.2206Z" fill="#192533"/>
<path d="M615 2V15H578V42H612V55H578V86H616V99H563V2H615Z" fill="#192533"/>
<path d="M822 2V15H786V42H820V55H786V99H771V2H822Z" fill="#192533"/>
<path d="M931.78 1.28022C943.49 -0.0997798 958.37 4.12022 965.44 14.0602C975.63 28.3802 975.33 67.6202 967.54 83.0402C956.39 105.1 918.78 105.9 906.83 84.6702C897.36 67.8502 896.82 24.1802 911.46 9.96021C916.26 5.30021 925.2 2.06022 931.78 1.28022ZM931.78 10.2802C913.91 12.5202 910.07 27.8702 909 43.5002C907.34 67.8802 912.56 97.7302 944.27 90.7702C965.61 86.0802 965.38 56.9502 963.99 39.5102C962.4 19.5602 953.1 7.61022 931.78 10.2802Z" fill="#192533"/>
<path d="M893 2V15H869V99H855V15H831V2H893Z" fill="#192533"/>
<path d="M475 2V15H452V99H438V16.5C438 16.39 436.61 15 436.5 15H414V2H475Z" fill="#192533"/>
<path d="M752 2H738V99H752V2Z" fill="#192533"/>
<path d="M938.5 21.9992C939.99 22.1592 945.06 23.4192 946.38 24.1192C954.63 28.5092 955.39 41.2792 950 48.2892C949.36 49.1292 946.59 49.0492 948.01 50.9792C948.37 51.4692 950.23 50.6992 951.74 54.7692C954.49 62.1892 951.42 70.5292 955 77.9992C939.94 80.4792 945.19 70.2592 943.91 60.5992C942.74 51.6892 935.92 54.3292 929 54.0092V78.0092H921V22.0092C926.62 22.4392 932.98 21.4192 938.5 22.0092V21.9992ZM929 45.9992C936.46 45.6992 944.07 48.5392 944.07 38.4992C944.07 28.4592 936.46 31.2992 929 30.9992V45.9992Z" fill="#192533"/>
</g>
<defs>
<clipPath id="clip0_10165_5282">
<rect width="1165" height="628" fill="white" transform="translate(-95 -264)"/>
</clipPath>
</defs>
</svg>
