<svg width="112" height="60" viewBox="0 0 112 60" fill="none" xmlns="http://www.w3.org/2000/svg">
<path d="M6.91918 57.8793C3.63503 56.3047 0.844142 53.444 0.238496 51.0313C-0.471777 48.1996 0.454098 42.732 2.3556 38.5395C4.14948 34.583 9.20232 26.658 12.3786 22.8182L13.8737 21.0113L12.6678 24.46C10.9907 29.2564 11.0576 34.3898 12.8312 37.0219C15.4844 40.9587 20.7466 43.0615 25.4969 42.0815C28.9965 41.3628 62.9416 32.1451 64.1716 31.5833C65.0293 31.1913 64.0306 31.0233 60.7077 30.9953H56.0392L55.9925 27.8331C55.9645 26.0933 55.7648 23.5098 55.5408 22.0921L55.1338 19.5151L53.0555 25.2552L50.9772 30.9953H47.4833C45.5616 30.9953 43.9894 30.7619 43.9894 30.4819C43.9894 30.2019 45.9139 24.8464 48.2661 18.5846C50.6182 12.3237 53.0774 5.77726 53.7309 4.03751L54.9192 0.875344H58.4903C60.4544 0.875344 62.0615 0.968678 62.0615 1.06201C62.0615 1.16468 61.3857 2.97443 60.5593 5.08192C59.7333 7.19034 59.1289 8.98703 59.2165 9.07477C59.3005 9.1681 60.8612 7.36301 62.6765 5.07632L65.9771 0.918279H77.0354C86.9095 0.918279 88.0542 1.01161 87.7254 1.85629C87.5229 2.38829 87.1934 3.46817 86.9937 4.26525C86.6577 5.60459 86.3394 5.71566 82.8601 5.71566H79.0905L77.8859 8.87876L76.6814 12.0409L79.9136 12.2183C81.6913 12.3209 83.1459 12.6663 83.1459 12.9929C83.1459 13.3196 82.7595 14.5106 82.2863 15.6427C81.4649 17.6092 81.2728 17.7082 77.9523 17.8818L74.4781 18.0685L73.0893 21.6609C72.3249 23.6368 71.7004 25.3317 71.7004 25.426C71.7004 25.5193 73.5895 25.594 75.8983 25.594C79.3823 25.594 80.0372 25.7527 79.7494 26.4993C79.559 26.994 79.6748 27.4047 80.0117 27.4047C80.3468 27.4047 87.6046 25.5072 96.1401 23.1878C110.774 19.2118 114.819 18.3951 110.168 20.3561C109.056 20.8228 90.2539 28.94 68.3868 38.3892C46.5196 47.8384 26.5952 56.3075 24.1102 57.2091C21.1558 58.2815 17.9244 58.9451 14.773 59.1262C10.5735 59.3689 9.56334 59.2195 6.91713 57.9474L6.91918 57.8793ZM68.625 14.4462C70.98 8.18436 72.8943 2.89883 72.879 2.6991C72.8603 2.50309 70.5642 4.77672 67.7691 7.75781L62.6869 13.1796L62.6833 18.2999C62.6784 24.6037 63.2545 28.7067 63.9027 26.994C64.1453 26.35 66.27 20.707 68.625 14.4462ZM16.3088 27.8163C16.9761 26.0616 19.5069 19.3397 21.9327 12.8791L26.3431 1.13201L30.277 0.954679L34.211 0.777344L33.9991 3.36271C33.4904 9.56664 33.2758 13.4792 33.4438 13.4792C33.5436 13.4792 34.6697 10.6344 35.9469 7.15768L38.2691 0.836144L41.7329 0.829611C43.6379 0.829611 45.1966 1.05361 45.1966 1.34295C45.1966 1.62295 43.2721 6.97941 40.92 13.2403C38.5678 19.5021 36.1086 26.0476 35.4551 27.7874L34.2669 30.9505H30.3296H26.3923L26.7507 24.7755C26.9476 21.379 26.9747 18.8721 26.816 19.2034C26.6527 19.5301 25.6137 22.2452 24.5081 25.2272L22.498 30.649L18.7992 30.8263L15.1006 31.0037L16.3088 27.8163ZM35.558 30.4381C35.558 30.1581 37.4824 24.8016 39.8346 18.5398C42.1868 12.2789 44.6459 5.73246 45.2995 3.99364L46.4877 0.830543H50.1091C52.1008 0.830543 53.64 1.06388 53.5296 1.35322C53.4195 1.64255 50.8891 8.41489 47.9071 16.4071L42.4855 30.9374L39.0217 30.943C37.1167 30.9495 35.558 30.7181 35.558 30.4381Z" fill="#192533"/>
</svg>
