<svg width="512" height="394" viewBox="0 0 512 394" fill="none" xmlns="http://www.w3.org/2000/svg">
<g clip-path="url(#clip0_10165_5253)">
<path d="M192.01 282.001C211.82 265.421 234.11 246.511 236.99 287.511C237.56 295.671 235.1 322.731 244.02 326.471C257.52 332.131 274.7 302.871 285.97 312.531C290.36 316.301 286.82 325.591 286.96 330.471C287 331.981 286.3 333.411 288.49 332.991C294.08 327.471 305.35 308.501 314.53 315.981C320.29 320.671 316.97 331.671 318.69 338.811C322.19 353.341 342.85 359.011 355.69 354.181C363.01 351.421 370.26 341.211 378.53 348.971C384.29 354.381 381.67 364.441 385.02 370.991C394.13 367.151 394 356.081 403.33 351.821C416.92 345.621 422.99 357.761 434.03 361.471C446.35 365.601 458.12 363.431 470.21 359.711C476.33 357.821 487.6 350.901 491.74 350.181C501.23 348.521 493.03 356.741 488.68 359.191C471.94 368.591 444.73 374.481 426.96 365.551C420.69 362.401 415.83 355.371 407.71 357.221C398.91 359.221 395.92 379.471 383.72 376.811C374.25 374.751 377.9 354.591 373.35 353.081C369.66 351.861 363.93 357.641 360.67 359.181C346.06 366.111 324.88 361.531 315.55 347.931C309.54 339.171 313.56 330.531 310.97 321.001C306.38 317.911 294.51 340.541 286.39 341.011C274.99 341.661 283.15 318.241 281.98 317.001C271.62 318.931 265.82 328.341 255.52 332.031C225.46 342.801 232.18 298.841 229.86 282.611C227.23 264.211 222.26 267.441 209.65 276.161C207.44 277.691 192.51 289.591 192.17 290.681C192.44 302.601 193.51 314.551 195.12 326.351C196.53 336.721 203.45 361.911 201.74 370.271C200.03 378.631 190.95 380.051 184.98 374.501C178.28 368.261 169.98 351.121 162.95 342.531C159.82 338.711 155.08 333.261 151.51 329.971C150.56 329.091 144.73 324.241 144.28 324.121C142.96 323.781 138.55 325.551 138 326.761C136.33 330.431 136.58 342.371 135.86 347.371C135.01 353.231 132.9 371.191 129.43 374.941C126.6 377.991 123.5 377.521 121.74 373.741C120.23 360.511 123.57 346.301 124.98 333.011C96.1696 343.631 62.6696 348.631 37.4596 327.031C9.39964 302.981 6.29964 249.481 43.9996 233.521C48.4196 231.651 66.9596 227.471 69.5196 230.971C73.5496 236.471 55.6596 236.811 52.1896 237.711C18.7296 246.451 15.5196 287.281 33.1696 312.321C55.0296 343.341 95.0896 339.111 125.82 324.841C124.99 321.941 127.33 313.221 126.89 311.651C126.33 309.681 114.34 306.371 122.45 301.991L126.98 304.001C130.92 265.901 129.45 227.321 122.21 189.761C122.23 186.611 125.34 185.801 127.52 187.981C128.9 189.351 130.18 198.191 130.67 200.821C132.7 211.531 134.4 224.661 134.97 235.521C135.42 244.141 134.63 252.881 134.98 261.521C135.03 262.731 134.23 265.241 135.97 265.001C141.82 208.661 143.05 149.281 156.66 94.1909C159.79 81.5309 167.41 53.0209 180.58 48.1109C200.26 40.7809 198.65 72.8909 198.94 84.5509C200.14 133.311 193.87 182.531 191.94 231.471C191.44 244.041 190.2 261.471 190.93 273.561C191.1 276.451 191.82 279.151 191.99 282.011L192.01 282.001ZM185.7 53.1909C173.62 53.2909 164.76 88.5209 162.49 97.9809C148.05 158.181 145.11 229.391 140.99 291.481C140.73 295.371 138.2 309.651 139.51 311.981C139.92 312.721 143.51 314.911 144.49 314.941C147.15 315.031 165.86 302.311 169.32 299.801C172.35 297.601 184.48 289.081 184.99 286.471C184.91 264.411 185.01 242.411 185.97 220.451C187.98 174.381 195.77 123.061 193.05 77.4509C192.8 73.2909 191.16 53.1409 185.71 53.1909H185.7ZM185.99 296.011L150.01 320.511C166.82 331.751 174.93 350.961 186.56 365.941C189.76 370.061 194.46 374.461 195.94 366.661C191.29 343.341 186.58 319.891 185.99 296.011Z" fill="#192533"/>
<path d="M355.01 151.001C358.71 148.901 374.15 145.921 375.88 150.631C378.12 156.721 367.25 154.651 363.61 155.101C361.01 155.421 358.58 156.641 356 157.011C358.51 167.111 364.14 175.941 369.09 184.941C370.31 185.801 383.11 176.721 385.99 180.021C389.64 184.211 377.31 187.991 375.07 189.561C370.76 192.571 362.11 203.181 361.97 208.421C368.32 212.911 375.32 209.981 381.55 209.951C387.34 209.921 385.34 215.191 380.26 216.741C374.26 218.581 368.98 216.701 363.01 216.491C369.35 230.561 375.69 243.871 374.17 259.841C376.73 262.601 392.49 264.741 392.99 266.551C395.2 274.511 377.24 269.451 374.02 267.001C375.59 281.291 376.27 296.771 384.48 309.091C387.28 311.261 391.29 304.661 392.42 302.911C404.54 284.341 403.92 256.651 415.99 237.491C412.16 236.901 390.74 241.141 393.01 233.531C393.77 230.991 403.53 232.191 406.37 231.861C418.06 230.531 421.58 229.171 427.17 218.661C430.04 213.261 434.71 202.201 426.06 199.441C418.37 196.991 417.74 201.761 412.92 205.401C410.91 206.921 402.56 212.841 401.09 208.381C399.62 203.921 408.08 201.121 411.02 198.501C419.09 191.321 424.35 178.721 425.01 167.991C421.55 168.181 417.98 167.691 414.52 168.011C411.39 168.291 397.3 173.551 399.11 166.661C400.34 161.941 422.23 160.711 427.01 161.001C426.82 156.381 431.19 134.091 423.7 134.191C417.42 134.271 396.04 154.261 395.92 137.511C395.75 114.331 415.75 78.9406 438.02 70.5106C451.19 65.5306 462.07 70.0506 455.88 85.3706C452.3 94.2206 439.77 106.551 432.48 112.981C429.31 115.781 415.35 127.201 412.28 127.841C408.47 128.641 406.99 126.721 408.95 123.451C410.91 120.181 426.67 109.491 431.01 105.511C435.35 101.531 455 82.1206 450.57 75.9306C447.02 70.9706 432.36 80.7106 428.99 83.4806C413.79 96.0106 404.36 117.481 403.01 136.991C403.64 137.711 413.93 130.851 415.63 130.121C439.83 119.751 435.01 150.031 432.84 164.331C431.33 174.251 429.04 184.231 424.01 192.991C439.94 194.441 439.35 210.301 433.2 221.691C428.16 231.031 421.88 238.561 417.54 249.031C410.99 264.841 404.81 305.711 390.96 314.451C374.36 324.921 368.81 283.991 368.02 274.481C367.18 264.351 368.85 253.681 366.75 243.751C363.34 227.601 349.33 215.191 359.2 197.691C360.9 194.681 363.44 192.651 364.88 189.681C353.35 173.241 342.53 149.661 351.23 129.721C357.09 116.291 373.28 110.271 382.22 124.291L387 135.001C386.73 112.991 387.86 82.0106 375.83 62.6906C370.68 54.4306 363.21 50.4506 362.01 63.5006C360.92 75.2806 368.67 90.0906 374.6 99.9206C377.78 105.201 383.85 109.421 383.01 116.001C379.03 120.121 368.43 102.431 366.84 99.6806C360.21 88.1206 354.74 75.0906 355.97 61.4706C357.12 48.6706 367.99 44.4406 377.05 53.4706C394.11 70.4706 394.92 122.661 392.99 145.501C392.73 148.631 391.03 161.811 385.47 156.041C381.22 151.621 381.91 124.481 370.41 123.041C357.48 121.421 353.15 141.281 355.01 151.021V151.001Z" fill="#192533"/>
<path d="M428 70.0004C425.79 67.8204 433.57 53.5404 434.76 50.2704C436.33 45.9804 443.59 26.0004 440.05 23.4204C435.02 21.7204 428.04 29.7504 425.01 33.5204C415.75 45.0104 408.44 63.5604 405.45 77.9604C404.53 82.3904 402.83 103.31 401.04 104.56C398.01 105.96 396.12 103.43 395.89 100.5C395.71 98.1304 396.75 90.5304 397.1 87.6204C399.55 67.4804 412.64 30.0404 430.65 19.1704C445.08 10.4604 448.43 20.8904 446.52 34.0404C445.74 39.4104 435.85 67.5804 431.97 69.4904C430.68 70.1304 429.35 70.0704 427.97 69.9904L428 70.0004Z" fill="#192533"/>
</g>
<defs>
<clipPath id="clip0_10165_5253">
<rect width="512" height="394" fill="white"/>
</clipPath>
</defs>
</svg>
