<svg width="600" height="119" viewBox="0 0 600 119" fill="none" xmlns="http://www.w3.org/2000/svg">
<path d="M119.1 0.599609V57.4996C119.1 67.3996 116.6 76.0996 110.9 85.6996C106.9 92.3996 100.7 98.4996 90.5 105.5C79.5 113 65.5 117.3 60 118.8L59.5 118.9L59 118.8C53.5 117.3 39.5 113 28.5 105.5C18.4 98.4996 12.1 92.3996 8.2 85.7996C2.5 76.1996 0 67.4996 0 57.5996V0.699615H119.1V0.599609ZM60.8 8.59961H58.3C37.1 8.69961 17.2 10.2996 17.2 10.2996C16.1 10.2996 15.3 11.1996 15.3 12.3996V57.8996C15.3 66.4996 17.2 73.9996 21.4 82.3996C24.3 88.1996 29 93.4996 36.5 99.5996C44.6 106 55 109.7 59.1 111L59.5 111.1L59.9 111C64 109.7 74.4 106 82.6 99.3996C90.1 93.2996 94.8 87.9996 97.7 82.1996C101.9 73.8996 103.8 66.2996 103.8 57.6996V12.2996C103.8 11.1996 102.9 10.1996 101.9 10.1996C101.9 10.1996 81.2 8.4996 59.5 8.4996L60.8 8.59961ZM192.4 24.8996C194.3 24.8996 196.1 25.0996 197.9 25.3996C199.6 25.6996 201.2 26.2996 202.7 26.9996C205.7 28.4996 208 30.5996 209.6 33.0996C211.2 35.6996 211.9 38.5996 211.9 41.8996C211.9 43.6996 211.7 45.4996 211.2 47.0996C210.8 48.6996 210.1 50.2996 209.2 51.6996C208.6 52.5996 208 53.3996 207.2 54.0996C206.7 54.5996 206.2 54.9996 205.7 55.3996C204.4 56.3996 202.9 57.1996 201.2 57.7996C202.6 58.1996 204 58.5996 205.3 59.1996C208.6 60.8996 211.1 63.0996 212.8 65.8996C214.5 68.6996 215.3 71.7996 215.3 75.3996C215.3 77.3996 215.1 79.2996 214.6 81.0996C214.1 82.8996 213.4 84.4996 212.4 86.0996C211.8 86.9996 211.1 87.8996 210.2 88.7996C209.7 89.2996 209.2 89.7996 208.6 90.1996C207 91.3996 205.1 92.3996 202.9 93.0996C200.6 93.8996 198.1 94.4996 195.5 94.7996C194.7 94.8996 193.9 94.8996 193.1 94.9996C192.2 95.0996 191.3 95.0996 190.4 95.0996C190.3 95.0996 190.1 95.0996 189.7 95.0996H160.2V32.9996C159.7 30.3996 158.2 27.5996 157.2 26.2996V24.5996C157.2 24.5996 178.2 24.5996 187.7 24.5996L192.4 24.8996ZM310.6 24.8996V95.2996H297V33.1996C296.5 30.5996 295 27.7996 294 26.4996V24.7996H310.6V24.8996ZM488.9 24.8996C510.1 24.8996 526.1 38.2996 526.1 60.0996C526.1 81.8996 510.1 95.2996 488.9 95.2996C467.6 95.2996 451.6 81.8996 451.6 60.0996C451.6 38.2996 467.6 24.8996 488.9 24.8996ZM223.6 24.8996C223.6 24.8996 244.6 24.8996 253.3 24.8996H257C258.9 24.8996 260.7 25.0996 262.5 25.4996C264.2 25.8996 265.8 26.4996 267.3 27.2996C270.3 28.9996 272.6 31.3996 274.2 34.2996C275.8 37.1996 276.5 40.4996 276.5 44.1996C276.5 46.1996 276.3 48.1996 275.8 50.0996C275.4 51.8996 274.7 53.6996 273.8 55.2996C273.2 56.2996 272.6 57.1996 271.8 58.0996C271.3 58.5996 270.9 59.0996 270.3 59.5996C268.9 60.8996 267.1 61.8996 265.1 62.5996L264.9 62.6996L280.4 86.9996C282 89.3996 284.8 92.3996 285.7 93.6996V95.3996H269.1L249.6 64.7996H239.8V95.3996H226.5V33.2996C226 30.6996 224.5 27.8996 223.6 26.5996V24.8996ZM451.5 24.8996V36.2996H449.9C448.7 35.5996 446 34.4996 443.6 34.0996H429V95.2996H416V34.0996H401.4C399 34.3996 396.2 35.5996 395.1 36.2996H393.5V24.8996H451.5ZM342.1 24.8996L357.8 48.7996L370.7 31.5996L375.7 24.8996H389.4L364.3 58.4996L383 86.9996C384.7 89.3996 387.5 92.3996 388.5 93.5996V95.2996H372.5L355.8 69.8996L336.8 95.2996H323.1L349.4 60.0996L331.7 33.1996C330 30.7996 327.2 27.7996 326.2 26.5996V24.8996H342.1ZM550.4 25.9996L590.7 73.0996V34.1996C590.2 31.6996 588.7 28.8996 587.7 27.6996V25.9996H599.9V94.7996H591.5L547.5 43.3996V94.7996H538.3V34.1996C537.8 31.6996 536.3 28.8996 535.3 27.6996V25.9996H550.4ZM188.9 64.7996C188.8 64.7996 188.7 64.7996 188.5 64.7996H173.9V86.9996H186.3C186.4 86.9996 186.5 86.9996 186.5 86.9996H186.8C187.3 86.9996 187.8 86.9996 188.3 86.8996C188.8 86.8996 189.2 86.7996 189.7 86.7996C191.2 86.5996 192.6 86.2996 193.9 85.7996C195.2 85.3996 196.3 84.7996 197.2 84.0996C197.5 83.7996 197.8 83.5996 198.1 83.2996C198.6 82.7996 199 82.2996 199.3 81.7996C199.9 80.8996 200.3 79.8996 200.6 78.8996C200.9 77.7996 201 76.6996 201 75.5996C201 73.4996 200.5 71.6996 199.5 69.9996C198.5 68.3996 197.1 67.0996 195.2 66.0996C194.3 65.5996 193.2 65.2996 192.2 65.0996C191.3 64.8996 190.1 64.7996 188.9 64.7996ZM488.8 34.2996C476.8 34.2996 467.7 44.1996 467.7 60.1996C467.7 76.1996 476.7 86.0996 488.8 86.0996C500.8 86.0996 509.8 76.1996 509.8 60.1996C509.8 44.1996 500.8 34.2996 488.8 34.2996ZM250.9 33.2996H239.8V55.2996C239.8 55.2996 242 55.2996 244.3 55.2996H248.8C249.3 55.2996 249.8 55.2996 250.3 55.1996C250.8 55.1996 251.2 55.0996 251.6 55.0996C253.1 54.8996 254.5 54.5996 255.8 54.0996C257.1 53.6996 258.2 53.0996 259 52.3996C259.3 52.0996 259.6 51.8996 259.9 51.5996C260.4 51.0996 260.8 50.5996 261.1 50.0996C261.7 49.1996 262.1 48.2996 262.3 47.1996C262.6 46.1996 262.7 45.0996 262.7 43.8996V42.9996C262.6 41.2996 262.1 39.7996 261.3 38.3996C260.3 36.7996 258.9 35.4996 257.1 34.5996C256.2 34.0996 255.2 33.7996 254.1 33.5996C253.2 33.3996 252.1 33.2996 250.9 33.2996ZM185.1 33.2996C184.9 33.2996 184.5 33.2996 184 33.2996H173.9V55.2996H182.5C182.6 55.2996 182.7 55.2996 182.7 55.2996H183C183.5 55.2996 184 55.2996 184.5 55.1996C185 55.1996 185.4 55.0996 185.9 55.0996C187.4 54.8996 188.8 54.5996 190.1 54.0996C191.4 53.6996 192.5 53.0996 193.4 52.3996C193.7 52.0996 194 51.8996 194.3 51.5996C194.8 51.0996 195.2 50.5996 195.5 50.0996C196.1 49.1996 196.5 48.2996 196.8 47.1996C197.1 46.1996 197.2 45.0996 197.2 43.8996C197.2 41.7996 196.7 39.9996 195.7 38.3996C194.7 36.7996 193.3 35.4996 191.4 34.5996C190.5 34.0996 189.4 33.7996 188.4 33.5996C187.4 33.3996 186.3 33.2996 185.1 33.2996Z" fill="#192533"/>
</svg>
