<svg width="612" height="109" viewBox="0 0 612 109" fill="none" xmlns="http://www.w3.org/2000/svg">
<g clip-path="url(#clip0_10164_5132)">
<path d="M64.2801 54.66L65.9201 54.85C72.6401 55.21 74.8101 56.48 75.5401 57.03C76.0901 57.57 77.3601 59.38 77.3601 66.46V90.45C77.4516 91.359 77.1903 92.2684 76.6301 92.99C76.2701 93.35 75.1801 94.08 70.6301 95.53C68.4585 96.2909 66.2015 96.7813 63.9101 96.99C61.8667 97.3258 59.8007 97.5063 57.7301 97.53C52.8976 97.5953 48.1055 96.6424 43.6655 94.7334C39.2256 92.8244 35.2373 90.0021 31.9601 86.45C25.0501 79 21.4601 68.45 21.4601 55.21C21.4601 39.05 24.9101 27.21 32.0001 20.21C39.0401 13.45 47.2101 9.81 56.2901 9.81C65.3701 9.81 72.4501 12.71 78.0801 18.71C81.1667 22.1633 84.2534 27.43 87.34 34.51L87.8901 35.6H94.4601L93.1601 0.36H86.8001L86.2601 1.45C85.8998 2.54923 85.2827 3.54678 84.4601 4.36C84.1001 4.72 83.37 5.09 81.0201 5.09C80.8301 5.09 79.2001 4.9 71.7501 2.73C65.9618 1.06723 59.9723 0.209171 53.9501 0.18C37.4601 0.18 23.7901 6 13.8001 17.45C4.72103 27.6986 -0.200836 40.9698 5.65234e-05 54.66C5.65234e-05 71.01 5.81006 84.45 17.4601 94.25C27.8201 103.15 40.7101 107.51 55.9601 107.51C64.691 107.444 73.3486 105.91 81.5701 102.97C93.3701 98.97 95.7301 96.61 95.7301 94.25V64.65C95.7301 60.47 96.64 57.57 98.09 56.3C98.63 55.93 100.09 55.2 104.44 54.84L106.08 54.66V48.45H64.2801V54.66ZM213.74 8.35L215.38 8.54C220.28 9.08 223.73 10.17 225.38 11.99C226.29 12.89 227.74 16.16 227.74 26.15V65.38C227.74 74.64 226.65 81.54 224.47 85.9C220.47 93.53 213.03 97.34 201.23 97.34C190.7 97.34 183.61 93.71 179.98 86.26C177.98 82.08 176.89 76.09 176.89 68.65V20.16C176.89 13.62 178.16 11.62 178.89 10.9C179.62 10.18 181.98 8.9 189.06 8.54L190.69 8.36V2H144.55V8.35L146.18 8.54C153.09 9.08 155.45 10.35 156.18 11.08C156.91 11.81 158.18 13.8 158.18 20.34V67.34C158.18 76.96 159.81 84.77 163.27 90.76C169.44 101.84 181.27 107.66 198.13 107.66C215.2 107.66 227.01 101.84 233.36 90.59C236.63 84.59 238.45 76.06 238.45 65.35V25.97C238.45 16.17 239.9 13.08 240.81 11.97C241.9 10.7 244.44 9.06 250.98 8.34L252.61 8.16V2H214.11V8.36L213.74 8.35ZM374.64 77.36C371.01 85.53 366.83 90.62 362.48 92.62C357.94 94.8 350.48 95.89 340.68 95.89C329.24 95.89 325.43 95.53 324.16 95.16C323.8 94.98 322.71 94.8 322.71 91.53V56.12H344.14C351.77 56.12 354.31 57.57 355.03 58.3C356.12 59.39 357.58 62.11 358.85 69.01L359.21 70.46H366.11V32.14H359.21L358.85 33.6C357.58 40.32 356.12 43.22 355.03 44.31C354.31 45.22 351.77 46.67 344.14 46.67H322.71V14.67C322.71 12.31 323.07 11.76 323.07 11.76C323.938 11.4245 324.874 11.3011 325.8 11.4H346.32C356.85 11.4 360.85 12.85 362.32 13.94C363.79 15.03 365.95 18.12 367.4 25.75L367.76 27.2H375.03L374.12 1.96H290.38V8.35L292.02 8.54C298.73 9.08 300.91 10.35 301.64 11.08C302.37 11.81 303.45 13.98 303.45 20.34V87.34C303.45 94.24 302.18 96.06 301.64 96.6C300.91 97.33 298.55 98.42 291.83 99.15L290.2 99.33V105.5H374.82L382.63 76.5H374.82L374.64 77.36ZM473.8 46.85L460.54 38.68C456.637 36.4326 453.088 33.6187 450.01 30.33C447.954 27.8959 446.855 24.7957 446.92 21.61C446.83 19.9412 447.147 18.2755 447.844 16.7564C448.541 15.2373 449.597 13.9104 450.92 12.89C453.654 10.7171 457.058 9.56121 460.55 9.62C465.45 9.62 470.55 11.44 475.62 15.07C480.69 18.7 484.34 25.07 486.7 34.32L487.06 35.77H494.14L490.46 0H484.28L483.92 1.27C483.673 2.36393 483.244 3.4085 482.65 4.36C481.975 4.86672 481.143 5.12141 480.3 5.08C480.11 5.08 478.84 4.9 472.48 2.72C468.322 1.09503 463.921 0.175728 459.46 0C450.74 0 443.46 2.72 438.03 8.17C435.347 10.8194 433.237 13.9921 431.832 17.4911C430.426 20.9902 429.755 24.7407 429.86 28.51C429.86 34.68 432.21 40.31 436.75 45.58C439.622 48.5743 442.857 51.1979 446.38 53.39L459.27 61.39C466.54 65.93 471.27 69.39 473.44 71.56C474.988 73.0652 476.206 74.875 477.018 76.8751C477.831 78.8752 478.22 81.022 478.16 83.18C478.16 88.09 476.71 91.9 473.62 94.62C470.505 97.3451 466.499 98.8324 462.36 98.8C454.01 98.8 447.11 95.53 441.48 88.99C438.21 85.18 435.3 79.91 432.76 73.38L432.4 72.29H425.68L430.76 108.06H437.12L437.3 106.61C437.477 105.58 437.847 104.593 438.39 103.7C438.58 103.16 439.3 102.97 440.39 102.97C440.57 102.97 442.03 103.16 448.56 105.52C453.461 107.266 458.618 108.186 463.82 108.24C473.44 108.24 481.62 105.34 487.82 99.89C490.879 97.3052 493.327 94.0756 494.991 90.4328C496.654 86.79 497.49 82.8242 497.44 78.82C497.56 72.8547 495.641 67.027 492 62.3C488.32 57.03 482.33 52.12 473.8 46.85ZM606.19 61.38C602.74 57.03 596.56 52.12 588.19 46.85L574.93 38.68C571.05 36.4251 567.522 33.6116 564.46 30.33C562.404 27.8959 561.305 24.7957 561.37 21.61C561.28 19.9412 561.597 18.2755 562.294 16.7564C562.991 15.2373 564.046 13.9104 565.37 12.89C568.104 10.7171 571.508 9.56121 575 9.62C579.9 9.62 585 11.44 590.07 15.07C595.14 18.7 598.79 25.07 601.15 34.32L601.51 35.77H608.59L604.91 0H598.73L598.37 1.27C598.123 2.36393 597.694 3.4085 597.1 4.36C596.422 4.8682 595.587 5.12292 594.74 5.08C594.56 5.08 593.29 4.9 586.93 2.72C582.753 1.0894 578.331 0.170011 573.85 0C565.14 0 557.85 2.72 552.42 8.17C549.739 10.8209 547.63 13.9938 546.225 17.4925C544.82 20.9912 544.148 24.741 544.25 28.51C544.25 34.68 546.61 40.31 551.15 45.58C554.019 48.5743 557.25 51.198 560.77 53.39L573.67 61.39C580.93 65.93 585.67 69.39 587.84 71.56C589.386 73.0663 590.604 74.8763 591.416 76.8762C592.228 78.876 592.618 81.0223 592.56 83.18C592.56 88.09 591.1 91.9 587.84 94.62C584.718 97.3393 580.71 98.8256 576.57 98.8C568.22 98.8 561.32 95.53 555.69 88.99C552.42 85.18 549.51 79.91 546.97 73.38L546.61 72.29H539.89L544.97 108.06H551.33L551.51 106.61C551.7 105.608 552.005 104.632 552.42 103.7C552.6 103.16 553.32 102.97 554.42 102.97C554.61 102.97 556.06 103.16 562.6 105.52C567.497 107.267 572.651 108.187 577.85 108.24C587.48 108.24 595.65 105.34 601.85 99.89C604.908 97.3027 607.355 94.071 609.016 90.4265C610.678 86.782 611.512 82.815 611.46 78.81C611.63 71.55 609.82 66.1 606.19 61.38Z" fill="#192533"/>
</g>
<defs>
<clipPath id="clip0_10164_5132">
<rect width="611.46" height="108.23" fill="white"/>
</clipPath>
</defs>
</svg>
