<svg width="2500" height="2500" viewBox="0 0 2500 2500" fill="none" xmlns="http://www.w3.org/2000/svg">
<path fill-rule="evenodd" clip-rule="evenodd" d="M1225.09 546.948L1212.36 551.396L1198.6 559.684L1188.74 568.841L1183.43 580.358L1180.11 595.091L1178.96 607.919L1180.11 620.564L1183.43 635.285L1188.74 646.62L1196.67 653.689L1207.64 659.875L1217.65 663.818L1230.74 665.725L1246.25 665.816L1259.08 663.818L1271.19 658.06L1284.11 648.994L1293.07 639.591L1297.88 627.192L1300.41 611.589L1300.52 598.152L1297.88 585.779L1292.84 571.837L1286.06 561.811L1270.32 553.796L1249.14 549.503L1225.09 546.948ZM748.291 709.926L734.621 710.107L719.407 710.341L702.897 710.613L685.348 710.924L667.022 711.262L648.19 711.625L629.099 712.001L610.007 712.416L591.175 712.831L572.849 713.259L555.301 713.7L538.79 714.128L523.577 714.556L509.906 714.971L495.445 715.542L479.103 716.54L461.27 717.85L442.308 719.329L422.594 720.859L402.53 722.312L382.478 723.557L362.816 724.452L343.919 724.88L326.19 724.711L310.003 723.803L295.724 722.04L281.768 717.85L265.647 711.236L251.951 705.231L243.404 701.029L233.391 695.62L225.376 690.38L220.045 685.154L214.027 678.539L208.178 673.572L194.313 667.126L176.972 661.912L162.07 661.458L142.369 672.197L122.759 690.834L110.879 709.926L110.295 732.428L116.663 759.185L125.729 780.65L137.246 794.761L153.808 809.132L169.502 819.339L182.679 824.306L199.06 828.054L213.275 829.118L232.639 824.501L254.765 816.148L273.857 809.962L288.707 807.16L306.359 804.462L325.723 801.959L345.696 799.69L365.151 797.757L382.997 796.214L398.133 795.124L411.414 794.372L426.057 793.71L441.88 793.14L458.689 792.647L476.276 792.219L494.446 791.869L513.019 791.583L531.786 791.337L550.554 791.129L569.126 790.974L587.297 790.844L604.884 790.74L621.693 790.663L637.516 790.598L652.172 790.533L665.453 790.468L687.877 790.286L714.038 790.377L736.19 790.468L734.504 804.034L732.247 818.69L729.484 834.293L726.281 850.674L722.701 867.69L718.823 885.186L714.699 903.007L710.406 921.009L706.022 939.024L701.587 956.896L697.19 974.47L692.897 991.603L688.759 1008.13L684.869 1023.91L681.276 1038.77L678.033 1052.57L675.245 1065.17L673.066 1075.49L670.602 1087.03L667.878 1099.73L664.895 1113.51L661.679 1128.29L658.255 1144L654.649 1160.57L650.862 1177.94L646.919 1196.03L642.833 1214.77L638.631 1234.1L634.312 1253.92L629.916 1274.16L625.454 1294.78L620.941 1315.68L594.301 1317.38L569.243 1318.9L545.729 1320.24L523.706 1321.39L503.136 1322.4L483.98 1323.23L466.198 1323.94L449.766 1324.5L434.63 1324.95L420.752 1325.28L408.094 1325.48L396.615 1325.61L386.279 1325.64L377.044 1325.59L368.873 1325.46L356.137 1325.99L341.235 1326.25L329.795 1323.11L328.589 1321.11L327.629 1318.22L327.461 1315.69L329.64 1311.26L333.479 1306.72L337.227 1303.58L350.586 1296.3L367.135 1289.74L385.877 1283.81L405.863 1278.47L426.083 1273.68L445.55 1269.4L463.293 1265.58L478.312 1262.15L495.069 1258.48L514.848 1254.73L531.864 1252.37L540.333 1252.55L550.359 1252.98L558.828 1252.37L574.781 1247.3L592.9 1239.2L607.283 1230.48L616.505 1221.66L625.921 1209.98L631.511 1198.82L631.77 1188.87L629.695 1177.11L626.829 1167.16L622.017 1156.44L614.962 1144.41L607.296 1135.5L597.958 1130.73L586.013 1127.25L575.637 1126.13L557.674 1130.85L537.182 1140.16L519.737 1148.01L505.082 1152.64L487.676 1157.73L468.624 1163.13L449.026 1168.65L430.013 1174.14L412.698 1179.43L398.198 1184.36L385.215 1189.13L370.637 1194.54L354.775 1200.52L337.953 1206.98L320.457 1213.85L302.624 1221.06L284.725 1228.52L267.112 1236.16L250.07 1243.89L233.91 1251.65L218.943 1259.34L205.48 1266.91L193.82 1274.25L176.752 1286.92L158.542 1303.67L147.713 1320.76L147.479 1334.01L151.487 1349.58L157.492 1361.79L169.45 1372.42L186.181 1382.02L201.265 1388.74L217.879 1393.6L238.384 1397.8L260.316 1401.28L281.21 1403.89L298.564 1405.56L312.701 1406.44L328.823 1407.02L346.487 1407.3L365.255 1407.35L384.683 1407.17L404.332 1406.79L423.761 1406.26L442.528 1405.6L460.193 1404.86L476.315 1404.05L490.452 1403.2L506.508 1402.43L526.248 1401.63L547.804 1400.92L569.321 1400.49L588.944 1400.46L593.172 1402.59L594.871 1406.69L595.196 1410.62L594.573 1418.98L593.302 1428.79L591.421 1439.93L588.983 1452.37L586.026 1465.95L582.602 1480.62L578.763 1496.24L574.548 1512.75L569.995 1530.06L565.158 1548.07L560.086 1566.67L554.821 1585.77L549.412 1605.25L543.887 1625.06L538.31 1645.07L532.72 1665.21L527.169 1685.38L517.481 1706.06L504.939 1729.87L497.857 1751.05L499.09 1772.94L505.095 1797.97L514.653 1816.71L528.453 1827.23L547.674 1836.35L568.076 1842.99L585.39 1846.03L606.752 1844.17L631.511 1837.71L651.056 1828.81L663.261 1817.49L675.452 1801.71L685.05 1787.78L688.798 1780.63L692.897 1772.27L697.164 1765.89L701.924 1762.46L712.663 1756.13L732.844 1743.9L765.956 1722.9L764.542 1741.53L761.909 1760.83L760.495 1772.94L759.704 1778.62L757.875 1784.98L755.787 1790.14L748.732 1800.07L739.666 1811.34L733.907 1821.81L732.792 1833.02L734.102 1846.62L736.19 1858.13L739.251 1871.12L744.218 1886.04L750.651 1897.2L762.441 1904.78L778.186 1910.86L792.051 1914L809.404 1914.79L829.793 1912.72L845.59 1907L853.878 1896.15L860.505 1881.08L865.135 1867.91L870.012 1851.24L874.201 1831.28L874.915 1814.35L871.685 1806.52L866.549 1797.7L862.801 1790.13L858.78 1771.97L856.005 1750.18L855.382 1731.52L857.392 1719.21L861.322 1704.85L865.148 1692.81L868.287 1681.84L872.554 1669.03L877.262 1658.82L880.66 1654.46L885.2 1649.9L889.376 1646.3L900.452 1640.48L914.135 1634.55L925.743 1629.51L937.169 1622.79L950.515 1615.11L962.473 1612.3L965.171 1614.05L967.869 1616.94L969.516 1619.73L971.423 1633.18L970.463 1649.55L969.503 1663.5L969.062 1671.35L968.634 1680.41L969.503 1687.73L972.032 1692.17L975.703 1696.7L979.269 1699.84L991.655 1704.3L1007.27 1706.74L1020.71 1707.27L1033.35 1705.6L1047.92 1702.04L1059.79 1697.52L1068.24 1692.36L1077.4 1685.21L1084.04 1677.96L1086.54 1671.53L1088.02 1663.42L1088.71 1656.46L1088.92 1635.99L1087.4 1611.35L1085.37 1586.68L1084.04 1566.22L1083.51 1555.4L1083.25 1542.75L1084.04 1532.2L1086.92 1522.01L1091.44 1510.24L1096.15 1500.56L1102.95 1491.42L1112.01 1481.56L1120.38 1473.96L1127.18 1469.79L1135.46 1465.4L1142.26 1461.47L1148.81 1457.46L1156.31 1452.33L1161.82 1447.01L1169.57 1431.94L1175.94 1412.86L1179.02 1396.2L1178.3 1388.35L1176.2 1379.18L1173.93 1371.58L1172.71 1368.54L1170.98 1364.87L1169.24 1361.84L1165.31 1358.95L1160.25 1355.7L1157.11 1352.06L1157.2 1345.34L1159.63 1337.16L1161.81 1330.17L1163.65 1320.84L1165.83 1309.79L1169.24 1301.23L1173.08 1296.98L1178.55 1292.88L1183.7 1291.49L1188.74 1295.13L1193.1 1302.02L1195.8 1308.27L1199.7 1321.9L1202.53 1337.69L1204.48 1355.2L1205.7 1373.96L1206.36 1393.5L1206.63 1413.33L1206.67 1432.99L1206.66 1452.02L1206.75 1469.95L1207.1 1486.27L1207.89 1500.59L1209.43 1514.95L1211.57 1531.39L1214.13 1549.43L1216.9 1568.51L1219.72 1588.15L1222.35 1607.76L1224.64 1626.84L1226.38 1644.88L1227.37 1661.35L1227.43 1675.68L1225.33 1695.06L1220.93 1718.29L1216.16 1741.54L1212.97 1760.89L1210.97 1776.25L1209.5 1794.38L1210.62 1809.74L1216.56 1824.2L1226.32 1839.96L1237.2 1850.77L1251.15 1855.23L1268.59 1856.62L1283.33 1855.86L1295.72 1852.43L1309.75 1846.22L1324.74 1838.65L1335.38 1834.08L1346.55 1825.71L1354.04 1816.75L1357.69 1802.11L1358.22 1783.72L1356.39 1768.3L1350.62 1752.16L1341.29 1734.03L1332.15 1719.44L1326.91 1714.15L1320.19 1708.22L1314.95 1702.64L1312.19 1696.8L1309.66 1689.48L1307.94 1683.13L1304.67 1669.83L1301.43 1654.97L1298.26 1638.73L1295.15 1621.43L1292.11 1603.32L1289.17 1584.66L1286.33 1565.68L1283.64 1546.71L1281.09 1527.99L1278.7 1509.76L1276.52 1492.27L1274.53 1475.83L1272.72 1460.68L1271.18 1447.08L1267.11 1424.4L1263.28 1397.83L1266.5 1376.73L1268.95 1374.55L1272.78 1372.8L1276.28 1371.63L1291.7 1368.87L1310.36 1367.12L1330.62 1366.23L1350.93 1366L1369.7 1366.27L1385.3 1366.94L1402.68 1367.95L1423.57 1369.57L1446.04 1372.02L1468.28 1375.52L1488.37 1380.26L1504.48 1386.48L1509.08 1389.52L1513.79 1393.98L1516.58 1398.58L1516.5 1401.64L1515.36 1405.29L1514.25 1408.35L1508.47 1423.07L1500.95 1440.14L1492.39 1458.61L1483.43 1477.55L1474.71 1495.97L1466.91 1512.97L1460.69 1527.54L1454.29 1542.69L1446.69 1561L1439.11 1580.51L1432.81 1599.2L1429.03 1615.09L1427.74 1630.34L1428.24 1648.55L1431.38 1663.54L1439.16 1676.72L1450.84 1690.12L1463.02 1697.56L1480.29 1694.82L1500.07 1685.15L1516.55 1675.65L1520.73 1673.45L1526.89 1670.26L1534.95 1666.06L1544.91 1660.9L1556.63 1654.76L1570.13 1647.64L1585.33 1639.56L1602.16 1630.55L1620.57 1620.56L1640.51 1609.64L1661.88 1597.81L1684.68 1585.02L1708.84 1571.31L1722.35 1561L1738.1 1547.85L1754.13 1533.34L1768.49 1518.8L1779.18 1505.65L1788.32 1488.9L1796.61 1467.96L1801.07 1449.38L1801.33 1438.39L1799.76 1425.57L1796.36 1415.36L1781.8 1401.6L1761.05 1388.89L1742.84 1379.04L1728.01 1371.31L1710.74 1363.2L1691.58 1354.82L1671.19 1346.26L1650.2 1337.6L1652.3 1332.92L1655.01 1327.6L1657.64 1323.14L1659.64 1319.74L1662.24 1315.99L1665.06 1313.38L1681.09 1309.63L1701.23 1309.56L1718.61 1311.02L1740.48 1314.82L1762.82 1318.86L1785.09 1323.08L1806.68 1327.44L1827.06 1331.85L1845.66 1336.21L1861.9 1340.49L1875.25 1344.61L1885.13 1348.49L1890.95 1352.06L1892.52 1354.95L1893.4 1358.7L1893.68 1361.84L1890.49 1379.54L1883.55 1400.24L1874.78 1421.85L1866.04 1442.19L1859.28 1459.14L1853.94 1473.83L1847.35 1491.26L1840.23 1510.06L1833.32 1528.9L1827.31 1546.53L1822.95 1561.52L1819.23 1577.94L1815.43 1597.95L1812.06 1619.26L1809.58 1639.55L1808.49 1656.5V1671.17L1809.79 1688.49L1813.19 1702.63L1820.1 1713.16L1830.1 1724.14L1840.15 1731.55L1850.33 1734.87L1863.15 1736.44L1874.14 1736.63L1888.26 1734.19L1904.57 1729.56L1917.92 1724.51L1937.61 1712.63L1959.82 1696.77L1978.49 1683.09L1992.78 1671.47L2009.44 1656.34L2027.28 1641.19L2044.98 1629.52L2061.35 1624.86L2064.03 1625.66L2066.85 1627.48L2068.77 1629.56L2070.07 1633.23L2070.86 1637.74L2071.12 1641.67L2067.72 1658.77L2061.36 1678.38L2056.68 1695.23L2054.83 1706.73L2053.41 1720.34L2053.92 1731.58L2057.51 1740.72L2063.11 1750.68L2068.79 1758.53L2075.58 1764.89L2084.64 1771.32L2093.01 1775.33L2105.15 1777.32L2119.71 1777.25L2132.1 1775.33L2144.3 1770.97L2158.07 1763.93L2168.45 1756.2L2173.85 1746.85L2178.29 1734.91L2180.57 1724.52L2179.78 1715.96L2177.44 1706.11L2175.87 1697.57L2174.63 1680.06L2174.07 1658.81L2173.72 1637.47L2173.14 1619.77L2172.18 1611.4L2170.96 1601.55L2170.78 1593.18L2175.82 1576.64L2184.28 1557.51L2193.32 1538.56L2200.1 1522.46L2205.02 1506.01L2210.18 1485.92L2215.34 1464.57L2220.13 1444.31L2224.3 1427.49L2227.54 1413L2230.63 1395.75L2233.87 1376.73L2237.49 1357L2241.72 1337.57L2246.84 1319.48L2253.06 1303.77L2260.66 1291.49L2263.55 1288.96L2267.3 1286.86L2270.41 1286.41L2273.91 1290.08L2276.44 1296.03L2277.85 1301.24L2280.56 1315.7L2282.39 1332.29L2283.48 1350.55L2283.94 1370.04L2283.89 1390.23L2283.46 1410.72L2282.8 1430.98L2282 1450.56L2281.21 1469.01L2280.58 1485.83L2280.18 1500.58L2279.97 1513.95L2279.64 1528.56L2279.22 1544.3L2278.66 1560.94L2278.02 1578.37L2277.31 1596.44L2276.52 1614.93L2275.71 1633.78L2274.86 1652.75L2274 1671.72L2273.12 1690.54L2272.26 1709.04L2271.43 1727.08L2270.63 1744.49L2269.89 1761.07L2269.2 1776.75L2268.59 1791.32L2268.09 1804.64L2267.83 1817.69L2267.8 1831.82L2267.98 1846.97L2268.31 1862.98L2268.74 1879.75L2269.24 1897.13L2269.8 1915.04L2270.33 1933.35L2270.84 1951.92L2271.24 1970.64L2271.51 1989.38L2271.62 2008.04L2271.51 2026.51L2271.16 2044.64L2270.53 2062.32L2269.57 2079.44L2268.2 2095.89L2266.45 2111.54L2264.25 2126.26L2261.54 2139.92L2258.3 2152.44L2254.12 2160.39L2248.04 2169L2243.86 2176.68L2240.83 2197.45L2240.64 2222.23L2243.86 2242.74L2251.78 2259.03L2264.43 2276.71L2277.85 2288.85L2292.52 2292.68L2310.99 2293.11L2326.7 2291.21L2342.56 2286.12L2360.34 2277.5L2372.83 2266.97L2377.7 2250.31L2378.38 2229.05L2377.53 2211.09L2375.85 2189L2372.03 2163.46L2365.41 2142.68L2351.12 2124.58L2346.33 2114.02L2345.85 2108.7L2345.96 2095.55L2346.04 2081.04L2346.06 2065.33L2346.04 2048.61L2346.01 2031.04L2345.93 2012.8L2345.85 1994.06L2345.78 1974.98L2345.67 1955.74L2345.57 1936.54L2345.44 1917.51L2345.34 1898.85L2345.23 1880.75L2345.15 1863.31L2345.08 1846.8L2345.02 1831.3L2345 1817.06L2345.02 1804.22L2345.05 1792.95L2344.7 1781.42L2344.35 1768.58L2344 1754.55L2343.68 1739.45L2343.35 1723.4L2343.05 1706.5L2342.78 1688.92L2342.51 1670.77L2342.27 1652.14L2342.02 1633.22L2341.81 1614.06L2341.63 1594.84L2341.44 1575.64L2341.29 1556.62L2341.19 1537.88L2341.08 1519.56L2341.03 1501.76L2340.98 1484.64V1468.29L2341 1452.87L2341.06 1438.46L2341.16 1425.22L2341.56 1409.24L2342.3 1390.09L2343.21 1369.33L2344.19 1348.58L2345.13 1329.43L2345.84 1313.45L2346.45 1299.84L2347.06 1285.36L2347.72 1270.05L2348.38 1254.02L2349.05 1237.29L2349.76 1219.97L2350.47 1202.12L2351.19 1183.78L2351.9 1165.03L2352.64 1145.96L2353.4 1126.61L2354.14 1107.06L2354.91 1087.37L2355.67 1067.63L2364.74 1054.71L2373.7 1038.33L2379.89 1023.86L2385.39 1003.54L2389.39 979.048L2389.67 958.206L2385.2 936.313L2376.14 911.567L2363.09 894.888L2346.67 890.595L2325.36 891.412L2304.05 895.808L2287.63 902.293L2273.09 914.952L2259.33 933.421L2251.3 950.761L2251.63 968.465L2256.42 989.307L2260.67 1007.02L2262.77 1015.39L2264.95 1025.23L2265.75 1033.6L2265.22 1036.83L2264.18 1040.4L2263.39 1043.37L2260.15 1056.71L2256.74 1071.55L2253.04 1087.76L2249.14 1105.02L2245.11 1123.06L2240.96 1141.6L2236.7 1160.38L2232.42 1179.15L2228.12 1197.63L2223.83 1215.57L2219.61 1232.7L2215.46 1248.77L2211.45 1263.49L2207.6 1276.61L2202.86 1292.77L2197.07 1312.28L2190.2 1332.53L2182.25 1350.81L2173.21 1364.55L2171.92 1365.51L2170.06 1366.44L2168.52 1366.87L2161.98 1364.16L2154.99 1359.04L2148.96 1354.76L2143.41 1351.79L2136.95 1348.47L2132.16 1344.96L2131.02 1343.5L2130.06 1341.64L2129.43 1339.89L2126.46 1324.21L2124.46 1305.67L2123.29 1285.2L2122.84 1263.72L2122.89 1242.2L2123.32 1221.56L2124.01 1202.74L2124.75 1186.68L2126.5 1171.33L2129.84 1153.4L2134.05 1133.78L2138.48 1113.35L2142.41 1092.97L2145.15 1073.52L2146 1055.87L2144.28 1040.9L2138.78 1028.7L2129.74 1015.71L2120.06 1006.89L2103.75 1001.67L2083.36 999.735L2066.51 1001.81L2053.52 1010.02L2040.42 1022.91L2032.1 1035.8L2031.87 1053.16L2035.88 1074.08L2037.2 1091.69L2030.56 1109.93L2019.74 1130.51L2010.22 1147.97L2002.52 1163.41L1993.14 1181.79L1982.88 1201.6L1972.47 1221.34L1962.71 1239.52L1954.34 1254.63L1949.82 1264.59L1944.14 1276.09L1937.53 1283.97L1935.96 1284.4L1934.04 1284.29L1932.44 1283.97L1925.61 1282.35L1917.32 1279.61L1907.46 1275.94L1895.91 1271.56L1882.59 1266.64L1867.34 1261.45L1850.06 1256.13L1830.63 1250.91L1808.95 1245.99L1784.9 1241.58L1758.35 1237.9L1729.22 1235.12L1744.77 1207.26L1757.56 1184.96L1767.1 1169.85L1773.49 1162.44L1781.59 1154.33L1788.98 1147.97L1807.67 1134.97L1830.5 1120.85L1849.96 1108.9L1859.28 1103.22L1870.36 1096.32L1878.89 1089.34L1891 1073.13L1902.86 1052.3L1910.56 1033.47L1914.1 1013.66L1915.32 989.956L1912.88 970.151L1907.89 959.62L1899.89 948.388L1890.99 941.242L1872.95 938.375L1850.81 940.723L1832.74 945.937L1815.85 957.454L1798.06 974.276L1784.29 989.71L1773.63 1004.75L1762.25 1023.82L1750.83 1044.35L1740.11 1063.79L1730.76 1079.6L1722.07 1092.49L1711.58 1107.51L1700 1123.78L1688.09 1140.46L1676.59 1156.67L1666.2 1171.58L1657.67 1184.33L1650.62 1196.47L1643.28 1211.22L1635.58 1227.68L1627.52 1244.97L1619.02 1262.22L1610.05 1278.56L1600.56 1293.12L1590.53 1304.98L1579.9 1313.32L1578.33 1313.5L1576.41 1313.4L1574.84 1313.32L1554.85 1310.87L1531.5 1307.04L1511.54 1303.54L1491.22 1301.87L1467.62 1299.34L1450.95 1291.44L1450.45 1289.84V1287.95L1450.95 1286.35L1460.63 1274.34L1475.52 1262.54L1492.87 1251.43L1509.88 1241.48L1523.65 1233.22L1534.28 1226.33L1546.85 1218.76L1558.02 1213.68L1565.7 1212.62L1574.84 1212.27L1582.26 1210.95L1598.37 1200.92L1615.37 1186.2L1628.37 1172.26L1639.9 1156.55L1651.4 1136.76L1657.7 1118.71L1657.6 1108.16L1655.07 1096.05L1650.26 1087.06L1635.34 1078.97L1614.77 1074.17L1596.73 1072.59L1582.6 1074.51L1566.31 1079.12L1552.96 1084.7L1541.29 1092.55L1528.58 1103.43L1518.98 1113.62L1514.27 1123.56L1509.73 1135.85L1504.52 1145.28L1493.3 1154.7L1478.58 1163.84L1461.63 1172.65L1443.77 1181.1L1426.23 1189.16L1410.37 1196.77L1397.43 1203.89L1383.26 1213.65L1366.7 1226.1L1349.24 1239.27L1332.4 1251.17L1317.68 1259.78L1304.86 1265.63L1289.34 1271L1276.26 1271.88L1273.37 1270.13L1270.66 1267.24L1268.83 1264.45L1266.83 1255.55L1266.41 1244.68L1266.48 1235.54V1221.31L1266.91 1205.03L1267.68 1187.21L1268.69 1168.37L1269.91 1149.02L1271.26 1129.68L1272.62 1110.87L1273.97 1093.1L1275.21 1076.91L1276.28 1062.79L1277.07 1044.21L1278.37 1022.5L1280.97 1004.17L1289.79 984.133L1302.26 961.306L1310.28 941.254L1311.93 922.332L1310.87 900.011L1305.21 882.644L1290.3 870.543L1268.66 861.387L1249.33 858.417L1227.89 865.057L1204.71 879L1188.76 894.758L1184.92 907.222L1183.85 922.915L1183.67 936.17L1184.45 956.844L1186.28 981.163L1186.02 1001.82L1183.66 1015.35L1180.14 1030.3L1175.66 1046.45L1170.37 1063.52L1164.48 1081.21L1158.17 1099.27L1151.65 1117.42L1145.07 1135.42L1138.64 1152.99L1132.53 1169.87L1126.93 1185.79L1122.04 1200.48L1118.02 1213.67L1113.99 1228.26L1109.73 1244.81L1105.31 1262.97L1100.74 1282.29L1096.11 1302.46L1091.43 1323.08L1084.9 1326.3L1076.61 1329.01L1069.55 1330.13L1059.69 1329.62L1048.54 1327.26L1040.24 1323.08L1038.94 1320.91L1038.16 1318.12L1037.89 1315.67L1036.36 1301.4L1035.65 1285.01L1035.62 1266.99L1036.13 1247.89L1037.02 1228.26L1038.19 1208.61L1039.46 1189.48L1040.72 1171.42L1041.8 1154.93L1042.59 1140.57L1043.05 1124.09L1043.21 1104.28L1043.52 1082.88L1044.44 1061.58L1046.45 1042.07L1050.01 1026.08L1057.15 1013.61L1067.35 999.839L1074.23 987.375L1075.97 975.858L1075.88 962.162L1074.23 950.645L1068.02 930.412L1057.9 907.676L1044.92 892.397L1026.53 888.143L1003.28 889.622L984.353 894.745L970.048 905.134L955.924 920.853L947.61 936.183L949.465 952.24L956.183 971.072L960.113 987.388L959.075 1001.65L956.416 1017.83L952.474 1035.44L947.558 1054.01L941.994 1073.03L936.106 1092L930.244 1110.46L924.705 1127.9L919.829 1143.84L915.951 1157.78L912.358 1171.79L908.428 1187.15L904.174 1203.67L899.661 1221.19L894.94 1239.56L890.063 1258.6L885.057 1278.13L879.986 1297.99L874.902 1318.03L872.982 1320.74L870.181 1323.53L867.483 1325.44L862.956 1326.24L857.548 1325.98L853.022 1325.44L845.681 1325.37L835.992 1325.11L826.044 1323.49L825.357 1308.9L824.67 1292.68L823.995 1275.23L823.36 1256.83L822.763 1237.9L822.231 1218.74L821.79 1199.72L821.44 1181.17L821.207 1163.45L821.103 1146.9L821.142 1131.87L821.349 1118.71L821.518 1106.07L821.596 1092.14L821.609 1077.07L821.596 1061.02L821.583 1044.1L821.596 1026.49L821.674 1008.31L821.842 989.71L822.141 970.839L822.581 951.851L823.204 932.876L824.047 914.057L825.136 895.549L826.498 877.495L828.171 860.038L830.182 843.32L832.555 827.497L835.331 812.698L838.547 799.08L842.205 786.785L846.355 775.955L850.518 776.007L854.954 776.085L859.662 776.188L864.668 776.305L869.96 776.461L875.563 776.629L881.477 776.824L887.703 777.044L894.252 777.278L901.152 777.537L908.389 777.81L915.977 778.108L923.927 778.419L932.254 778.756L940.944 779.106L950.022 779.483L959.49 779.872L969.36 780.287L979.645 780.715L990.345 781.156L1001.47 781.61L1013.03 782.09L1025.03 782.582L1037.46 783.088L1050.37 783.607L1063.74 784.152L1077.58 784.696L1091.91 785.254L1106.72 785.825L1122.04 786.408L1137.86 787.005L1154.19 787.615L1171.05 788.237L1188.43 788.873L1206.36 789.521L1224.83 790.183L1243.85 790.844L1263.45 791.519L1283.62 792.206L1304.34 792.906L1325.68 793.607L1347.61 794.32L1370.13 795.033L1393.28 795.76L1417.01 796.499L1441.41 797.238L1466.44 797.99L1492.11 798.743L1518.42 799.495L1545.4 800.26L1573.06 801.025L1601.39 801.804L1630.39 802.582L1660.1 803.36L1690.51 804.138L1721.61 804.916L1753.45 805.695L1784.48 815.253L1803.03 824.812L1813.24 831.491L1830.24 838.106L1851.59 841.154L1869.12 838.91L1885.69 826.42L1901.29 806.719L1910.56 787.718L1912.82 770.015L1911.68 748.109L1907.53 726.553L1900.78 709.965L1898.53 706.787L1894.78 702.403L1889.54 697.254L1882.73 691.768L1874.36 686.386L1864.4 681.535L1852.85 677.657L1839.64 675.193L1824.79 674.557L1808.26 676.204L1790.05 680.562L1770.09 688.072L1748.38 699.161L1724.89 714.258L1716.6 714.556L1707.25 714.854L1696.89 715.166L1685.56 715.464L1673.36 715.788L1660.29 716.099L1646.43 716.411L1631.84 716.722L1616.56 717.033L1600.65 717.331L1584.17 717.617L1567.16 717.902L1549.68 718.188L1531.79 718.46L1513.56 718.719L1495.01 718.966L1476.22 719.199L1457.22 719.42L1438.09 719.614L1418.87 719.809L1399.62 719.977L1380.4 720.133L1361.24 720.25L1342.22 720.353L1323.37 720.431L1304.77 720.483L1286.46 720.509H1268.5L1250.93 720.483L1233.83 720.431L1217.23 720.353L1201.19 720.237L1185.79 720.094L1171.04 719.912L1157.03 719.692L1143.4 719.433L1128.42 719.082L1112.27 718.629L1095.13 718.097L1077.18 717.5L1058.58 716.839L1039.54 716.125L1020.21 715.373L1000.8 714.595L981.448 713.804L962.37 713L943.719 712.221L925.678 711.456L908.441 710.717L892.177 710.03L877.068 709.394L863.294 708.823L851.011 708.318L853.501 693.934L855.732 678.28L857.743 661.562L859.571 643.987L861.257 625.739L862.84 606.998L864.37 587.971L865.862 568.854L867.379 549.827L868.961 531.086L870.634 512.824L872.463 495.25L874.448 478.532L876.653 462.878L879.117 448.481L881.944 435.563L886.847 420.622L894.071 403.217L902.359 384.566L910.452 365.916L917.092 348.51L921.009 333.569L922.656 313.505L921.956 289.796L918.662 270.251L912.241 253.546L902.501 233.909L890.478 216.621L877.236 206.945L857.885 208.709L835.759 218.981L819.002 231.173L807.407 247.826L797.641 269.875L792.038 289.407L792.751 311.65L796.94 337.888L799.469 360.131L799.21 374.242L798.471 390.027L797.303 407.186L795.76 425.395L793.905 444.344L791.804 463.747L789.509 483.292L787.07 502.643L784.554 521.527L782.012 539.62L779.509 556.597L777.097 572.174L774.84 586.026L772.466 600.318L769.431 616.206L765.852 633.404L761.831 651.653L757.499 670.666L752.934 690.186L748.291 709.926ZM702.17 1318.03L705.309 1289.17L708.707 1263.23L712.287 1240.08L715.983 1219.59L719.731 1201.64L723.454 1186.1L727.085 1172.86L730.574 1161.77L733.829 1152.71L734.88 1149.32L736.436 1145.57L738.524 1142.95L742.351 1141.7L747.474 1142.1L750.249 1146.86L751.494 1185.11L752.636 1216.94L753.66 1243.01L754.594 1263.97L755.437 1280.5L756.202 1293.29L756.89 1302.97L757.499 1310.22L758.057 1315.69L748.096 1315.61L738.939 1315.51L731.08 1315.69L722.027 1316.3L711.223 1317.18L702.17 1318.03ZM688.487 1393.46L722.922 1393.19L742.247 1392.39L752.973 1393.46L756.462 1394.31L760.041 1396.09L762.752 1400.88L762.155 1430.16L761.792 1457.19L761.598 1481.99L761.533 1504.71L761.546 1525.39L761.572 1544.15V1561.11L761.494 1576.31L761.273 1589.86L760.871 1601.87L760.236 1612.4L759.328 1621.6L758.07 1629.5L756.747 1633.42L754.827 1637.96L752.986 1641.61L751.767 1644.06L750.029 1646.85L748.291 1649.03L731.806 1660.56L710.73 1671.8L692.417 1680.7L673.65 1689.77L651.251 1699.52L631.446 1704.94L627.425 1704.84L622.808 1703.98L619.319 1702.59L617.322 1699.99L615.584 1696.24L614.624 1692.81L618.619 1671.34L622.406 1649.78L626.012 1628.28L629.488 1606.94L632.834 1585.92L636.089 1565.32L639.28 1545.28L642.444 1525.93L645.609 1507.38L648.8 1489.81L652.042 1473.27L655.375 1457.92L658.812 1443.91L662.392 1431.34L666.153 1420.34L670.109 1411.05L674.285 1403.57L678.734 1398.08L683.468 1394.65L688.487 1393.46ZM824.112 1388.75L846.718 1388.54L857.781 1389.1L860.064 1392.27L858.586 1397.82L856.848 1404.57L855.369 1410.63L846.563 1443.35L841.504 1463.5L835.824 1471.23L834.955 1470.8L834.099 1468.51L833.489 1464.18L830.623 1436.54L827.756 1410.12L824.112 1388.75ZM933.149 1315.67L935.937 1307.24L939.595 1297.3L942.915 1289.09L947.377 1273.67L953.317 1256.07L962.46 1247.69L963.511 1248.65L964.302 1250.62L964.821 1252.37L966.39 1263.01L966.909 1275.72L967.168 1286.35L967.947 1296.24L968.738 1308.01L969.516 1320.75L961.929 1321.26H952.876L945.288 1320.75L941.8 1319.5L937.701 1317.68L933.149 1315.67ZM928.454 1391.11L970.657 1391.9L970.45 1431.42L969.646 1459.94L968.595 1479.53L967.609 1492.29L967.013 1500.29L967.13 1505.61L954.743 1511.18L943.148 1516.32L933.123 1520.07L923.266 1522.78L911.58 1525.57L901.477 1527.49L906.081 1505.85L910.27 1485.82L913.577 1468.86L917.066 1451.38L921.152 1430.12L925.172 1408.79L928.454 1391.11ZM1579.93 1420.42L1585.06 1416.32L1590.03 1412.93L1594.39 1410.64L1598.06 1409.42L1602.6 1408.46L1606.53 1408.31L1620.91 1412.56L1636.94 1420.32L1650.26 1427.47L1666.32 1435.67L1684.89 1445.96L1699.13 1456.78L1702.24 1461.03L1705.14 1466.45L1706.17 1471.24L1705.32 1473.84L1703.4 1476.56L1701.48 1478.66L1689.04 1489.19L1672.88 1500.48L1655.15 1511.65L1638.06 1521.73L1623.72 1529.84L1607.54 1538.21L1587.63 1547.71L1567.51 1556.75L1550.67 1563.82L1543.75 1566.95L1535.65 1570.46L1528.76 1571.25L1526.76 1569.42L1524.91 1566.44L1523.69 1563.83L1524.3 1556.07L1526.58 1547.09L1528.76 1539.59L1534.79 1517.7L1542.82 1492.31L1550.67 1471.21L1558.95 1454.73L1569.85 1435.83L1579.93 1420.42ZM2051.66 1213.67L2060.93 1206.42L2068.06 1208.03L2072.39 1221.88L2069.17 1258.37L2067.12 1284.25L2065.58 1301.5L2063.88 1312.11L2061.44 1318.01L2059.77 1319.05L2055.54 1319.21L2047.36 1317.61L2028.89 1311.39L2017.01 1307.99L2010.22 1305.91L2006.93 1304.85L2003 1303.31L2000.47 1301.2L2000.92 1296.6L2003.28 1291L2005.57 1286.37L2012 1276.16L2020.46 1264.66L2027.42 1254.69L2035.27 1242.08L2044.33 1226.84L2051.66 1213.67ZM1961.78 1383.69L1967.6 1379.87L1974.95 1378.91L1981.3 1379.01L1996.66 1380.58L2014.7 1384.59L2029.77 1388.76L2039.55 1391.73L2050.62 1395.83L2059.08 1400.9L2063.87 1407.18L2068.22 1415.44L2071.19 1422.76L2073.11 1435.49L2073.72 1450.94L2073.54 1464.18L2072.85 1477.18L2071.36 1492.6L2068.86 1505.59L2065.01 1513.62L2059.4 1522.59L2053.98 1529.84L2038.2 1546.13L2018.06 1563.8L2000.46 1578.29L1982.92 1592.51L1961.57 1608.37L1942.22 1619.72L1931.76 1623.89L1918.94 1627.39L1908.23 1627.13L1902.12 1622.35L1896.72 1614.75L1893.75 1607.6L1894.03 1590.07L1898.81 1569.25L1903.52 1551.72L1907.65 1531.6L1913.14 1507.51L1919.28 1483.62L1925.41 1464.17L1932.51 1445.38L1942.11 1423.19L1952.44 1401.34L1961.78 1383.69ZM1054.69 498.869L1039.79 502.812L1023.24 511.099L1010.93 520.762L1004.15 532.616L998.828 548.128L996.467 561.798L998.477 579.061L1003.96 599.008L1010.93 614.948L1020.1 627.516L1032.65 640.693L1044.94 649.344L1057.06 651.601L1071.87 651.51L1084.03 649.344L1096.31 642.172L1109.11 631.096L1118.02 620.019L1123.77 604.572L1127.25 585.312L1127.79 568.828L1124.91 552.797L1118.81 534.691L1110.98 520.749L1101.2 512.915L1088.2 505.937L1076.59 501.229L1070.56 500.01L1063.08 499.323L1054.69 498.869Z" fill="#192533"/>
</svg>
