<svg width="180" height="32" viewBox="0 0 180 32" fill="none" xmlns="http://www.w3.org/2000/svg">
<path d="M107.702 0.206765C105.568 0.570145 103.993 1.20606 102.388 2.34162C99.9958 4.0374 98.5423 7.03529 98.5423 10.3057C98.5423 12.6525 99.6021 15.1508 101.237 16.6649C104.16 19.3751 109.958 20.4198 114.289 19.0268C115.303 18.7089 116.938 17.8458 117.907 17.1494C118.437 16.7708 118.922 16.5135 118.982 16.5892C119.104 16.7254 118.68 18.8754 118.377 19.587C117.438 21.8127 116.499 23.0997 115.137 23.9627C113.335 25.1134 110.927 25.5222 108.596 25.0983C107.657 24.9318 107.612 24.9166 106.264 24.311C105.416 23.9476 103.66 22.6304 103.281 22.0853C102.994 21.6765 102.661 21.7068 102.206 22.1913C101.994 22.4335 101.298 23.1754 100.632 23.8719C99.2539 25.3406 99.2539 25.2194 100.723 26.7638C104.553 30.761 109.595 31.9874 115.152 30.2916C116.605 29.8374 118.558 28.5807 119.951 27.1877C120.92 26.2036 122.313 24.5078 122.313 24.2807C122.313 24.2353 122.465 23.9476 122.662 23.6296C123.797 21.7976 124.736 18.0881 124.736 15.4385C124.736 14.0001 124.251 10.9719 123.827 9.66979C123.404 8.39796 122.722 6.95958 122.056 5.89972C121.405 4.88529 119.8 3.18951 118.937 2.59902C118.589 2.37191 118.271 2.12965 118.225 2.08423C118.104 1.93282 115.924 0.918386 115.182 0.676132C113.244 0.025076 109.958 -0.186897 107.702 0.206765ZM112.85 6.21768C114.031 6.5205 114.834 6.85359 115.576 7.32296C116.333 7.80747 117.438 8.89761 117.741 9.47296C117.953 9.85148 117.756 10.1392 116.484 11.411C114.576 13.2885 111.639 14.1515 108.384 13.7578C106.188 13.5156 105.219 13.0462 104.493 11.8804C104.144 11.3504 104.084 11.093 104.084 10.0483C104.084 8.71592 104.266 8.21627 105.053 7.41381C105.87 6.61134 106.961 6.20254 108.762 6.05113C110.201 5.91486 112.018 5.99057 112.85 6.21768ZM144.57 0.161342C142.224 0.84268 140.846 1.50888 139.347 2.705C137.772 3.96169 136.515 5.50606 135.531 7.39866C134.986 8.44338 134.759 8.98845 134.305 10.4268C133.487 12.9554 133.487 18.1941 134.29 20.6923C134.774 22.2064 134.986 22.7061 135.516 23.7508C137.908 28.3687 142.481 31.0335 147.992 31.0032C149.779 31.0032 153.155 30.3673 153.549 29.9737C153.64 29.8828 153.806 29.8071 153.897 29.8071C154.291 29.8071 156.002 28.6564 156.789 27.8539C157.849 26.7789 158.53 25.6282 159.015 24.1444C159.348 23.1149 159.408 22.6606 159.424 21.0103C159.424 19.0571 159.302 18.4212 158.697 17.0888C157.925 15.393 156.426 13.8941 154.654 13.0159C153.973 12.6677 153.307 12.3951 153.186 12.3951C153.049 12.3951 152.898 12.3497 152.852 12.2892C152.792 12.2286 152.247 12.062 151.641 11.9106C149.991 11.4715 146.266 11.4867 144.722 11.9258C142.875 12.4406 141.663 13.137 139.544 14.848C139.317 15.0297 139.089 15.1356 139.029 15.0751C138.908 14.9539 139.226 12.9856 139.529 11.9409C140.361 9.10958 142.39 7.005 145.025 6.21768C145.888 5.96028 147.75 5.86944 148.886 6.02085C151.611 6.39937 152.928 7.005 154.624 8.68564C155.169 9.23071 155.669 9.66979 155.744 9.66979C155.805 9.66979 156.108 9.35183 156.426 8.94303C156.729 8.54937 157.183 7.98916 157.455 7.70148C157.713 7.41381 158.076 6.98986 158.288 6.76275C158.485 6.53563 158.651 6.20254 158.651 6.03599C158.651 5.56662 156.047 3.05324 154.548 2.05395C153.837 1.58458 153.186 1.19092 153.11 1.19092C153.034 1.19092 152.807 1.10007 152.595 0.994088C152.217 0.797258 151.051 0.433879 149.93 0.146203C149.143 -0.065769 145.282 -0.0354887 144.57 0.161342ZM150.702 17.6036C152.474 18.1032 153.443 18.8754 153.882 20.1018C154.715 22.4638 153.019 24.5381 149.824 25.0529C146.599 25.5828 143.768 24.9166 141.875 23.2208C140.967 22.4032 140.27 21.298 140.407 20.874C140.573 20.3744 142.33 18.9208 143.511 18.3455C145.237 17.4976 146.463 17.2251 148.356 17.3159C149.234 17.3462 150.294 17.4825 150.702 17.6036ZM0.0511004 0.464159C0.00567784 0.570145 -0.00946303 7.36838 0.00567781 15.5747L0.0511004 30.4884L8.30286 30.5339C16.918 30.5793 18.3715 30.5187 20.2641 29.9434C21.6268 29.5346 23.7011 28.505 24.2007 27.9902C24.2462 27.9448 24.549 27.6874 24.8821 27.3997C25.5937 26.7941 27.3803 24.7955 27.3803 24.6138C27.3803 24.5381 27.5317 24.2656 27.7286 24.0082C28.0768 23.5388 28.8338 21.8127 29.1669 20.7226C30.03 17.9821 30.03 13.5004 29.1821 10.5025C28.0768 6.56592 25.7148 3.52261 22.5352 1.94796C20.8698 1.11522 20.5821 1.00923 18.8257 0.630709C17.3419 0.312752 0.172227 0.146201 0.0511004 0.464159ZM17.2965 6.2631C18.5381 6.50535 19.6282 6.97472 20.3398 7.56521C21.8842 8.86733 22.8835 10.4571 23.4437 12.5011C23.8979 14.1818 23.8676 17.1191 23.3831 18.6332C22.9743 19.8747 22.2021 21.2525 21.3845 22.2064C20.8243 22.8575 18.9317 24.205 18.5683 24.205C18.4472 24.205 18.2655 24.2958 18.1747 24.3867C18.0233 24.5381 16.5092 24.5987 12.0729 24.6592C8.81765 24.7046 6.03173 24.6895 5.86518 24.6289C5.59265 24.523 5.57751 24.2807 5.57751 15.5747C5.57751 9.68493 5.63807 6.52049 5.72892 6.32366C5.88032 6.05113 6.10744 6.03599 10.9979 6.03599C14.9194 6.03599 16.3729 6.09655 17.2965 6.2631ZM42.7786 0.464159C42.5363 0.615567 42.4455 29.8222 42.6726 30.2613C42.824 30.5642 43.0662 30.5642 54.4673 30.5642C64.9447 30.5642 66.1106 30.5339 66.2014 30.3219C66.3831 29.8374 66.3074 25.1892 66.1106 24.9166C65.9289 24.6744 65.1719 24.6592 57.1321 24.6289L48.3504 24.5835L48.305 12.5011C48.2747 3.00782 48.2293 0.433878 48.0778 0.433878C45.9581 0.358174 42.8997 0.388455 42.7786 0.464159ZM79.4042 1.06979C78.9349 1.50888 78.087 2.14479 77.5268 2.49303L76.5123 3.11381L76.4366 6.17226C76.3912 7.86803 76.4064 9.32155 76.4518 9.39726C76.5426 9.54867 78.8592 8.4888 79.2377 8.14056C79.3134 8.06486 79.5708 8.0043 79.7979 8.0043H80.2219L80.2521 19.2388L80.2976 30.4884L82.9472 30.5339C85.3092 30.5641 85.612 30.549 85.7785 30.3068C86.0359 29.9737 86.0662 1.03951 85.824 0.570144C85.6726 0.297609 85.4757 0.282469 82.9623 0.282469H80.2673L79.4042 1.06979ZM174.398 0.388455C174.277 0.433877 173.853 0.782118 173.444 1.16064C173.05 1.5543 172.263 2.14479 171.703 2.49303L170.688 3.11381L170.643 6.1874C170.628 7.88317 170.658 9.32155 170.719 9.38212C170.84 9.50324 171.082 9.39726 173.005 8.39796C173.686 8.03458 174.171 7.86803 174.262 7.95888C174.337 8.03458 174.413 12.698 174.428 19.2842L174.474 30.4884L177.244 30.5339L180 30.5642L179.97 15.4687L179.924 0.358174L177.275 0.327892C175.821 0.312752 174.519 0.343032 174.398 0.388455Z" fill="black"/>
</svg>
