<svg width="123" height="35" viewBox="0 0 123 35" fill="none" xmlns="http://www.w3.org/2000/svg">
<path d="M26.3414 0.136926C23.6301 0.489614 20.9188 0.996604 19.7505 1.34929C10.8452 4.08263 5.31237 6.70574 1.85161 9.87994C0.506989 11.1143 0 11.9079 0 12.8337C0 13.5832 0.551075 14.4428 1.03602 14.4428C1.23441 14.4428 2.13817 13.9359 3.04194 13.3186C9.12581 9.1966 14.328 6.86004 21.6242 4.98639C27.8624 3.39929 34.0344 3.57564 35.5774 5.42725C36.2607 6.2208 36.2828 6.74983 35.7097 8.00628C34.6075 10.409 29.6478 13.9138 24.2473 16.074C23.6962 16.2945 22.572 16.7353 21.7124 17.088C20.8747 17.4186 20.1032 17.6391 20.0371 17.5509C19.9489 17.4848 20.0151 16.6692 20.1914 15.7654C20.5882 13.6052 20.8306 9.87994 20.6323 8.82187C20.3016 7.12456 18.6925 6.35306 17.921 7.54338C17.6124 8.00628 17.5021 8.84392 17.3919 11.6654C17.1495 17.3525 16.9952 18.4106 16.422 18.631C15.5183 18.9837 10.0737 19.7111 7.71505 19.8213C6.41452 19.8654 5.37849 20.0197 5.33441 20.152C5.20215 20.5488 7.67097 21.0998 9.54462 21.0998C11.3081 21.0998 15.3419 20.7251 16.1796 20.4606C16.5543 20.3504 16.5763 20.4385 16.4441 21.4084C16.1575 23.4364 14.7909 28.881 13.9091 31.6143C12.8952 34.7004 12.8952 34.7224 13.2919 34.7224C14.1516 34.7224 17.5683 26.9853 18.8027 22.1799C19.3538 20.0859 19.6624 19.5127 20.2575 19.5127C20.7204 19.5127 25.1511 18.0138 27.0909 17.1982C34.3871 14.1783 38.8839 10.3208 39.5672 6.48531C39.7656 5.40521 39.3468 3.99445 38.5532 3.09069C36.6796 0.952518 30.7941 -0.458235 26.3414 0.136926Z" fill="black"/>
<path d="M88.3483 3.17898C87.8413 3.7521 86.5849 5.78005 85.0198 8.51339L84.4467 9.52737L81.0741 9.68167C73.7117 10.0123 65.9526 10.7618 65.0048 11.2467C64.2332 11.6655 63.616 12.6354 63.9026 12.9881C64.1451 13.2747 64.5419 13.2526 71.1988 12.4811C77.1945 11.7758 82.8596 11.2688 83.0139 11.4231C83.3886 11.7758 77.4811 19.579 74.9241 22.136C73.4693 23.5688 71.4413 24.9795 70.5596 25.1559C69.9865 25.2661 69.8542 25.1999 69.6338 24.715C69.4134 24.2741 69.4354 23.7892 69.722 22.3564C70.1187 20.4387 70.0967 20.2403 69.3472 19.9537C68.3332 19.579 66.5698 20.5709 63.594 23.2381C62.8666 23.8774 62.0289 24.5827 61.7424 24.7591C61.2574 25.0897 61.2134 25.0677 60.9268 24.693C60.7284 24.4284 60.6182 23.679 60.6182 22.5989C60.6182 20.7252 60.4419 20.3946 59.4058 20.3946C58.5462 20.3946 57.2456 21.2983 56.0773 22.687C55.6144 23.2381 55.1736 23.701 55.0854 23.701C55.0193 23.701 54.9972 23.0177 55.0634 22.158C55.1736 20.3946 54.9531 19.9537 53.9612 19.9537C52.9031 19.9537 51.7128 20.7252 50.1919 22.4005L48.737 23.9876L48.7811 22.2462L48.8252 20.5048L48.0978 20.4387C47.0838 20.3284 45.5408 21.3645 43.5569 23.5026C42.6752 24.4725 41.8816 25.244 41.8155 25.244C41.7494 25.244 42.0359 24.4725 42.4768 23.5247C42.8956 22.5989 43.2924 21.3204 43.3585 20.6811C43.4687 19.601 43.4467 19.5128 42.9177 19.2704C42.4548 19.0499 42.1682 19.1161 41.1322 19.579C39.9419 20.1301 36.6795 22.3784 33.6376 24.737C31.9182 26.0817 31.2128 26.258 31.4332 25.2881C31.6978 24.0537 32.0505 23.1059 32.9542 21.1661C34.4531 17.9478 34.4972 17.0881 33.1967 17.0881C32.3591 17.0881 30.1327 18.543 28.0166 20.5268C26.4956 21.9155 23.608 25.4204 23.5859 25.8392C23.5859 25.9935 23.8064 26.1258 24.0929 26.1258C24.4456 26.1258 25.5257 25.2661 27.4655 23.4806C29.0306 22.0258 30.3311 20.9236 30.3752 21.0338C30.4193 21.144 30.1327 21.8494 29.758 22.5768C28.3693 25.3542 28.4574 27.2499 29.9784 27.8892C31.4553 28.5064 33.5273 27.4704 37.9139 23.8994C39.1263 22.9075 40.1843 22.158 40.2725 22.2241C40.3386 22.3123 40.0962 23.0618 39.6994 23.8994C38.8838 25.6849 38.5972 27.4924 39.0381 28.0214C40.03 29.2118 41.573 28.793 43.5128 26.8091C44.3064 26.0155 45.166 25.0897 45.4085 24.737C46.0478 23.9435 46.2902 23.9876 46.2902 24.9134C46.2902 25.9053 46.8413 26.9854 47.3483 27.0516C48.5827 27.1618 49.4203 26.5666 51.0295 24.4946C51.6467 23.701 52.2198 23.0618 52.308 23.0397C52.4182 23.0397 52.4182 23.4806 52.3521 24.0096C52.2419 24.693 52.308 25.1559 52.5505 25.6408C53.4101 27.294 54.865 27.0736 56.7386 25.0016L57.951 23.6569L58.1053 24.5166C58.3037 25.6849 58.987 26.9413 59.5381 27.2499C59.8026 27.3822 60.4859 27.4483 61.0591 27.4042C62.2273 27.294 63.4177 26.5446 65.4456 24.693C66.151 24.0317 66.7902 23.4806 66.8564 23.4806C66.9005 23.4806 67.0107 24.0758 67.0548 24.8032C67.2531 27.4704 69.0827 28.1758 72.0806 26.765C73.7779 25.9715 75.0123 25.0236 76.908 23.0618C78.3187 21.5849 78.3849 21.629 77.7015 23.4806C77.437 24.1639 77.3488 24.9354 77.415 25.8833C77.5031 27.0956 77.5913 27.3602 78.1203 27.801C79.2005 28.7489 79.972 28.5505 81.8677 26.765L83.5209 25.222L83.6752 25.8392C84.072 27.6908 84.2263 27.8892 85.2402 27.8892C86.2763 27.8892 86.9816 27.4704 88.5026 25.9274C89.23 25.1779 89.9134 24.5827 90.0456 24.5827C90.1779 24.5827 90.244 25.0456 90.1999 25.7731C90.1117 27.0956 90.5085 27.7569 91.5666 28.0214C92.8671 28.3521 95.6225 26.4344 97.4521 23.9435L98.0031 23.194L99.0171 23.9435C99.8107 24.5387 100.031 24.8473 100.141 25.5306C100.516 28.2419 103.095 28.9032 108.694 27.779C112.155 27.0736 114.976 26.236 119.032 24.693C121.545 23.7231 123 23.0177 123 22.7752C123 22.5107 122.846 22.5327 119.914 23.4806C110.942 26.3903 105.079 27.4263 103.338 26.4123C102.302 25.8171 102.302 25.4645 103.36 25.4645C105.652 25.4645 107.812 24.6048 109.069 23.1499C110.281 21.7833 110.215 20.7473 108.892 20.0639C107.195 19.1822 104.285 19.6231 102.324 21.0559C101.221 21.8494 101.155 21.8494 100.604 21.2542C99.9429 20.5268 98.9951 20.1301 98.3338 20.2844C98.0031 20.3725 96.7908 21.4306 95.4021 22.8854C92.6687 25.6849 92.4483 25.5967 94.0354 22.3784C94.9612 20.4387 95.0053 20.2844 94.6526 20.0198C93.4843 19.1822 91.0375 20.4387 87.665 23.6349C86.9816 24.2962 86.5408 24.5827 86.3865 24.4284C86.2763 24.3182 86.122 23.5467 86.0338 22.7311C85.9456 21.6731 85.7913 21.2102 85.5268 21.0559C85.0198 20.7913 83.6311 21.1881 83.2784 21.6951C82.8375 22.3344 80.2585 25.0236 80.1042 25.0236C79.8397 25.0236 80.2806 23.3924 80.9639 21.7171C81.7354 19.8215 85.9236 11.5333 86.2101 11.3569C86.5849 11.0924 98.0913 10.2327 113.521 9.26285C119.738 8.86608 122.074 8.55747 118.922 8.51339C116.519 8.49135 101.155 8.88812 93.5945 9.15264C90.222 9.28489 87.4225 9.35102 87.3564 9.30694C87.3123 9.24081 87.8634 7.96231 88.6128 6.4193C89.3843 4.85425 89.9354 3.42145 89.8913 3.15694C89.7811 2.38543 88.9875 2.38543 88.3483 3.17898ZM107.063 22.0698C107.173 22.4225 105.52 23.0397 104.484 23.0397C103.338 23.0397 103.36 22.7311 104.55 22.158C105.52 21.6951 106.931 21.651 107.063 22.0698Z" fill="black"/>
<path d="M48.9354 10.5632C47.2822 11.1584 45.4747 12.1944 45.2983 12.6573C45.2322 12.8336 45.3204 13.1202 45.4747 13.2966C45.7612 13.5611 45.9817 13.5611 47.172 13.2525C49.0897 12.7455 51.294 11.6654 51.4704 11.1143C51.6467 10.6073 51.2499 10.0342 50.7209 10.0562C50.5225 10.0562 49.729 10.2987 48.9354 10.5632Z" fill="black"/>
<path d="M89.6048 14.3105C87.6209 14.7954 86.3424 15.7433 87.0478 16.1841C87.8413 16.6911 92.9333 15.104 93.1978 14.2664C93.308 13.9137 91.1257 13.9357 89.6048 14.3105Z" fill="black"/>
<path d="M69.5678 15.5669C67.9807 15.9416 66.7463 16.9777 67.4076 17.3965C67.6721 17.5508 70.0307 16.9115 71.0447 16.4046C71.5076 16.1621 71.8603 15.8535 71.7941 15.6992C71.6839 15.3685 70.6699 15.3024 69.5678 15.5669Z" fill="black"/>
</svg>
