<svg width="182" height="36" viewBox="0 0 182 36" fill="none" xmlns="http://www.w3.org/2000/svg">
<g clip-path="url(#clip0_25_890)">
<path fill-rule="evenodd" clip-rule="evenodd" d="M117.445 6.09392C117.781 6.09392 118.373 6.17592 118.373 5.64192C118.373 5.22092 118.033 5.16692 117.672 5.16692H116.94V6.09392H117.445ZM118.679 7.55192H118.286L117.53 6.34392H116.938V7.55192H116.602V4.94193H117.752C118.004 4.94193 118.199 4.97292 118.398 5.08192C118.566 5.16792 118.677 5.39392 118.677 5.64392C118.677 6.17792 118.312 6.34492 117.892 6.34492L118.679 7.55192ZM119.521 6.23492C119.519 5.69965 119.305 5.18697 118.926 4.80847C118.548 4.42997 118.035 4.21629 117.5 4.21392C116.377 4.21392 115.428 5.11292 115.428 6.23492C115.428 7.38392 116.377 8.30792 117.5 8.30792C118.595 8.30692 119.521 7.38392 119.521 6.23492ZM115.174 6.23492C115.174 5.93052 115.234 5.62907 115.351 5.34808C115.468 5.06709 115.64 4.81215 115.856 4.59801C116.072 4.38388 116.329 4.21484 116.611 4.10067C116.894 3.9865 117.196 3.92948 117.5 3.93292C118.793 3.93292 119.83 4.97292 119.83 6.23492C119.83 7.52492 118.793 8.58792 117.5 8.58792C116.183 8.58792 115.174 7.52492 115.174 6.23492ZM175.842 6.09392C176.182 6.09392 176.77 6.17592 176.77 5.64192C176.77 5.22092 176.403 5.16692 176.096 5.16692H175.34V6.09392H175.842ZM177.051 7.55192H176.684L175.901 6.34392H175.34V7.55192H175.031V4.94193H176.154C176.377 4.94193 176.574 4.97292 176.797 5.08192C176.996 5.16792 177.078 5.39392 177.078 5.64392C177.078 6.17792 176.715 6.34492 176.264 6.34492L177.051 7.55192ZM177.918 6.23492C177.918 5.11292 177.023 4.21392 175.873 4.21392C175.607 4.213 175.344 4.26464 175.098 4.36588C174.853 4.46711 174.63 4.61594 174.442 4.80379C174.254 4.99165 174.105 5.21481 174.004 5.46043C173.903 5.70604 173.851 5.96926 173.852 6.23492C173.852 7.38392 174.752 8.30792 175.873 8.30792C177.023 8.30692 177.918 7.38392 177.918 6.23492ZM173.57 6.23492C173.57 4.97292 174.552 3.93292 175.873 3.93292C177.162 3.93292 178.199 4.97292 178.199 6.23492C178.199 7.52492 177.162 8.58792 175.873 8.58792C174.552 8.58792 173.57 7.52492 173.57 6.23492ZM37.17 27.6349C36.3622 27.6378 35.5619 27.4809 34.8151 27.1731C34.0683 26.8653 33.3898 26.4127 32.8187 25.8415C32.2476 25.2703 31.7951 24.5917 31.4875 23.8449C31.1798 23.098 31.0229 22.2977 31.026 21.4899C31.0257 20.6832 31.1845 19.8844 31.4932 19.1392C31.802 18.3939 32.2546 17.7168 32.8252 17.1466C33.3959 16.5765 34.0733 16.1244 34.8188 15.8163C35.5644 15.5081 36.3633 15.35 37.17 15.3509C37.9763 15.3505 38.7747 15.509 39.5197 15.8174C40.2647 16.1258 40.9417 16.578 41.5118 17.1481C42.0819 17.7183 42.5341 18.3952 42.8425 19.1402C43.1509 19.8852 43.3094 20.6836 43.309 21.4899C43.3123 22.2973 43.1558 23.0974 42.8485 23.844C42.5412 24.5907 42.0893 25.2691 41.5186 25.8403C40.948 26.4115 40.27 26.8642 39.5236 27.1722C38.7773 27.4802 37.9774 27.6374 37.17 27.6349ZM14.111 27.6349C10.718 27.6349 7.99798 24.9159 7.99798 21.4899C7.99798 18.0969 10.718 15.3509 14.111 15.3509C17.504 15.3509 20.255 18.0969 20.255 21.4899C20.2578 22.2976 20.1007 23.0978 19.793 23.8446C19.4852 24.5913 19.0328 25.2698 18.4617 25.8409C17.8906 26.4121 17.2122 26.8646 16.4655 27.1725C15.7189 27.4804 14.9186 27.6376 14.111 27.6349ZM91.414 27.6349C88.021 27.6349 85.302 24.9159 85.302 21.4899C85.302 18.0969 88.021 15.3509 91.414 15.3509C94.779 15.3509 97.531 18.0969 97.531 21.4899C97.5344 22.2955 97.3787 23.0938 97.0729 23.8391C96.767 24.5843 96.317 25.2619 95.7487 25.8328C95.1804 26.4037 94.5049 26.8568 93.761 27.1661C93.0172 27.4753 92.2196 27.6347 91.414 27.6349ZM68.106 27.6349C67.2977 27.6398 66.4964 27.4842 65.7487 27.1771C65.001 26.8701 64.3217 26.4176 63.7502 25.846C63.1787 25.2744 62.7263 24.595 62.4194 23.8472C62.1124 23.0995 61.9569 22.2982 61.962 21.4899C61.9597 20.6827 62.1172 19.883 62.4252 19.1368C62.7332 18.3907 63.1858 17.7128 63.7568 17.1422C64.3278 16.5716 65.0061 16.1196 65.7525 15.8122C66.4989 15.5048 67.2987 15.348 68.106 15.3509C68.9125 15.3504 69.7113 15.5088 70.4566 15.8171C71.202 16.1253 71.8793 16.5774 72.4498 17.1475C73.0204 17.7176 73.4731 18.3945 73.7819 19.1396C74.0908 19.8847 74.2499 20.6834 74.25 21.4899C74.2526 22.2976 74.0955 23.0977 73.7877 23.8444C73.4799 24.5911 73.0274 25.2695 72.4564 25.8406C71.8854 26.4118 71.207 26.8643 70.4604 27.1723C69.7138 27.4802 68.9136 27.6374 68.106 27.6349ZM43.341 29.9369C41.5554 31.2567 39.3913 31.9645 37.171 31.9549C31.39 31.9549 26.707 27.2709 26.707 21.4899C26.707 15.7399 31.39 11.0579 37.171 11.0579C39.469 11.0579 41.6 11.8139 43.31 13.0759V4.46692H47.856V31.7879H43.341V29.9369ZM116.324 17.7349C116.07 16.0209 114.695 14.7899 112.51 14.7899C111.36 14.7899 108.864 15.1799 108.864 16.6669C108.864 18.8839 112.651 19.0789 113.575 19.1369C119.636 19.6979 121.401 22.3629 121.401 25.5029C121.401 27.8309 120.223 29.5689 118.542 30.8039C117.112 31.8409 114.167 32.2609 112.37 32.2609C108.386 32.2609 104.349 30.0769 103.815 25.1359H108.276C108.524 27.4659 110.967 28.3349 112.342 28.3349C114.836 28.3349 116.604 27.2709 116.604 26.0359C116.604 24.0729 114.782 23.6509 112.143 23.3719C110.661 23.2039 107.823 22.6979 106.647 21.7159C105.331 20.6789 104.208 19.4989 104.208 17.4809C104.208 13.8619 107.04 11.0019 112.624 10.9709C117.251 10.9439 120.757 13.6949 120.866 17.7029L116.324 17.7349ZM20.282 29.9369C18.4965 31.2576 16.3318 31.9655 14.111 31.9549C8.30598 31.9549 3.67798 27.2709 3.67798 21.4899C3.67798 15.7399 8.30598 11.0579 14.111 11.0579C16.413 11.0579 18.544 11.8139 20.282 13.0759V11.0859H24.769V31.7879H20.282V29.9369ZM55.651 9.65492V4.43892H51.136V9.65492H55.651ZM55.651 31.7869V11.0849H51.136V31.7869H55.651ZM97.531 29.9369C95.847 31.2259 93.717 31.9549 91.414 31.9549C85.637 31.9549 80.954 27.2709 80.954 21.4899C80.954 15.7399 85.637 11.0579 91.414 11.0579C93.717 11.0579 95.848 11.8139 97.531 13.0759V11.0859H102.072V31.7879H97.586L97.531 29.9369ZM74.277 29.9369C72.567 31.2259 70.409 31.9549 68.106 31.9549C62.356 31.9549 57.646 27.2709 57.646 21.4899C57.646 15.7399 62.356 11.0579 68.106 11.0579C70.409 11.0579 72.54 11.8139 74.277 13.0759V4.46692H78.765V31.7879H74.277V29.9369ZM156.295 19.1369C156.547 14.2279 155.086 8.84092 151.158 3.59692C147.346 8.50592 146.002 14.0879 146.336 19.1369H156.295ZM146.924 23.0329C146.756 22.3008 146.616 21.5626 146.504 20.8199H156.125C156.015 21.563 155.875 22.3012 155.705 23.0329H146.924ZM149.168 28.5899C149.786 29.6179 150.499 30.5852 151.299 31.4789C152.086 30.6079 152.787 29.6249 153.434 28.5899H149.168ZM171.301 19.1639C172.422 16.8349 173.209 14.2279 173.571 11.3099C167.038 11.8719 161.905 15.0389 158.452 19.1639H171.301ZM170.431 20.8199C169.982 21.6029 169.503 22.3039 169.001 23.0329L155.899 22.9779C156.319 22.2769 156.741 21.4899 157.219 20.8199H170.431ZM165.269 26.9059C166.09 26.2358 166.858 25.504 167.568 24.7169L135.031 24.6899C135.764 25.5008 136.561 26.2512 137.414 26.9339L165.269 26.9059ZM153.91 28.5899C153.717 29.5219 153.605 30.4687 153.574 31.4199C156.687 31.2809 159.912 30.3259 162.83 28.5899H153.91ZM132.172 20.8199C132.647 21.6029 133.125 22.3039 133.66 23.0329H146.703C146.336 22.2769 145.889 21.5489 145.408 20.8199H132.172ZM139.799 28.5899C142.717 30.3259 145.916 31.2809 149.028 31.4199C148.993 30.4705 148.89 29.5248 148.721 28.5899H139.799ZM144.146 19.1639C140.726 15.0389 135.623 11.8719 129.085 11.3099C129.417 14.0261 130.165 16.675 131.302 19.1639H144.146Z" fill="black"/>
</g>
<defs>
<clipPath id="clip0_25_890">
<rect width="181.48" height="35.48" fill="white"/>
</clipPath>
</defs>
</svg>
