<svg width="107" height="33" viewBox="0 0 107 33" fill="none" xmlns="http://www.w3.org/2000/svg">
<path d="M62.5 0.0999994C62.2 0.0999994 62 0.299999 61.9 0.599999V21.5C61.9 24.4 61.3 25.2 61 25.5C60.6 25.8 59.4 26.3 55.6 26.3C51.9 26.3 50.7 25.8 50.3 25.5C49.9 25.2 49.4 24.4 49.4 21.7V0.7C49.4 0.4 49.2 0.0999994 48.9 0.0999994H42.7C42.4 0.0999994 42.1 0.3 42.1 0.7V21.8C42.1 26.3 43 29.2 44.9 30.7C46.7 32.1 50.3 32.8 55.9 32.8C61.2 32.8 64.7 32.1 66.5 30.5C68.3 29 69.2 26 69.2 21.4V0.599999C69.2 0.299999 69 0 68.7 0H62.5V0.0999994ZM19.7 0.0999994C19.4 0.0999994 19.1 0.4 19.1 0.7V12.7H7.3V0.7C7.3 0.4 7 0.0999994 6.7 0.0999994H0.6C0.3 0.0999994 0 0.4 0 0.7V31.9C0 32.2 0.3 32.5 0.6 32.5H6.7C7 32.5 7.3 32.2 7.3 31.9V19.2H19.1V31.9C19.1 32.2 19.4 32.5 19.7 32.5H25.8C26.1 32.5 26.4 32.2 26.4 31.9V0.7C26.4 0.4 26.2 0.0999994 25.9 0.0999994H19.7ZM85.4 0.0999994C85.1 0.0999994 84.8 0.4 84.8 0.7V31.9C84.8 32.2 85.1 32.5 85.4 32.5H91.5C91.8 32.5 92.1 32.2 92.1 31.9V19.2H102.6C102.9 19.2 103.2 18.9 103.2 18.6V13.3C103.2 13 102.9 12.7 102.6 12.7H92.1V6.6H106.1C106.4 6.6 106.7 6.3 106.7 6V0.7C106.7 0.4 106.5 0.0999994 106.2 0.0999994H85.4Z" fill="black"/>
</svg>
