<svg width="147" height="53" viewBox="0 0 147 53" fill="none" xmlns="http://www.w3.org/2000/svg">
<path d="M45.8907 33.1169C46.5853 35.4644 46.1208 40.1353 43.9521 40.5954C42.7761 40.8451 41.354 39.3633 40.7933 36.4024C40.2852 33.7201 40.391 31.2652 40.7192 30.7083C41.6029 31.8142 43.2837 33.1575 45.8907 33.1169ZM67.5543 30.7159C67.9065 33.5811 67.1585 38.4945 64.3309 37.9453C61.7871 37.4464 61.7097 30.9397 62.4416 28.0696C63.583 29.5042 65.0239 30.5842 67.5543 30.7159ZM45.4014 28.3403C43.7187 28.1961 42.8312 25.5832 43.8583 25.4062C44.5867 25.2754 45.3622 26.8063 45.4014 28.3403ZM67.4671 25.6279C66.1205 25.6875 65.342 24.5241 65.4949 23.3433C66.7216 22.5913 67.5459 24.5685 67.4671 25.6279ZM84.251 4.4382C84.266 3.30531 84.2597 2.1012 83.5965 1.13223C81.9111 -1.33017 78.184 0.876719 76.2208 1.64979C75.8378 1.80062 75.43 1.97072 75.2207 2.29819C74.9734 2.68563 75.0743 3.17483 75.1749 3.61751C76.5713 9.76461 76.525 16.0764 76.4732 22.3325C76.4678 23.0147 76.4506 23.7347 76.061 24.3126C75.6712 24.8908 74.9325 25.1147 74.1423 24.8509C73.5232 22.5447 72.3857 20.082 70.0194 18.6372C67.7743 17.2667 64.1701 17.6211 63.0522 19.8228C61.7383 18.4083 59.9477 18.425 58.5329 19.2006C56.9124 20.0889 54.8658 23.7031 54.2377 26.9869C53.719 26.5642 52.7589 26.6074 52.1745 26.9349C51.276 24.8985 50.304 22.769 48.4297 21.377C46.5551 19.9846 43.4821 19.668 41.9098 21.2963C41.5402 21.6794 41.2295 22.1722 40.6865 22.3074C39.8905 22.5055 39.1657 21.8291 38.3708 21.6052C36.8476 21.176 35.4391 22.4601 34.6769 23.7143C32.9602 26.5409 32.3779 29.8608 32.5003 33.1095C32.6178 36.2296 33.4879 39.4979 35.4857 42.0644C37.5157 44.6714 40.7949 46.1892 44.4779 45.5751C47.2954 45.1051 49.5958 43.149 50.874 40.8312C52.1521 38.5134 52.5289 35.8605 52.5989 33.2543C52.6417 31.679 52.7513 29.8055 54.238 29.0119C54.3269 31.4865 54.4212 33.9957 55.2291 36.3702C56.0368 38.7445 57.6593 41.0086 60.0954 42.1519C63.1637 43.592 67.0814 43.0803 69.7064 41.0217C72.2835 38.9997 73.9103 35.5397 74.1488 31.4865C74.2786 29.2802 74.4898 28.2822 76.2063 26.8241C76.0894 30.1835 76.0722 33.5473 76.1548 36.9105C76.181 37.9774 76.2344 39.0997 76.8477 40.0178C77.638 41.1997 79.2253 41.7899 80.7371 41.8379C82.2491 41.8858 83.475 41.5206 84.9131 41.116C84.1995 39.016 83.7105 36.4526 83.9253 34.2762C85.8285 37.3216 88.2862 41.0032 90.8237 43.9292C93.3618 46.8554 96.5642 49.7463 100.495 50.7644C102.128 51.1874 103.988 51.2679 105.395 50.4362C107.617 49.1226 107.769 46.22 107.311 43.825C107.251 43.5167 107.179 43.1954 106.964 42.9489C106.388 42.2893 105.276 42.5913 104.373 42.7391C99.578 43.5233 96.0749 41.9932 93.2206 38.9381C90.5176 36.0448 88.1292 31.7583 86.9966 29.1706C90.1065 27.6097 92.9371 25.2815 94.9276 22.6109C96.1981 20.9056 97.1841 18.6376 96.0566 16.8185C95.0227 15.1499 92.6978 14.6233 90.6354 14.2613C90.1452 14.1751 89.6265 14.0908 89.1606 14.2431C87.9648 14.6346 87.958 16.1265 87.9422 17.2856C87.9035 20.1507 86.4165 22.9533 83.9842 24.7462C84.0733 17.9769 84.1619 11.2075 84.251 4.4382Z" fill="black"/>
<path d="M146.805 26.7602C146.004 29.4569 142.833 30.8667 138.878 30.4175C138.227 30.3434 138.084 30.0552 138.268 29.603C138.76 28.402 139.967 27.7099 139.723 26.2074C139.452 24.5402 136.827 24.6787 135.875 25.8094C133.653 28.448 139.233 31.835 142.249 34.6972C144.437 36.7732 145.471 40.044 142.792 43.1344C139.499 46.9321 130.277 46.4098 127.844 43.5106C125.471 40.6822 127.192 36.7293 128.998 35.3634C129.236 35.6136 130.189 36.7084 131.526 37.3607C132.648 37.9072 134.722 37.8947 135.092 37.0085C135.603 35.787 133.815 34.0904 133.161 33.2759C131.958 31.7723 130.4 29.8732 130.033 28.0274C129.348 24.5195 131.629 21.6591 134.522 20.6509C137.357 19.663 140.498 19.7997 143.226 20.8152C145.646 21.7158 147.644 23.9372 146.805 26.7602Z" fill="black"/>
<path d="M119.771 23.7816C120.722 24.5223 120.254 26.7921 119.283 27.9214C118.147 29.244 116.126 30.3965 114.611 29.6695C114.879 28.0598 115.64 26.6115 116.625 25.4342C117.669 24.1869 118.947 23.1394 119.771 23.7816ZM119.63 33.833C121.366 33.7153 123.07 33.151 124.435 32.1708C126.735 30.5197 127.861 27.7327 127.676 25.053C127.498 22.4608 126.106 20.1962 123.659 18.8158C119.847 16.6652 114.923 17.6116 111.783 20.2194C108.463 22.9769 106.611 27.0156 106.256 31.0758C106.076 33.1409 106.262 35.2619 107.057 37.2181C107.852 39.1742 109.291 40.8479 111.249 41.9459C113.117 42.9942 115.35 43.4811 117.532 43.5037C119.406 43.5233 121.32 43.2848 122.97 42.4995C123.821 42.0942 124.607 41.5293 125.073 40.7666C125.901 39.4127 125.493 37.5255 124.156 36.5289C123.613 36.1244 122.862 35.8595 122.216 36.0882C121.614 36.3016 121.28 36.8656 120.917 37.35C120.203 38.3024 119.114 39.1077 117.84 39.1791C116.36 39.2619 114.952 38.2948 114.329 37.0621C113.707 35.83 113.519 34.3324 113.893 33.0332C114.284 33.1442 117.669 33.9655 119.63 33.833Z" fill="black"/>
<path d="M98.5545 13.909C98.8955 15.7088 100.82 17.2379 102.68 17.2284C108.479 17.1979 108.946 7.93416 102.74 8.17224C100.011 8.27727 97.9883 10.84 98.5545 13.909Z" fill="black"/>
<path d="M97.0816 36.7485C97.0522 39.7702 97.7991 40.9979 101.037 41.2501C103.513 41.4436 106.102 40.8267 106.354 39.8615C106.491 39.3482 105.89 38.8447 105.54 38.13C104.764 36.5484 104.178 33.9474 104.417 30.7758C104.692 27.1212 106.596 23.3421 106.433 20.8045C106.321 19.0588 104.863 18.723 103.594 18.6772C101.531 18.603 99.2809 19.2856 97.9076 20.0412C99.5655 24.6454 97.1356 31.9253 97.0816 36.7485Z" fill="black"/>
<path d="M20.3866 24.1925C20.8522 24.1526 21.3571 24.0344 21.6165 23.6837C21.9921 23.1759 21.6694 22.4959 21.4149 21.9213C20.7183 20.3494 20.6008 18.5779 21.0855 16.958C21.6544 15.0564 23.0295 13.3086 22.9127 11.3317C22.8132 9.64857 21.6241 8.15295 20.2341 7.01826C15.9895 3.55345 9.22311 1.95571 6.0084 7.02917C4.27233 9.76886 3.18611 12.8124 2.28115 15.8734C-0.193312 24.2445 -1.33111 33.43 2.41247 41.4921C3.86813 44.6269 6.07641 47.536 9.08003 49.581C12.0835 51.6257 15.9241 52.7446 19.6052 52.269C23.021 51.8274 26.1215 50.034 28.2402 47.5826C30.359 45.1312 31.5328 42.0618 31.8681 38.9418C32.0935 36.848 32.0164 34.4536 30.6311 32.7436C29.2458 31.0334 26.5586 30.6231 24.4063 31.4095C24.1754 33.0751 23.7038 35.9067 22.8424 37.8999C21.9811 39.8934 19.8921 42.9417 15.9645 43.171C12.0153 43.4013 10.4434 39.3588 10.0652 37.1928C9.52013 34.0708 9.6688 30.296 10.4921 26.6775C11.318 23.0484 13.2823 20.5282 14.0666 20.0971C15.4562 23.3304 17.6311 24.4295 20.3866 24.1925Z" fill="black"/>
</svg>
