<svg width="349" height="47" viewBox="0 0 349 47" fill="none" xmlns="http://www.w3.org/2000/svg">
<path d="M36.7734 0.0315451C32.4655 0.260685 31.3084 0.340883 29.7273 0.478367C22.349 1.16579 17.2163 2.18546 14.6156 3.48009C12.3127 4.61434 11.5222 5.61109 12.6679 5.9548C13.424 6.17249 14.9249 5.90897 19.0036 4.83202C21.6502 4.1446 23.5291 3.83526 25.3164 3.81235C26.3933 3.80089 26.5537 3.8238 26.886 4.0644C27.5161 4.51122 27.6651 5.18719 27.6536 7.52441C27.6422 9.72415 27.4359 12.6342 27.2412 13.23C27.0235 13.9403 25.832 14.4903 23.5062 14.9714C20.0004 15.7047 16.9986 17.5722 16.5976 19.2907C16.1279 21.3301 18.6141 23.3809 22.7959 24.3891C23.5864 24.5724 24.4342 24.7786 24.6863 24.8474C24.9269 24.9046 25.3049 25.1338 25.5112 25.34L25.8892 25.7181V27.1846C25.8892 30.5988 25.6486 38.8936 25.5226 39.3519C25.3622 39.9935 24.7894 40.4747 23.9874 40.6351C21.7304 41.1048 13.7792 39.054 3.84602 35.4336C1.40568 34.54 0.477662 34.3567 0.133953 34.7004C-0.0608158 34.8951 -0.0379015 35.6513 0.168324 36.0523C0.695345 37.0605 4.55635 39.2373 8.25695 40.6122C12.2325 42.0901 21.1117 44.4732 24.7435 45.0346C26.7256 45.3439 29.5326 45.6761 32.2479 45.9282C34.6882 46.1573 43.9798 46.1115 47.5429 45.8595C53.5808 45.4355 55.9524 45.1148 59.5155 44.2211C62.2995 43.5337 65.4731 42.4682 66.4813 41.8839C70.1132 39.7873 71.8432 37.0147 71.2474 34.1963C70.8121 32.1569 69.0133 29.877 66.5615 28.2615C63.5712 26.2909 57.923 24.1714 54.2453 23.6329C52.7559 23.4152 49.0323 23.0486 45.9962 22.808C43.3382 22.6132 42.9143 22.533 42.4446 22.1664C41.9748 21.7998 41.8144 21.2957 41.8144 20.1958C41.8144 18.1336 42.1123 17.1024 42.8799 16.5296C43.2007 16.289 43.258 16.289 52.3319 16.2775C63.514 16.2661 64.2472 16.2203 67.8791 15.1891C71.9692 14.032 74.4554 12.4624 75.4063 10.4459C75.7271 9.73561 75.75 9.62104 75.7042 8.63574C75.624 6.92865 75.0282 5.98917 73.1378 4.56851C69.8153 2.08234 64.6024 0.638764 57.3386 0.180484C55.517 0.0659146 38.4117 -0.0601107 36.7734 0.0315451ZM52.1257 3.05619C56.8002 3.22804 59.4124 3.56029 62.0016 4.32791C65.0034 5.22156 66.6303 6.80262 66.7677 8.95653C66.8136 9.65541 66.7792 9.88455 66.573 10.3199C65.9887 11.5229 64.568 12.3134 62.036 12.8519C61.3371 13.0008 60.1227 13.0008 52.6986 12.8977C48.0012 12.829 44.0027 12.7602 43.7965 12.7259C43.258 12.6457 42.7768 12.1874 42.6393 11.626C42.5477 11.2823 42.5477 10.1824 42.6279 8.06289C42.7081 5.46215 42.7654 4.90076 42.9487 4.49977C43.3153 3.66341 44.1288 3.18221 45.4234 3.02182C46.1452 2.93016 48.998 2.94162 52.1257 3.05619ZM26.6912 19.4855V21.5936L26.0955 21.6623C25.1445 21.7769 22.8302 21.3988 21.57 20.9176C21.0773 20.7343 20.6305 20.2417 20.5503 19.8063C20.2868 18.4429 22.4292 17.4347 25.6945 17.3889L26.6912 17.3774V19.4855ZM46.1108 26.7721C50.327 26.9211 52.2976 27.2075 55.5055 28.1584C59.3207 29.2812 62.0246 30.7477 63.3077 32.3746C64.568 33.9786 64.4076 35.8231 62.8495 37.5073C61.1767 39.3175 58.4156 40.4861 53.4433 41.4829C49.6281 42.2505 48.2304 42.3995 44.6099 42.4109C41.654 42.4109 41.4822 42.3995 41.2416 42.1818C40.6687 41.6777 40.6802 41.7464 40.7948 34.3223C40.8635 30.5186 40.9552 27.2877 41.0125 27.1388C41.2301 26.6232 41.4249 26.6003 46.1108 26.7721ZM164.175 1.79592C160.142 2.07089 156.969 2.50625 152.202 3.45718C148.891 4.12169 147.471 4.4654 144.985 5.23301C143.919 5.55381 143.541 5.48507 142.006 4.71745C139.634 3.51447 137.629 3.0791 135.028 3.20513C133.344 3.28533 132.176 3.57175 130.778 4.24771C129.472 4.86639 128.67 5.58818 128.624 6.14957C128.601 6.52765 128.624 6.55057 128.968 6.58494C129.174 6.60785 129.838 6.45891 130.446 6.26414C133.035 5.43924 134.983 5.34758 136.323 6.01209C136.804 6.24123 137.32 7.13487 137.194 7.51295C137.159 7.63898 136.461 8.31494 135.659 9.00236C133.276 11.0532 132.176 12.3593 131.626 13.8143C131.271 14.7652 131.339 16.3807 131.775 17.2743C132.474 18.6835 133.711 19.8063 135.59 20.7343C137.01 21.4446 137.881 21.7311 140.402 22.3497C141.605 22.6362 146.084 23.7246 150.369 24.7672C163.075 27.8605 165.928 28.6282 168.7 29.6937C171.771 30.8737 173.764 32.2486 174.498 33.6578C174.807 34.2765 174.967 35.4336 174.819 35.995C174.601 36.797 173.879 38.0229 173.18 38.779C172.504 39.5008 171.152 40.4747 170.064 41.0132C168.712 41.6891 165.928 42.514 163.831 42.8577C157.049 43.9461 148.479 43.1442 141.662 40.7726C138.019 39.5123 136.014 38.5614 132.439 36.4304C129.781 34.8493 129.678 34.792 129.174 34.792C128.509 34.792 128.108 35.067 127.959 35.6169C127.593 37.0147 128.383 38.1604 130.721 39.6154C132.302 40.6007 137.503 43.1442 139.348 43.8316C144.629 45.8136 150.049 46.7302 157.473 46.8906C165.149 47.0739 170.786 46.1344 175.781 43.8316C178.496 42.5828 180.215 41.4371 181.784 39.7987C183.388 38.126 184.11 36.6251 184.202 34.792C184.248 33.8296 184.213 33.589 183.938 32.787C183.434 31.2633 182.724 30.2092 181.189 28.6511C178.576 26.016 175.586 24.3089 170.751 22.7049C167.899 21.754 155.892 18.7522 151.801 17.9503C145.156 16.6671 141.971 15.5328 141.295 14.2497C140.94 13.5508 141.353 12.302 142.166 11.6604C143.255 10.7896 145.683 9.73561 148.192 9.02527C151.779 8.01706 155.387 7.55878 162.686 7.19216C170.66 6.77971 174.395 6.9401 179.424 7.93686C181.865 8.4066 182.919 8.44097 183.652 8.06289C184.362 7.70772 184.603 7.32964 184.591 6.58494C184.58 5.71421 184.293 5.09553 183.595 4.45394C182.323 3.28533 180.135 2.4948 176.606 1.94486C175.277 1.73863 166.661 1.63552 164.175 1.79592ZM192.187 15.8193C191.351 16.2432 190.308 17.1254 189.827 17.8128C189.346 18.5002 189.128 19.4397 188.911 21.8456C188.75 23.6444 188.842 27.4252 189.094 29.1666C189.713 33.5088 191.637 37.4844 193.528 38.3437C194.513 38.7905 195.888 38.5614 196.255 37.8969C196.312 37.7708 196.472 37.0834 196.598 36.3731C196.896 34.6774 197.228 33.4745 197.584 32.8672C198.237 31.7559 199.096 31.0914 199.566 31.3549C199.978 31.5612 200.585 32.3975 201.192 33.5661C202.029 35.1472 202.991 36.4647 204.057 37.473C205.328 38.6988 206.142 39.054 208.937 39.6498L210.221 39.9247L211.149 40.8413C213.108 42.789 215.227 44.4159 216.728 45.1262C218.309 45.8709 219.421 46.0657 222.09 46.0657C224.611 46.0771 225.504 45.9511 227.589 45.321C229.778 44.645 231.175 43.8659 233.364 42.0672C235.311 40.4861 236.102 40.2112 236.858 40.8642C237.144 41.1277 237.282 41.3683 237.385 41.8151C237.752 43.4879 237.992 43.7285 239.379 43.8087C240.868 43.9118 240.925 43.8545 242.999 40.8069C244.889 38.0458 245.256 37.5761 246.299 36.6366C247.444 35.594 249.415 34.0588 250.137 33.6463C250.973 33.1651 251.122 33.2339 254.089 35.3992L255.487 36.4189L255.499 38.7332C255.499 39.9935 255.544 41.4943 255.579 42.0443C255.659 42.9723 255.693 43.0869 255.98 43.3389C257.022 44.2326 258.168 43.6024 258.981 41.7006C259.577 40.2914 259.978 39.5925 261.548 37.2324C263.679 34.0244 264.252 33.4172 265.168 33.4172C265.466 33.4172 265.672 33.5088 265.959 33.7953C266.165 33.99 267.265 35.6284 268.388 37.4271C269.636 39.4092 270.645 40.8986 270.977 41.2194C271.687 41.9183 272.558 42.3536 273.257 42.3536C274.403 42.3536 275.961 41.6318 276.717 40.7496C276.912 40.5091 277.324 39.8904 277.622 39.3634C278.905 37.049 280.326 35.1357 280.99 34.8264C281.334 34.6545 281.391 34.6545 281.666 34.8378C282.056 35.0899 282.915 36.27 283.797 37.7708C285.367 40.4174 286.352 41.6547 287.166 42.0214C288.529 42.6057 289.812 42.3422 291.978 41.0361C292.459 40.7382 292.94 40.6809 293.295 40.8642C293.41 40.9215 293.834 41.3798 294.235 41.861C295.254 43.0869 296.767 44.5648 297.614 45.172C299.218 46.3292 301.407 46.6271 303.79 46.0199C304.706 45.7793 306.505 44.9773 307.399 44.4159C307.685 44.2211 308.075 44.0493 308.258 44.0034C308.556 43.9461 308.659 44.0034 309.14 44.5534C310.526 46.0886 311.168 46.5354 312.543 46.8906C313.746 47.1999 314.903 46.8677 316.759 45.7105C318.993 44.3013 319.325 44.2899 320.334 45.6303C320.952 46.4552 321.376 46.7073 322.144 46.7073C322.808 46.7073 323.232 46.5354 323.61 46.1115C324 45.6876 324.091 45.4356 324.573 43.5337C325.008 41.7579 325.581 39.9935 325.913 39.329C326.245 38.6874 327.082 37.9198 327.792 37.599C328.376 37.3469 328.617 37.3011 329.167 37.3355C330.072 37.4042 330.794 37.9083 332.283 39.5352C334.758 42.2505 336.625 44.0263 337.37 44.4044C338.94 45.1835 340.681 45.3324 342.354 44.8054C345.035 43.9691 348.438 41.5287 348.598 40.3372C348.644 39.9591 348.609 39.8445 348.357 39.6154C347.991 39.2717 347.452 39.3519 346.776 39.8675C344.439 41.6433 342.365 42.4911 341.185 42.1359C340.063 41.8037 338.378 39.6727 336.832 36.6251C336.373 35.7086 335.789 34.6545 335.526 34.2765C334.792 33.1766 333.635 32.1111 332.65 31.6299C331.848 31.2289 331.745 31.206 331.012 31.2747C329.66 31.3893 328.296 32.0996 326.612 33.5547C325.615 34.4369 325.443 34.5171 325.157 34.2306C324.997 34.0702 324.939 33.7609 324.871 32.8329C324.79 31.5039 324.458 29.9686 324.126 29.3156C323.633 28.3647 322.488 27.597 321.777 27.7574C320.861 27.9522 320.448 28.6282 320.162 30.4384C319.612 33.8411 318.672 37.8396 318.042 39.4665C317.492 40.8757 316.381 42.1245 315.659 42.1245C314.914 42.1245 314.181 41.2996 313.769 40.0164C313.54 39.2717 313.517 38.9738 313.528 36.5678C313.528 34.3567 313.574 33.6692 313.792 32.3402C314.181 30.0145 314.021 28.9948 313.196 28.4907C312.6 28.1241 312.096 28.2043 310.481 28.8917C308.705 29.6478 308.246 29.7051 307.433 29.2583C305.52 28.1928 304.294 27.872 302.529 27.9522C300.043 28.0668 298.176 28.8573 296.366 30.5415C295.197 31.6413 294.349 32.936 293.467 34.9753C292.47 37.2438 291.92 37.8854 290.946 37.8854C290.351 37.8854 290.053 37.6334 289.274 36.4762C288.495 35.3076 287.842 34.0473 287.051 32.2027C285.986 29.7166 285.298 28.6625 284.141 27.8033C283.603 27.3908 283.465 27.345 282.881 27.345C282.354 27.345 282.125 27.4137 281.712 27.6658C280.681 28.3303 279.295 30.0488 277.828 32.5006C276.534 34.6545 275.388 36.0523 274.907 36.0523C273.979 36.0523 272.81 34.666 270.897 31.2976C269.831 29.4302 268.571 27.5398 267.884 26.7721C267.253 26.0733 266.486 25.6264 265.913 25.6264C264.653 25.6264 262.671 27.6314 260.918 30.656C260.379 31.5841 260.368 31.607 260.173 31.3778C260.047 31.2174 259.967 30.7935 259.91 30.0145C259.726 27.5168 259.371 26.417 258.477 25.5004C257.515 24.5151 256.759 24.4464 255.934 25.2598C255.315 25.8899 255.212 26.5201 255.292 29.3729C255.327 30.6561 255.338 31.6986 255.315 31.6986C255.304 31.6986 254.88 31.4351 254.387 31.1029C253.883 30.7821 252.967 30.0145 252.336 29.4072C251.706 28.8 251.065 28.2157 250.904 28.1126C250.068 27.5398 249.243 28.1126 246.448 31.2747C244.775 33.1537 243.572 34.2192 243.114 34.2192C242.403 34.2192 242.22 33.7494 241.956 31.2976C241.773 29.4989 241.315 28.7542 240.33 28.6052C238.84 28.3876 237.282 29.9915 235.919 33.1537C235.667 33.738 235.185 34.6316 234.842 35.1586C234.017 36.4189 231.817 38.7905 230.729 39.6039C229.583 40.4518 227.876 41.3225 226.444 41.7808C225.367 42.1245 225.218 42.1474 224.038 42.0901C222.537 42.0328 221.288 41.6547 219.501 40.7382C218.218 40.0737 217.759 39.6383 217.817 39.0998C217.839 38.8134 217.943 38.6988 218.366 38.4812C218.779 38.2749 219.065 38.2291 219.867 38.2291C222.617 38.2291 225.71 37.2094 227.841 35.6055C228.976 34.7462 229.537 34.1504 230.385 32.8558C231.198 31.607 231.542 30.679 231.622 29.4416C231.806 26.8523 230.648 24.9619 228.128 23.7017C226.501 22.8882 225.619 22.7049 223.293 22.7049C221.185 22.7164 220.142 22.8997 218.527 23.5756C215.949 24.6526 212.89 27.5512 211.573 30.1519C211.149 30.9998 210.599 32.6152 210.244 34.0473C209.991 35.0441 209.865 35.342 209.636 35.5138C209.189 35.8461 208.559 35.6169 207.712 34.8264C206.623 33.8296 206.027 32.6839 205.191 30.0374C204.274 27.1273 203.553 25.741 202.59 25.0192C202.235 24.7557 202.063 24.7099 201.422 24.7099C200.803 24.7099 200.562 24.7672 200.093 25.0421C199.291 25.5004 198.145 26.5888 197.274 27.7001C196.369 28.8688 195.705 29.6135 195.441 29.7624C195.292 29.8426 195.166 29.7968 194.937 29.6135C194.467 29.1896 194.376 27.9178 194.49 23.2205C194.547 21.0436 194.593 18.6377 194.593 17.8701C194.582 16.4838 194.582 16.4723 194.238 16.0369C193.929 15.6589 193.814 15.6016 193.322 15.5672C192.909 15.5443 192.611 15.613 192.187 15.8193ZM223.854 25.9816C224.496 26.0962 224.679 26.1878 225.149 26.6232C225.882 27.3221 226.18 28.1011 226.18 29.4072C226.18 30.9081 225.642 32.0767 224.313 33.4057C222.892 34.8264 220.704 35.8919 218.756 36.1096C217.954 36.2012 216.82 36.0179 216.419 35.7315C215.663 35.1816 215.479 33.7953 215.961 32.3173C216.992 29.201 219.34 26.795 222.056 26.0847C223.075 25.8212 222.949 25.8327 223.854 25.9816ZM304.855 31.3778C305.932 31.8934 307.009 33.3255 307.456 34.8493C307.708 35.7086 307.708 37.2209 307.467 38.2406C307.055 39.982 306.058 41.3454 304.89 41.7808C302.999 42.4911 301.349 42.1932 300.181 40.9215C298.806 39.4321 298.21 36.0408 298.989 34.0817C299.264 33.3828 299.448 33.0964 300.043 32.4663C301.269 31.1716 303.412 30.6904 304.855 31.3778ZM86.9779 23.4496C84.1824 23.8391 80.8827 25.466 78.7403 27.4939C76.0135 30.0832 74.7418 33.3828 74.9709 37.2553C75.1543 40.4174 76.1396 42.4338 78.3851 44.2326C79.4621 45.0918 80.7682 45.7793 82.0857 46.1573C82.8648 46.3865 83.2543 46.4209 84.7208 46.4094C86.279 46.4094 86.531 46.375 87.4132 46.0886C88.6964 45.6647 90.3462 44.8054 91.4804 43.9691C92.8553 42.9494 94.0239 42.2276 94.7801 41.9183C95.3644 41.6891 95.5018 41.6662 95.7883 41.7922C96.2007 41.9526 97.06 42.8921 97.461 43.6024C98.2973 45.0689 99.0879 45.6189 100.245 45.5387C100.784 45.5043 101.047 45.4012 101.563 45.0575C101.918 44.8283 104.003 42.8806 106.203 40.7382C108.402 38.6072 110.27 36.8543 110.362 36.8543C110.591 36.8543 110.9 37.2324 111.851 38.6874C113.421 41.1048 115.907 44.0493 117.19 45.0231C118.324 45.8709 119.802 46.2948 120.913 46.0886C121.452 45.9855 122.071 45.3668 122.174 44.8283C122.254 44.4388 122.208 44.3701 120.684 42.6171C117.19 38.5614 116.067 36.671 114.738 32.6152C114.268 31.1831 113.844 30.4155 113.226 29.8655C112.71 29.4187 112.641 29.3843 112.183 29.4531C111.576 29.5333 111.347 29.6937 110.763 30.404C108.689 32.9245 104.117 37.0834 103.419 37.0834C103.258 37.0834 102.869 36.7741 102.365 36.2471C101.528 35.3878 100.898 34.3223 100.531 33.188C100.073 31.7674 99.718 31.3549 98.916 31.3549C98.2286 31.3549 97.7474 31.733 97.2089 32.7068C95.8456 35.1701 92.7407 38.7332 90.4379 40.4861C88.4673 41.987 87.0924 42.5255 85.2364 42.5255C84.1709 42.5255 83.9647 42.4911 83.4606 42.2276C82.4753 41.735 81.8566 40.4976 82.2919 39.9133C82.3607 39.8102 82.8992 39.455 83.4606 39.1342C85.0187 38.2406 87.5965 36.522 88.8568 35.5024C91.6294 33.2912 92.798 31.3778 93.1532 28.4449C93.3136 27.1158 93.0959 25.7066 92.5918 24.9963C92.2252 24.4693 91.2284 23.885 90.2316 23.6329C89.3838 23.4038 87.883 23.3236 86.9779 23.4496ZM88.8683 27.07C89.8192 27.6658 89.2234 30.2092 87.6538 32.2829C86.9091 33.2568 85.0187 35.067 84.1021 35.6857C83.1856 36.2929 82.2919 36.5908 81.7764 36.4418C80.6307 36.121 80.5734 33.5088 81.6618 31.4237C82.6013 29.6135 85.2708 27.5054 87.3216 26.944C87.9746 26.7721 88.4673 26.8065 88.8683 27.07Z" fill="black"/>
</svg>
