<svg width="203" height="28" viewBox="0 0 203 28" fill="none" xmlns="http://www.w3.org/2000/svg">
<path d="M8.32395 9.78629V8.13126C8.32395 5.90056 7.67632 4.74923 6.76485 4.74923C5.22975 4.70126 4.86996 5.75664 4.86996 7.45965V20.3881C4.86996 21.8513 5.34968 22.7387 6.62094 22.7387C8.29996 22.7387 8.41989 20.58 8.41989 18.9729V16.5983H13.337V19.8124C13.337 24.2978 11.3222 27.44 6.26115 27.44C1.75178 27.416 0.000799238 24.3938 0.000799238 19.0929V8.34713C-0.0471728 2.68643 2.0636 0.047972 6.54898 0.047972C10.7225 0.047972 13.2411 2.25469 13.2411 7.57958V9.78629H8.32395ZM20.0531 26.7684H15.112V0.671608H22.2838C26.3135 0.671608 28.3043 2.68643 28.3043 7.86741C28.3043 10.6738 27.7766 12.6406 25.7138 13.8399V13.9119C27.2009 14.3676 28.1844 15.7588 28.1364 17.2939C28.2563 19.3807 28.3043 23.8901 28.5681 25.5451C28.6641 25.8809 28.832 26.1927 29.0479 26.4566V26.7924H23.747C23.603 26.3127 23.5071 25.809 23.4591 25.3052C23.3632 23.0026 23.4591 20.8438 23.3392 19.2368C23.2193 17.6297 22.7875 16.5983 21.6842 16.5024H20.0531V26.7924V26.7684ZM20.0531 11.7531H21.7321C23.1473 11.7531 23.4831 10.1221 23.4831 8.51504C23.4831 5.42084 22.4757 5.27692 20.0531 5.34888V11.7531ZM43.4874 18.4452C43.4874 24.3458 41.8324 27.416 36.8913 27.416C31.9502 27.416 30.2232 24.3938 30.2232 18.4452V7.81944C30.1992 2.78238 32.5738 0.047972 36.8673 0.047972C41.1608 0.047972 43.4635 2.80636 43.4635 7.84343V18.4452H43.4874ZM38.5943 8.25119C38.5943 6.66811 38.4744 4.72525 36.8673 4.72525C35.2602 4.72525 35.1163 6.64413 35.1163 8.25119V18.9729C35.1163 20.4601 35.3082 22.7148 36.8913 22.7148C38.4744 22.7148 38.5943 20.4841 38.5943 18.9729V8.25119ZM58.5507 18.4452C58.5507 24.3458 56.8956 27.416 51.9545 27.416C47.0134 27.416 45.2624 24.3938 45.2624 18.4452V7.81944C45.2384 2.78238 47.661 0.047972 51.9545 0.047972C56.248 0.047972 58.5507 2.80636 58.5507 7.84343V18.4452ZM53.6815 8.25119C53.6815 6.66811 53.5616 4.72525 51.9545 4.72525C50.3474 4.72525 50.2035 6.64413 50.2035 8.25119V18.9729C50.2035 20.4601 50.3954 22.7148 51.9785 22.7148C53.5616 22.7148 53.6815 20.4841 53.6815 18.9729V8.25119ZM60.4935 26.7684V0.671608H65.4107V11.1535L69.0805 0.671608H74.1416L69.6802 12.1609L74.4294 26.7444H69.2244L66.514 17.6537L65.4346 20.3401V26.7684H60.5175H60.4935ZM79.3465 18.0375V19.8844C79.3465 21.3715 79.7303 22.7148 81.2894 22.7148C82.4407 22.7148 82.9444 21.4195 82.9444 20.1003C82.9444 17.8936 81.5053 17.078 80.21 16.0706C78.7968 15.1404 77.5484 13.9812 76.5162 12.6406C75.5088 11.0815 75.0051 9.2586 75.101 7.41168C75.101 2.54252 77.4756 0.047972 81.2414 0.047972C85.5109 0.047972 87.6937 3.5979 87.4538 8.51504H82.9444C82.8965 6.97993 82.9444 4.86916 81.3374 4.74923C80.33 4.65329 79.7543 5.3249 79.6344 6.47622C79.4904 7.74748 80.0661 8.97077 81.1215 9.69035C82.9444 11.1535 84.5275 12.065 85.6788 13.4082C86.8302 14.7514 87.4778 16.4304 87.4778 19.6445C87.4778 24.7056 85.2471 27.44 81.1695 27.44C76.6841 27.44 74.7892 24.2978 74.7892 20.8438V18.0615H79.3465V18.0375ZM100.142 25.3052C98.9671 26.6485 97.2641 27.416 95.4891 27.416C91.7473 27.416 89.2048 24.3938 89.2048 19.6445C89.0609 16.4064 90.5 13.3122 93.0665 11.3214C91.9632 9.57042 91.3635 7.55559 91.3635 5.4928C91.2916 2.54252 93.5942 0.0959441 96.5445 0.023986H96.8083C99.5667 0.023986 101.989 1.94287 101.989 5.70867C101.989 8.34713 100.646 10.7937 98.3914 12.1609C99.159 13.6241 99.9505 15.0872 100.646 16.5743H100.718C100.934 15.3031 101.102 14.0798 101.27 12.8805H104.868C104.74 15.7203 104.106 18.5145 102.997 21.1317L105.875 26.7684H100.886L100.142 25.2813V25.3052ZM95.2732 5.46881C95.3212 6.62014 95.729 7.7235 96.4486 8.61098C97.336 7.8914 97.8877 6.81203 97.9597 5.6607C97.9597 4.43741 97.5519 3.86175 96.5445 3.86175C95.7769 3.86175 95.2732 4.60531 95.2732 5.46881ZM94.9854 15.2791C94.026 16.4064 93.5223 17.8456 93.5702 19.3087C93.5702 21.1557 94.6736 22.6908 96.1607 22.6908C96.9762 22.5469 97.6958 22.1391 98.2475 21.5394L94.9854 15.2791ZM115.541 9.78629V8.13126C115.541 5.90056 114.894 4.74923 113.982 4.74923C112.447 4.70126 112.111 5.75664 112.111 7.45965V20.3881C112.111 21.8513 112.591 22.7387 113.862 22.7387C115.517 22.7387 115.685 20.58 115.685 18.9729V16.5983H120.578V19.8124C120.578 24.2978 118.564 27.44 113.503 27.44C108.993 27.44 107.218 24.4178 107.218 19.1169V8.34713C107.218 2.66245 109.305 0.023986 113.814 0.023986C117.988 0.023986 120.483 2.25469 120.483 7.57958V9.78629H115.541ZM121.442 26.7684L125.999 0.671608H131.9L136.457 26.7924H131.492L130.797 21.7313H126.959L126.383 26.7924H121.442V26.7684ZM128.974 5.39685H128.902L127.486 17.102H130.317L128.974 5.39685ZM141.278 18.0375V19.8844C141.278 21.3715 141.662 22.7148 143.221 22.7148C144.373 22.7148 144.876 21.4195 144.876 20.1003C144.876 17.8936 143.413 17.078 142.142 16.0706C140.727 15.1352 139.479 13.9838 138.424 12.6406C137.417 11.0815 136.913 9.2586 137.009 7.41168C137.009 2.49455 139.384 0 143.173 0C147.443 0 149.602 3.54993 149.386 8.46706H144.876C144.804 6.93196 144.876 4.82119 143.269 4.70126C142.262 4.60532 141.662 5.27692 141.566 6.42825C141.422 7.69951 141.998 8.9228 143.029 9.64238C144.876 11.1055 146.459 12.017 147.611 13.3602C148.762 14.7034 149.41 16.3824 149.41 19.5966C149.41 24.6576 147.179 27.392 143.101 27.392C138.616 27.392 136.721 24.2499 136.721 20.7959V18.0375H141.278ZM150.465 0.671608H163.178V5.90056H159.22V26.7684H154.303V5.90056H150.465V0.671608ZM164.377 26.7684V0.671608H169.294V21.5634H175.291V26.7924H164.377V26.7684ZM176.61 26.7684V0.671608H187.859V5.90056H181.527V10.6978H187.667V15.9267H181.527V21.5634H188.195V26.7924H176.634L176.61 26.7684ZM193.856 18.0375V19.8844C193.856 21.3715 194.24 22.7148 195.823 22.7148C196.974 22.7148 197.478 21.4195 197.478 20.1003C197.478 17.8936 196.015 17.078 194.743 16.0706C193.328 15.1352 192.081 13.9838 191.025 12.6406C190.018 11.0815 189.514 9.2586 189.61 7.41168C189.61 2.49455 191.985 0 195.775 0C199.996 0.047972 202.227 3.5979 202.011 8.51504H197.502C197.43 6.97993 197.502 4.86916 195.871 4.74923C194.863 4.65329 194.288 5.3249 194.168 6.47622C194.024 7.74748 194.599 8.97077 195.631 9.69035C197.478 11.1535 199.061 12.065 200.212 13.4082C201.363 14.7514 202.011 16.4304 202.011 19.6445C202.011 24.7056 199.78 27.44 195.727 27.44C191.241 27.44 189.322 24.2978 189.322 20.8438V18.0615H193.832L193.856 18.0375Z" fill="black"/>
</svg>
