<svg width="200" height="61" viewBox="0 0 200 61" fill="none" xmlns="http://www.w3.org/2000/svg">
<path d="M92.3 33.7427C92.9 33.0427 93.5 32.3427 94.2 31.6427C95.1 30.6427 95.9 29.5427 96.9 28.6427C98.1 27.4427 99.6 26.7427 101.4 27.0427C102.6 27.2427 103.5 27.8427 103.9 28.9427C104.4 30.3427 104.8 31.8427 105.2 33.2427L105.5 34.4427C106.5 37.3427 109.6 38.7427 112.5 37.4427C114.4 36.6427 115.8 35.2427 117.2 33.7427C118.3 32.6427 119.4 31.4427 120.5 30.3427C120.9 29.9427 121.5 29.5427 121.9 29.1427C122.8 28.3427 123.7 28.6427 124.6 28.8427C124.8 28.9427 125 28.9427 125.1 28.9427C125.7 29.0427 126.2 29.0427 126.8 29.3427C127.5 29.6427 128 30.0427 127.9 30.8427C127.9 31.3427 128.1 31.8427 128.2 32.4427H128.4C128.5 32.2427 128.6 32.0427 128.8 31.8427C129.4 30.8427 130.4 30.4427 131.5 30.6427C131.6 30.6427 131.8 30.7427 131.9 30.9427C132.3 31.6427 132.6 32.4427 133.1 33.3427C133.7 32.7427 134.4 32.2427 134.9 31.6427C135.6 30.7427 136.2 29.8427 136.8 28.9427C137.3 28.3427 137.7 27.6427 138.2 27.1427C140 25.4427 142.5 25.1427 144.9 26.4427C146.2 27.1427 147.2 28.1427 147.9 29.4427C148.8 30.9427 149.7 32.5427 150.6 34.0427C151.3 35.1427 151.9 36.3427 152.7 37.3427C154.6 39.7427 157.1 40.7427 160.1 40.3427C160.3 39.5427 160.5 38.8427 160.7 38.0427C162.3 32.8427 165.5 29.3427 170.7 27.5427C171 27.4427 171.2 27.3427 171.1 26.9427C171.1 22.8427 171.1 18.7427 171 14.7427C170.9 10.4427 171 6.14274 171.3 1.84274C171.4 0.442738 173.1 -0.457262 174.4 0.242738C176 1.04274 176.7 2.44274 177 4.04274C177.2 5.34274 177.2 6.54274 177.4 7.84274C177.7 9.94274 177.4 12.0427 177.1 14.0427C176.9 15.6427 176.7 17.1427 176.5 18.6427C176.3 20.7427 176.7 22.8427 177.4 24.8427C179.1 29.9427 181.6 34.6427 185.3 38.5427C186.4 39.6427 187.6 40.6427 188.8 41.7427C190.1 42.8427 191.7 43.0427 193.2 43.1427C194.4 43.2427 195.5 43.1427 196.7 43.1427C196.6 43.8427 196.4 44.4427 196.3 45.2427C196.3 45.4427 196.4 45.6427 196.4 45.7427L196.5 45.8427C196.9 46.7427 195.7 48.4427 194.7 48.4427C190 48.5427 186 47.0427 182.8 43.5427C181.1 41.6427 179.6 39.5427 178 37.5427C177.8 37.2427 177.6 37.0427 177.4 36.7427C176.8 36.0427 176.2 35.3427 176.1 34.3427C176 33.5427 175.6 33.3427 174.9 33.2427C174.7 34.3427 174.5 35.4427 174.2 36.5427C173.7 38.9427 173.1 41.3427 171.9 43.5427C170.6 45.8427 168.8 47.4427 166.1 47.9427C165.6 48.0427 165 47.9427 164.6 47.7427C163.8 47.2427 163.2 46.6427 162.5 46.0427C162 45.6427 161.6 45.0427 161.1 44.5427C160.9 44.6427 160.8 44.7427 160.7 44.8427C158.7 46.4427 156.4 47.1427 153.8 46.6427C152.4 46.3427 151.3 45.5427 150.5 44.4427C149.5 43.0427 148.5 41.5427 147.6 40.0427C147.2 39.4427 146.9 38.7427 146.6 38.2427C146.1 37.4427 145.5 36.7427 145 36.0427C144.4 35.2427 143.8 34.5427 143.3 33.8427C142.8 33.1427 142.3 32.9427 141.4 32.8427C140.4 32.8427 139.7 33.2427 139.2 34.1427C138.8 34.9427 138.5 35.9427 138.3 36.8427C138 38.2427 137.8 39.7427 137.5 41.1427C137.2 42.1427 137.2 43.2427 136.9 44.3427C136.7 45.2427 136.3 46.1427 135.9 46.9427C135.1 48.1427 133.9 48.3427 132.6 47.6427C131.8 47.2427 131.4 46.6427 131 45.8427C130.2 44.3427 129.9 42.8427 129.7 41.1427C129.6 40.4427 129.5 39.7427 129.5 39.0427C129.1 40.0427 128.8 41.0427 128.4 42.0427C127.4 44.2427 125.8 46.0427 123.5 46.8427C120.9 47.7427 118.7 47.3427 117 45.4427C116.2 44.5427 115.7 43.4427 115.3 42.3427C115.2 42.1427 115.2 41.9427 115.1 41.7427C114.7 41.8427 114.3 42.0427 114 42.1427C113.3 42.2427 112.6 42.3427 112.3 43.2427C112.3 43.2427 112.2 43.3427 112.1 43.3427C109.2 44.5427 106.7 44.4427 104.7 41.9427C103.3 40.2427 102 38.3427 100.8 36.4427C100.4 35.8427 100.3 35.0427 100 34.2427C99.6 34.6427 99.1 34.9427 98.7 35.4427C97.8 36.6427 97 37.8427 96.2 39.0427C95.2 40.4427 94.3 41.9427 93.3 43.4427C93.1 43.7427 92.8 43.8427 92.5 43.7427C90.8 43.4427 89.7 42.3427 89.1 40.8427C88.5 39.4427 88.1 37.9427 87.6 36.5427C87.4 35.9427 87.1 35.3427 86.8 34.6427C85.7 35.4427 85.6 36.6427 85.2 37.6427C84.8 38.9427 84.3 40.2427 83.9 41.5427C83.7 42.2427 83.7 42.9427 83.6 43.5427C83.4 44.4427 83.3 45.4427 83 46.2427C82.3 48.3427 80.1 48.6427 78.8 46.9427C77.9 45.7427 77.6 44.3427 77.3 42.9427C77.2 42.5427 77.2 42.0427 77.2 41.5427C77.1 41.2427 77 40.9427 76.8 40.8427C76.6 40.7427 76.2 40.8427 76 41.0427C74.4 42.3427 72.6 43.3427 70.5 43.6427C68.7 43.9427 67 43.7427 65.6 42.0427C64.5 43.0427 63.4 44.0427 62.3 45.1427C60.8 46.5427 59.3 47.8427 57.3 48.3427C55.2 48.9427 53.2 48.5427 51.6 46.9427C51.5 46.8427 51.4 46.5427 51.3 46.3427C51.3 46.1427 51.3 45.9427 51.2 45.8427C50.1 44.0427 50.2 42.1427 50.5 40.1427C50.9 37.9427 51.8 36.0427 53.1 34.2427C54.4 32.3427 55.9 30.4427 57.3 28.6427C57.4 28.5427 57.6 28.4427 57.7 28.4427C58.5 28.3427 59.3 28.2427 60 28.0427C61.7 27.5427 62.6 27.7427 63.6 29.2427C64.4 30.3427 64.9 31.5427 65.6 32.7427C66.3 33.9427 66.9 35.2427 67.6 36.3427C67.9 36.8427 68.3 37.2427 68.8 37.5427C69.4 38.0427 70 38.2427 70.8 38.2427C72.6 38.2427 74.5 38.2427 76.4 38.3427C76.7 37.6427 76.6 36.8427 76.5 36.0427L76.2 33.3427V32.0427C76.2 31.8427 76.4 31.6427 76.5 31.5427C76.6 31.4427 76.7 31.4427 76.8 31.2427C77.1 30.9427 77.3 30.6427 77.8 30.6427C78.5 30.6427 79.1 30.7427 79.5 31.2427C79.8 31.5427 80 31.7427 80.2 32.0427C80.4 32.3427 80.7 32.5427 81 32.9427C81.4 32.3427 81.7 31.8427 82 31.3427C82.6 30.3427 83.2 29.3427 83.9 28.3427C84.7 27.2427 85.9 26.6427 87.3 26.9427C88.1 27.0427 88.8 27.4427 89.2 28.1427C89.9 29.3427 90.6 30.6427 91.3 31.8427C91.6 32.4427 91.9 33.0427 92.2 33.5427C92.2 33.6427 92.3 33.7427 92.3 33.7427ZM55.5 42.3427C55.9 42.2427 56.3 42.1427 56.6 42.0427C58.3 41.4427 59.7 40.6427 60.8 39.1427C61.9 37.6427 61.8 35.9427 60.4 34.7427C57.9 36.7427 55.8 38.9427 55.5 42.3427ZM166 40.7427C166.4 40.5427 166.9 40.4427 167.1 40.2427C167.7 39.4427 168.3 38.5427 168.8 37.6427C169.2 36.9427 169.3 36.2427 169.6 35.4427C168.6 35.3427 167.9 35.7427 167.4 36.4427C166.5 37.7427 166.2 39.1427 166 40.7427ZM123.3 36.5427C121.4 38.0427 120.7 39.1427 120.8 40.3427C122.9 40.3427 124.3 38.2427 123.3 36.5427ZM12 46.9427C12.4 46.9427 12.6 46.9427 13 46.8427C12.8 45.5427 13.4 44.5427 14.6 43.9427C12.8 42.1427 12.6 39.7427 12.4 37.5427C12.2 35.1427 11.9 32.7427 11.2 30.4427C11 29.7427 10.9 28.9427 10.9 28.2427C10.9 27.8427 11 27.3427 11.2 26.9427C11.5 26.3427 11.9 25.6427 12.6 25.5427C13.6 25.4427 14.6 25.7427 15.1 26.7427C15.5 27.5427 15.7 28.3427 15.8 29.1427C16.3 32.6427 16.7 36.0427 16.7 39.6427C16.7 40.6427 16.4 41.5427 16.2 42.5427C16.1 43.0427 16.3 43.0427 16.7 43.0427C16.9 43.0427 17.1 42.9427 17.3 42.8427C17.7 42.7427 18.2 42.5427 18.6 42.4427C18.7 42.4427 18.8 42.3427 18.9 42.3427C20.1 41.5427 21.4 41.1427 22.7 40.8427C22.8 40.8427 23 40.7427 23.1 40.7427C24.4 39.5427 26 38.9427 27.5 38.2427C28.6 37.7427 29.7 37.2427 30.7 36.6427C31.4 36.2427 32 35.6427 32.5 34.9427C33.6 33.5427 33.5 32.0427 32.3 30.6427C31.1 29.2427 29.8 28.1427 28.3 27.2427C22.9 23.8427 17.1 22.9427 10.9 24.5427C9.6 24.8427 8.2 25.1427 6.9 25.5427C5.9 25.8427 4.9 26.4427 3.9 26.9427C3.2 27.3427 2.5 27.7427 1.7 27.7427C0.9 27.7427 0.6 27.5427 0.4 26.8427C0.2 25.8427 0.1 24.8427 0 23.8427C0 23.7427 0.1 23.5427 0.2 23.4427C3.1 21.4427 6 19.4427 9.5 18.6427C17.3 16.8427 24.4 18.2427 30.9 23.0427C33.6 25.0427 35.9 27.4427 38.2 29.9427C38.6 30.9427 39.2 32.0427 39.3 33.0427C39.8 36.9427 38 39.7427 34.9 41.9427C32.5 43.7427 29.7 44.8427 26.9 45.8427C23.9 46.9427 21 47.9427 18 48.9427C17.8 49.0427 17.5 49.0427 17.2 48.9427C15.9 48.7427 14.6 48.4427 13.4 48.9427C13.3 48.9427 13.1 48.9427 13 48.8427C12.7 48.5427 12.2 48.3427 12 48.0427C12 47.7427 12.1 47.3427 12 46.9427ZM41.6 31.5427C41.6 31.1427 41.7 30.7427 41.7 30.2427C41.6 29.5427 42 29.2427 42.6 28.9427C43.7 28.4427 44.8 28.5427 45.8 28.9427C45.9 28.9427 46 29.1427 46.1 29.3427C47 30.3427 46.9 31.7427 47.1 32.9427C47.4 35.9427 47.8 38.8427 48.2 41.8427C48.4 43.1427 48.5 44.4427 48.6 45.8427C48.6 46.0427 48.5 46.3427 48.3 46.5427C47.7 47.1427 46.9 47.5427 46 47.6427C45.5 47.6427 45.2 47.5427 44.9 47.2427C43.9 46.1427 43.5 44.7427 43.3 43.2427C43 41.3427 42.9 39.4427 42.7 37.6427C42.7 37.4427 42.7 37.2427 42.6 37.1427C42.1 36.1427 41.9 35.0427 41.8 33.8427C41.6 33.1427 41.7 32.3427 41.6 31.5427ZM46.2 12.0427C46.2 13.9427 45.3 15.2427 43.6 15.6427C42.4 15.9427 41.4 15.4427 40.6 14.6427C38.9 12.8427 38.6 9.34274 40.1 7.34274C40.1 7.24274 40.4 7.04274 40.7 7.04274C43.7 6.54274 46.2 8.84274 46.2 12.0427ZM192.9 53.6427C195 53.6427 196.4 54.9427 196.4 57.0427C196.4 59.0427 195 60.3427 192.9 60.3427C190.8 60.3427 189.4 58.9427 189.4 57.0427C189.4 54.9427 190.8 53.6427 192.9 53.6427ZM194.8 56.9427C194.8 55.6427 194.1 54.8427 192.9 54.8427C191.7 54.8427 191 55.6427 191 56.9427C191 58.2427 191.7 59.0427 192.9 59.0427C194.1 59.0427 194.8 58.2427 194.8 56.9427ZM132.9 58.0427H134.4C134.7 59.1427 136.1 59.5427 137 58.9427C137.5 58.6427 137.5 58.1427 136.9 57.8427C136.5 57.6427 136 57.5427 135.6 57.4427C135.1 57.3427 134.6 57.1427 134.1 56.9427C132.9 56.4427 132.8 54.9427 133.8 54.1427C134.8 53.3427 136.9 53.3427 137.9 54.0427C138.4 54.4427 138.7 54.8427 138.7 55.5427H137.3C136.8 54.7427 136.3 54.4427 135.4 54.6427C135.2 54.7427 134.9 54.9427 134.8 55.2427C134.8 55.3427 135.1 55.7427 135.3 55.7427L137.4 56.3427C138.1 56.5427 138.6 56.8427 138.8 57.5427C139.1 58.3427 138.7 59.2427 137.9 59.7427C136.6 60.3427 135.3 60.3427 134 59.7427C133.3 59.5427 132.9 58.9427 132.9 58.0427ZM145.2 53.7427H146.8V56.0427C146.8 56.7427 146.8 57.4427 146.7 58.2427C146.6 59.2427 146 59.8427 145.1 60.0427C144.1 60.3427 143.2 60.3427 142.2 60.0427C141.4 59.7427 140.8 59.1427 140.7 58.3427C140.6 56.8427 140.7 55.3427 140.7 53.8427H142.3V57.8427C142.3 58.7427 142.8 59.0427 143.8 59.0427C144.7 59.0427 145.1 58.6427 145.1 57.7427V54.1427C145.2 54.0427 145.2 53.9427 145.2 53.7427ZM186.2 57.6427H187.6C187.7 58.9427 186.5 60.1427 184.8 60.2427C182.8 60.3427 181.3 59.1427 181.1 57.1427C180.9 55.3427 182.2 53.7427 184.1 53.6427C186.1 53.4427 187.5 54.3427 187.7 55.9427H186.4C186.3 55.9427 186.2 55.7427 186.1 55.6427C185.5 54.7427 184.2 54.5427 183.4 55.2427C182.6 56.0427 182.6 57.7427 183.4 58.5427C184.3 59.4427 185.6 59.0427 186.2 57.6427ZM158.3 57.9427V60.1427H156.7V53.8427C156.8 53.8427 156.8 53.7427 156.9 53.7427H160.3C161.9 53.8427 162.7 55.0427 162.3 56.3427C162.1 57.1427 161.5 57.6427 160.7 57.7427C159.9 57.8427 159.1 57.8427 158.3 57.9427ZM158.3 54.9427V56.7427H160C160.5 56.7427 160.8 56.3427 160.8 55.8427C160.8 55.3427 160.4 55.0427 159.9 55.0427C159.4 54.9427 158.9 54.9427 158.3 54.9427ZM150.7 57.9427V60.1427H149.1V53.8427C150.4 53.8427 151.7 53.7427 153 53.8427C154.2 53.9427 154.8 54.7427 154.8 55.9427C154.8 56.9427 154.1 57.6427 153 57.8427C152.2 57.8427 151.5 57.8427 150.7 57.9427ZM150.8 56.7427C151.4 56.7427 152 56.7427 152.5 56.6427C153 56.5427 153.3 56.2427 153.2 55.7427C153.2 55.2427 152.9 54.9427 152.4 54.9427H150.7C150.8 55.5427 150.8 56.1427 150.8 56.7427ZM169.3 53.8427H169.5C171.1 53.7427 171.1 53.7427 171.9 55.0427C172.2 55.4427 172.4 55.8427 172.7 56.2427C173.2 55.5427 173.6 54.9427 174 54.2427C174.2 53.8427 174.5 53.7427 174.9 53.7427H176.1C176 53.9427 175.9 54.0427 175.8 54.2427C175.1 55.2427 174.5 56.1427 173.8 57.1427C173.5 57.5427 173.4 57.9427 173.4 58.4427V60.1427H171.8V58.2427C171.8 57.9427 171.7 57.5427 171.5 57.2427C170.8 56.2427 170.1 55.1427 169.4 54.1427C169.4 54.0427 169.4 53.9427 169.3 53.8427ZM164.3 53.7427H165.8V58.8427H169.1L169.2 58.9427C169.3 60.0427 169.3 60.0427 168.2 60.0427H164.2C164.3 58.0427 164.3 55.9427 164.3 53.7427ZM199.9 58.7427V60.0427H198.3V58.7427H199.9Z" fill="black"/>
</svg>
