<svg width="124" height="18" viewBox="0 0 124 18" fill="none" xmlns="http://www.w3.org/2000/svg">
<path d="M6.60521 15.365C6.60521 13.8703 6.56976 13.1272 6.49844 13.1272C6.43971 13.1272 6.25662 13.197 6.09156 13.2824L5.79144 13.4376V16.5857H2.53637V15.8618C2.53637 15.221 2.51593 15.1436 2.35835 15.1882C2.26045 15.2159 2.11533 15.2556 2.03588 15.2764C1.93861 15.3019 1.58361 14.7493 0.949132 13.585C0.430862 12.6339 0.00379145 11.8029 8.1447e-05 11.7385C-0.00361855 11.674 0.119213 11.5768 0.273073 11.5225C0.426923 11.4682 1.02199 11.2054 1.59544 10.9385L2.63809 10.4532V0.0051651H5.79144V1.97226C5.79144 3.05416 5.82154 5.04118 5.85832 6.38786L5.9252 8.83634L6.26521 8.67422L6.60522 8.51208V0.818932H9.8603V3.81971C9.8603 5.47014 9.8862 6.82049 9.91785 6.82049C9.9495 6.82049 10.0639 6.77309 10.1722 6.71519C10.3605 6.6144 10.3689 6.46834 10.3689 3.30494V0L11.971 0.0279999L13.5731 0.0559998L13.6004 2.47188C13.6185 4.07055 13.6637 4.88776 13.7342 4.88776C13.7928 4.88776 13.9293 4.84036 14.0376 4.78246C14.2233 4.68306 14.2343 4.54659 14.2343 2.34115V0.00514221H17.4894V1.4801C17.4894 2.36106 17.529 2.95506 17.5877 2.95506C17.6417 2.95506 17.8482 2.87766 18.0464 2.78315C18.2685 2.67724 18.4408 2.64795 18.4952 2.70685C18.6008 2.82124 20.1341 6.08051 20.1341 6.19061C20.1341 6.23271 19.5391 6.56197 18.8118 6.92219C18.0845 7.2824 17.4798 7.62431 17.468 7.68197C17.4563 7.73967 17.4448 9.82379 17.4426 12.3134L17.4385 16.84L15.8364 16.868L14.2343 16.896V13.0789C14.2343 10.9794 14.2091 9.26174 14.1784 9.26174C14.1476 9.26174 13.9874 9.33155 13.8223 9.41694L13.5222 9.57212V13.1637C13.5222 15.139 13.5033 16.7743 13.4801 16.7976C13.457 16.8209 12.7246 16.8263 11.8526 16.8096L10.2672 16.7792V13.9832C10.2672 11.2188 10.2649 11.1885 10.0637 11.2962C9.86711 11.4014 9.86027 11.5092 9.86027 14.504V17.6029H6.60519L6.60521 15.365ZM24.6823 17.0799C22.4265 16.6475 21.1968 14.8112 21.3884 12.1608C21.4207 11.7132 21.812 9.05831 22.2579 6.26098C22.7039 3.46365 23.1069 0.923158 23.1536 0.615448L23.2384 0.0559845L25.5008 0.0285797C27.732 0.00157971 27.7632 0.00408523 27.7632 0.212425C27.7632 0.328585 27.3742 2.87669 26.8986 5.87487C26.4231 8.87305 26.034 11.565 26.034 11.8569C26.034 12.6166 26.2931 12.9237 26.9342 12.9237C27.5038 12.9237 27.798 12.7417 28.0606 12.227C28.2603 11.8354 28.3365 11.4062 29.4438 4.42997C29.8078 2.13615 30.1267 0.201689 30.1524 0.131149C30.1891 0.0301293 31.1219 0.0085442 34.5465 0.0294342L38.8939 0.0559311L39.8837 4.98942C40.428 7.70284 40.8761 9.96485 40.8793 10.0161C40.8826 10.0674 40.9049 10.0897 40.929 10.0657C40.953 10.0417 41.0008 9.40469 41.0352 8.65012C41.1428 6.29107 41.296 4.81343 41.6835 2.39556L42.0584 0.0559692H44.2438C45.6406 0.0559692 46.4249 0.0926696 46.4174 0.1577C46.411 0.2136 45.8162 4.00149 45.0956 8.57513L43.7854 16.8908H39.3739L39.2681 16.3568C39.2099 16.0631 38.8132 13.9689 38.3865 11.7031C37.9599 9.43722 37.5847 7.51468 37.5527 7.43076C37.5208 7.34686 37.4168 8.1708 37.3215 9.26176C37.2262 10.3527 36.9491 12.5155 36.7057 14.0681L36.2631 16.8908H31.8647L32.0968 15.4413C32.2244 14.6441 32.3554 13.8316 32.3878 13.6358C32.4377 13.3344 32.3878 13.389 32.0631 13.9908C31.4794 15.0729 30.5514 15.9966 29.5544 16.488C29.1007 16.7116 28.4092 16.9616 28.0175 17.0435C27.2357 17.2071 25.4477 17.2266 24.6823 17.0799ZM44.3846 16.7128C44.4388 16.4461 44.6891 14.8716 46.2236 5.14205C46.5942 2.79229 46.9307 0.686665 46.9715 0.462875L47.0457 0.0559845L48.9244 0.0260849C52.083 -0.0242151 53.5758 0.248751 54.9752 1.13256C56.1174 1.85394 56.8843 2.95219 57.2566 4.39967C57.3616 4.80798 57.4709 5.0734 57.4995 4.98948C57.5281 4.90558 57.7005 3.85274 57.8828 2.64989C58.0651 1.44703 58.2507 0.359889 58.2953 0.234009L58.3763 0.00513458H66.7224L66.7164 0.284874C66.7134 0.438724 66.5865 1.34277 66.4348 2.29386L66.1591 4.02312L64.2042 4.05073C62.2765 4.07793 62.2486 4.08152 62.1968 4.30503C62.0675 4.86379 61.8737 6.31205 61.9219 6.36022C61.9512 6.38952 62.7507 6.41352 63.6984 6.41352C65.0345 6.41352 65.4109 6.44212 65.3741 6.54067C65.3479 6.61057 65.1968 7.50321 65.0383 8.52424L64.7501 10.3807H61.2385L61.1843 10.7112C61.1545 10.8931 61.0823 11.3394 61.0238 11.703C60.9653 12.0667 60.8924 12.4901 60.8618 12.644L60.8062 12.9237H62.747C64.528 12.9237 64.6877 12.9384 64.6868 13.1017C64.6858 13.3009 64.2112 16.4065 64.1273 16.7637L64.0736 16.9925H59.8541C57.4464 16.9925 55.6346 16.9535 55.6346 16.9017C55.6346 16.8518 55.7946 15.8104 55.9901 14.5876C56.1856 13.3647 56.3458 12.3006 56.3461 12.2228C56.3464 12.145 56.2037 12.3509 56.029 12.6805C55.2353 14.1777 54.0412 15.3545 52.6384 16.0221C52.1324 16.2629 51.4437 16.5329 51.108 16.6222C50.232 16.8552 48.4479 16.9907 46.2428 16.9917L44.3274 16.9926L44.3846 16.7128ZM50.4979 12.6322C51.8652 12.0095 52.8584 9.46172 52.7635 6.82046C52.7174 5.53821 52.5386 5.00575 52.0163 4.59487C51.7454 4.38181 51.0974 4.20356 50.9887 4.31222C50.9294 4.37142 49.6408 12.3083 49.6359 12.644C49.6325 12.8777 49.969 12.8732 50.4979 12.6322ZM64.688 16.9651C64.688 16.95 65.0775 14.4897 65.5534 11.4976C66.0294 8.50557 66.6281 4.73118 66.884 3.11008C67.1398 1.48897 67.3711 0.12718 67.3979 0.0838699C67.4499 -0.000230066 75.3009 -0.0288586 75.3845 0.0547714C75.4118 0.0820714 75.2932 0.986124 75.1209 2.06377L74.8077 4.02311L73.0626 4.05091L71.3175 4.07871L71.2016 4.81384C71.1378 5.21815 71.0483 5.74178 71.0025 5.97746C70.9568 6.21314 70.9439 6.43055 70.974 6.46062C71.0041 6.49072 71.7306 6.51533 72.5884 6.51533C73.8862 6.51533 74.1481 6.54022 74.1481 6.66346C74.1481 6.82975 73.6681 9.89785 73.5865 10.2536C73.5347 10.4792 73.5108 10.4824 71.9083 10.4824C71.0142 10.4824 70.2827 10.5024 70.2827 10.5268C70.2827 10.5511 70.0539 12.0005 69.7741 13.7476C69.4944 15.4948 69.2655 16.9396 69.2655 16.9584C69.2655 16.9772 68.2356 16.9926 66.9768 16.9926C65.718 16.9926 64.688 16.9802 64.688 16.9651ZM73.4208 16.9433C73.3929 16.9154 73.4535 16.3772 73.5555 15.7473C73.7658 14.4495 75.2173 5.29979 75.714 2.14126L76.042 0.0559692L80.2828 0.0294724C82.8857 0.0131724 84.5237 0.039871 84.5237 0.098671C84.5237 0.151371 84.3864 1.04019 84.2185 2.07386C84.0507 3.10753 83.9134 3.98043 83.9134 4.01362C83.9134 4.04682 83.0296 4.07392 81.9495 4.07392H79.9857L79.8123 5.16743C79.717 5.76885 79.6395 6.29527 79.6401 6.33723C79.6406 6.37923 80.4192 6.41352 81.3703 6.41352C82.4027 6.41352 83.0996 6.45273 83.0996 6.51083C83.0996 6.62847 82.6119 9.70711 82.5313 10.0986L82.4742 10.3759L80.7285 10.4037L78.9828 10.4315L78.7888 11.6291C78.6821 12.2878 78.6137 12.8457 78.6368 12.8688C78.66 12.8919 79.5534 12.9252 80.6223 12.9427L82.5656 12.9745L85.1468 6.51521L87.728 0.0559082L89.0503 0.0233078C89.7776 0.0054078 91.0213 0.0213142 91.8141 0.0589142L93.2555 0.127113L93.3107 0.600121C93.341 0.860271 93.3965 1.75975 93.4339 2.59895C93.4746 3.51156 93.534 4.043 93.5817 3.92132C93.6256 3.80943 93.7913 2.89394 93.9498 1.8869L94.2381 0.0559082L103.088 0.0927124C107.955 0.112912 111.947 0.137411 111.958 0.147011C111.969 0.157011 111.844 1.00978 111.679 2.04292C111.515 3.07606 111.38 3.95567 111.379 3.99763C111.379 4.03963 110.491 4.07394 109.407 4.07394H107.437L107.271 5.13555C107.18 5.71944 107.106 6.24585 107.106 6.30534C107.106 6.37754 107.681 6.41352 108.835 6.41352C109.786 6.41352 110.564 6.44192 110.564 6.47652C110.564 6.57192 110.06 9.7808 109.996 10.0985L109.939 10.3759L108.192 10.4037L106.445 10.4315L106.253 11.6298C106.147 12.2889 106.094 12.861 106.134 12.9013C106.174 12.9416 107.052 12.9888 108.085 13.0063C109.79 13.0351 109.959 13.054 109.917 13.2097C109.891 13.3041 109.745 14.1939 109.591 15.1869L109.311 16.9925H100.795L100.846 16.7636C100.874 16.6377 101.103 15.2302 101.355 13.6357C101.606 12.0412 102.042 9.29975 102.323 7.54356C102.604 5.78737 102.834 4.31114 102.834 4.26305C102.834 4.11632 100.699 4.15506 100.644 4.30276C100.618 4.37266 100.417 5.57427 100.197 6.97294C98.9621 14.8247 98.6537 16.7506 98.6125 16.8664C98.5766 16.9674 97.606 16.989 94.0272 16.9681L89.4876 16.9416L89.4724 15.8735L89.4572 14.8054H86.4277L86.0606 15.8735L85.6935 16.9416L79.5826 16.9678C76.2215 16.9822 73.4487 16.9709 73.4208 16.9433ZM95.1401 10.0755C95.627 6.97048 96.0238 4.37278 96.0218 4.30285C96.0188 4.20805 95.6932 4.17568 94.7421 4.17568H93.4659L93.5171 4.50628C93.5452 4.68811 93.5938 5.43194 93.625 6.15925C93.6791 7.42132 93.7302 8.39171 93.8313 10.0755C93.8565 10.4951 93.9075 11.5022 93.9446 12.3134C93.9817 13.1246 94.0251 13.857 94.041 13.9409C94.0569 14.0248 94.0734 14.5032 94.0777 15.0039C94.0817 15.5046 94.1236 15.8708 94.1702 15.8177C94.2168 15.7645 94.6532 13.1806 95.1401 10.0755ZM89.5445 9.69407C89.5789 8.86886 89.6295 7.34685 89.657 6.31184L89.707 4.42999L89.502 5.09118C89.3892 5.45483 89.0927 6.4161 88.8432 7.22732C88.5936 8.03855 88.2111 9.26302 87.9932 9.94836L87.597 11.1945H89.482L89.5445 9.69407ZM109.954 16.8115C109.954 16.6168 112.458 0.722465 112.551 0.327255L112.607 0.08992L115.375 0.134018C117.605 0.169518 118.261 0.212422 118.753 0.355042C120.872 0.969352 122.284 2.38194 122.826 4.42999C123.053 5.28677 123.124 6.90656 122.983 7.99023C122.479 11.841 120.84 14.7011 118.417 15.9574C116.807 16.7923 115.608 16.9926 112.22 16.9926C110.115 16.9926 109.954 16.9797 109.954 16.8115ZM116.129 12.6008C117.385 12.0153 118.3 9.73977 118.331 7.1256C118.344 6.05404 118.322 5.90692 118.073 5.37359C117.894 4.99268 117.685 4.72127 117.467 4.58865C117.146 4.39326 116.589 4.22044 116.516 4.29342C116.486 4.32322 115.142 12.7188 115.142 12.8748C115.142 12.9613 115.671 12.8146 116.129 12.6008Z" fill="black"/>
</svg>
