<svg width="115" height="30" viewBox="0 0 115 30" fill="none" xmlns="http://www.w3.org/2000/svg">
<mask id="mask0_25_959" style="mask-type:luminance" maskUnits="userSpaceOnUse" x="0" y="0" width="23" height="30">
<path fill-rule="evenodd" clip-rule="evenodd" d="M0 0H22.41V30H0V0Z" fill="white"/>
</mask>
<g mask="url(#mask0_25_959)">
<path d="M14.6201 0C7.63012 0 4.34012 3.88 3.36012 8.49C1.08012 19.29 14.2301 15.81 12.9101 22.04C12.5601 23.69 11.4901 25.47 9.11012 25.47C6.73012 25.47 6.51012 23.81 6.97012 21.64L7.19012 20.62H0.630118L0.230118 22.48C-1.04988 28.51 3.20012 30 8.13012 30C14.3601 30 18.5601 27.38 19.9401 20.82C22.1001 10.63 9.05012 13.66 10.3301 7.64C10.7801 5.53 12.0001 4.53 13.6901 4.53C14.7001 4.53 15.2901 4.85 15.5401 5.53C15.8101 6.18 15.7601 7.19 15.4601 8.57H22.0101L22.1601 7.88C23.1001 3.43 21.4001 0 14.6101 0" fill="black"/>
</g>
<path d="M40.94 6.07006L42.1 0.560059H23.18L22.02 6.07006H28.08L23.12 29.4301H29.92L34.88 6.07006H40.94Z" fill="black"/>
<path d="M71.81 5.67006L71.62 5.64006C71.56 5.63006 71.51 5.63006 71.45 5.62006C71.37 5.60006 71.28 5.62006 71.2 5.62006C71.09 5.65006 70.93 5.73006 70.87 5.83006C70.82 5.92006 70.86 6.08006 70.86 6.19006C70.86 6.30006 70.93 6.28006 70.93 6.28006L70.99 6.42006L71.06 6.65006L71.11 6.82006L71.16 6.99006V7.22006L71.17 7.35006V7.70006L71.14 7.96006V8.16006L71.08 8.41006L71.03 8.63006L70.92 8.88006H70.91C70.9 8.91006 70.85 9.07006 70.78 9.17006C70.71 9.26006 70.58 9.39006 70.58 9.39006L70.41 9.54006L70.17 9.72006L69.93 9.90006L69.68 10.0401L69.4 10.2201L69.11 10.3801L68.69 10.5801L68.57 10.6701L68.42 10.8001L68.38 11.0601L68.33 11.2801L68.42 11.3301L68.49 11.4001L68.55 11.4501L68.7 11.4301L68.75 11.3701L68.8 11.4501V11.4001L68.86 11.4901H68.93L69.1 11.4601L69.23 11.3901L69.33 11.3201H69.4L69.51 11.4601L69.62 11.5901L69.6 11.6201L69.5 11.5901H69.33L69.2 11.6401L69.11 11.6701L68.97 11.7101L68.95 11.7801L68.98 11.8101L69.06 11.8601L69.19 11.9501L69.26 11.9901H69.38L69.63 12.0101L69.74 11.9901H69.85L69.96 11.9001L70.1 11.9201L70.2 12.0001V12.1401L70.18 12.1101L70.04 12.0801L69.9 12.1101L68.92 12.1701L68.7 12.1201L68.54 12.1001L68.49 12.0801L68.39 12.0001L68.36 12.0201L68.31 11.9701L68.37 11.9101H68.53L68.4 11.7701L68.27 11.7201L68.12 11.6801L67.96 11.7001L67.93 11.7701H67.89L67.81 11.6401V11.5301L67.88 11.5101L67.98 11.4801V11.3801L67.89 11.2901L67.83 11.2501H67.72L67.57 11.1701L67.4 11.0801L67.32 11.0001V10.9501H67.1L66.82 10.9801H66.44L66.12 10.9301L65.7 10.9601L65.26 11.0201L64.89 11.0401H64.67L64.44 11.1001L64.27 11.1601L64.19 11.2001L64.03 11.2801L63.88 11.3201H63.77L63.62 11.3701L63.42 11.4701L63.34 11.5201L63.11 11.6101L62.75 11.7801L62.44 11.9401L62.22 11.9801H61.99L62.29 11.7401L62.74 11.3901L62.99 11.2101V11.1301L62.77 10.9901C62.71 10.9501 62.65 10.8801 62.6 10.8401C62.35 10.6001 62.58 10.3501 62.83 10.2601C63.01 10.2101 63.18 10.1901 63.37 10.1701C63.63 10.1401 63.9 10.0901 64.16 10.0101L64.59 9.84006L64.78 9.71006L65.06 9.46006L65.31 9.29006L65.61 9.03006L65.76 8.92006L65.95 8.74006L66.03 8.70006L66.17 8.60006L66.34 8.44006L66.58 8.20006C66.58 8.20006 66.68 8.14006 66.71 8.12006C66.88 7.99006 67.05 7.89006 67.23 7.80006C67.4 7.70006 67.57 7.61006 67.75 7.53006C67.82 7.50006 67.86 7.48006 67.91 7.47006C67.94 7.44006 68.02 7.39006 68.08 7.39006L68.18 7.32006L68.32 7.25006L68.45 7.15006L68.56 7.08006L68.71 6.99006L68.83 6.91006L68.9 6.87006L68.98 6.80006L69.14 6.67006L69.24 6.52006L69.31 6.36006L69.35 6.21006C69.39 6.12006 69.42 6.02006 69.45 5.93006C69.48 5.80006 69.49 5.71006 69.52 5.61006C69.57 5.43006 69.61 5.26006 69.74 5.10006C69.8 5.03006 69.86 4.95006 69.97 4.89006V4.87006H69.99C70.04 4.81006 70.11 4.76006 70.18 4.73006C70.41 4.60006 70.77 4.61006 70.97 4.78006C71.05 4.85006 71.1 4.91006 71.18 4.98006C71.18 4.98006 71.31 5.15006 71.32 5.16006C71.34 5.16006 71.4 5.16006 71.43 5.20006C71.49 5.25006 71.5 5.32006 71.5 5.32006L71.93 5.71006H71.79L71.81 5.67006ZM48.27 18.6701H43.33L48.45 5.82006H48.54L48.27 18.6701ZM70.63 0.560059H60.12L54.91 25.1401L54 0.560059H45.51L32.03 29.4301H39.06L41.24 23.9401H48.15L48.03 29.4301H60.78L63.18 18.1601H66.17C72.96 18.1601 76.2 14.5201 77.3 9.34006C78.07 5.74006 77.79 0.570059 70.63 0.570059V0.560059Z" fill="black"/>
<path d="M86.92 0.560059H80.13L74.01 29.4301H90.62L91.79 23.9401H81.96L86.92 0.560059Z" fill="black"/>
<path d="M113.11 6.07006L114.27 0.560059H97.58L91.45 29.4301H108.59L109.76 23.9401H99.41L100.81 17.3401H110.1L111.27 11.8501H101.97L103.2 6.07006H113.11Z" fill="black"/>
</svg>
