<svg width="147" height="34" viewBox="0 0 147 34" fill="none" xmlns="http://www.w3.org/2000/svg">
<path d="M88.1266 20.484H70.63C70.8704 21.9546 71.5561 23.1158 72.6337 23.9973C73.7422 24.8643 75.1519 25.2934 76.8428 25.3049C78.8711 25.3015 80.9962 24.6634 81.9895 23.2458H87.7399C86.7596 25.8658 84.169 28.024 82.5768 28.7592C80.991 29.5125 79.0899 29.8743 76.9019 29.8743C73.5152 29.871 70.747 28.8465 68.6118 26.8067C66.4818 24.7506 65.4127 22.1897 65.4142 19.1136C65.4142 15.9505 66.4867 13.3272 68.6085 11.2463C70.7355 9.16417 73.4049 8.1196 76.6125 8.1196C80.0304 8.1196 82.8138 9.16417 84.9372 11.2433C87.082 13.3205 88.1563 16.069 88.1563 19.497L88.1266 20.484ZM82.7332 16.3933C82.3729 15.2648 81.6771 14.3354 80.6014 13.6381C79.5471 12.9175 78.2986 12.559 76.8971 12.5639C75.3789 12.5672 74.0416 12.9587 72.9001 13.7615C72.1698 14.2581 71.4937 15.1367 70.8949 16.3933H82.7332ZM119.152 16.7154C119.093 22.9546 116.765 26.8019 115.285 28.8613C113.795 30.9338 112.166 32.141 111.824 32.3762C111.268 32.758 111.742 33.5507 112.279 33.4159C116.343 32.3992 120.784 32.0589 120.784 32.0589C120.784 32.0589 124.402 32.1377 125.787 27.6719C126.689 24.767 128.092 20.5579 128.092 16.7154C128.092 12.8733 126.687 8.6638 125.787 5.75929C124.402 1.29349 120.784 1.37224 120.784 1.37224C120.784 1.37224 116.343 1.03197 112.279 0.0152614C111.742 -0.119582 111.268 0.673132 111.824 1.055C112.166 1.29014 113.795 2.49556 115.285 4.56984C116.765 6.63075 119.093 10.4766 119.152 16.7154ZM139.423 16.7154C139.482 22.9546 141.81 26.8019 143.29 28.8613C144.78 30.9338 146.409 32.141 146.751 32.3762C147.307 32.758 146.833 33.5507 146.295 33.4159C142.233 32.3992 137.791 32.0589 137.791 32.0589C137.791 32.0589 134.173 32.1377 132.788 27.6719C131.886 24.767 130.483 20.5579 130.483 16.7154C130.483 12.8733 131.888 8.6638 132.788 5.75929C134.173 1.29349 137.791 1.37224 137.791 1.37224C137.791 1.37224 142.233 1.03197 146.295 0.0152614C146.833 -0.119582 147.307 0.673132 146.751 1.055C146.409 1.29014 144.78 2.49556 143.29 4.56984C141.81 6.63075 139.484 10.4766 139.423 16.7154ZM32.9252 29.8743C30.4924 29.8743 28.5266 29.3595 27.0366 28.3364C25.5444 27.3201 24.4887 25.8855 23.8751 24.0534C23.4508 22.7934 23.2205 20.4739 23.2268 17.1318V8.61291H28.7224V18.5545C28.7094 20.5166 28.849 21.8903 29.1451 22.6567C29.4412 23.4249 29.9003 24.0155 30.55 24.4416C31.1863 24.8543 31.9943 25.0831 32.9252 25.0861C33.8561 25.0831 34.6636 24.8543 35.3003 24.4416C35.95 24.0155 36.4088 23.4249 36.7049 22.6567C37.0009 21.8903 37.141 20.5166 37.1276 18.5545V8.61291H42.6231V17.1318C42.6298 20.4739 42.3995 22.7934 41.9753 24.0534C41.3616 25.884 40.3055 27.3201 38.8137 28.3364C37.3234 29.3595 35.3579 29.8743 32.9252 29.8743ZM92.6845 8.61626H86.7072L94.8227 27.6028L92.0694 33.4322H98.147L109.872 8.61626H103.794L97.9612 20.9609L92.6845 8.61626ZM5.497 11.9142L5.49366 1.34921H0V29.5586H5.49551L5.497 17.1496H15.8662V29.5586H21.3617V1.34921H15.8662V11.9142H5.497ZM58.0502 1.34921H63.5457V29.5586H58.0502V1.34921ZM49.9856 18.7685V29.5504H44.4901V8.60957H49.2568V10.7529C50.6881 7.94204 54.1405 7.54717 56.1832 8.78565V13.5724C55.6702 13.299 53.879 12.4357 52.0023 13.5869C50.4084 14.5657 49.9856 16.3718 49.9856 18.7685Z" fill="black"/>
</svg>
