<svg width="180" height="31" viewBox="0 0 180 31" fill="none" xmlns="http://www.w3.org/2000/svg">
<path d="M158.8 0.400002H143.6V10.5C143.6 11.2 144.1 11.3 144.7 11.3C145.6 11.3 146.4 11.2 147.3 11.3C150.4 11.6 152.1 13.7 151.9 16.8C151.7 19.6 150.8 22.2 149.1 24.5C147.2 27.1 144.5 28.1 141.3 27.5C141.1 27.5 140.9 27.4 140.7 27.4V29.6H152.1C154.9 29.6 157.1 28.3 158 25.6C158.5 24.1 158.8 22.4 158.8 20.8C158.9 14.3 158.8 7.8 158.8 1.3V0.400002ZM179.9 5C179.9 1.8 178.1 0.299995 174.9 0.299995H160.9V11.7C162.8 11.4 164.6 11.2 166.4 11C169 10.7 171.7 10.6 174.2 11.9C175.8 12.7 176.8 14.1 177 15.9C177.1 17.4 177.2 18.9 177.1 20.4C177 23.7 175.8 25.3 172.6 26.2C169.8 27 167.1 26.5 164.4 25.5C163.2 25.1 162.1 24.5 160.9 24V29.7H176.2C176.9 29.7 177.7 29.5 178.4 29.4C179.4 29.2 179.9 28.6 179.9 27.6C180 20 180 12.5 179.9 5ZM53.7 0.0999985C49.9 -1.52737e-06 46.1 -1.52737e-06 42.3 0.0999985C38.9 0.0999985 36.1 1.7 33.9 4.3C29.6 9.6 28.9 18 32.3 23.9C34.6 28 38.1 30.1 42.8 30.1H53.6C57.8 30.1 61.1 28.2 63.3 24.7C66.9 19.1 66.7 10.5 62.8 5.1C60.6 2 57.6 0.199998 53.7 0.0999985ZM61.6 23.5C59.8 26.4 57.2 27.9 53.7 28C51.8 28.1 49.9 28 47.9 28H42.7C38.7 28 35.9 26.2 34 22.8C31.1 17.7 31.7 10.4 35.3 5.8C37.1 3.4 39.5 2.1 42.6 2.1H53.3C56.5 2.1 59 3.5 61 6.1C64.5 10.8 64.8 18.6 61.6 23.5ZM77 0.0999985C71.7 0.199998 67.9 4.1 67.9 9.4V20.3C67.9 26.2 71.7 30 77.7 30.1H95.8V28H77.3C74.2 28 71.6 26.3 70.5 23.5C69.7 21.3 70 18.9 70 16.5H85.8V14.4H69.9V9.7C70 4.8 72.8 2.1 77.7 2.1H95.7V0.0999985C95.4 0.0999985 95.3 0 95.1 0C89.1 0.1 83.1 -1.52737e-06 77 0.0999985ZM128.6 14C125.9 13.9 123.2 14 120.6 13.9C118.5 13.8 116.8 12.9 115.8 11C113.9 7.2 115.9 2.2 120.9 2.1H136V0.0999985C130.6 0.0999985 125.2 -1.52737e-06 119.9 0.0999985C116.2 0.199998 113.2 3.4 112.9 7.2C112.6 11.4 114.9 14.8 118.6 15.7C119.6 15.9 120.6 16 121.7 16C124.3 16.1 126.9 16 129.5 16.1C131.2 16.2 132.6 17.1 133.5 18.5C134.8 20.5 134.8 22.7 133.8 24.8C132.8 26.9 130.9 27.8 128.7 27.8H113.6V29.8C118.9 29.8 124.2 29.9 129.4 29.8C131.8 29.7 133.8 28.6 135.2 26.5C137 23.8 137.1 20.9 135.7 18C134.3 15.3 131.7 14.1 128.6 14ZM28.2 0.400002H26.2V2C26.2 6.5 26.3 10.9 26.3 15.4C26.3 18.4 25.7 21.3 23.8 23.7C21.4 26.7 18.2 27.9 14.6 28C10.5 28.1 6.5 28.1 2.4 28.1H0V30.1C5.2 30.1 10.3 30.3 15.4 30C19.3 29.8 22.8 28.2 25.3 25C27.6 22.1 28.3 18.7 28.3 15.1C28.3 10.4 28.2 5.8 28.2 1.1C28.3 0.899998 28.2 0.600002 28.2 0.400002ZM106.7 0.5C106.6 0.5 106.6 0.599997 106.4 0.699997V6.5C106.4 8.2 105.7 9.5 104.5 10.6C103.2 11.8 101.6 12.2 99.8 12.2H97.6V14.2C98.9 14.2 100.2 14.3 101.4 14.2C105.6 13.7 108.4 10.5 108.5 6.2V2.3C108.6 0.299995 108.6 0.3 106.7 0.5Z" fill="black"/>
<path d="M168.1 18.1C168.1 16.5 166.7 15.2 165.1 15.2C163.5 15.2 162.2 16.6 162.2 18.2C162.2 19.8 163.6 21.2 165.2 21.1C166.8 21.1 168.1 19.8 168.1 18.1Z" fill="black"/>
</svg>
