<svg width="148" height="29" viewBox="0 0 148 29" fill="none" xmlns="http://www.w3.org/2000/svg">
<path d="M29.1961 0V13.9484C29.1961 16.3753 28.5833 18.508 27.186 20.8614C26.2054 22.5038 24.6855 23.9992 22.1851 25.7151C19.4886 27.5537 16.0566 28.6078 14.7084 28.9755L14.5858 29L14.4632 28.9755C13.115 28.6078 9.68301 27.5537 6.98648 25.7151C4.51057 23.9992 2.96619 22.5038 2.01014 20.8859C0.612849 18.5325 0 16.3998 0 13.973V0.0245154H29.1961V0ZM14.9045 1.96112H14.2916C9.09468 1.98563 4.2164 2.37785 4.2164 2.37785C3.94675 2.37785 3.75063 2.59848 3.75063 2.89264V14.0465C3.75063 16.1547 4.2164 17.9932 5.24599 20.0524C5.95689 21.4742 7.10905 22.7735 8.94759 24.2688C10.9332 25.8377 13.4827 26.7447 14.4877 27.0634L14.5858 27.0879L14.6839 27.0634C15.6889 26.7447 18.2384 25.8377 20.2485 24.2198C22.0871 22.7244 23.2392 21.4252 23.9501 20.0034C24.9797 17.9687 25.4455 16.1057 25.4455 13.9975V2.86813C25.4455 2.59847 25.2249 2.35334 24.9797 2.35334C24.9797 2.35334 19.9053 1.9366 14.5858 1.9366L14.9045 1.96112ZM47.1648 5.95689C47.6306 5.95689 48.0719 6.00591 48.5131 6.07946C48.9298 6.153 49.3221 6.30008 49.6898 6.47168C50.4252 6.83939 50.989 7.35418 51.3812 7.96703C51.7735 8.6044 51.9451 9.3153 51.9451 10.1243C51.9451 10.5655 51.896 11.0068 51.7735 11.399C51.6754 11.7912 51.5038 12.1834 51.2832 12.5266C51.1361 12.7473 50.989 12.9434 50.7929 13.115C50.6703 13.2375 50.5478 13.3356 50.4252 13.4336C50.1065 13.6788 49.7388 13.8749 49.3221 14.022C49.6653 14.12 50.0085 14.2181 50.3271 14.3652C51.1361 14.7819 51.7489 15.3212 52.1657 16.0076C52.5824 16.694 52.7785 17.4539 52.7785 18.3364C52.7785 18.8267 52.7295 19.2925 52.6069 19.7337C52.4844 20.175 52.3128 20.5672 52.0676 20.9594C51.9205 21.1801 51.7489 21.4007 51.5283 21.6213C51.4058 21.7439 51.2832 21.8664 51.1361 21.9645C50.7439 22.2587 50.2781 22.5038 49.7388 22.6754C49.175 22.8715 48.5621 23.0186 47.9248 23.0921C47.7287 23.1166 47.5325 23.1167 47.3364 23.1412C47.1158 23.1657 46.8952 23.1657 46.6746 23.1657H39.2713V7.94252C39.1488 7.30516 38.7811 6.61876 38.5359 6.30008V5.88335H46.0127L47.1648 5.95689ZM76.1403 5.95689V23.2147H72.8064V7.99155C72.6839 7.35419 72.3162 6.66779 72.071 6.34911V5.93237H76.1403V5.95689ZM119.849 5.95689C125.046 5.95689 128.968 9.24176 128.968 14.5858C128.968 19.9298 125.046 23.2147 119.849 23.2147C114.627 23.2147 110.705 19.9298 110.705 14.5858C110.705 9.24176 114.627 5.95689 119.849 5.95689ZM54.8132 5.95689H63.0009C63.4666 5.95689 63.9079 6.00592 64.3491 6.10397C64.7659 6.20203 65.1581 6.34911 65.5258 6.54522C66.2612 6.96196 66.825 7.55029 67.2173 8.2612C67.6095 8.9721 67.7811 9.78107 67.7811 10.6881C67.7811 11.1784 67.732 11.6686 67.6095 12.1344C67.5114 12.5757 67.3398 13.0169 67.1192 13.4091C66.9721 13.6543 66.825 13.8749 66.6289 14.0955C66.5063 14.2181 66.4083 14.3407 66.2612 14.4632C65.918 14.7819 65.4768 15.0271 64.9865 15.1986L64.9375 15.2232L68.7371 21.1801C69.1293 21.7684 69.8157 22.5038 70.0364 22.8225V23.2392H65.967L61.1868 15.738H58.7844V23.2392H55.5241V8.01606C55.4015 7.37869 55.0338 6.69231 54.8132 6.37363V5.95689ZM110.68 5.95689V8.75148H110.288C109.994 8.57988 109.332 8.31023 108.744 8.21217H105.165V23.2147H101.978V8.21217H98.399C97.8107 8.28571 97.1243 8.57988 96.8546 8.75148H96.4624V5.95689H110.68ZM83.8622 5.95689L87.7109 11.8157L90.8732 7.59932L92.0989 5.95689H95.4573L89.3043 14.1936L93.8884 21.1801C94.3052 21.7684 94.9916 22.5038 95.2367 22.798V23.2147H91.3145L87.2206 16.9882L82.563 23.2147H79.2046L85.6517 14.5858L81.3128 7.99155C80.896 7.40321 80.2096 6.66779 79.9645 6.37363V5.95689H83.8622ZM134.925 6.22654L144.804 17.7726V8.23669C144.681 7.62384 144.314 6.93745 144.068 6.64328V6.22654H147.059V23.0921H145L134.214 10.492V23.0921H131.959V8.23669C131.836 7.62384 131.468 6.93745 131.223 6.64328V6.22654H134.925ZM46.3068 15.738H42.6298V21.1801H45.7921C45.9146 21.1801 46.0372 21.18 46.1598 21.1555C46.2823 21.1555 46.3804 21.131 46.503 21.131C46.8707 21.082 47.2139 21.0085 47.5325 20.8859C47.8512 20.7878 48.1209 20.6407 48.3415 20.4691C48.415 20.3956 48.4886 20.3466 48.5621 20.273C48.6847 20.1505 48.7828 20.0279 48.8563 19.9053C49.0034 19.6847 49.1014 19.4396 49.175 19.1944C49.2485 18.9248 49.273 18.6551 49.273 18.3855C49.273 17.8707 49.1505 17.4294 48.9053 17.0127C48.6602 16.6205 48.317 16.3018 47.8512 16.0566C47.6306 15.9341 47.3609 15.8605 47.1158 15.8115C46.8952 15.7625 46.601 15.738 46.3068 15.738ZM119.824 8.2612C116.883 8.2612 114.652 10.6881 114.652 14.6103C114.652 18.5325 116.858 20.9594 119.824 20.9594C122.766 20.9594 124.972 18.5325 124.972 14.6103C124.972 10.6881 122.766 8.2612 119.824 8.2612ZM61.5055 8.01606H58.7844V13.4091H60.9907C61.1133 13.4091 61.2358 13.4091 61.3584 13.3846C61.481 13.3846 61.579 13.3601 61.6771 13.3601C62.0448 13.3111 62.388 13.2375 62.7067 13.115C63.0254 13.0169 63.295 12.8698 63.4911 12.6982C63.5647 12.6247 63.6382 12.5757 63.7118 12.5021C63.8343 12.3795 63.9324 12.257 64.0059 12.1344C64.153 11.9138 64.2511 11.6932 64.3001 11.4235C64.3736 11.1784 64.3981 10.9087 64.3981 10.6145V10.3939C64.3736 9.97718 64.2511 9.60947 64.0549 9.26627C63.8098 8.87405 63.4666 8.55537 63.0254 8.33474C62.8047 8.21217 62.5596 8.13863 62.2899 8.0896C62.0693 8.04058 61.7997 8.01606 61.5055 8.01606ZM45.3753 8.01606H42.6298V13.4091H44.8605C44.9831 13.4091 45.1057 13.4091 45.2282 13.3846C45.3508 13.3846 45.4489 13.3601 45.5714 13.3601C45.9391 13.3111 46.2823 13.2375 46.601 13.115C46.9197 13.0169 47.1894 12.8698 47.41 12.6982C47.4835 12.6247 47.5571 12.5757 47.6306 12.5021C47.7532 12.3795 47.8512 12.257 47.9248 12.1344C48.0719 11.9138 48.1699 11.6932 48.2435 11.4235C48.317 11.1784 48.3415 10.9087 48.3415 10.6145C48.3415 10.0997 48.2189 9.65849 47.9738 9.26627C47.7287 8.87405 47.3855 8.55537 46.9197 8.33474C46.6991 8.21217 46.4294 8.13863 46.1843 8.0896C45.9391 8.04058 45.6695 8.01606 45.3753 8.01606Z" fill="black"/>
</svg>
