<svg width="350" height="25" viewBox="0 0 350 25" fill="none" xmlns="http://www.w3.org/2000/svg">
<path d="M6.3 11.6V1H9.6C13.6 1 15 3.6 15 6.1C15 9.5 12.9 11.7 8.5 11.7H6.3V11.6ZM11.1 12.2C16.5 11.8 19.3 9.5 19.3 6.2C19.3 3.1 17.2 0.3 10.8 0.3H0V1.1H2.3V23.9H0V24.7H9V23.9H6.3V12.3H6.4L15.8 24.6H21.8V23.8H20L11.1 12.2ZM35.7 14.4L39.4 4.1H39.5L43.1 14.4H35.7ZM42.1 0.2H39.7L31.2 23.9H29V24.7H35.8V23.9H32.2L35.4 14.9H43.3L46.4 23.9H43.7V24.7H51.9V23.9H50.4L42.1 0.2ZM73.3 23.8H67.8V1.1H71.5V0.3H61.5V1.1H63.8V23.9H61.5V24.7H79.5V14.9H78.7C76.5 23.4 75.8 23.8 73.3 23.8ZM97.5 1.4H101.3C105.2 1.4 106.8 3.6 106.8 7C106.8 11.3 105 12.3 101 12.3H97.5V1.4ZM101 23.9H97.5V12.8H102C108.1 12.8 111 10.3 111 6.7C111 3.1 107.8 0.3 102 0.3H91.3V1.1H93.6V23.8H91.3V24.6H100.9V23.9H101ZM143.5 24.7V23.8H141.2V1.3H143.5V0.3H134.8V1.3H137.1V11.7H127.4V1.3H129.8V0.3H121.1V1.3H123.3V23.8H121.1V24.7H129.8V23.8H127.4V12.4H137.1V23.8H134.8V24.7H143.5ZM195.2 14.8H194.4C192.1 23.3 191.4 23.8 189 23.8H183.5V1.1H187.2V0.3H177.2V1.1H179.5V23.9H177.2V24.7H195.2V14.8ZM210.8 14.4L214.5 4.1H214.6L218.2 14.4H210.8ZM217.3 0.2H214.9L206.3 23.9H204.2V24.7H211V23.9H207.4L210.6 14.9H218.5L221.6 23.9H218.9V24.7H227.1V23.9H225.7L217.3 0.2ZM250.1 1H253.4V18.4C253.4 22.1 250.9 24.3 247.3 24.3C244.9 24.3 242.4 22.9 242.4 18.6V1H245V0H236.1V0.8H238.4V17.7C238.4 22.5 241.1 24.9 247.2 24.9C251.6 24.9 254.5 22.3 254.5 18.3V1H256.8V0H250.1V1ZM273.3 11.6V1H276.6C280.6 1 282 3.6 282 6.1C282 9.5 279.9 11.7 275.5 11.7H273.3V11.6ZM278.2 12.2C283.6 11.8 286.4 9.5 286.4 6.2C286.4 3.1 284.3 0.3 277.9 0.3H267.1V1.1H269.4V23.9H267.1V24.7H276.1V23.9H273.2V12.3H273.3L282.7 24.6H288.7V23.8H287L278.2 12.2ZM310.4 23.8H303.9V12.3H306.8C308.7 12.3 309.5 13.4 310.3 17.1H311.1V6.6H310.3C309.6 10.4 308.6 11.4 306.8 11.4H303.9V1H311.3C313.1 1 313.7 1.5 315.7 8H316.5V0.3H297.6V1.1H299.9V23.9H297.6V24.7H316.9V15.6H316C313.8 22.8 313 23.8 310.4 23.8ZM346.2 1.3V17.9H346.1L335.1 0.3H328V1.3H330.5V23.8H328V24.7H334.6V23.8H331.5V1.9L346 24.7H347.1V1.3H349.6V0.3H343.2V1.3H346.2Z" fill="black"/>
</svg>
