<svg width="188" height="83" viewBox="0 0 188 83" fill="none" xmlns="http://www.w3.org/2000/svg">
<path fill-rule="evenodd" clip-rule="evenodd" d="M0 0L17.916 78.505C35.903 68.127 72.959 64.488 93.566 78.555C114.179 64.518 151.195 68.133 169.171 78.505L187.087 0H0Z" fill="black"/>
<path fill-rule="evenodd" clip-rule="evenodd" d="M23.24 19.1121V48.6171H43.894V41.6901H33.118V19.1121H23.24ZM75.372 19.1601H86.377L93.8 38.9791L100.967 19.1601H111.844L99.432 48.5691H87.913L75.372 19.1601ZM114.59 19.1321V48.5971H124.457V19.1321H114.59ZM60.572 18.6231C51.538 18.6231 45.131 20.3521 45.131 34.0571C45.131 45.3281 47.886 50.0041 60.956 50.0041C74.923 50.0041 75.18 43.4071 75.564 40.2691H65.697C65.697 42.7671 63.198 43.8551 60.635 43.8551C59.866 43.8551 55.189 44.4961 55.189 36.9381H75.563C75.691 35.8491 75.566 31.6831 75.499 31.0461C74.796 24.3871 74.155 18.5591 60.572 18.6231ZM150.633 18.6571C158.692 18.6571 163.809 21.6601 164.447 28.1771H154.215C154.215 26.7721 153.192 24.1521 150.248 24.1521C147.307 24.1521 145.707 25.1101 145.707 27.2821C145.707 29.5821 147.051 30.1571 148.074 30.4131C148.586 30.5411 154.726 31.4351 156.771 31.6911C158.294 31.8811 164.574 32.2021 164.447 38.5911C164.318 44.9811 160.353 48.9421 150.377 48.9421C140.398 48.9421 135.666 45.4921 135.666 39.8701H145.9C145.962 41.8501 147.05 43.3201 150.248 43.3201C153.447 43.3201 155.109 41.9181 155.109 39.7421C155.109 38.0801 153.638 37.1861 152.039 37.0581C150.988 36.9741 144.301 36.9301 141.103 35.5241C138.251 34.2711 134.984 32.3401 135.539 27.4731C136.178 21.8521 140.271 18.6571 150.633 18.6571ZM135.211 19.6251C135.234 21.8671 135.043 23.3401 132.031 25.0061C132.224 24.5711 132.816 23.6601 132.72 23.0481C132.213 23.2424 131.675 23.3414 131.132 23.3401C128.88 23.3401 127.056 21.6771 127.056 19.6261C127.056 17.5751 128.88 15.9121 131.132 15.9121C133.387 15.9111 135.211 17.5741 135.211 19.6251Z" fill="white"/>
<path fill-rule="evenodd" clip-rule="evenodd" d="M55.3789 30.719H65.9579C66.0219 26.68 64.4829 24.501 60.5719 24.501C57.0459 24.501 55.3789 26.745 55.3789 30.719ZM162.682 79.239C162.504 79.0568 162.291 78.9128 162.056 78.816C161.82 78.7192 161.567 78.6715 161.313 78.676C160.782 78.676 160.327 78.864 159.952 79.239C159.77 79.4155 159.625 79.6275 159.528 79.8619C159.431 80.0963 159.382 80.3482 159.386 80.602C159.386 81.139 159.574 81.596 159.947 81.973C160.324 82.352 160.779 82.542 161.314 82.542C161.849 82.542 162.306 82.352 162.683 81.973C163.06 81.594 163.247 81.137 163.247 80.602C163.251 80.3482 163.203 80.0964 163.106 79.862C163.008 79.6275 162.864 79.4155 162.682 79.239ZM162.488 81.787C162.166 82.113 161.773 82.276 161.312 82.276C160.851 82.276 160.458 82.113 160.134 81.787C159.978 81.632 159.855 81.4471 159.773 81.2435C159.69 81.0399 159.65 80.8216 159.654 80.602C159.654 80.142 159.814 79.75 160.138 79.425C160.462 79.099 160.853 78.936 161.312 78.936C161.771 78.936 162.164 79.099 162.488 79.425C162.812 79.75 162.972 80.142 162.972 80.602C162.973 81.065 162.812 81.46 162.488 81.787Z" fill="black"/>
<path fill-rule="evenodd" clip-rule="evenodd" d="M162.174 81.6311C162.164 81.6131 162.158 81.5761 162.154 81.5211C162.15 81.4661 162.148 81.4131 162.148 81.3631V81.2081C162.145 81.0892 162.104 80.9742 162.033 80.8791C161.99 80.8207 161.936 80.772 161.873 80.7361C161.81 80.7003 161.74 80.6781 161.668 80.6711C161.776 80.6583 161.881 80.6232 161.975 80.5681C162.114 80.4791 162.184 80.3391 162.184 80.1501C162.184 79.8831 162.075 79.7041 161.856 79.6121C161.733 79.5621 161.54 79.5361 161.276 79.5361H160.534V81.6581H160.907V80.8211H161.202C161.401 80.8211 161.54 80.8441 161.618 80.8891C161.753 80.9681 161.819 81.1301 161.819 81.3761V81.5441L161.827 81.6121L161.831 81.6351C161.833 81.6422 161.835 81.6492 161.837 81.6561H162.187L162.174 81.6311ZM161.6 80.5121C161.485 80.5494 161.365 80.5656 161.245 80.5601H160.907V79.7911H161.225C161.432 79.7911 161.582 79.8171 161.678 79.8701C161.772 79.9231 161.819 80.0261 161.819 80.1811C161.818 80.3441 161.744 80.4551 161.6 80.5121Z" fill="black"/>
</svg>
