<svg width="123" height="44" viewBox="0 0 123 44" fill="none" xmlns="http://www.w3.org/2000/svg">
<path d="M13.5678 43.8187C9.90293 43.6731 6.90449 42.6703 4.55997 40.8077C4.11252 40.4519 3.04632 39.385 2.68861 38.9351C1.73788 37.7396 1.0915 36.5761 0.660371 35.2853C-0.66627 31.3116 0.0165044 26.0973 2.61331 20.3747C4.83672 15.4754 8.26753 10.6163 14.2531 3.88642C15.1348 2.89613 17.7605 0 17.7774 0C17.7837 0 17.6406 0.247881 17.4605 0.549735C15.9042 3.15657 14.5725 6.22717 13.8471 8.88548C12.6817 13.1509 12.8223 16.8114 14.2588 19.6498C15.2497 21.6053 16.9484 23.2991 18.8587 24.2354C22.2029 25.8739 27.0991 26.0094 33.0784 24.632C33.49 24.5366 53.8892 19.1214 78.4101 12.5981C102.931 6.07404 122.997 0.740508 123 0.744899C123.007 0.750557 66.031 25.1309 36.4539 37.7791C31.7699 39.7816 30.5173 40.2874 28.3152 41.0606C22.6861 43.0374 17.6438 43.9806 13.5678 43.8187Z" fill="black"/>
</svg>
