<svg width="8" height="16" viewBox="0 0 8 16" fill="none" xmlns="http://www.w3.org/2000/svg">
<g clip-path="url(#clip0_559_77)">
<path d="M6.32359 16H3.94553C3.2964 16 2.77002 15.4886 2.77002 14.8569C2.77002 14.2253 3.2964 13.7139 3.94553 13.7139H6.32359C6.97376 13.7139 7.50014 14.2253 7.50014 14.8569C7.50014 15.4886 6.97376 16 6.32359 16Z" fill="#E4E2DF"/>
<path d="M5.03453 13.7148H2.65646C2.00733 13.7148 1.48096 13.2034 1.48096 12.5718C1.48096 11.9401 2.00733 11.4287 2.65646 11.4287H5.03453C5.6847 11.4287 6.21108 11.9401 6.21108 12.5718C6.21108 13.2034 5.6847 13.7148 5.03453 13.7148Z" fill="#E4E2DF"/>
<path d="M4.36272 11.4297H1.98466C1.33449 11.4297 0.808105 10.9183 0.808105 10.2866C0.808105 9.65495 1.33449 9.14355 1.98466 9.14355H4.36272C5.01185 9.14355 5.53927 9.65495 5.53927 10.2866C5.53927 10.9183 5.01185 11.4297 4.36272 11.4297Z" fill="#E4E2DF"/>
<path d="M4.05413 9.14454H1.67606C1.02693 9.14454 0.499512 8.63314 0.499512 8.00147C0.499512 7.3698 1.02693 6.8584 1.67606 6.8584H4.05413C4.7043 6.8584 5.23068 7.3698 5.23068 8.00147C5.23068 8.63314 4.7043 9.14454 4.05413 9.14454Z" fill="#E4E2DF"/>
<path d="M4.36272 6.85546H1.98466C1.33449 6.85546 0.808105 6.34406 0.808105 5.71239C0.808105 5.08071 1.33449 4.56931 1.98466 4.56931H4.36272C5.01185 4.56931 5.53927 5.08071 5.53927 5.71239C5.53927 6.34406 5.01185 6.85546 4.36272 6.85546Z" fill="#E4E2DF"/>
<path d="M5.03453 4.5703H2.65646C2.00733 4.5703 1.48096 4.0589 1.48096 3.42723C1.48096 2.79556 2.00733 2.28415 2.65646 2.28415H5.03453C5.6847 2.28415 6.21108 2.79556 6.21108 3.42723C6.21108 4.0589 5.6847 4.5703 5.03453 4.5703Z" fill="#E4E2DF"/>
<path d="M6.32359 -0.000976361L3.94553 -0.000976562C3.2964 -0.000976617 2.77002 0.510424 2.77002 1.14209C2.77002 1.77376 3.2964 2.28517 3.94553 2.28517H6.32359C6.97376 2.28517 7.50014 1.77377 7.50014 1.14209C7.50014 0.510425 6.97376 -0.000976306 6.32359 -0.000976361Z" fill="#E4E2DF"/>
</g>
<defs>
<clipPath id="clip0_559_77">
<rect width="8" height="16" fill="white"/>
</clipPath>
</defs>
</svg>
