<svg width="337" height="227" viewBox="0 0 337 227" fill="none" xmlns="http://www.w3.org/2000/svg">
<path d="M5.50416 115.816C6.75428 104.733 7.69049 93.7844 10.848 83.1985C15.4342 67.8227 23.2956 54.6524 36.4852 45.0663C37.5115 44.3204 38.2287 43.3946 38.6476 42.1942C39.7427 39.0557 40.8955 35.9373 41.9838 32.7966C43.7404 27.7272 46.3976 25.5214 51.6601 25.326C65.4301 24.8146 79.2046 24.8032 92.9819 25.1368C95.2151 25.1909 97.4534 25.232 99.6889 25.2904C102.815 25.3722 105.391 26.5514 107.005 29.3136C107.651 30.4196 108.466 30.7351 109.662 30.7317C121.272 30.6994 132.883 30.6792 144.493 30.7227C146.221 30.7291 146.961 30.1883 146.908 28.3869C146.864 26.9065 147.158 25.4184 147.262 23.9309C147.467 20.9957 148.859 18.9337 151.667 17.9387C153.011 17.4623 153.608 16.7407 153.293 15.1961C151.426 6.04786 157.898 -1.37225 168.788 0.215054C176.918 1.40001 180.481 6.76232 179.175 15.3603C178.989 16.5817 179.089 17.2573 180.358 17.655C184.018 18.8018 185.302 21.6063 185.406 25.1679C185.438 26.2535 185.527 27.3504 185.417 28.4244C185.232 30.2265 185.971 30.7846 187.735 30.769C195.882 30.6968 204.03 30.732 212.178 30.7236C216.794 30.7188 221.411 30.6865 226.028 30.7062C227.14 30.7109 227.949 30.453 228.501 29.3606C229.859 26.6736 232.256 25.5997 235.125 25.2961C240.405 24.737 245.703 24.9625 250.994 24.9325C259.345 24.8852 267.696 24.9001 276.047 24.9611C279.501 24.9864 282.978 24.9839 286.378 25.6993C289.72 26.4023 291.857 28.528 292.946 31.7309C293.907 34.5549 294.851 37.3846 295.8 40.2128C296.329 41.7915 297.101 43.1933 298.555 44.1252C310.255 51.6242 317.96 62.3138 323.107 75.0099C327.035 84.6979 329.05 94.8393 330.105 105.205C331.099 114.979 332.223 124.74 333.193 134.516C333.869 141.326 334.363 148.154 334.972 154.971C335.509 160.977 336.015 166.987 336.673 172.979C337.534 180.818 336.194 188.331 332.938 195.388C324.755 213.123 310.555 223.332 291.517 226.223C271.351 229.286 254.303 222.856 241.083 207.083C232.266 196.563 224.539 185.222 216.548 174.082C214.492 171.214 212.449 168.335 210.338 165.508C208.38 162.886 205.737 161.603 202.432 161.669C178.537 162.147 154.638 161.803 130.741 161.896C127.18 161.91 124.715 163.524 122.872 166.437C115.685 177.792 108.619 189.225 100.84 200.195C94.4308 209.234 87.0062 217.18 76.767 221.884C62.4615 228.456 47.9277 228.615 33.3088 222.828C18.8579 217.107 8.5942 207.155 2.87834 192.64C-0.156227 184.934 -0.393314 176.927 0.365201 168.801C1.06439 161.311 1.56816 153.802 2.28037 146.313C3.07562 137.951 4.00496 129.601 4.88492 121.247C5.06937 119.496 5.29288 117.749 5.50416 115.816ZM141.099 147.901C147.479 147.827 153.858 147.709 160.237 147.688C175.039 147.639 189.841 147.69 204.641 147.579C208.411 147.551 211.069 148.984 213.138 152.109C218.119 159.635 223.212 167.088 228.323 174.527C234.471 183.477 240.457 192.555 247.759 200.643C255.814 209.564 265.797 215.04 277.77 216.259C292.245 217.732 305.126 213.687 315.635 203.438C323.339 195.925 327.517 186.697 327.348 175.752C327.262 170.186 326.647 164.652 326.002 159.136C324.948 150.122 323.696 141.13 322.068 132.196C321.518 129.182 321.275 126.107 320.381 122.962C319.792 123.86 319.62 124.64 319.429 125.432C316.651 136.979 317.457 148.582 318.858 160.195C319.531 165.776 320.363 171.32 319.544 176.995C316.369 198.997 294.209 212.562 274.381 208.599C264.097 206.543 255.893 201.055 249.076 193.306C241.929 185.179 235.86 176.252 229.964 167.204C229.629 166.691 229.002 166.195 229.379 165.395C230.334 165.3 231.1 165.791 231.901 166.108C244.637 171.15 257.773 173.14 271.386 171.113C283.393 169.325 294.077 164.741 302.491 155.692C305.081 152.907 307.296 149.829 308.944 145.829C299.28 156.598 278.398 164.857 269.797 161.474C270.366 160.737 271.226 160.753 271.955 160.537C282.466 157.423 291.99 152.604 299.726 144.634C305.244 138.949 309.229 132.301 312.254 125.028C316.798 114.102 319.032 102.745 317.026 91.0202C314.103 73.9411 305.661 60.2655 290.573 51.1205C281.783 45.7929 272.122 43.3704 261.983 42.6862C256.226 42.2976 250.447 42.3223 244.709 43.0681C237.952 43.9463 231.277 45.1509 225.572 49.2784C223.724 50.6157 221.637 51.0394 219.427 51.0689C215.829 51.1167 212.231 51.1673 208.633 51.1833C178.489 51.3177 148.346 51.4372 118.202 51.5883C116.034 51.5992 114.07 51.1099 112.177 50.0529C108.499 48.0001 104.714 46.1974 100.617 45.0734C90.7279 42.3602 80.6757 41.8206 70.5578 43.0246C51.4692 45.2961 36.0554 53.5284 26.5812 70.9703C19.6289 83.7692 16.5518 97.3221 19.663 111.773C24.7318 135.316 37.8855 151.829 61.539 158.97C62.7544 159.336 64.1197 159.352 65.131 160.29C52.1888 160.157 41.155 155.321 31.9137 146.415C22.8173 137.648 16.9374 126.977 13.9508 114.256C12.5988 123.493 11.8445 132.333 11.0442 141.168C10.4632 147.581 9.87615 153.994 9.2973 160.408C8.73732 166.612 8.06811 172.816 8.5736 179.059C9.24951 187.406 12.5189 194.757 18.0694 200.872C28.4793 212.339 41.6292 217.451 57.0819 216.422C70.6096 215.522 81.6143 209.537 90.3436 199.311C96.7548 191.8 101.967 183.44 106.999 174.976C110.558 168.989 113.98 162.922 117.577 156.692C116.691 156.922 116.548 157.492 116.256 157.903C107.931 169.632 99.9231 181.598 90.0266 192.129C84.397 198.12 78.3407 203.555 70.5389 206.498C56.8152 211.675 43.783 210.132 32.0037 201.328C23.2251 194.767 18.2465 185.862 18.1701 174.698C18.1134 166.419 19.5326 158.237 20.4116 150.025C20.6059 148.21 20.2638 146.251 21.3494 144.514C22.4344 144.99 22.856 145.971 23.4686 146.744C27.8797 152.309 33.2763 156.669 39.5309 159.994C51.3346 166.267 63.9957 167.036 76.9661 165.825C77.6211 165.764 78.8751 165.437 79.9878 164.96C81.4137 164.349 80.3952 164.756 82.2285 163.941C84.0619 163.127 83.3665 163.252 84.4693 162.923C98.7798 158.657 110.878 150.025 120.125 138.167C121.466 136.446 122.927 135.75 125.114 135.746C153.691 135.694 182.268 135.59 210.845 135.4C213.271 135.384 214.692 136.376 216.049 138.187C224.967 150.089 236.554 158.184 250.862 162.35C251.304 162.479 251.998 162.366 252.138 163.275C249.184 163.491 246.354 162.937 243.53 162.442C231.572 160.344 221.216 155.242 213.406 145.747C211.462 143.383 209.289 142.437 206.4 142.497C201.04 142.61 195.678 142.715 190.316 142.736C170.558 142.81 150.801 142.849 131.043 142.9C126.154 142.913 124.481 144.08 122.766 148.54C128.634 147.236 134.692 148.204 141.099 147.901ZM113.132 42.0664C115.653 43.9155 118.537 44.4533 121.587 44.4521C150.895 44.4411 180.203 44.4476 209.511 44.4169C211.948 44.4143 214.392 44.2521 216.82 44.0262C219.003 43.823 221.035 43.035 222.917 41.9073C223.522 41.5447 223.967 40.9985 223.805 40.2232C223.64 39.4354 222.964 39.4469 222.352 39.4246C221.742 39.4024 221.131 39.4039 220.52 39.4074C209.194 39.4724 197.867 39.5239 186.541 39.6357C163.68 39.8612 140.816 39.7763 117.953 39.82C116.596 39.8226 115.238 39.7938 113.883 39.8442C112.315 39.9026 111.885 40.5627 113.132 42.0664ZM96.8669 32.471C84.0575 31.8206 71.2397 31.9973 58.4233 32.1053C56.5961 32.1207 54.7703 32.3157 52.9443 32.4351C51.8852 32.5044 50.8325 32.7866 50.3389 33.766C49.1895 36.0465 48.5082 38.4914 47.8245 41.406C65.1553 34.2509 82.567 34.299 100.638 38.0328C99.5301 35.6899 100.241 32.9978 96.8669 32.471ZM284.248 33.8397C283.832 32.8123 282.991 32.507 281.969 32.46C279.53 32.3478 277.094 32.1653 274.655 32.0985C263.257 31.7863 251.859 32.0565 240.461 32.1204C236.589 32.1421 235.439 33.4036 235.486 37.6029C252.593 34.1213 269.493 34.4723 286.563 40.9791C285.677 38.2069 285.026 36.1672 284.248 33.8397ZM160.691 23.5358C160.148 23.5366 159.605 23.5335 159.062 23.5388C154.937 23.5791 154.385 24.1419 154.423 28.2628C154.426 28.5342 154.423 28.8057 154.424 29.0771C154.436 31.8053 154.436 31.8102 157.074 31.811C162.435 31.8126 167.796 31.8092 173.157 31.806C177.169 31.8037 177.169 31.8024 177.557 27.9391C177.922 24.3089 177.283 23.5822 173.507 23.5469C169.368 23.5082 165.228 23.5367 160.691 23.5358ZM160.334 16.3984C162.519 17.1293 164.768 16.6123 166.985 16.7266C168.544 16.8071 169.61 16.0446 169.292 14.4199C168.888 12.3516 170.941 9.25709 167.32 8.46726C165.445 8.0583 163.403 8.3788 161.438 8.44064C160.533 8.46911 159.826 9.00079 159.781 9.93393C159.681 12.0122 159.286 14.1185 160.334 16.3984Z" fill="black"/>
<path d="M56.6938 141.958C56.1321 137.673 56.5126 133.532 56.4307 129.399C56.3657 126.121 56.0723 125.784 52.8104 125.77C49.4838 125.756 46.1571 125.74 42.8306 125.718C35.0934 125.666 31.1925 122.746 30.6276 115.104C30.0091 106.735 29.8363 98.2624 30.7912 89.8965C31.6308 82.5407 35.233 79.7284 42.6961 79.6215C46.2935 79.57 49.8913 79.5541 53.4889 79.5171C55.8343 79.493 56.3702 79.0299 56.3982 76.6627C56.4359 73.4732 56.5179 70.2717 56.3025 67.0942C55.8461 60.3632 58.3718 56.6617 66.002 56.0069C73.481 55.365 81.0675 55.698 88.5936 55.9694C94.8209 56.194 98.3845 60.6414 98.6153 67.8286C98.7111 70.8132 98.6405 73.8029 98.6878 76.7896C98.7252 79.1578 99.0875 79.5063 101.428 79.514C106.04 79.5291 110.662 79.3691 115.255 79.8638C120.438 80.4222 124.067 83.8167 124.61 89.0501C125.502 97.638 125.253 106.275 124.816 114.877C124.402 123.035 119.014 125.542 112.644 125.646C108.911 125.707 105.178 125.711 101.445 125.746C99.1957 125.767 98.7134 126.203 98.6717 128.498C98.62 131.349 98.6783 134.201 98.6461 137.052C98.5633 144.38 94.8687 148.059 87.5848 148.194C80.1239 148.332 72.655 148.829 65.2077 148.139C61.3427 147.781 58.2119 146.038 56.6938 141.958ZM81.2922 136.281C82.7152 136.345 84.1376 136.438 85.5613 136.466C90.0024 136.551 91.4446 135.124 91.4492 130.683C91.4541 125.93 91.5232 121.176 91.4294 116.425C91.395 114.68 91.8874 114.01 93.7192 114.066C97.5857 114.186 101.459 114.143 105.328 114.086C107.628 114.052 109.942 114.358 112.226 113.816C114.984 113.162 115.897 112.102 115.905 109.303C115.924 102.921 115.92 96.5384 115.899 90.1562C115.889 87.3187 114.912 86.247 112.143 86.277C106.17 86.3417 100.207 86.0406 94.2405 85.8725C91.498 85.7952 91.591 85.8238 91.4334 83.1688C91.1311 78.0783 91.6062 72.9941 91.4377 67.9066C91.3184 64.3047 90.1711 63.0752 86.6599 63.0587C80.753 63.0308 74.8456 63.0248 68.9388 63.0676C66.0575 63.0885 64.8354 64.0567 64.7254 66.8664C64.5053 72.4899 64.4833 78.1227 64.4736 83.7519C64.4708 85.3404 63.9024 85.8757 62.3259 85.8885C56.1534 85.9385 49.982 86.1052 43.8098 86.2122C40.5959 86.2678 39.8247 87.0133 39.8236 90.1815C39.8214 96.3598 39.8219 102.538 39.8299 108.716C39.8354 112.93 41.0084 114.082 45.3227 114.097C51.0261 114.118 56.7297 114.154 62.4327 114.115C64.0742 114.104 64.7733 114.718 64.7387 116.389C64.6319 121.546 64.6523 126.705 64.5164 131.86C64.4455 134.549 65.858 136.423 68.5201 136.451C72.6539 136.494 76.7896 136.357 81.2922 136.281Z" fill="black"/>
<path d="M230.014 122.002C219.318 122.102 211.222 115.905 209.44 105.812C207.246 93.3789 216.113 83.4983 227.752 82.7588C237.677 82.1282 246.574 88.6368 248.456 98.3266C250.714 109.947 243.386 120.075 231.608 121.781C231.138 121.85 230.669 121.922 230.014 122.002ZM240.379 97.6915C239.833 96.6799 239.374 95.6072 238.724 94.6672C235.642 90.212 231.295 88.2928 226.035 89.2358C220.835 90.1679 217.543 93.4945 216.193 98.6512C215.862 99.9163 215.776 101.209 216.09 102.475C216.272 103.211 216.731 103.869 217.628 103.863C218.424 103.857 218.816 103.277 219.051 102.607C219.206 102.165 219.314 101.698 219.376 101.233C220.152 95.393 226.277 91.6551 231.831 93.7129C235.327 95.0082 237.647 97.3933 238.12 101.242C238.596 105.117 237.287 108.282 234.234 110.73C233.482 111.333 232.433 111.711 232.317 113.234C234.766 113.563 236.393 112.205 237.779 110.738C241.236 107.081 242.242 102.8 240.379 97.6915Z" fill="black"/>
<path d="M275.986 87.5697C286.169 79.7225 299.392 81.5461 305.953 91.8969C310.27 98.708 310.315 106.015 306.097 112.883C301.784 119.905 295.097 122.573 286.958 121.854C277.806 121.045 271.254 113.878 269.74 106.83C268.114 99.261 270.299 92.9238 275.986 87.5697ZM282.013 90.946C278.551 93.0732 276.583 96.1367 276.07 100.185C275.826 102.105 276.431 103.873 277.628 103.869C279.473 103.864 279.406 102.252 279.629 101.063C280.509 96.3746 284.51 93.0708 289.321 93.158C293.795 93.2391 297.66 96.5672 298.375 101.011C299.102 105.53 297.379 108.939 293.589 111.401C293.008 111.778 292.037 112.144 292.595 113.073C293.081 113.882 293.979 113.516 294.629 113.206C297.841 111.674 300.256 109.324 301.155 105.82C302.63 100.07 300.676 95.3275 296.175 91.7372C291.859 88.2936 287.103 88.1826 282.013 90.946Z" fill="black"/>
<path d="M248.627 114.771C261.169 107.976 275.69 114.436 278.507 127.926C280.921 139.488 271.72 150.928 259.919 151.037C249.561 151.133 241.681 145.072 239.597 135.286C237.981 127.699 241.311 118.946 248.627 114.771ZM246.222 132.041C247.72 133.518 248.592 133.343 249.18 131.434C249.32 130.982 249.41 130.513 249.493 130.046C250.326 125.324 253.872 122.327 258.715 122.26C263.404 122.194 267.329 125.315 268.179 129.83C269.011 134.25 267.201 137.593 263.834 140.282C263.273 140.73 262.458 140.928 262.267 141.918C263.268 143.188 264.312 142.314 265.234 141.808C269.939 139.222 272.323 133.56 270.932 128.416C269.34 122.529 263.813 118.015 258.295 118.096C252.672 118.178 247.259 122.468 246.223 127.805C245.975 129.084 245.332 130.429 246.222 132.041Z" fill="black"/>
<path d="M276.365 83.0157C271.613 90.9291 263.94 93.3907 255.665 92.2117C247.489 91.0467 241.362 84.8779 239.639 76.6825C237.422 66.1408 244.934 55.7452 256.04 53.9838C266.67 52.298 276.32 58.8053 278.519 69.3122C279.507 74.034 278.799 78.6154 276.365 83.0157ZM270.88 76.5371C272.062 72.8501 271.234 69.4507 269.367 66.2174C266.554 61.3446 260.996 58.9755 255.432 60.2483C250.472 61.3826 246.37 66.2282 246.086 71.3198C246.006 72.7517 245.826 74.614 247.677 74.7404C249.402 74.8583 249.378 73.036 249.583 71.6876C250.239 67.3655 253.887 64.1881 258.327 64.0046C263.132 63.8061 267.225 66.7212 268.173 71.1191C269.179 75.7806 267.387 79.3098 263.609 82.0025C263.043 82.4056 262.117 82.8474 262.622 83.7341C263.118 84.6067 263.983 84.0859 264.624 83.7952C267.701 82.3997 269.694 80.0175 270.88 76.5371Z" fill="black"/>
<path d="M193.419 116.828C189.152 116.826 185.078 116.695 181.016 116.851C173.93 117.124 171.338 111.835 171.918 106.217C172.576 99.832 175.386 97.4924 181.854 97.5092C186.524 97.5213 191.213 97.0955 195.862 97.8167C199.696 98.4115 201.952 100.802 202.583 104.666C202.791 105.944 202.924 107.215 202.838 108.509C202.498 113.658 199.082 117.25 193.419 116.828ZM191.047 103.346C188.133 103.348 185.219 103.339 182.304 103.36C181.375 103.366 180.377 103.304 179.929 104.44C180.341 105.502 181.251 105.534 182.127 105.539C185.177 105.557 188.227 105.552 191.277 105.532C191.743 105.529 192.222 105.448 192.67 105.318C193.123 105.186 193.614 104.979 193.569 104.378C193.527 103.827 193.091 103.572 192.616 103.461C192.226 103.369 191.811 103.383 191.047 103.346Z" fill="black"/>
<path d="M145.38 97.5225C148.895 97.6578 152.215 97.2617 155.524 97.7868C158.825 98.3108 161.022 100.109 161.779 103.341C162.528 106.535 162.757 109.789 161.156 112.853C159.776 115.493 157.538 116.812 154.565 116.823C149.889 116.841 145.212 116.836 140.536 116.826C135.496 116.816 132.395 114.045 131.851 109.062C131.621 106.95 131.844 104.854 132.409 102.824C133.258 99.7773 135.582 98.4177 138.488 97.8274C140.7 97.378 142.944 97.5587 145.38 97.5225ZM152.243 103.352C148.926 103.35 145.609 103.335 142.293 103.355C141.477 103.359 140.461 103.41 140.47 104.482C140.478 105.409 141.449 105.516 142.183 105.523C145.567 105.555 148.951 105.551 152.335 105.522C153.082 105.515 153.973 105.384 154.031 104.449C154.084 103.595 153.275 103.459 152.243 103.352Z" fill="black"/>
<path d="M55.8009 90.1398C59.1884 90.1171 62.3797 90.1088 65.5706 90.0715C68.1071 90.0418 69.024 89.1746 69.0429 86.6432C69.0836 81.2114 69.1385 75.7777 69.031 70.3478C68.9921 68.3764 69.6114 67.428 71.6276 67.4319C75.9724 67.4404 80.3173 67.396 84.6622 67.3832C86.2992 67.3784 86.8866 68.2302 86.8694 69.8372C86.8095 75.4045 86.8307 80.9728 86.8362 86.5407C86.8395 89.8456 87.0513 90.0506 90.2591 90.0638C96.5022 90.0895 102.745 90.0156 108.984 90.4355C110.744 90.5539 111.352 91.1417 111.319 92.8811C111.235 97.361 111.311 101.844 111.28 106.325C111.261 108.968 110.808 109.437 108.209 109.486C102.372 109.596 96.5351 109.69 90.6976 109.736C86.9845 109.765 86.8539 109.852 86.8502 113.647C86.845 118.943 86.7926 124.24 86.8646 129.535C86.8889 131.322 86.1933 131.928 84.4593 131.897C80.1828 131.821 75.9036 131.824 71.6267 131.882C69.8 131.907 69.0556 131.151 69.0677 129.336C69.1036 123.972 69.0693 118.608 69.0467 113.244C69.0343 110.307 68.5634 109.816 65.5969 109.82C59.3507 109.828 53.107 109.811 46.8635 109.541C45.2777 109.473 44.5628 109.04 44.4838 107.346C44.256 102.458 44.3368 97.5734 44.3923 92.6863C44.4096 91.1626 44.9459 90.3569 46.6803 90.3793C49.6535 90.4176 52.6296 90.2328 55.8009 90.1398ZM78.1972 96.1114C76.5678 95.9357 75.1061 96.4665 73.7738 97.3078C72.0073 98.4232 70.8186 100.033 71.0289 102.178C71.2328 104.257 72.7065 105.493 74.5864 106.245C76.805 107.132 78.9825 106.954 81.0706 105.879C84.7516 103.982 85.0145 99.964 81.6668 97.5187C80.7111 96.8206 79.6383 96.4546 78.1972 96.1114Z" fill="black"/>
</svg>
