<svg width="326" height="227" viewBox="0 0 326 227" fill="none" xmlns="http://www.w3.org/2000/svg">
<path d="M26.5685 226.994C22.3211 226.988 18.2728 227.002 14.2247 226.971C7.86686 226.922 3.39099 223.398 1.28311 217.439C-0.224248 213.178 0.19232 209.334 2.12488 205.362C3.97494 201.56 5.45911 197.582 7.20208 193.726C7.86777 192.253 8.80555 190.903 9.635 189.47C8.52651 189.375 7.34545 189.391 6.21628 189.157C1.56757 188.193 -1.17093 183.987 0.487153 179.598C2.79934 173.478 5.56583 167.528 8.2158 161.539C8.65109 160.555 9.48572 159.748 10.208 158.761C8.9648 158.627 7.74022 158.569 6.54427 158.352C1.61934 157.461 -1.22698 153.13 0.543814 148.466C2.84249 142.412 5.49903 136.48 8.27498 130.626C9.71062 127.598 12.557 125.913 15.7323 124.563C12.952 124.287 10.1707 123.774 7.39164 123.785C2.34453 123.806 -0.318846 120.266 1.6792 115.63C3.32885 111.802 5.21833 108.076 7.04518 104.327C9.40498 99.4831 13.7284 96.7437 18.1248 94.0893C20.274 92.7917 22.4059 91.4654 24.9217 89.9213C24.0815 89.8511 23.6154 89.7514 23.1584 89.7834C18.4604 90.1119 13.7672 90.5297 9.06489 90.7655C7.58399 90.8398 5.97638 90.7175 4.60595 90.2056C1.17531 88.9239 -0.066284 85.5213 1.48057 82.2216C3.19306 78.5686 4.85696 74.8898 6.68942 71.2974C7.54494 69.6203 8.7476 68.1202 9.89197 66.3901C9.3071 66.3901 8.61733 66.4092 7.9289 66.3871C2.1166 66.2004 -1.40022 61.3709 0.638138 55.9215C2.88596 49.9122 5.43217 44.0079 8.04911 38.1475C8.77002 36.5331 10.2076 35.2387 11.4063 33.6803C10.2701 33.6803 9.10602 33.7031 7.94302 33.6764C2.3069 33.547 -1.28241 28.8176 0.695832 23.5933C2.94392 17.6564 5.40436 11.7644 8.28512 6.11421C10.4699 1.82902 14.5721 0.0513442 19.3962 0.0518244C42.4244 0.0541149 65.4526 0.0408145 88.4809 0.036883C160.619 0.0245727 232.756 0.0154462 304.894 3.65966e-07C310.722 -0.00124524 315.113 3.17723 317.238 8.58675C319.221 13.6366 321.381 18.6253 323.668 23.5453C326.093 28.7604 323.315 33.488 317.526 33.6601C316.213 33.6991 314.898 33.6659 313.359 33.6659C318.628 38.8146 319.687 45.8954 322.764 51.9529C323.684 53.7632 324.433 55.7352 324.834 57.7192C325.776 62.3831 322.63 66.1541 317.88 66.3191C316.767 66.3578 315.651 66.3248 314.274 66.3248C318.694 72.0201 320.458 78.7403 323.538 84.8141C323.955 85.6365 324.258 86.5257 324.534 87.409C326.189 92.7081 322.946 97.2725 317.403 97.055C314.665 96.9475 311.954 96.0977 309.234 95.5675C308.096 95.3456 306.967 95.0812 305.77 95.0846C307.835 96.3673 310.121 97.4029 311.904 98.9997C313.832 100.726 315.533 102.827 316.887 105.038C318.327 107.392 319.226 110.075 320.397 112.598C320.898 113.676 321.285 114.902 322.07 115.736C326.821 120.783 324.909 130.025 318.866 133.494C318.644 133.622 318.445 133.789 318.138 134.006C320.073 138.313 322.081 142.545 323.861 146.871C324.525 148.483 325.032 150.333 324.951 152.043C324.782 155.654 321.689 158.21 317.596 158.54C316.742 158.609 315.877 158.551 315.07 158.551C316.483 161.309 317.955 163.967 319.228 166.718C320.895 170.322 322.471 173.971 323.968 177.649C326.823 184.665 323.706 189.263 316.115 189.344C315.866 189.347 315.618 189.376 315.653 189.374C318.362 195.409 321.217 201.415 323.773 207.546C327.749 217.088 320.916 227 310.47 227C275.695 226.999 240.92 226.968 206.145 226.968C146.353 226.969 86.5602 226.985 26.5685 226.994ZM284.697 92.9145C284.597 92.8616 284.498 92.8086 284.399 92.7557C284.451 92.8434 284.504 92.9312 284.665 93.2649C285.567 94.1387 286.476 95.0064 287.372 95.8874C290.518 98.9814 292.275 103.283 296.107 105.803C297.537 106.743 298.914 107.853 300.056 109.12C301.971 111.245 303.679 113.558 305.775 116.166C307.959 115.78 310.786 115.281 313.752 114.757C312.382 112.023 311.188 109.368 309.737 106.862C309.031 105.643 308.027 104.396 306.843 103.69C301.735 100.644 296.583 97.6504 291.291 94.9441C289.239 93.8948 286.773 93.6563 284.697 92.9145ZM10.9766 114.112C27.8207 105.275 44.6647 96.4394 61.5088 87.6033C61.4186 87.4324 61.3285 87.2615 61.2383 87.0906C54.9654 87.5001 48.692 87.9019 42.4208 88.3358C41.9882 88.3657 41.5402 88.579 41.1533 88.801C35.4732 92.0594 29.9287 95.5839 24.094 98.5352C18.0767 101.579 13.5569 105.737 11.3761 112.211C11.1424 112.904 10.9542 113.614 10.7031 114.105C10.6124 114.134 10.5217 114.162 10.431 114.191C10.5324 114.215 10.6337 114.239 10.9766 114.112ZM199.045 150.7C189.37 149.517 179.695 148.331 170.02 147.151C157.715 145.65 145.41 144.157 133.105 142.655C117.182 140.71 101.259 138.759 85.336 136.813C74.6091 135.503 63.8852 134.166 53.1529 132.901C47.8203 132.272 42.4827 131.543 37.1272 131.295C32.371 131.074 27.5618 131.812 22.8219 131.478C17.522 131.104 14.3266 132.872 12.6197 138.048C11.2012 142.35 9.07353 146.417 7.1212 150.907C8.33208 150.994 9.2866 151.122 10.2413 151.123C28.0912 151.143 45.9412 151.126 63.7912 151.158C108.978 151.239 154.165 151.34 199.71 151.538C201.126 151.538 202.542 151.538 203.958 151.538C203.968 151.394 203.979 151.251 203.989 151.107C202.453 150.988 200.917 150.868 199.045 150.7ZM224.28 37.7239C156.455 37.7189 88.6295 37.7143 20.8041 37.7084C17.3428 37.7081 15.487 39.0244 14.1239 42.2463C12.1384 46.9395 10.0573 51.5922 8.04898 56.2759C7.73577 57.0063 7.59274 57.8097 7.3107 58.7888C110.972 58.7888 214.27 58.7888 317.588 58.7888C317.588 58.4524 317.648 58.2334 317.58 58.0675C315.281 52.4973 313.053 46.8956 310.624 41.3827C309.512 38.8607 307.273 37.7026 304.516 37.7027C277.904 37.7028 251.291 37.7144 224.28 37.7239ZM182.468 181.808C227.508 181.808 272.548 181.808 317.896 181.808C317.491 180.752 317.222 179.95 316.881 179.18C315.14 175.245 313.35 171.331 311.637 167.384C309.972 163.55 308.384 162.448 304.198 162.448C253.229 162.442 202.26 162.442 151.292 162.436C107.557 162.431 63.8215 162.422 20.0864 162.412C16.8115 162.412 14.9528 163.713 13.6797 166.726C12.1852 170.263 10.5871 173.756 9.05173 177.275C8.45274 178.648 7.90211 180.042 7.17175 181.808C65.7257 181.808 123.898 181.808 182.468 181.808ZM316.575 211.652C318.378 211.439 317.182 210.335 316.971 209.843C315.011 205.278 312.946 200.758 310.929 196.218C309.804 193.685 307.808 192.544 305.107 192.541C293.826 192.531 282.545 192.531 271.264 192.532C187.65 192.539 104.036 192.547 20.4224 192.556C16.7275 192.556 15.1577 193.651 13.707 196.991C11.9403 201.06 10.0739 205.084 8.27112 209.137C7.96294 209.83 7.75727 210.568 7.37467 211.653C110.546 211.653 213.371 211.653 316.575 211.652ZM314.25 26.1326C315.154 26.1326 316.058 26.1326 317.198 26.1326C316.923 25.387 316.772 24.9057 316.571 24.4456C314.669 20.0752 312.68 15.74 310.875 11.3297C309.607 8.23021 307.465 6.90306 304.133 6.90392C226.635 6.92386 149.138 6.9041 71.6407 6.89315C54.655 6.89075 37.6692 6.91054 20.6836 6.88042C17.3366 6.87449 15.0153 8.12867 13.75 11.3827C12.6488 14.2147 11.2434 16.9277 9.99362 19.7028C9.08508 21.7203 8.21116 23.7533 7.16662 26.1329C109.673 26.1329 211.765 26.1328 314.25 26.1326ZM164.966 113.967C165.827 113.933 166.691 113.929 167.549 113.857C169.187 113.721 170.375 113.287 170.43 111.188C170.471 109.638 171.139 108.104 171.524 106.563C171.948 104.87 172.93 104.059 174.751 103.704C182.894 102.115 190.873 99.82 198.382 96.2993C209.246 91.2053 219.939 85.7475 230.978 80.3109C228.333 79.5672 225.993 78.8611 223.627 78.2562C220.825 77.5399 217.968 76.2276 215.194 76.363C203.606 76.9283 192.041 77.9644 180.465 78.7825C158.17 80.358 135.873 81.9037 113.577 83.4584C111.523 83.6017 109.467 83.7217 106.887 83.8859C108.614 84.8281 109.832 85.4757 111.034 86.151C124.198 93.546 137.806 99.951 152.674 103.011C156.969 103.895 158.818 105.833 159.444 109.926C160.038 113.807 160.254 113.774 164.213 113.963C164.345 113.969 164.478 113.966 164.966 113.967ZM70.9691 70.684C53.9134 70.6832 36.8577 70.6915 19.8021 70.6708C17.5479 70.668 15.3919 71.2048 14.2224 73.1145C12.1633 76.4771 10.4611 80.0582 8.49801 83.7577C70.2503 79.4887 131.716 75.2396 193.182 70.9904C193.179 70.8882 193.175 70.7859 193.171 70.6836C152.57 70.6836 111.968 70.6836 70.9691 70.684ZM90.0104 116.551C97.2416 120.635 104.94 122.667 113.271 121.641C121.691 120.605 128.884 117.248 134.154 110.238C130.872 108.793 127.666 107.382 124.373 105.933C121.047 111.659 115.955 113.818 109.585 112.881C105.036 112.211 101.556 109.79 99.1678 105.433C99.9987 105.502 100.593 105.732 101.007 105.551C102.088 105.076 103.354 104.627 104.026 103.764C104.437 103.236 104.175 101.764 103.701 101.066C102.918 99.9148 101.626 99.5255 100.174 100.112C99.4133 100.418 98.5842 100.555 97.589 100.821C97.589 98.5715 97.589 96.6193 97.589 94.4943C89.577 92.0541 81.4695 89.6428 72.8414 91.9225C73.7822 101.453 80.6554 111.388 90.0104 116.551ZM246.463 91.2688C241.706 92.2547 236.948 93.2407 232.311 94.2015C232.311 96.6084 232.311 98.5561 232.311 100.659C231.564 100.502 230.994 100.344 230.414 100.271C229.825 100.196 229.22 100.139 228.631 100.189C227.011 100.326 225.416 102.061 225.611 103.56C225.851 105.407 227.175 105.841 228.806 105.763C229.187 105.744 229.569 105.76 230.146 105.76C227.701 110.1 224.153 112.538 219.362 113.05C213.21 113.707 208.364 111.512 205.136 106.085C201.967 107.511 198.913 108.886 195.244 110.538C198.148 112.956 200.565 115.464 203.429 117.256C210.661 121.779 218.622 122.818 226.957 121.253C238.302 119.123 247.358 113.602 253.035 103.301C254.972 99.7864 256.417 96.0305 256.434 91.4287C253.124 91.3544 249.972 91.2836 246.463 91.2688ZM273.501 135C280.041 133.93 286.578 132.844 293.12 131.793C299.399 130.783 305.668 129.698 311.97 128.869C315.023 128.467 317.14 126.628 317.279 123.548C317.383 121.25 317.163 121.05 314.795 121.468C300.194 124.042 285.596 126.639 270.992 129.2C246.523 133.491 222.05 137.758 197.58 142.044C196.438 142.243 195.31 142.518 194.176 142.758C198.274 143.568 202.313 144.171 206.36 144.714C208.517 145.003 210.75 145.628 212.841 145.335C218.802 144.499 224.7 143.218 230.639 142.208C244.808 139.798 258.987 137.444 273.501 135ZM282.419 151.154C294.131 151.154 305.843 151.154 317.981 151.154C315.596 145.809 313.374 140.831 311.165 135.881C285.491 140.135 260.021 144.355 234.551 148.576C234.555 148.825 234.56 149.075 234.564 149.325C241.497 149.927 248.42 150.819 255.366 151.059C264.241 151.366 273.135 151.146 282.419 151.154ZM256.884 71.0745C253.038 71.2659 249.193 71.4572 245.347 71.6486C245.874 72.0152 246.428 72.1737 246.985 72.3177C263.526 76.5916 280.068 80.8656 296.61 85.1361C302.51 86.6592 308.405 88.2026 314.32 89.6648C315.369 89.924 316.505 89.8281 318.012 89.9218C317.406 88.5206 317.055 87.6768 316.679 86.8441C314.963 83.0434 313.195 79.2654 311.533 75.4416C310.004 71.9261 308.234 70.6815 304.384 70.6816C290.589 70.6819 276.793 70.6753 262.997 70.7081C261.08 70.7126 259.165 70.9232 256.884 71.0745ZM237.752 126.752C252.943 121.534 262.655 111.34 266.517 95.5274C264.839 94.7237 263.479 94.0726 262.146 93.4344C258.459 110.172 248.371 121.07 232.056 125.379C215.813 129.668 201.468 126.193 190.775 112.281C190.009 112.561 189.288 112.825 188.003 113.296C190.303 116.085 192.129 119.002 194.607 121.177C202.624 128.216 211.705 132.38 222.736 130.066C227.651 129.035 232.548 127.919 237.752 126.752ZM101.11 128.911C102.152 129.1 103.191 129.311 104.237 129.473C107.376 129.961 110.551 130.98 113.651 130.791C120.227 130.392 126.367 128.213 131.771 124.33C135.842 121.405 139.179 117.808 141.336 113.135C140.465 112.786 139.75 112.499 139.525 112.409C136.753 115.134 134.527 118.074 131.637 120.035C119.147 128.506 105.635 129.246 92.0322 123.457C78.7428 117.801 70.4482 107.564 67.451 93.1927C65.9827 93.8987 64.5185 94.6026 62.5725 95.5382C64.2959 99.516 65.6226 103.572 67.7017 107.197C75.0209 119.959 86.5683 126.491 101.11 128.911ZM30.4579 113.821C28.1316 115.05 25.8052 116.279 23.2102 117.649C28.5993 118.355 33.7167 119.025 38.6005 119.664C37.834 116.631 37.0731 113.62 36.3361 110.703C34.5649 111.649 32.6462 112.675 30.4579 113.821ZM291.254 118.956C293.962 118.419 296.669 117.881 299.776 117.265C297.152 114.891 294.806 112.77 292.618 110.791C292.053 113.52 291.509 116.142 291.254 118.956ZM218.596 103.209C219.453 102.916 220.727 102.867 221.075 102.275C221.652 101.293 221.634 99.961 221.97 98.2479C219.629 99.3151 217.995 100.059 216.046 100.948C216.938 101.764 217.641 102.406 218.596 103.209ZM109.392 102.357C111.392 103.415 112.055 103.119 113.251 100.336C111.745 100.016 110.306 99.7115 108.867 99.4065C108.969 100.315 109.071 101.223 109.392 102.357Z" fill="#0A0A0A"/>
</svg>
