<svg width="8" height="16" viewBox="0 0 8 16" fill="none" xmlns="http://www.w3.org/2000/svg">
<g clip-path="url(#clip0_559_85)">
<path d="M1.67641 16H4.05447C4.7036 16 5.22998 15.4886 5.22998 14.8569C5.22998 14.2253 4.7036 13.7139 4.05447 13.7139H1.67641C1.02624 13.7139 0.499861 14.2253 0.499861 14.8569C0.499861 15.4886 1.02624 16 1.67641 16Z" fill="#E4E2DF"/>
<path d="M2.96547 13.7148H5.34354C5.99267 13.7148 6.51904 13.2034 6.51904 12.5718C6.51904 11.9401 5.99267 11.4287 5.34354 11.4287H2.96547C2.3153 11.4287 1.78892 11.9401 1.78892 12.5718C1.78892 13.2034 2.3153 13.7148 2.96547 13.7148Z" fill="#E4E2DF"/>
<path d="M3.63728 11.4297H6.01534C6.66551 11.4297 7.19189 10.9183 7.19189 10.2866C7.19189 9.65495 6.66551 9.14355 6.01534 9.14355H3.63728C2.98815 9.14355 2.46073 9.65495 2.46073 10.2866C2.46073 10.9183 2.98815 11.4297 3.63728 11.4297Z" fill="#E4E2DF"/>
<path d="M3.94587 9.14454H6.32394C6.97307 9.14454 7.50049 8.63314 7.50049 8.00147C7.50049 7.3698 6.97307 6.8584 6.32394 6.8584H3.94587C3.2957 6.8584 2.76932 7.3698 2.76932 8.00147C2.76932 8.63314 3.2957 9.14454 3.94587 9.14454Z" fill="#E4E2DF"/>
<path d="M3.63728 6.85546H6.01534C6.66551 6.85546 7.19189 6.34406 7.19189 5.71239C7.19189 5.08071 6.66551 4.56931 6.01534 4.56931H3.63728C2.98815 4.56931 2.46073 5.08071 2.46073 5.71239C2.46073 6.34406 2.98815 6.85546 3.63728 6.85546Z" fill="#E4E2DF"/>
<path d="M2.96547 4.5703H5.34354C5.99267 4.5703 6.51904 4.0589 6.51904 3.42723C6.51904 2.79556 5.99267 2.28415 5.34354 2.28415H2.96547C2.3153 2.28415 1.78892 2.79556 1.78892 3.42723C1.78892 4.0589 2.3153 4.5703 2.96547 4.5703Z" fill="#E4E2DF"/>
<path d="M1.67641 -0.000976361L4.05447 -0.000976562C4.7036 -0.000976617 5.22998 0.510424 5.22998 1.14209C5.22998 1.77376 4.7036 2.28517 4.05447 2.28517H1.67641C1.02624 2.28517 0.499861 1.77377 0.499861 1.14209C0.499861 0.510425 1.02624 -0.000976306 1.67641 -0.000976361Z" fill="#E4E2DF"/>
</g>
<defs>
<clipPath id="clip0_559_85">
<rect width="8" height="16" fill="white" transform="matrix(-1 0 0 1 8 0)"/>
</clipPath>
</defs>
</svg>
